%TF.GenerationSoftware,KiCad,Pcbnew,10.0.3*%
%TF.CreationDate,2026-06-07T20:55:32-04:00*%
%TF.ProjectId,pommepad,706f6d6d-6570-4616-942e-6b696361645f,rev?*%
%TF.SameCoordinates,Original*%
%TF.FileFunction,Soldermask,Bot*%
%TF.FilePolarity,Negative*%
%FSLAX46Y46*%
G04 Gerber Fmt 4.6, Leading zero omitted, Abs format (unit mm)*
G04 Created by KiCad (PCBNEW 10.0.3) date 2026-06-07 20:55:32*
%MOMM*%
%LPD*%
G01*
G04 APERTURE LIST*
G04 Aperture macros list*
%AMRoundRect*
0 Rectangle with rounded corners*
0 $1 Rounding radius*
0 $2 $3 $4 $5 $6 $7 $8 $9 X,Y pos of 4 corners*
0 Add a 4 corners polygon primitive as box body*
4,1,4,$2,$3,$4,$5,$6,$7,$8,$9,$2,$3,0*
0 Add four circle primitives for the rounded corners*
1,1,$1+$1,$2,$3*
1,1,$1+$1,$4,$5*
1,1,$1+$1,$6,$7*
1,1,$1+$1,$8,$9*
0 Add four rect primitives between the rounded corners*
20,1,$1+$1,$2,$3,$4,$5,0*
20,1,$1+$1,$4,$5,$6,$7,0*
20,1,$1+$1,$6,$7,$8,$9,0*
20,1,$1+$1,$8,$9,$2,$3,0*%
G04 Aperture macros list end*
%ADD10RoundRect,0.082000X0.718000X-0.328000X0.718000X0.328000X-0.718000X0.328000X-0.718000X-0.328000X0*%
%ADD11C,1.700000*%
%ADD12C,4.000000*%
%ADD13C,2.200000*%
%ADD14C,3.200000*%
%ADD15RoundRect,0.082000X-0.718000X0.328000X-0.718000X-0.328000X0.718000X-0.328000X0.718000X0.328000X0*%
%ADD16RoundRect,0.170000X0.680000X-0.680000X0.680000X0.680000X-0.680000X0.680000X-0.680000X-0.680000X0*%
%ADD17RoundRect,0.250000X0.550000X-0.550000X0.550000X0.550000X-0.550000X0.550000X-0.550000X-0.550000X0*%
%ADD18C,1.600000*%
%ADD19RoundRect,0.152400X0.609600X-1.063600X0.609600X1.063600X-0.609600X1.063600X-0.609600X-1.063600X0*%
%ADD20C,1.524000*%
%ADD21RoundRect,0.152400X-0.609600X1.063600X-0.609600X-1.063600X0.609600X-1.063600X0.609600X1.063600X0*%
G04 APERTURE END LIST*
D10*
%TO.C,D7*%
X69756999Y-91507242D03*
X69756999Y-90007242D03*
X64556999Y-90007242D03*
X64556999Y-91507242D03*
%TD*%
D11*
%TO.C,SW5*%
X81259500Y-105420000D03*
D12*
X86339500Y-105420000D03*
D11*
X91419500Y-105420000D03*
D13*
X88879500Y-100340000D03*
X82529500Y-102880000D03*
%TD*%
D11*
%TO.C,SW6*%
X100314300Y-105415200D03*
D12*
X105394300Y-105415200D03*
D11*
X110474300Y-105415200D03*
D13*
X107934300Y-100335200D03*
X101584300Y-102875200D03*
%TD*%
D11*
%TO.C,SW3*%
X100309500Y-86370000D03*
D12*
X105389500Y-86370000D03*
D11*
X110469500Y-86370000D03*
D13*
X107929500Y-81290000D03*
X101579500Y-83830000D03*
%TD*%
D14*
%TO.C,REF\u002A\u002A*%
X49380000Y-49250000D03*
%TD*%
D11*
%TO.C,SW2*%
X81259500Y-86370000D03*
D12*
X86339500Y-86370000D03*
D11*
X91419500Y-86370000D03*
D13*
X88879500Y-81290000D03*
X82529500Y-83830000D03*
%TD*%
D15*
%TO.C,D11*%
X83587001Y-108951558D03*
X83587001Y-110451558D03*
X88787001Y-110451558D03*
X88787001Y-108951558D03*
%TD*%
D11*
%TO.C,SW1*%
X62209500Y-86370000D03*
D12*
X67289500Y-86370000D03*
D11*
X72369500Y-86370000D03*
D13*
X69829500Y-81290000D03*
X63479500Y-83830000D03*
%TD*%
D14*
%TO.C,REF\u002A\u002A*%
X127130000Y-49250000D03*
%TD*%
D10*
%TO.C,D9*%
X108166999Y-91667242D03*
X108166999Y-90167242D03*
X102966999Y-90167242D03*
X102966999Y-91667242D03*
%TD*%
D16*
%TO.C,U2*%
X79459500Y-67730000D03*
D11*
X79459500Y-65190000D03*
X79459500Y-62650000D03*
X79459500Y-60110000D03*
%TD*%
D15*
%TO.C,D10*%
X102876801Y-108929258D03*
X102876801Y-110429258D03*
X108076801Y-110429258D03*
X108076801Y-108929258D03*
%TD*%
%TO.C,D12*%
X64567001Y-109051558D03*
X64567001Y-110551558D03*
X69767001Y-110551558D03*
X69767001Y-109051558D03*
%TD*%
D14*
%TO.C,REF\u002A\u002A*%
X126910000Y-122090000D03*
%TD*%
D10*
%TO.C,D8*%
X88896999Y-91617242D03*
X88896999Y-90117242D03*
X83696999Y-90117242D03*
X83696999Y-91617242D03*
%TD*%
D11*
%TO.C,SW4*%
X62209500Y-105420000D03*
D12*
X67289500Y-105420000D03*
D11*
X72369500Y-105420000D03*
D13*
X69829500Y-100340000D03*
X63479500Y-102880000D03*
%TD*%
D14*
%TO.C,REF\u002A\u002A*%
X50020000Y-121880000D03*
%TD*%
D17*
%TO.C,D5*%
X76814500Y-110641600D03*
D18*
X76814500Y-103021600D03*
%TD*%
D17*
%TO.C,D1*%
X57707000Y-91471600D03*
D18*
X57707000Y-83851600D03*
%TD*%
D17*
%TO.C,D3*%
X95847000Y-91581600D03*
D18*
X95847000Y-83961600D03*
%TD*%
D19*
%TO.C,U1*%
X56220000Y-55425000D03*
D20*
X56220000Y-56260000D03*
D19*
X58760000Y-55425000D03*
D20*
X58760000Y-56260000D03*
D19*
X61300000Y-55425000D03*
D20*
X61300000Y-56260000D03*
D19*
X63840000Y-55425000D03*
D20*
X63840000Y-56260000D03*
D19*
X66380000Y-55425000D03*
D20*
X66380000Y-56260000D03*
D19*
X68920000Y-55425000D03*
D20*
X68920000Y-56260000D03*
D19*
X71460000Y-55425000D03*
D20*
X71460000Y-56260000D03*
X71460000Y-71500000D03*
D21*
X71460000Y-72335000D03*
D20*
X68920000Y-71500000D03*
D21*
X68920000Y-72335000D03*
D20*
X66380000Y-71500000D03*
D21*
X66380000Y-72335000D03*
D20*
X63840000Y-71500000D03*
D21*
X63840000Y-72335000D03*
D20*
X61300000Y-71500000D03*
D21*
X61300000Y-72335000D03*
D20*
X58760000Y-71500000D03*
D21*
X58760000Y-72335000D03*
D20*
X56220000Y-71500000D03*
D21*
X56220000Y-72335000D03*
%TD*%
D17*
%TO.C,D2*%
X76814500Y-91551600D03*
D18*
X76814500Y-83931600D03*
%TD*%
D17*
%TO.C,D4*%
X57767000Y-110581600D03*
D18*
X57767000Y-102961600D03*
%TD*%
D17*
%TO.C,D6*%
X95947000Y-110461600D03*
D18*
X95947000Y-102841600D03*
%TD*%
M02*
