%TF.GenerationSoftware,KiCad,Pcbnew,10.0.3*%
%TF.CreationDate,2026-06-07T20:55:32-04:00*%
%TF.ProjectId,pommepad,706f6d6d-6570-4616-942e-6b696361645f,rev?*%
%TF.SameCoordinates,Original*%
%TF.FileFunction,Copper,L2,Bot*%
%TF.FilePolarity,Positive*%
%FSLAX46Y46*%
G04 Gerber Fmt 4.6, Leading zero omitted, Abs format (unit mm)*
G04 Created by KiCad (PCBNEW 10.0.3) date 2026-06-07 20:55:32*
%MOMM*%
%LPD*%
G01*
G04 APERTURE LIST*
G04 Aperture macros list*
%AMRoundRect*
0 Rectangle with rounded corners*
0 $1 Rounding radius*
0 $2 $3 $4 $5 $6 $7 $8 $9 X,Y pos of 4 corners*
0 Add a 4 corners polygon primitive as box body*
4,1,4,$2,$3,$4,$5,$6,$7,$8,$9,$2,$3,0*
0 Add four circle primitives for the rounded corners*
1,1,$1+$1,$2,$3*
1,1,$1+$1,$4,$5*
1,1,$1+$1,$6,$7*
1,1,$1+$1,$8,$9*
0 Add four rect primitives between the rounded corners*
20,1,$1+$1,$2,$3,$4,$5,0*
20,1,$1+$1,$4,$5,$6,$7,0*
20,1,$1+$1,$6,$7,$8,$9,0*
20,1,$1+$1,$8,$9,$2,$3,0*%
G04 Aperture macros list end*
%TA.AperFunction,SMDPad,CuDef*%
%ADD10RoundRect,0.082000X0.718000X-0.328000X0.718000X0.328000X-0.718000X0.328000X-0.718000X-0.328000X0*%
%TD*%
%TA.AperFunction,ComponentPad*%
%ADD11C,2.200000*%
%TD*%
%TA.AperFunction,SMDPad,CuDef*%
%ADD12RoundRect,0.082000X-0.718000X0.328000X-0.718000X-0.328000X0.718000X-0.328000X0.718000X0.328000X0*%
%TD*%
%TA.AperFunction,ComponentPad*%
%ADD13RoundRect,0.170000X0.680000X-0.680000X0.680000X0.680000X-0.680000X0.680000X-0.680000X-0.680000X0*%
%TD*%
%TA.AperFunction,ComponentPad*%
%ADD14C,1.700000*%
%TD*%
%TA.AperFunction,ComponentPad*%
%ADD15RoundRect,0.250000X0.550000X-0.550000X0.550000X0.550000X-0.550000X0.550000X-0.550000X-0.550000X0*%
%TD*%
%TA.AperFunction,ComponentPad*%
%ADD16C,1.600000*%
%TD*%
%TA.AperFunction,SMDPad,CuDef*%
%ADD17RoundRect,0.152400X0.609600X-1.063600X0.609600X1.063600X-0.609600X1.063600X-0.609600X-1.063600X0*%
%TD*%
%TA.AperFunction,ComponentPad*%
%ADD18C,1.524000*%
%TD*%
%TA.AperFunction,SMDPad,CuDef*%
%ADD19RoundRect,0.152400X-0.609600X1.063600X-0.609600X-1.063600X0.609600X-1.063600X0.609600X1.063600X0*%
%TD*%
%TA.AperFunction,ViaPad*%
%ADD20C,0.600000*%
%TD*%
%TA.AperFunction,Conductor*%
%ADD21C,0.500000*%
%TD*%
%TA.AperFunction,Conductor*%
%ADD22C,0.200000*%
%TD*%
G04 APERTURE END LIST*
D10*
%TO.P,D7,1,VDD*%
%TO.N,5V*%
X69756999Y-91507242D03*
%TO.P,D7,2,DOUT*%
%TO.N,Net-(D7-DOUT)*%
X69756999Y-90007242D03*
%TO.P,D7,3,VSS*%
%TO.N,GND*%
X64556999Y-90007242D03*
%TO.P,D7,4,DIN*%
%TO.N,Net-(D7-DIN)*%
X64556999Y-91507242D03*
%TD*%
D11*
%TO.P,SW5,1,1*%
%TO.N,COL2*%
X88879500Y-100340000D03*
%TO.P,SW5,2,2*%
%TO.N,Net-(D5-A)*%
X82529500Y-102880000D03*
%TD*%
%TO.P,SW6,1,1*%
%TO.N,COL3*%
X107934300Y-100335200D03*
%TO.P,SW6,2,2*%
%TO.N,Net-(D6-A)*%
X101584300Y-102875200D03*
%TD*%
%TO.P,SW3,1,1*%
%TO.N,COL3*%
X107929500Y-81290000D03*
%TO.P,SW3,2,2*%
%TO.N,Net-(D3-A)*%
X101579500Y-83830000D03*
%TD*%
%TO.P,SW2,1,1*%
%TO.N,COL2*%
X88879500Y-81290000D03*
%TO.P,SW2,2,2*%
%TO.N,Net-(D2-A)*%
X82529500Y-83830000D03*
%TD*%
D12*
%TO.P,D11,1,VDD*%
%TO.N,5V*%
X83587001Y-108951558D03*
%TO.P,D11,2,DOUT*%
%TO.N,Net-(D11-DOUT)*%
X83587001Y-110451558D03*
%TO.P,D11,3,VSS*%
%TO.N,GND*%
X88787001Y-110451558D03*
%TO.P,D11,4,DIN*%
%TO.N,Net-(D10-DOUT)*%
X88787001Y-108951558D03*
%TD*%
D11*
%TO.P,SW1,1,1*%
%TO.N,COL1*%
X69829500Y-81290000D03*
%TO.P,SW1,2,2*%
%TO.N,Net-(D1-A)*%
X63479500Y-83830000D03*
%TD*%
D10*
%TO.P,D9,1,VDD*%
%TO.N,5V*%
X108166999Y-91667242D03*
%TO.P,D9,2,DOUT*%
%TO.N,Net-(D10-DIN)*%
X108166999Y-90167242D03*
%TO.P,D9,3,VSS*%
%TO.N,GND*%
X102966999Y-90167242D03*
%TO.P,D9,4,DIN*%
%TO.N,Net-(D8-DOUT)*%
X102966999Y-91667242D03*
%TD*%
D13*
%TO.P,U2,1,GND*%
%TO.N,GND*%
X79459500Y-67730000D03*
D14*
%TO.P,U2,2,VCC*%
%TO.N,VCC*%
X79459500Y-65190000D03*
%TO.P,U2,3,SCL*%
%TO.N,SCL*%
X79459500Y-62650000D03*
%TO.P,U2,4,SDA*%
%TO.N,SDA*%
X79459500Y-60110000D03*
%TD*%
D12*
%TO.P,D10,1,VDD*%
%TO.N,5V*%
X102876801Y-108929258D03*
%TO.P,D10,2,DOUT*%
%TO.N,Net-(D10-DOUT)*%
X102876801Y-110429258D03*
%TO.P,D10,3,VSS*%
%TO.N,GND*%
X108076801Y-110429258D03*
%TO.P,D10,4,DIN*%
%TO.N,Net-(D10-DIN)*%
X108076801Y-108929258D03*
%TD*%
%TO.P,D12,1,VDD*%
%TO.N,5V*%
X64567001Y-109051558D03*
%TO.P,D12,2,DOUT*%
%TO.N,unconnected-(D12-DOUT-Pad2)*%
X64567001Y-110551558D03*
%TO.P,D12,3,VSS*%
%TO.N,GND*%
X69767001Y-110551558D03*
%TO.P,D12,4,DIN*%
%TO.N,Net-(D11-DOUT)*%
X69767001Y-109051558D03*
%TD*%
D10*
%TO.P,D8,1,VDD*%
%TO.N,5V*%
X88896999Y-91617242D03*
%TO.P,D8,2,DOUT*%
%TO.N,Net-(D8-DOUT)*%
X88896999Y-90117242D03*
%TO.P,D8,3,VSS*%
%TO.N,GND*%
X83696999Y-90117242D03*
%TO.P,D8,4,DIN*%
%TO.N,Net-(D7-DOUT)*%
X83696999Y-91617242D03*
%TD*%
D11*
%TO.P,SW4,1,1*%
%TO.N,COL1*%
X69829500Y-100340000D03*
%TO.P,SW4,2,2*%
%TO.N,Net-(D4-A)*%
X63479500Y-102880000D03*
%TD*%
D15*
%TO.P,D5,1,K*%
%TO.N,ROW2*%
X76814500Y-110641600D03*
D16*
%TO.P,D5,2,A*%
%TO.N,Net-(D5-A)*%
X76814500Y-103021600D03*
%TD*%
D15*
%TO.P,D1,1,K*%
%TO.N,ROW1*%
X57707000Y-91471600D03*
D16*
%TO.P,D1,2,A*%
%TO.N,Net-(D1-A)*%
X57707000Y-83851600D03*
%TD*%
D15*
%TO.P,D3,1,K*%
%TO.N,ROW1*%
X95847000Y-91581600D03*
D16*
%TO.P,D3,2,A*%
%TO.N,Net-(D3-A)*%
X95847000Y-83961600D03*
%TD*%
D17*
%TO.P,U1,1,GPIO26/ADC0/A0*%
%TO.N,ROW1*%
X56220000Y-55425000D03*
D18*
X56220000Y-56260000D03*
D17*
%TO.P,U1,2,GPIO27/ADC1/A1*%
%TO.N,ROW2*%
X58760000Y-55425000D03*
D18*
X58760000Y-56260000D03*
D17*
%TO.P,U1,3,GPIO28/ADC2/A2*%
%TO.N,COL2*%
X61300000Y-55425000D03*
D18*
X61300000Y-56260000D03*
D17*
%TO.P,U1,4,GPIO29/ADC3/A3*%
%TO.N,COL1*%
X63840000Y-55425000D03*
D18*
X63840000Y-56260000D03*
D17*
%TO.P,U1,5,GPIO6/SDA*%
%TO.N,SDA*%
X66380000Y-55425000D03*
D18*
X66380000Y-56260000D03*
D17*
%TO.P,U1,6,GPIO7/SCL*%
%TO.N,SCL*%
X68920000Y-55425000D03*
D18*
X68920000Y-56260000D03*
D17*
%TO.P,U1,7,GPIO0/TX*%
%TO.N,unconnected-(U1-GPIO0{slash}TX-Pad7)_1*%
X71460000Y-55425000D03*
D18*
X71460000Y-56260000D03*
%TO.P,U1,8,GPIO1/RX*%
%TO.N,unconnected-(U1-GPIO1{slash}RX-Pad8)_1*%
X71460000Y-71500000D03*
D19*
X71460000Y-72335000D03*
D18*
%TO.P,U1,9,GPIO2/SCK*%
%TO.N,unconnected-(U1-GPIO2{slash}SCK-Pad9)*%
X68920000Y-71500000D03*
D19*
X68920000Y-72335000D03*
D18*
%TO.P,U1,10,GPIO4/MISO*%
%TO.N,COL3*%
X66380000Y-71500000D03*
D19*
X66380000Y-72335000D03*
D18*
%TO.P,U1,11,GPIO3/MOSI*%
%TO.N,Net-(D7-DIN)*%
X63840000Y-71500000D03*
D19*
X63840000Y-72335000D03*
D18*
%TO.P,U1,12,3V3*%
%TO.N,VCC*%
X61300000Y-71500000D03*
D19*
X61300000Y-72335000D03*
D18*
%TO.P,U1,13,GND*%
%TO.N,GND*%
X58760000Y-71500000D03*
D19*
X58760000Y-72335000D03*
D18*
%TO.P,U1,14,VBUS*%
%TO.N,5V*%
X56220000Y-71500000D03*
D19*
X56220000Y-72335000D03*
%TD*%
D15*
%TO.P,D2,1,K*%
%TO.N,ROW1*%
X76814500Y-91551600D03*
D16*
%TO.P,D2,2,A*%
%TO.N,Net-(D2-A)*%
X76814500Y-83931600D03*
%TD*%
D15*
%TO.P,D4,1,K*%
%TO.N,ROW2*%
X57767000Y-110581600D03*
D16*
%TO.P,D4,2,A*%
%TO.N,Net-(D4-A)*%
X57767000Y-102961600D03*
%TD*%
D15*
%TO.P,D6,1,K*%
%TO.N,ROW2*%
X95947000Y-110461600D03*
D16*
%TO.P,D6,2,A*%
%TO.N,Net-(D6-A)*%
X95947000Y-102841600D03*
%TD*%
D20*
%TO.N,5V*%
X101086800Y-109568800D03*
X81857000Y-111051100D03*
X100996800Y-111138800D03*
X81857000Y-109851100D03*
%TO.N,GND*%
X75837000Y-114064600D03*
X60324400Y-67802000D03*
X61574400Y-90302000D03*
X60587000Y-75111600D03*
X64023000Y-89413900D03*
X97606800Y-111758800D03*
X78077000Y-97161600D03*
X75837000Y-112501600D03*
X108566800Y-103149300D03*
%TO.N,COL2*%
X69767000Y-77951600D03*
X63956800Y-77883800D03*
X83577000Y-77891600D03*
%TD*%
%TO.N,5V*%
D21*
X98906800Y-113233800D02*
X99617000Y-112523600D01*
D22*
X83587000Y-108951600D02*
X83586500Y-108951100D01*
D21*
X89617000Y-92337300D02*
X89617000Y-93811600D01*
D22*
X56220000Y-71500000D02*
X56220000Y-72335000D01*
X64567000Y-109051600D02*
X64567000Y-109051100D01*
D21*
X56220000Y-72335000D02*
X56227000Y-72342000D01*
D22*
X99766800Y-103039014D02*
X103043300Y-106315514D01*
D21*
X107237000Y-93811600D02*
X107242000Y-93806600D01*
X89617000Y-93811600D02*
X107237000Y-93811600D01*
X81857000Y-111611100D02*
X81857000Y-111051100D01*
D22*
X108167000Y-91667200D02*
X108167000Y-91667300D01*
X102876800Y-108929300D02*
X102876800Y-108928800D01*
D21*
X64567000Y-109051100D02*
X63767000Y-109051100D01*
D22*
X108166999Y-93093733D02*
X99757000Y-101503732D01*
D21*
X63316000Y-111103100D02*
X65464500Y-113251600D01*
X83543600Y-108951100D02*
X83587000Y-108951100D01*
X72061000Y-93811600D02*
X89617000Y-93811600D01*
D22*
X102875800Y-108928800D02*
X102859800Y-108945800D01*
D21*
X80234300Y-113233800D02*
X98906800Y-113233800D01*
X63316000Y-109503100D02*
X63316000Y-111103100D01*
X81047000Y-112421100D02*
X81857000Y-111611100D01*
X102236800Y-109568800D02*
X101086800Y-109568800D01*
X80216500Y-113251600D02*
X80234300Y-113233800D01*
X56227000Y-72342000D02*
X56227000Y-92089900D01*
X63767000Y-109051100D02*
X63316000Y-109503100D01*
D22*
X88897000Y-91617200D02*
X88897000Y-91617300D01*
X108166999Y-91667242D02*
X108166999Y-93093733D01*
D21*
X102876800Y-108928800D02*
X102859800Y-108945800D01*
X82757000Y-108951100D02*
X83543600Y-108951100D01*
X88897000Y-91617300D02*
X89617000Y-92337300D01*
D22*
X102876800Y-108928800D02*
X102875800Y-108928800D01*
X103043300Y-106315514D02*
X103043300Y-108762759D01*
D21*
X57949000Y-93811600D02*
X72061000Y-93811600D01*
X102859800Y-108945800D02*
X102236800Y-109568800D01*
D22*
X99766800Y-101591432D02*
X99766800Y-103039014D01*
X103043300Y-108762759D02*
X102876801Y-108929258D01*
D21*
X69757000Y-91507300D02*
X72061000Y-93811600D01*
X56227000Y-92089900D02*
X57949000Y-93811600D01*
D22*
X83586500Y-108951100D02*
X83543600Y-108951100D01*
D21*
X80216500Y-113251600D02*
X81047000Y-112421100D01*
X99626800Y-112508800D02*
X100996800Y-111138800D01*
X81857000Y-109851100D02*
X82757000Y-108951100D01*
X65464500Y-113251600D02*
X80216500Y-113251600D01*
%TO.N,Net-(D7-DOUT)*%
D22*
X83697000Y-91617300D02*
X83697000Y-91617200D01*
X81232000Y-91617300D02*
X83697000Y-91617300D01*
X81232000Y-91617300D02*
X83697000Y-91617300D01*
X69757000Y-90007200D02*
X69757000Y-90007300D01*
X77156000Y-90007300D02*
X78766000Y-91617300D01*
X69757000Y-90007300D02*
X77156000Y-90007300D01*
X78766000Y-91617300D02*
X81232000Y-91617300D01*
%TO.N,GND*%
X109177801Y-103760301D02*
X108566800Y-103149300D01*
X109177801Y-109418172D02*
X109177801Y-103760301D01*
X58767000Y-73291600D02*
X60587000Y-75111600D01*
X64439300Y-89413900D02*
X64556999Y-89531599D01*
X108076801Y-110429258D02*
X108166715Y-110429258D01*
X69767001Y-110551558D02*
X71717043Y-112501600D01*
X64023000Y-89413900D02*
X64439300Y-89413900D01*
X108166715Y-110429258D02*
X109177801Y-109418172D01*
X64556999Y-89531599D02*
X64556999Y-90007242D01*
X90006543Y-111671100D02*
X97597000Y-111671100D01*
X58767000Y-71507000D02*
X58767000Y-73291600D01*
X58760000Y-71500000D02*
X58767000Y-71507000D01*
X71717043Y-112501600D02*
X75837000Y-112501600D01*
X88787001Y-110451558D02*
X90006543Y-111671100D01*
%TO.N,Net-(D7-DIN)*%
X63840000Y-71500000D02*
X63840000Y-72335000D01*
X63423000Y-88448000D02*
X63423000Y-90502700D01*
X63936000Y-85797700D02*
X63936000Y-87934700D01*
X65366000Y-73755800D02*
X65366000Y-84367900D01*
X63945200Y-72335000D02*
X65366000Y-73755800D01*
X63840000Y-72335000D02*
X63945200Y-72335000D01*
X65366000Y-84367900D02*
X63936000Y-85797700D01*
X63936000Y-87934700D02*
X63423000Y-88448000D01*
X64428000Y-91507200D02*
X64557000Y-91507200D01*
X63423000Y-90502700D02*
X64428000Y-91507200D01*
%TO.N,COL2*%
X62577000Y-76504000D02*
X62577000Y-57431300D01*
X83517000Y-77951600D02*
X83577000Y-77891600D01*
X69767000Y-77951600D02*
X83517000Y-77951600D01*
X61300000Y-55425000D02*
X61300000Y-56260000D01*
X61405700Y-56260000D02*
X61300000Y-56260000D01*
X63956800Y-77883800D02*
X62577000Y-76504000D01*
X62577000Y-57431300D02*
X61405700Y-56260000D01*
%TO.N,COL3*%
X107929500Y-81290000D02*
X107930000Y-81290000D01*
X66380000Y-71500000D02*
X66380000Y-72335000D01*
%TO.N,Net-(D11-DOUT)*%
X83587000Y-110451600D02*
X83587000Y-110451100D01*
X82922000Y-110451100D02*
X83587000Y-110451100D01*
X82922000Y-110451100D02*
X78511000Y-110451100D01*
X72840300Y-109051100D02*
X69767500Y-109051100D01*
X78511000Y-110451100D02*
X77111000Y-109051100D01*
X77111000Y-109051100D02*
X72840300Y-109051100D01*
X72840300Y-109051100D02*
X69767000Y-109051100D01*
X83587000Y-110451100D02*
X82922000Y-110451100D01*
X69767500Y-109051100D02*
X69767000Y-109051600D01*
%TO.N,Net-(D10-DOUT)*%
X102876800Y-110428800D02*
X102136800Y-110428800D01*
X91916000Y-108951100D02*
X88787000Y-108951100D01*
X99035000Y-108951100D02*
X91916000Y-108951100D01*
X100434800Y-110428800D02*
X99044800Y-109038800D01*
X91916000Y-108951100D02*
X88787000Y-108951100D01*
X102136800Y-110428800D02*
X100434800Y-110428800D01*
X102876300Y-110428800D02*
X102876800Y-110429300D01*
X102136800Y-110428800D02*
X102876300Y-110428800D01*
X88787000Y-108951600D02*
X88787000Y-108951100D01*
%TO.N,COL1*%
X63840000Y-55425000D02*
X63840000Y-56260000D01*
X67657000Y-79117500D02*
X67657000Y-59971600D01*
X68960800Y-80421000D02*
X69829500Y-81289700D01*
X63945400Y-56260000D02*
X63840000Y-56260000D01*
X69830000Y-81290000D02*
X68960800Y-80421000D01*
X69829500Y-81289700D02*
X69829500Y-81290000D01*
X68960800Y-80421000D02*
X67657000Y-79117500D01*
X67657000Y-59971600D02*
X63945400Y-56260000D01*
%TO.N,Net-(D10-DIN)*%
X108076801Y-108929258D02*
X108076801Y-104721358D01*
X108077300Y-108928800D02*
X108076800Y-108929300D01*
X104477857Y-101620300D02*
X102776416Y-99918859D01*
X108077800Y-108928800D02*
X108077300Y-108928800D01*
X108741800Y-108928800D02*
X108077800Y-108928800D01*
X108076801Y-104721358D02*
X104975743Y-101620300D01*
X108741800Y-108928800D02*
X108077800Y-108928800D01*
X109267999Y-92559833D02*
X109267999Y-90468242D01*
X108567000Y-90167300D02*
X108167000Y-90167300D01*
X102766616Y-99061216D02*
X109267999Y-92559833D01*
X108167000Y-90167300D02*
X108167000Y-90167200D01*
X108167000Y-90167300D02*
X108567000Y-90167300D01*
X104975743Y-101620300D02*
X104477857Y-101620300D01*
X102776416Y-99918859D02*
X102776416Y-99148916D01*
X108567000Y-90167300D02*
X108967000Y-90167300D01*
X109267999Y-90468242D02*
X108966999Y-90167242D01*
X108966999Y-90167242D02*
X108166999Y-90167242D01*
%TO.N,Net-(D8-DOUT)*%
X88897000Y-90117200D02*
X88897000Y-90117300D01*
X88897000Y-90117300D02*
X96269000Y-90117300D01*
X97819000Y-91667300D02*
X100393000Y-91667300D01*
X100393000Y-91667300D02*
X102967000Y-91667300D01*
X102967000Y-91667300D02*
X102967000Y-91667200D01*
X96269000Y-90117300D02*
X97819000Y-91667300D01*
X100393000Y-91667300D02*
X102967000Y-91667300D01*
%TO.N,VCC*%
X61300000Y-71500000D02*
X61300000Y-72335000D01*
%TO.N,SCL*%
X79459500Y-62650000D02*
X75415000Y-62650000D01*
X79460000Y-62650000D02*
X79459500Y-62650000D01*
X69025000Y-56260000D02*
X68920000Y-56260000D01*
X75415000Y-62650000D02*
X69025000Y-56260000D01*
X68920000Y-56260000D02*
X68920000Y-55425000D01*
%TO.N,SDA*%
X66380000Y-56260000D02*
X66380000Y-55425000D01*
%TO.N,ROW2*%
X55096000Y-107911100D02*
X55096000Y-54138600D01*
X55096000Y-54138600D02*
X55463000Y-53771900D01*
X58760000Y-55425000D02*
X58760000Y-56260000D01*
X57767000Y-110581100D02*
X55096000Y-107911100D01*
X57212000Y-53771900D02*
X58760000Y-55319900D01*
X57767000Y-110581600D02*
X57767000Y-110581100D01*
X55463000Y-53771900D02*
X57212000Y-53771900D01*
X58760000Y-55319900D02*
X58760000Y-55425000D01*
%TO.N,ROW1*%
X57497000Y-75227200D02*
X57497000Y-57431600D01*
X57707000Y-91471600D02*
X58829000Y-90349500D01*
X58829000Y-90349500D02*
X58829000Y-76559300D01*
X56325400Y-56260000D02*
X56220000Y-56260000D01*
X57497000Y-57431600D02*
X56325400Y-56260000D01*
X58829000Y-76559300D02*
X57497000Y-75227200D01*
X56220000Y-56260000D02*
X56220000Y-55425000D01*
%TD*%
%TA.AperFunction,Conductor*%
%TO.N,GND*%
G36*
X75514990Y-109671285D02*
G01*
X75560745Y-109724089D01*
X75570689Y-109793247D01*
X75565658Y-109814599D01*
X75524501Y-109938803D01*
X75524501Y-109938804D01*
X75524500Y-109938804D01*
X75514000Y-110041583D01*
X75514000Y-111241601D01*
X75514001Y-111241618D01*
X75524500Y-111344396D01*
X75524501Y-111344399D01*
X75563324Y-111461558D01*
X75579686Y-111510934D01*
X75671788Y-111660256D01*
X75795844Y-111784312D01*
X75945166Y-111876414D01*
X76111703Y-111931599D01*
X76214491Y-111942100D01*
X77414508Y-111942099D01*
X77517297Y-111931599D01*
X77683834Y-111876414D01*
X77833156Y-111784312D01*
X77957212Y-111660256D01*
X78049314Y-111510934D01*
X78104499Y-111344397D01*
X78115000Y-111241609D01*
X78114999Y-111128234D01*
X78134683Y-111061197D01*
X78187487Y-111015442D01*
X78256645Y-111005498D01*
X78271125Y-111009464D01*
X78271364Y-111008573D01*
X78279213Y-111010676D01*
X78279215Y-111010677D01*
X78431943Y-111051601D01*
X78431946Y-111051601D01*
X78597653Y-111051601D01*
X78597669Y-111051600D01*
X80939152Y-111051600D01*
X80969613Y-111060544D01*
X81000512Y-111067846D01*
X81002897Y-111070317D01*
X81006191Y-111071285D01*
X81026976Y-111095273D01*
X81049027Y-111118125D01*
X81050571Y-111122502D01*
X81051946Y-111124089D01*
X81060769Y-111151409D01*
X81080117Y-111248677D01*
X81073890Y-111318268D01*
X81046181Y-111360549D01*
X80464048Y-111942684D01*
X79941951Y-112464781D01*
X79880628Y-112498266D01*
X79854270Y-112501100D01*
X65826730Y-112501100D01*
X65759691Y-112481415D01*
X65739049Y-112464781D01*
X65331562Y-112057294D01*
X65298077Y-111995971D01*
X65303061Y-111926279D01*
X65344933Y-111870346D01*
X65410397Y-111845929D01*
X65465383Y-111854516D01*
X65541105Y-111884873D01*
X65580523Y-111900675D01*
X65580525Y-111900676D01*
X65759506Y-111936819D01*
X65942074Y-111939966D01*
X66122194Y-111910013D01*
X66293918Y-111847951D01*
X66308872Y-111839237D01*
X66315628Y-111835310D01*
X66315908Y-111835234D01*
X66343695Y-111818996D01*
X66343947Y-111818851D01*
X66347022Y-111818095D01*
X66406258Y-111802058D01*
X66438444Y-111802058D01*
X67895559Y-111802058D01*
X67927745Y-111802058D01*
X67990305Y-111818996D01*
X68024459Y-111838953D01*
X68025705Y-111839574D01*
X68040084Y-111847953D01*
X68211808Y-111910015D01*
X68391929Y-111939968D01*
X68574497Y-111936821D01*
X68753479Y-111900678D01*
X68922962Y-111832733D01*
X69077346Y-111735232D01*
X69087726Y-111725653D01*
X69211527Y-111611398D01*
X69211534Y-111611390D01*
X69286698Y-111511163D01*
X69342667Y-111469339D01*
X69385901Y-111461558D01*
X69517001Y-111461558D01*
X70017001Y-111461558D01*
X70523148Y-111461558D01*
X70636931Y-111446578D01*
X70636936Y-111446576D01*
X70778507Y-111387936D01*
X70778508Y-111387936D01*
X70900087Y-111294644D01*
X70993379Y-111173065D01*
X70993379Y-111173064D01*
X71052019Y-111031493D01*
X71052021Y-111031488D01*
X71067001Y-110917704D01*
X71067001Y-110801558D01*
X70017001Y-110801558D01*
X70017001Y-111461558D01*
X69517001Y-111461558D01*
X69517001Y-110675558D01*
X69536686Y-110608519D01*
X69589490Y-110562764D01*
X69641001Y-110551558D01*
X69767001Y-110551558D01*
X69767001Y-110425558D01*
X69786686Y-110358519D01*
X69839490Y-110312764D01*
X69891001Y-110301558D01*
X71067001Y-110301558D01*
X71067001Y-110185411D01*
X71052021Y-110071627D01*
X71052019Y-110071622D01*
X70993379Y-109930051D01*
X70993376Y-109930046D01*
X70953021Y-109877454D01*
X70942979Y-109851479D01*
X70929925Y-109826879D01*
X70930554Y-109819340D01*
X70927827Y-109812285D01*
X70933422Y-109785004D01*
X70935740Y-109757252D01*
X70941055Y-109747787D01*
X70941865Y-109743840D01*
X70953018Y-109726486D01*
X70973257Y-109700111D01*
X71029686Y-109658910D01*
X71071631Y-109651600D01*
X72761243Y-109651600D01*
X75447951Y-109651600D01*
X75514990Y-109671285D01*
G37*
%TD.AperFunction*%
%TA.AperFunction,Conductor*%
G36*
X94620981Y-109571285D02*
G01*
X94666736Y-109624089D01*
X94676680Y-109693247D01*
X94671650Y-109714592D01*
X94659656Y-109750792D01*
X94657000Y-109758806D01*
X94646500Y-109861583D01*
X94646500Y-111061601D01*
X94646501Y-111061618D01*
X94657000Y-111164396D01*
X94657001Y-111164399D01*
X94712185Y-111330931D01*
X94712187Y-111330936D01*
X94730889Y-111361257D01*
X94804288Y-111480256D01*
X94928344Y-111604312D01*
X95077666Y-111696414D01*
X95244203Y-111751599D01*
X95346991Y-111762100D01*
X96547008Y-111762099D01*
X96649797Y-111751599D01*
X96816334Y-111696414D01*
X96965656Y-111604312D01*
X97089712Y-111480256D01*
X97181814Y-111330934D01*
X97236999Y-111164397D01*
X97247500Y-111061609D01*
X97247499Y-109861592D01*
X97240517Y-109793247D01*
X97236999Y-109758803D01*
X97236998Y-109758800D01*
X97222353Y-109714604D01*
X97219951Y-109644776D01*
X97255683Y-109584734D01*
X97318203Y-109553541D01*
X97340059Y-109551600D01*
X98657003Y-109551600D01*
X98724042Y-109571285D01*
X98744684Y-109587919D01*
X99954278Y-110797513D01*
X99954280Y-110797516D01*
X99971360Y-110814596D01*
X100027817Y-110871054D01*
X100061302Y-110932377D01*
X100060103Y-110949134D01*
X100056317Y-111002068D01*
X100027816Y-111046415D01*
X99043851Y-112030380D01*
X99043844Y-112030388D01*
X99040555Y-112035311D01*
X99025141Y-112054090D01*
X98632251Y-112446981D01*
X98570928Y-112480466D01*
X98544570Y-112483300D01*
X82345530Y-112483300D01*
X82278491Y-112463615D01*
X82232736Y-112410811D01*
X82222792Y-112341653D01*
X82251817Y-112278097D01*
X82257849Y-112271619D01*
X82439952Y-112089516D01*
X82489186Y-112015829D01*
X82522084Y-111966595D01*
X82578658Y-111830013D01*
X82588929Y-111778377D01*
X82607500Y-111685020D01*
X82607500Y-111474051D01*
X82627185Y-111407012D01*
X82679989Y-111361257D01*
X82747682Y-111351112D01*
X82830824Y-111362058D01*
X83968477Y-111362057D01*
X84035516Y-111381742D01*
X84067679Y-111411660D01*
X84107918Y-111465315D01*
X84142475Y-111511395D01*
X84142477Y-111511397D01*
X84142478Y-111511398D01*
X84276650Y-111635224D01*
X84276656Y-111635228D01*
X84276659Y-111635231D01*
X84431042Y-111732732D01*
X84568194Y-111787715D01*
X84600523Y-111800675D01*
X84600525Y-111800676D01*
X84779506Y-111836819D01*
X84962074Y-111839966D01*
X85142194Y-111810013D01*
X85313918Y-111747951D01*
X85328872Y-111739237D01*
X85335628Y-111735310D01*
X85335908Y-111735234D01*
X85363695Y-111718996D01*
X85363947Y-111718851D01*
X85367022Y-111718095D01*
X85426258Y-111702058D01*
X85458444Y-111702058D01*
X86915559Y-111702058D01*
X86947745Y-111702058D01*
X87010305Y-111718996D01*
X87044459Y-111738953D01*
X87045705Y-111739574D01*
X87060084Y-111747953D01*
X87231808Y-111810015D01*
X87411929Y-111839968D01*
X87594497Y-111836821D01*
X87773479Y-111800678D01*
X87942962Y-111732733D01*
X88097346Y-111635232D01*
X88121509Y-111612933D01*
X88231527Y-111511398D01*
X88231534Y-111511390D01*
X88306698Y-111411163D01*
X88362667Y-111369339D01*
X88405901Y-111361558D01*
X88537001Y-111361558D01*
X89037001Y-111361558D01*
X89543148Y-111361558D01*
X89656931Y-111346578D01*
X89656936Y-111346576D01*
X89798507Y-111287936D01*
X89798508Y-111287936D01*
X89920087Y-111194644D01*
X90013379Y-111073065D01*
X90013379Y-111073064D01*
X90072019Y-110931493D01*
X90072021Y-110931488D01*
X90087001Y-110817704D01*
X90087001Y-110701558D01*
X89037001Y-110701558D01*
X89037001Y-111361558D01*
X88537001Y-111361558D01*
X88537001Y-110575558D01*
X88556686Y-110508519D01*
X88609490Y-110462764D01*
X88661001Y-110451558D01*
X88787001Y-110451558D01*
X88787001Y-110325558D01*
X88806686Y-110258519D01*
X88859490Y-110212764D01*
X88911001Y-110201558D01*
X90087001Y-110201558D01*
X90087001Y-110085411D01*
X90072021Y-109971627D01*
X90072019Y-109971622D01*
X90013379Y-109830051D01*
X90013376Y-109830046D01*
X89973021Y-109777454D01*
X89962979Y-109751479D01*
X89949925Y-109726879D01*
X89950554Y-109719340D01*
X89947827Y-109712285D01*
X89953422Y-109685004D01*
X89955740Y-109657252D01*
X89961055Y-109647787D01*
X89961865Y-109643840D01*
X89973018Y-109626486D01*
X89993257Y-109600111D01*
X90049686Y-109558910D01*
X90091631Y-109551600D01*
X91836943Y-109551600D01*
X94553942Y-109551600D01*
X94620981Y-109571285D01*
G37*
%TD.AperFunction*%
%TA.AperFunction,Conductor*%
G36*
X60107376Y-73710971D02*
G01*
X60136440Y-73744511D01*
X60170408Y-73801947D01*
X60170410Y-73801949D01*
X60170412Y-73801952D01*
X60287047Y-73918587D01*
X60287051Y-73918590D01*
X60287053Y-73918592D01*
X60429041Y-74002564D01*
X60470816Y-74014701D01*
X60587447Y-74048586D01*
X60587450Y-74048586D01*
X60587452Y-74048587D01*
X60624466Y-74051500D01*
X60624474Y-74051500D01*
X61852500Y-74051500D01*
X61919539Y-74071185D01*
X61965294Y-74123989D01*
X61976500Y-74175500D01*
X61976500Y-76417330D01*
X61976499Y-76417348D01*
X61976499Y-76583054D01*
X61976498Y-76583054D01*
X62017423Y-76735785D01*
X62046358Y-76785900D01*
X62046359Y-76785904D01*
X62046360Y-76785904D01*
X62096479Y-76872714D01*
X62096481Y-76872717D01*
X62215349Y-76991585D01*
X62215355Y-76991590D01*
X63122225Y-77898460D01*
X63155710Y-77959783D01*
X63156161Y-77961949D01*
X63187061Y-78117291D01*
X63187064Y-78117301D01*
X63247402Y-78262972D01*
X63247409Y-78262985D01*
X63335010Y-78394088D01*
X63335013Y-78394092D01*
X63446507Y-78505586D01*
X63446511Y-78505589D01*
X63577614Y-78593190D01*
X63577627Y-78593197D01*
X63669405Y-78631212D01*
X63723303Y-78653537D01*
X63877953Y-78684299D01*
X63877956Y-78684300D01*
X63877958Y-78684300D01*
X64035644Y-78684300D01*
X64035645Y-78684299D01*
X64190297Y-78653537D01*
X64317148Y-78600994D01*
X64335972Y-78593197D01*
X64335972Y-78593196D01*
X64335979Y-78593194D01*
X64467089Y-78505589D01*
X64474983Y-78497695D01*
X64553819Y-78418860D01*
X64615142Y-78385375D01*
X64684834Y-78390359D01*
X64740767Y-78432231D01*
X64765184Y-78497695D01*
X64765500Y-78506541D01*
X64765500Y-82553189D01*
X64745815Y-82620228D01*
X64693011Y-82665983D01*
X64623853Y-82675927D01*
X64560297Y-82646902D01*
X64553819Y-82640870D01*
X64522154Y-82609205D01*
X64522149Y-82609201D01*
X64318348Y-82461132D01*
X64318347Y-82461131D01*
X64318345Y-82461130D01*
X64248247Y-82425413D01*
X64093883Y-82346760D01*
X63854285Y-82268910D01*
X63605462Y-82229500D01*
X63353538Y-82229500D01*
X63229126Y-82249205D01*
X63104714Y-82268910D01*
X62865116Y-82346760D01*
X62640651Y-82461132D01*
X62436850Y-82609201D01*
X62436845Y-82609205D01*
X62258705Y-82787345D01*
X62258701Y-82787350D01*
X62110632Y-82991151D01*
X61996260Y-83215616D01*
X61975345Y-83279986D01*
X61918410Y-83455215D01*
X61879000Y-83704038D01*
X61879000Y-83955962D01*
X61896104Y-84063951D01*
X61918410Y-84204785D01*
X61996260Y-84444383D01*
X62021930Y-84494762D01*
X62097568Y-84643210D01*
X62110632Y-84668848D01*
X62258701Y-84872649D01*
X62258705Y-84872654D01*
X62258707Y-84872656D01*
X62436844Y-85050793D01*
X62436845Y-85050794D01*
X62436844Y-85050794D01*
X62443161Y-85055383D01*
X62485827Y-85110714D01*
X62491805Y-85180327D01*
X62459199Y-85242122D01*
X62398360Y-85276479D01*
X62350878Y-85278174D01*
X62296111Y-85269500D01*
X62122889Y-85269500D01*
X62083228Y-85275781D01*
X61951802Y-85296597D01*
X61787052Y-85350128D01*
X61632711Y-85428768D01*
X61575789Y-85470125D01*
X61492572Y-85530586D01*
X61492570Y-85530588D01*
X61492569Y-85530588D01*
X61370088Y-85653069D01*
X61370088Y-85653070D01*
X61370086Y-85653072D01*
X61342725Y-85690731D01*
X61268268Y-85793211D01*
X61189628Y-85947552D01*
X61136097Y-86112302D01*
X61109000Y-86283389D01*
X61109000Y-86456611D01*
X61136098Y-86627701D01*
X61189627Y-86792445D01*
X61268268Y-86946788D01*
X61370086Y-87086928D01*
X61492572Y-87209414D01*
X61632712Y-87311232D01*
X61787055Y-87389873D01*
X61951799Y-87443402D01*
X62122889Y-87470500D01*
X62122890Y-87470500D01*
X62296110Y-87470500D01*
X62296111Y-87470500D01*
X62467201Y-87443402D01*
X62631945Y-87389873D01*
X62786288Y-87311232D01*
X62926428Y-87209414D01*
X63048914Y-87086928D01*
X63111183Y-87001222D01*
X63166512Y-86958558D01*
X63236126Y-86952579D01*
X63297920Y-86985185D01*
X63332278Y-87046024D01*
X63335500Y-87074109D01*
X63335500Y-87634725D01*
X63315815Y-87701764D01*
X63299207Y-87722381D01*
X63000411Y-88021352D01*
X63000410Y-88021351D01*
X63000388Y-88021373D01*
X63000385Y-88021377D01*
X62942480Y-88079284D01*
X62942433Y-88079364D01*
X62942373Y-88079425D01*
X62942265Y-88079611D01*
X62942263Y-88079614D01*
X62904014Y-88145907D01*
X62903998Y-88145936D01*
X62863418Y-88216224D01*
X62863362Y-88216357D01*
X62863356Y-88216378D01*
X62863356Y-88216379D01*
X62842724Y-88293464D01*
X62822500Y-88368943D01*
X62822500Y-88369028D01*
X62822476Y-88369118D01*
X62822500Y-88449857D01*
X62822500Y-90423717D01*
X62822480Y-90423792D01*
X62822500Y-90504876D01*
X62822500Y-90581796D01*
X62822509Y-90581871D01*
X62834744Y-90627485D01*
X62843346Y-90659557D01*
X62863423Y-90734484D01*
X62863461Y-90734550D01*
X62863481Y-90734624D01*
X62902625Y-90802385D01*
X62942480Y-90871416D01*
X62942484Y-90871420D01*
X62942574Y-90871537D01*
X62996806Y-90925742D01*
X63059811Y-90988747D01*
X63060064Y-90988969D01*
X63130617Y-91059487D01*
X63220158Y-91148982D01*
X63253659Y-91210296D01*
X63256499Y-91236685D01*
X63256499Y-91873420D01*
X63271490Y-91987296D01*
X63271491Y-91987302D01*
X63271492Y-91987305D01*
X63285048Y-92020031D01*
X63330186Y-92129004D01*
X63330187Y-92129005D01*
X63423555Y-92250686D01*
X63545236Y-92344054D01*
X63686936Y-92402749D01*
X63800822Y-92417742D01*
X64938474Y-92417741D01*
X65005513Y-92437426D01*
X65037676Y-92467344D01*
X65054860Y-92490257D01*
X65112472Y-92567079D01*
X65112474Y-92567081D01*
X65112475Y-92567082D01*
X65246647Y-92690909D01*
X65246654Y-92690914D01*
X65246656Y-92690916D01*
X65401040Y-92788416D01*
X65470873Y-92816412D01*
X65484824Y-92822005D01*
X65539724Y-92865222D01*
X65562544Y-92931260D01*
X65546039Y-92999152D01*
X65495449Y-93047343D01*
X65438682Y-93061100D01*
X58311186Y-93061100D01*
X58281750Y-93052456D01*
X58251770Y-93045938D01*
X58246746Y-93042178D01*
X58244147Y-93041415D01*
X58223513Y-93024790D01*
X58182504Y-92983789D01*
X58149013Y-92922469D01*
X58153991Y-92852777D01*
X58195857Y-92796839D01*
X58261319Y-92772416D01*
X58270177Y-92772099D01*
X58307002Y-92772099D01*
X58307008Y-92772099D01*
X58409797Y-92761599D01*
X58576334Y-92706414D01*
X58725656Y-92614312D01*
X58849712Y-92490256D01*
X58941814Y-92340934D01*
X58996999Y-92174397D01*
X59007500Y-92071609D01*
X59007499Y-91071616D01*
X59027183Y-91004578D01*
X59043810Y-90983943D01*
X59256001Y-90771735D01*
X59307278Y-90720458D01*
X59309253Y-90718583D01*
X59309511Y-90718225D01*
X59309520Y-90718216D01*
X59309526Y-90718204D01*
X59309536Y-90718195D01*
X59309549Y-90718171D01*
X59310027Y-90717509D01*
X59311343Y-90715064D01*
X59350460Y-90647305D01*
X59387315Y-90583468D01*
X59388532Y-90581462D01*
X59388585Y-90581262D01*
X59388587Y-90581260D01*
X59412585Y-90491684D01*
X59429349Y-90429118D01*
X59429495Y-90428592D01*
X59429503Y-90428533D01*
X59429504Y-90428531D01*
X59429500Y-90328888D01*
X59429500Y-76553864D01*
X59429503Y-76480265D01*
X59429500Y-76480253D01*
X59429500Y-76480243D01*
X59408105Y-76400398D01*
X59388585Y-76327536D01*
X59388580Y-76327527D01*
X59388577Y-76327516D01*
X59363800Y-76284603D01*
X59343027Y-76248621D01*
X59343024Y-76248616D01*
X59310229Y-76191807D01*
X59309591Y-76190670D01*
X59309542Y-76190606D01*
X59243306Y-76124370D01*
X59243303Y-76124366D01*
X59243303Y-76124367D01*
X58133815Y-75014794D01*
X58100333Y-74953469D01*
X58097500Y-74927116D01*
X58097500Y-74174999D01*
X58117185Y-74107960D01*
X58169989Y-74062205D01*
X58221500Y-74050999D01*
X59435470Y-74050999D01*
X59435491Y-74050998D01*
X59472466Y-74048089D01*
X59630757Y-74002102D01*
X59772634Y-73918196D01*
X59772643Y-73918189D01*
X59889189Y-73801643D01*
X59889193Y-73801637D01*
X59922976Y-73744514D01*
X59974045Y-73696830D01*
X60042787Y-73684326D01*
X60107376Y-73710971D01*
G37*
%TD.AperFunction*%
%TA.AperFunction,Conductor*%
G36*
X65004654Y-85646563D02*
G01*
X65036677Y-85648856D01*
X65039118Y-85650683D01*
X65042148Y-85651046D01*
X65066911Y-85671492D01*
X65092608Y-85690731D01*
X65093673Y-85693588D01*
X65096026Y-85695531D01*
X65105802Y-85726112D01*
X65117021Y-85756197D01*
X65116652Y-85760054D01*
X65117301Y-85762083D01*
X65113111Y-85797127D01*
X65082101Y-85912859D01*
X65077507Y-85930007D01*
X65077506Y-85930015D01*
X65039000Y-86222486D01*
X65039000Y-86517513D01*
X65071071Y-86761113D01*
X65077507Y-86809993D01*
X65151712Y-87086930D01*
X65153861Y-87094951D01*
X65153864Y-87094961D01*
X65266754Y-87367500D01*
X65266758Y-87367510D01*
X65414261Y-87622993D01*
X65593852Y-87857040D01*
X65593858Y-87857047D01*
X65802452Y-88065641D01*
X65802459Y-88065647D01*
X66036506Y-88245238D01*
X66291989Y-88392741D01*
X66291990Y-88392741D01*
X66291993Y-88392743D01*
X66429881Y-88449858D01*
X66552650Y-88500711D01*
X66564548Y-88505639D01*
X66591899Y-88512967D01*
X66608354Y-88522997D01*
X66626844Y-88528427D01*
X66637569Y-88540805D01*
X66651559Y-88549332D01*
X66659980Y-88566668D01*
X66672599Y-88581231D01*
X66674930Y-88597443D01*
X66682088Y-88612179D01*
X66679800Y-88631313D01*
X66682543Y-88650389D01*
X66675737Y-88665290D01*
X66673793Y-88681554D01*
X66661524Y-88696412D01*
X66653518Y-88713945D01*
X66639736Y-88722802D01*
X66629308Y-88735432D01*
X66610952Y-88741299D01*
X66594740Y-88751719D01*
X66564969Y-88755999D01*
X66562756Y-88756707D01*
X66559805Y-88756742D01*
X66396255Y-88756742D01*
X66333698Y-88739805D01*
X66299600Y-88719881D01*
X66298358Y-88719262D01*
X66283922Y-88710850D01*
X66283919Y-88710849D01*
X66283916Y-88710847D01*
X66112192Y-88648785D01*
X66112189Y-88648784D01*
X66112188Y-88648784D01*
X65932075Y-88618832D01*
X65932071Y-88618832D01*
X65786016Y-88621349D01*
X65749502Y-88621979D01*
X65570520Y-88658122D01*
X65570516Y-88658123D01*
X65401037Y-88726067D01*
X65401036Y-88726068D01*
X65246656Y-88823566D01*
X65246645Y-88823574D01*
X65112472Y-88947401D01*
X65112465Y-88947409D01*
X65037302Y-89047637D01*
X64981333Y-89089461D01*
X64938099Y-89097242D01*
X64806999Y-89097242D01*
X64806999Y-89883242D01*
X64787314Y-89950281D01*
X64734510Y-89996036D01*
X64682999Y-90007242D01*
X64430999Y-90007242D01*
X64363960Y-89987557D01*
X64318205Y-89934753D01*
X64306999Y-89883242D01*
X64306999Y-89097242D01*
X64147500Y-89097242D01*
X64138814Y-89094691D01*
X64129853Y-89095980D01*
X64105812Y-89085001D01*
X64080461Y-89077557D01*
X64074533Y-89070716D01*
X64066297Y-89066955D01*
X64052007Y-89044720D01*
X64034706Y-89024753D01*
X64032418Y-89014238D01*
X64028523Y-89008177D01*
X64023500Y-88973242D01*
X64023500Y-88747972D01*
X64043185Y-88680933D01*
X64059786Y-88660324D01*
X64358588Y-88361347D01*
X64416520Y-88303416D01*
X64416525Y-88303407D01*
X64416622Y-88303278D01*
X64416627Y-88303275D01*
X64455744Y-88235477D01*
X64455745Y-88235476D01*
X64455746Y-88235476D01*
X64455753Y-88235460D01*
X64495577Y-88166484D01*
X64495578Y-88166479D01*
X64495582Y-88166473D01*
X64495641Y-88166331D01*
X64495642Y-88166325D01*
X64495645Y-88166321D01*
X64516704Y-88087633D01*
X64516711Y-88087635D01*
X64516712Y-88087600D01*
X64536500Y-88013757D01*
X64536500Y-88013749D01*
X64536520Y-88013596D01*
X64536524Y-88013582D01*
X64536500Y-87931087D01*
X64536500Y-86097826D01*
X64556185Y-86030787D01*
X64572825Y-86010139D01*
X64905664Y-85677345D01*
X64908337Y-85675886D01*
X64909925Y-85673282D01*
X64938806Y-85659251D01*
X64966986Y-85643867D01*
X64970028Y-85644084D01*
X64972772Y-85642752D01*
X65004654Y-85646563D01*
G37*
%TD.AperFunction*%
%TA.AperFunction,Conductor*%
G36*
X60047468Y-56776627D02*
G01*
X60052191Y-56776127D01*
X60079458Y-56789824D01*
X60107668Y-56801462D01*
X60111555Y-56805948D01*
X60114626Y-56807491D01*
X60136731Y-56835003D01*
X60170408Y-56891947D01*
X60266608Y-56988147D01*
X60279240Y-57002938D01*
X60337019Y-57082464D01*
X60477536Y-57222981D01*
X60638306Y-57339787D01*
X60725149Y-57384035D01*
X60815367Y-57430005D01*
X60815370Y-57430006D01*
X60909866Y-57460709D01*
X61004364Y-57491413D01*
X61200639Y-57522500D01*
X61200640Y-57522500D01*
X61399360Y-57522500D01*
X61399361Y-57522500D01*
X61595636Y-57491413D01*
X61668466Y-57467748D01*
X61683678Y-57467314D01*
X61697937Y-57461996D01*
X61717889Y-57466336D01*
X61738305Y-57465753D01*
X61752393Y-57473842D01*
X61766210Y-57476848D01*
X61794464Y-57497999D01*
X61940181Y-57643716D01*
X61973666Y-57705039D01*
X61976500Y-57731397D01*
X61976500Y-70225406D01*
X61956815Y-70292445D01*
X61904011Y-70338200D01*
X61834853Y-70348144D01*
X61796208Y-70335892D01*
X61784639Y-70329997D01*
X61784629Y-70329993D01*
X61595637Y-70268587D01*
X61497498Y-70253043D01*
X61399361Y-70237500D01*
X61200639Y-70237500D01*
X61135214Y-70247862D01*
X61004362Y-70268587D01*
X60815370Y-70329993D01*
X60815367Y-70329994D01*
X60638305Y-70420213D01*
X60477533Y-70537021D01*
X60337018Y-70677536D01*
X60279239Y-70757061D01*
X60273992Y-70763784D01*
X60270469Y-70767990D01*
X60170408Y-70868053D01*
X60131285Y-70934204D01*
X60124779Y-70941975D01*
X60103798Y-70955964D01*
X60085371Y-70973170D01*
X60075227Y-70975015D01*
X60066647Y-70980736D01*
X60041433Y-70981161D01*
X60016629Y-70985673D01*
X60007097Y-70981740D01*
X59996787Y-70981915D01*
X59975347Y-70968642D01*
X59952040Y-70959027D01*
X59943043Y-70948643D01*
X59937380Y-70945138D01*
X59934161Y-70938393D01*
X59922977Y-70925486D01*
X59889195Y-70868364D01*
X59889192Y-70868360D01*
X59817191Y-70796360D01*
X59197647Y-71415904D01*
X59174208Y-71328429D01*
X59115689Y-71227070D01*
X59032930Y-71144311D01*
X58931571Y-71085792D01*
X58844093Y-71062352D01*
X59458715Y-70447730D01*
X59421432Y-70420641D01*
X59244437Y-70330457D01*
X59055522Y-70269075D01*
X58859321Y-70238000D01*
X58660679Y-70238000D01*
X58464479Y-70269075D01*
X58464476Y-70269075D01*
X58275560Y-70330458D01*
X58271061Y-70332322D01*
X58270393Y-70330710D01*
X58209123Y-70342216D01*
X58144383Y-70315938D01*
X58104127Y-70258831D01*
X58097500Y-70218835D01*
X58097500Y-57541726D01*
X58117185Y-57474687D01*
X58169989Y-57428932D01*
X58239147Y-57418988D01*
X58270532Y-57428943D01*
X58270865Y-57428140D01*
X58275370Y-57430006D01*
X58369866Y-57460709D01*
X58464364Y-57491413D01*
X58660639Y-57522500D01*
X58660640Y-57522500D01*
X58859360Y-57522500D01*
X58859361Y-57522500D01*
X59055636Y-57491413D01*
X59244632Y-57430005D01*
X59421694Y-57339787D01*
X59582464Y-57222981D01*
X59722981Y-57082464D01*
X59780760Y-57002936D01*
X59793389Y-56988148D01*
X59889592Y-56891947D01*
X59923268Y-56835003D01*
X59926738Y-56831763D01*
X59928245Y-56827259D01*
X59952038Y-56808141D01*
X59974337Y-56787321D01*
X59979007Y-56786471D01*
X59982711Y-56783496D01*
X60013062Y-56780276D01*
X60043079Y-56774817D01*
X60047468Y-56776627D01*
G37*
%TD.AperFunction*%
%TA.AperFunction,Conductor*%
G36*
X133624418Y-41260816D02*
G01*
X133824561Y-41275130D01*
X133842063Y-41277647D01*
X134033795Y-41319355D01*
X134050760Y-41324336D01*
X134234611Y-41392909D01*
X134250694Y-41400253D01*
X134367495Y-41464032D01*
X134422908Y-41494290D01*
X134437791Y-41503855D01*
X134594864Y-41621438D01*
X134608235Y-41633024D01*
X134746975Y-41771764D01*
X134758561Y-41785135D01*
X134876144Y-41942208D01*
X134885709Y-41957091D01*
X134979743Y-42129300D01*
X134987093Y-42145394D01*
X135055661Y-42329234D01*
X135060645Y-42346209D01*
X135102351Y-42537931D01*
X135104869Y-42555442D01*
X135119184Y-42755580D01*
X135119500Y-42764427D01*
X135119500Y-128755572D01*
X135119184Y-128764419D01*
X135104869Y-128964557D01*
X135102351Y-128982068D01*
X135060645Y-129173790D01*
X135055661Y-129190765D01*
X134987093Y-129374605D01*
X134979743Y-129390699D01*
X134885709Y-129562908D01*
X134876144Y-129577791D01*
X134758561Y-129734864D01*
X134746975Y-129748235D01*
X134608235Y-129886975D01*
X134594864Y-129898561D01*
X134437791Y-130016144D01*
X134422908Y-130025709D01*
X134250699Y-130119743D01*
X134234605Y-130127093D01*
X134050765Y-130195661D01*
X134033790Y-130200645D01*
X133842068Y-130242351D01*
X133824557Y-130244869D01*
X133643779Y-130257799D01*
X133624417Y-130259184D01*
X133615572Y-130259500D01*
X42624428Y-130259500D01*
X42615582Y-130259184D01*
X42593622Y-130257613D01*
X42415442Y-130244869D01*
X42397931Y-130242351D01*
X42206209Y-130200645D01*
X42189234Y-130195661D01*
X42005394Y-130127093D01*
X41989300Y-130119743D01*
X41817091Y-130025709D01*
X41802208Y-130016144D01*
X41645135Y-129898561D01*
X41631764Y-129886975D01*
X41493024Y-129748235D01*
X41481438Y-129734864D01*
X41363855Y-129577791D01*
X41354290Y-129562908D01*
X41260256Y-129390699D01*
X41252909Y-129374611D01*
X41184336Y-129190760D01*
X41179354Y-129173790D01*
X41137648Y-128982068D01*
X41135130Y-128964556D01*
X41120816Y-128764418D01*
X41120500Y-128755572D01*
X41120500Y-121758711D01*
X48169500Y-121758711D01*
X48169500Y-122001288D01*
X48201161Y-122241785D01*
X48263947Y-122476104D01*
X48350932Y-122686104D01*
X48356776Y-122700212D01*
X48478064Y-122910289D01*
X48478066Y-122910292D01*
X48478067Y-122910293D01*
X48625733Y-123102736D01*
X48625739Y-123102743D01*
X48797256Y-123274260D01*
X48797263Y-123274266D01*
X48910321Y-123361018D01*
X48989711Y-123421936D01*
X49199788Y-123543224D01*
X49395269Y-123624195D01*
X49413948Y-123631932D01*
X49423900Y-123636054D01*
X49658211Y-123698838D01*
X49838586Y-123722584D01*
X49898711Y-123730500D01*
X49898712Y-123730500D01*
X50141289Y-123730500D01*
X50189388Y-123724167D01*
X50381789Y-123698838D01*
X50616100Y-123636054D01*
X50840212Y-123543224D01*
X51050289Y-123421936D01*
X51242738Y-123274265D01*
X51414265Y-123102738D01*
X51561936Y-122910289D01*
X51683224Y-122700212D01*
X51776054Y-122476100D01*
X51838838Y-122241789D01*
X51870500Y-122001288D01*
X51870500Y-121968711D01*
X125059500Y-121968711D01*
X125059500Y-122211288D01*
X125091161Y-122451785D01*
X125153947Y-122686104D01*
X125159788Y-122700205D01*
X125246776Y-122910212D01*
X125368064Y-123120289D01*
X125368066Y-123120292D01*
X125368067Y-123120293D01*
X125515733Y-123312736D01*
X125515739Y-123312743D01*
X125687256Y-123484260D01*
X125687262Y-123484265D01*
X125879711Y-123631936D01*
X126089788Y-123753224D01*
X126313900Y-123846054D01*
X126548211Y-123908838D01*
X126728586Y-123932584D01*
X126788711Y-123940500D01*
X126788712Y-123940500D01*
X127031289Y-123940500D01*
X127079388Y-123934167D01*
X127271789Y-123908838D01*
X127506100Y-123846054D01*
X127730212Y-123753224D01*
X127940289Y-123631936D01*
X128132738Y-123484265D01*
X128304265Y-123312738D01*
X128451936Y-123120289D01*
X128573224Y-122910212D01*
X128666054Y-122686100D01*
X128728838Y-122451789D01*
X128760500Y-122211288D01*
X128760500Y-121968712D01*
X128728838Y-121728211D01*
X128666054Y-121493900D01*
X128573224Y-121269788D01*
X128451936Y-121059711D01*
X128304265Y-120867262D01*
X128304260Y-120867256D01*
X128132743Y-120695739D01*
X128132736Y-120695733D01*
X127940293Y-120548067D01*
X127940292Y-120548066D01*
X127940289Y-120548064D01*
X127730212Y-120426776D01*
X127730205Y-120426773D01*
X127506104Y-120333947D01*
X127271785Y-120271161D01*
X127031289Y-120239500D01*
X127031288Y-120239500D01*
X126788712Y-120239500D01*
X126788711Y-120239500D01*
X126548214Y-120271161D01*
X126313895Y-120333947D01*
X126089794Y-120426773D01*
X126089785Y-120426777D01*
X125879706Y-120548067D01*
X125687263Y-120695733D01*
X125687256Y-120695739D01*
X125515739Y-120867256D01*
X125515733Y-120867263D01*
X125368067Y-121059706D01*
X125246777Y-121269785D01*
X125246773Y-121269794D01*
X125153947Y-121493895D01*
X125091161Y-121728214D01*
X125059500Y-121968711D01*
X51870500Y-121968711D01*
X51870500Y-121758712D01*
X51838838Y-121518211D01*
X51776054Y-121283900D01*
X51683224Y-121059788D01*
X51561936Y-120849711D01*
X51501018Y-120770321D01*
X51414266Y-120657263D01*
X51414260Y-120657256D01*
X51242743Y-120485739D01*
X51242736Y-120485733D01*
X51050293Y-120338067D01*
X51050292Y-120338066D01*
X51050289Y-120338064D01*
X50840212Y-120216776D01*
X50840205Y-120216773D01*
X50616104Y-120123947D01*
X50381785Y-120061161D01*
X50141289Y-120029500D01*
X50141288Y-120029500D01*
X49898712Y-120029500D01*
X49898711Y-120029500D01*
X49658214Y-120061161D01*
X49423895Y-120123947D01*
X49199794Y-120216773D01*
X49199785Y-120216777D01*
X48989706Y-120338067D01*
X48797263Y-120485733D01*
X48797256Y-120485739D01*
X48625739Y-120657256D01*
X48625733Y-120657263D01*
X48478067Y-120849706D01*
X48356777Y-121059785D01*
X48356773Y-121059794D01*
X48263947Y-121283895D01*
X48201161Y-121518214D01*
X48169500Y-121758711D01*
X41120500Y-121758711D01*
X41120500Y-78835812D01*
X41120803Y-78827148D01*
X41126060Y-78752099D01*
X41134527Y-78631206D01*
X41136940Y-78614064D01*
X41139722Y-78600993D01*
X41176925Y-78426185D01*
X41181697Y-78409563D01*
X41247472Y-78229075D01*
X41254514Y-78213279D01*
X41344792Y-78043712D01*
X41353956Y-78029067D01*
X41466982Y-77873725D01*
X41478112Y-77860483D01*
X41531821Y-77804958D01*
X41611666Y-77722412D01*
X41624517Y-77710862D01*
X41776023Y-77592729D01*
X41790362Y-77583080D01*
X41960599Y-77485046D01*
X41968242Y-77480993D01*
X52344130Y-72436138D01*
X52344143Y-72436136D01*
X52403400Y-72407321D01*
X52529273Y-72346143D01*
X52765765Y-72196416D01*
X52984073Y-72021236D01*
X53181471Y-71822790D01*
X53355493Y-71603558D01*
X53503965Y-71366277D01*
X53625035Y-71113910D01*
X53717188Y-70849611D01*
X53779275Y-70576679D01*
X53810520Y-70298524D01*
X53810500Y-70158572D01*
X53810503Y-70092680D01*
X53810500Y-70092668D01*
X53810500Y-58413109D01*
X53810532Y-58275724D01*
X53780430Y-58002607D01*
X53720587Y-57734432D01*
X53631726Y-57474428D01*
X53514915Y-57225723D01*
X53371560Y-56991313D01*
X53203387Y-56774018D01*
X53168159Y-56737573D01*
X53012423Y-56576457D01*
X52800963Y-56401006D01*
X52800961Y-56401004D01*
X52571553Y-56249774D01*
X52556809Y-56242232D01*
X52450254Y-56187726D01*
X52450229Y-56187714D01*
X48832057Y-54335894D01*
X48615850Y-54225237D01*
X54495464Y-54225237D01*
X54495500Y-54225784D01*
X54495500Y-107824060D01*
X54495484Y-107824308D01*
X54495485Y-107832153D01*
X54495485Y-107832155D01*
X54495500Y-107913938D01*
X54495500Y-107990157D01*
X54495513Y-107990209D01*
X54495514Y-107990270D01*
X54495624Y-107990683D01*
X54495625Y-107990685D01*
X54500148Y-108007552D01*
X54513153Y-108056051D01*
X54516247Y-108067587D01*
X54516246Y-108067587D01*
X54516252Y-108067609D01*
X54516253Y-108067609D01*
X54516253Y-108067610D01*
X54536423Y-108142884D01*
X54536452Y-108142935D01*
X54536467Y-108142989D01*
X54536587Y-108143198D01*
X54536588Y-108143199D01*
X54573521Y-108207142D01*
X54573518Y-108207143D01*
X54573532Y-108207160D01*
X54615481Y-108279818D01*
X54615540Y-108279895D01*
X54615548Y-108279903D01*
X54615550Y-108279906D01*
X54668963Y-108333299D01*
X54703812Y-108368148D01*
X54733069Y-108397405D01*
X54733260Y-108397572D01*
X55071802Y-108735987D01*
X56430165Y-110093842D01*
X56463661Y-110155158D01*
X56466500Y-110181539D01*
X56466500Y-111181601D01*
X56466501Y-111181619D01*
X56477000Y-111284396D01*
X56477001Y-111284399D01*
X56532185Y-111450931D01*
X56532187Y-111450936D01*
X56567069Y-111507488D01*
X56624288Y-111600256D01*
X56748344Y-111724312D01*
X56897666Y-111816414D01*
X57064203Y-111871599D01*
X57166991Y-111882100D01*
X58367008Y-111882099D01*
X58469797Y-111871599D01*
X58636334Y-111816414D01*
X58785656Y-111724312D01*
X58909712Y-111600256D01*
X59001814Y-111450934D01*
X59056999Y-111284397D01*
X59067500Y-111181609D01*
X59067499Y-109981592D01*
X59065503Y-109962057D01*
X59056999Y-109878803D01*
X59056998Y-109878800D01*
X59039793Y-109826879D01*
X59001814Y-109712266D01*
X58909712Y-109562944D01*
X58785656Y-109438888D01*
X58636334Y-109346786D01*
X58469797Y-109291601D01*
X58469795Y-109291600D01*
X58367016Y-109281100D01*
X58367009Y-109281100D01*
X57367257Y-109281100D01*
X57300218Y-109261415D01*
X57279592Y-109244798D01*
X57264101Y-109229313D01*
X56431882Y-108397405D01*
X55732835Y-107698620D01*
X55699339Y-107637303D01*
X55696500Y-107610922D01*
X55696500Y-105333389D01*
X61109000Y-105333389D01*
X61109000Y-105506610D01*
X61135337Y-105672901D01*
X61136098Y-105677701D01*
X61189627Y-105842445D01*
X61268268Y-105996788D01*
X61370086Y-106136928D01*
X61492572Y-106259414D01*
X61632712Y-106361232D01*
X61787055Y-106439873D01*
X61951799Y-106493402D01*
X62122889Y-106520500D01*
X62122890Y-106520500D01*
X62296110Y-106520500D01*
X62296111Y-106520500D01*
X62467201Y-106493402D01*
X62631945Y-106439873D01*
X62786288Y-106361232D01*
X62926428Y-106259414D01*
X63048914Y-106136928D01*
X63150732Y-105996788D01*
X63229373Y-105842445D01*
X63282902Y-105677701D01*
X63310000Y-105506611D01*
X63310000Y-105333389D01*
X63282902Y-105162299D01*
X63229373Y-104997555D01*
X63150732Y-104843212D01*
X63048914Y-104703072D01*
X62996982Y-104651140D01*
X62963497Y-104589817D01*
X62968481Y-104520125D01*
X63010353Y-104464192D01*
X63075817Y-104439775D01*
X63104061Y-104440986D01*
X63104712Y-104441089D01*
X63104715Y-104441090D01*
X63353538Y-104480500D01*
X63353539Y-104480500D01*
X63605461Y-104480500D01*
X63605462Y-104480500D01*
X63854285Y-104441090D01*
X64093879Y-104363241D01*
X64318345Y-104248870D01*
X64522156Y-104100793D01*
X64700293Y-103922656D01*
X64848370Y-103718845D01*
X64962741Y-103494379D01*
X65040590Y-103254785D01*
X65080000Y-103005962D01*
X65080000Y-102919248D01*
X75514000Y-102919248D01*
X75514000Y-103123951D01*
X75546022Y-103326134D01*
X75609281Y-103520823D01*
X75671641Y-103643210D01*
X75694880Y-103688819D01*
X75702215Y-103703213D01*
X75822528Y-103868813D01*
X75967286Y-104013571D01*
X76093657Y-104105383D01*
X76132890Y-104133887D01*
X76197521Y-104166818D01*
X76315276Y-104226818D01*
X76315278Y-104226818D01*
X76315281Y-104226820D01*
X76383135Y-104248867D01*
X76509965Y-104290077D01*
X76522877Y-104292122D01*
X76712148Y-104322100D01*
X76712149Y-104322100D01*
X76916851Y-104322100D01*
X76916852Y-104322100D01*
X77119034Y-104290077D01*
X77313719Y-104226820D01*
X77496110Y-104133887D01*
X77589090Y-104066332D01*
X77661713Y-104013571D01*
X77661715Y-104013568D01*
X77661719Y-104013566D01*
X77806466Y-103868819D01*
X77806468Y-103868815D01*
X77806471Y-103868813D01*
X77911422Y-103724358D01*
X77926787Y-103703210D01*
X78019720Y-103520819D01*
X78082977Y-103326134D01*
X78115000Y-103123952D01*
X78115000Y-102919248D01*
X78082977Y-102717066D01*
X78063481Y-102657065D01*
X78019718Y-102522376D01*
X77986003Y-102456207D01*
X77926787Y-102339990D01*
X77883192Y-102279986D01*
X77806471Y-102174386D01*
X77661713Y-102029628D01*
X77496113Y-101909315D01*
X77496112Y-101909314D01*
X77496110Y-101909313D01*
X77439153Y-101880291D01*
X77313723Y-101816381D01*
X77119034Y-101753122D01*
X76944495Y-101725478D01*
X76916852Y-101721100D01*
X76712148Y-101721100D01*
X76687829Y-101724951D01*
X76509965Y-101753122D01*
X76315276Y-101816381D01*
X76132886Y-101909315D01*
X75967286Y-102029628D01*
X75822528Y-102174386D01*
X75702215Y-102339986D01*
X75609281Y-102522376D01*
X75546022Y-102717065D01*
X75514000Y-102919248D01*
X65080000Y-102919248D01*
X65080000Y-102754038D01*
X65040590Y-102505215D01*
X64962741Y-102265621D01*
X64962739Y-102265618D01*
X64962739Y-102265616D01*
X64919051Y-102179875D01*
X64848370Y-102041155D01*
X64752583Y-101909315D01*
X64700298Y-101837350D01*
X64700294Y-101837345D01*
X64522154Y-101659205D01*
X64522149Y-101659201D01*
X64318348Y-101511132D01*
X64318347Y-101511131D01*
X64318345Y-101511130D01*
X64248247Y-101475413D01*
X64093883Y-101396760D01*
X63854285Y-101318910D01*
X63823979Y-101314110D01*
X63605462Y-101279500D01*
X63353538Y-101279500D01*
X63229126Y-101299205D01*
X63104714Y-101318910D01*
X62865116Y-101396760D01*
X62640651Y-101511132D01*
X62436850Y-101659201D01*
X62436845Y-101659205D01*
X62258705Y-101837345D01*
X62258701Y-101837350D01*
X62110632Y-102041151D01*
X61996260Y-102265616D01*
X61918410Y-102505214D01*
X61918410Y-102505215D01*
X61879000Y-102754038D01*
X61879000Y-103005962D01*
X61901201Y-103146134D01*
X61918410Y-103254785D01*
X61996260Y-103494383D01*
X62021930Y-103544762D01*
X62108184Y-103714045D01*
X62110632Y-103718848D01*
X62258701Y-103922649D01*
X62258705Y-103922654D01*
X62258707Y-103922656D01*
X62436844Y-104100793D01*
X62436845Y-104100794D01*
X62436844Y-104100794D01*
X62443161Y-104105383D01*
X62485827Y-104160714D01*
X62491805Y-104230327D01*
X62459199Y-104292122D01*
X62398360Y-104326479D01*
X62350878Y-104328174D01*
X62296111Y-104319500D01*
X62122889Y-104319500D01*
X62083228Y-104325781D01*
X61951802Y-104346597D01*
X61787052Y-104400128D01*
X61632711Y-104478768D01*
X61575789Y-104520125D01*
X61492572Y-104580586D01*
X61492570Y-104580588D01*
X61492569Y-104580588D01*
X61370088Y-104703069D01*
X61370088Y-104703070D01*
X61370086Y-104703072D01*
X61326359Y-104763256D01*
X61268268Y-104843211D01*
X61189628Y-104997552D01*
X61136097Y-105162302D01*
X61109000Y-105333389D01*
X55696500Y-105333389D01*
X55696500Y-102859248D01*
X56466500Y-102859248D01*
X56466500Y-103063951D01*
X56498522Y-103266134D01*
X56561781Y-103460823D01*
X56654715Y-103643213D01*
X56775028Y-103808813D01*
X56919786Y-103953571D01*
X57002371Y-104013571D01*
X57085390Y-104073887D01*
X57156417Y-104110077D01*
X57267776Y-104166818D01*
X57267778Y-104166818D01*
X57267781Y-104166820D01*
X57372137Y-104200727D01*
X57462465Y-104230077D01*
X57530407Y-104240838D01*
X57664648Y-104262100D01*
X57664649Y-104262100D01*
X57869351Y-104262100D01*
X57869352Y-104262100D01*
X58071534Y-104230077D01*
X58266219Y-104166820D01*
X58448610Y-104073887D01*
X58541590Y-104006332D01*
X58614213Y-103953571D01*
X58614215Y-103953568D01*
X58614219Y-103953566D01*
X58758966Y-103808819D01*
X58758968Y-103808815D01*
X58758971Y-103808813D01*
X58824335Y-103718845D01*
X58879287Y-103643210D01*
X58972220Y-103460819D01*
X59035477Y-103266134D01*
X59067500Y-103063952D01*
X59067500Y-102859248D01*
X59035477Y-102657065D01*
X58991715Y-102522381D01*
X58972220Y-102462381D01*
X58972218Y-102462378D01*
X58972218Y-102462376D01*
X58938503Y-102396207D01*
X58879287Y-102279990D01*
X58836284Y-102220801D01*
X58758971Y-102114386D01*
X58614213Y-101969628D01*
X58448613Y-101849315D01*
X58448612Y-101849314D01*
X58448610Y-101849313D01*
X58388020Y-101818441D01*
X58266223Y-101756381D01*
X58071534Y-101693122D01*
X57896995Y-101665478D01*
X57869352Y-101661100D01*
X57664648Y-101661100D01*
X57640329Y-101664951D01*
X57462465Y-101693122D01*
X57267776Y-101756381D01*
X57085386Y-101849315D01*
X56919786Y-101969628D01*
X56775028Y-102114386D01*
X56654715Y-102279986D01*
X56561781Y-102462376D01*
X56498522Y-102657065D01*
X56466500Y-102859248D01*
X55696500Y-102859248D01*
X55696500Y-100214038D01*
X68229000Y-100214038D01*
X68229000Y-100465961D01*
X68268410Y-100714785D01*
X68346260Y-100954383D01*
X68415188Y-101089660D01*
X68458184Y-101174045D01*
X68460632Y-101178848D01*
X68608701Y-101382649D01*
X68608705Y-101382654D01*
X68786845Y-101560794D01*
X68786850Y-101560798D01*
X68924905Y-101661100D01*
X68990655Y-101708870D01*
X69077505Y-101753122D01*
X69215116Y-101823239D01*
X69215118Y-101823239D01*
X69215121Y-101823241D01*
X69454715Y-101901090D01*
X69703538Y-101940500D01*
X69703539Y-101940500D01*
X69955461Y-101940500D01*
X69955462Y-101940500D01*
X70204285Y-101901090D01*
X70443879Y-101823241D01*
X70668345Y-101708870D01*
X70872156Y-101560793D01*
X71050293Y-101382656D01*
X71198370Y-101178845D01*
X71312741Y-100954379D01*
X71390590Y-100714785D01*
X71430000Y-100465962D01*
X71430000Y-100214038D01*
X87279000Y-100214038D01*
X87279000Y-100465961D01*
X87318410Y-100714785D01*
X87396260Y-100954383D01*
X87465188Y-101089660D01*
X87508184Y-101174045D01*
X87510632Y-101178848D01*
X87658701Y-101382649D01*
X87658705Y-101382654D01*
X87836845Y-101560794D01*
X87836850Y-101560798D01*
X87974905Y-101661100D01*
X88040655Y-101708870D01*
X88127505Y-101753122D01*
X88265116Y-101823239D01*
X88265118Y-101823239D01*
X88265121Y-101823241D01*
X88504715Y-101901090D01*
X88753538Y-101940500D01*
X88753539Y-101940500D01*
X89005461Y-101940500D01*
X89005462Y-101940500D01*
X89254285Y-101901090D01*
X89493879Y-101823241D01*
X89718345Y-101708870D01*
X89922156Y-101560793D01*
X90100293Y-101382656D01*
X90248370Y-101178845D01*
X90362741Y-100954379D01*
X90440590Y-100714785D01*
X90480000Y-100465962D01*
X90480000Y-100214038D01*
X90440590Y-99965215D01*
X90362741Y-99725621D01*
X90362739Y-99725618D01*
X90362739Y-99725616D01*
X90308294Y-99618762D01*
X90248370Y-99501155D01*
X90229452Y-99475117D01*
X90100298Y-99297350D01*
X90100294Y-99297345D01*
X89922154Y-99119205D01*
X89922149Y-99119201D01*
X89718348Y-98971132D01*
X89718347Y-98971131D01*
X89718345Y-98971130D01*
X89648247Y-98935413D01*
X89493883Y-98856760D01*
X89254285Y-98778910D01*
X89223979Y-98774110D01*
X89005462Y-98739500D01*
X88753538Y-98739500D01*
X88629126Y-98759205D01*
X88504714Y-98778910D01*
X88265116Y-98856760D01*
X88040651Y-98971132D01*
X87836850Y-99119201D01*
X87836845Y-99119205D01*
X87658705Y-99297345D01*
X87658701Y-99297350D01*
X87510632Y-99501151D01*
X87396260Y-99725616D01*
X87318410Y-99965214D01*
X87279000Y-100214038D01*
X71430000Y-100214038D01*
X71390590Y-99965215D01*
X71312741Y-99725621D01*
X71312739Y-99725618D01*
X71312739Y-99725616D01*
X71258294Y-99618762D01*
X71198370Y-99501155D01*
X71179452Y-99475117D01*
X71050298Y-99297350D01*
X71050294Y-99297345D01*
X70872154Y-99119205D01*
X70872149Y-99119201D01*
X70668348Y-98971132D01*
X70668347Y-98971131D01*
X70668345Y-98971130D01*
X70598247Y-98935413D01*
X70443883Y-98856760D01*
X70204285Y-98778910D01*
X70173979Y-98774110D01*
X69955462Y-98739500D01*
X69703538Y-98739500D01*
X69579126Y-98759205D01*
X69454714Y-98778910D01*
X69215116Y-98856760D01*
X68990651Y-98971132D01*
X68786850Y-99119201D01*
X68786845Y-99119205D01*
X68608705Y-99297345D01*
X68608701Y-99297350D01*
X68460632Y-99501151D01*
X68346260Y-99725616D01*
X68268410Y-99965214D01*
X68229000Y-100214038D01*
X55696500Y-100214038D01*
X55696500Y-92920094D01*
X55716185Y-92853055D01*
X55768989Y-92807300D01*
X55838147Y-92797356D01*
X55901703Y-92826381D01*
X55908172Y-92832403D01*
X57419102Y-94343069D01*
X57470584Y-94394551D01*
X57470611Y-94394569D01*
X57470635Y-94394593D01*
X57472686Y-94395963D01*
X57530221Y-94434400D01*
X57530229Y-94434404D01*
X57593505Y-94476684D01*
X57593507Y-94476684D01*
X57593530Y-94476700D01*
X57593560Y-94476712D01*
X57593564Y-94476715D01*
X57662120Y-94505104D01*
X57662127Y-94505110D01*
X57662128Y-94505108D01*
X57730087Y-94533258D01*
X57730088Y-94533258D01*
X57730095Y-94533261D01*
X57730148Y-94533277D01*
X57730149Y-94533277D01*
X57730151Y-94533278D01*
X57808822Y-94548919D01*
X57875082Y-94562100D01*
X57875085Y-94562100D01*
X57875090Y-94562101D01*
X57875145Y-94562106D01*
X57875148Y-94562107D01*
X57875150Y-94562106D01*
X57875151Y-94562107D01*
X57934850Y-94562101D01*
X57954751Y-94562100D01*
X71987082Y-94562100D01*
X72069164Y-94562100D01*
X72134868Y-94562104D01*
X72134888Y-94562100D01*
X89543082Y-94562100D01*
X105550034Y-94562100D01*
X105617073Y-94581785D01*
X105662828Y-94634589D01*
X105672772Y-94703747D01*
X105643747Y-94767303D01*
X105637715Y-94773781D01*
X99276483Y-101135013D01*
X99276481Y-101135016D01*
X99197423Y-101271946D01*
X99197423Y-101271947D01*
X99156499Y-101424675D01*
X99156499Y-101582789D01*
X99162075Y-101603597D01*
X99166300Y-101635691D01*
X99166300Y-102952344D01*
X99166299Y-102952362D01*
X99166299Y-103118068D01*
X99166298Y-103118068D01*
X99207223Y-103270799D01*
X99236158Y-103320914D01*
X99236159Y-103320918D01*
X99236160Y-103320918D01*
X99286279Y-103407728D01*
X99286281Y-103407731D01*
X99405149Y-103526599D01*
X99405155Y-103526604D01*
X100037109Y-104158558D01*
X100070594Y-104219881D01*
X100065610Y-104289573D01*
X100023738Y-104345506D01*
X99987749Y-104364168D01*
X99891855Y-104395327D01*
X99891852Y-104395328D01*
X99891850Y-104395329D01*
X99737511Y-104473968D01*
X99597369Y-104575788D01*
X99474888Y-104698269D01*
X99474888Y-104698270D01*
X99474886Y-104698272D01*
X99471399Y-104703072D01*
X99373068Y-104838411D01*
X99294428Y-104992752D01*
X99240897Y-105157502D01*
X99213800Y-105328589D01*
X99213800Y-105501811D01*
X99240898Y-105672901D01*
X99294427Y-105837645D01*
X99373068Y-105991988D01*
X99474886Y-106132128D01*
X99597372Y-106254614D01*
X99737512Y-106356432D01*
X99891855Y-106435073D01*
X100056599Y-106488602D01*
X100227689Y-106515700D01*
X100227690Y-106515700D01*
X100400910Y-106515700D01*
X100400911Y-106515700D01*
X100572001Y-106488602D01*
X100736745Y-106435073D01*
X100891088Y-106356432D01*
X101031228Y-106254614D01*
X101153714Y-106132128D01*
X101255532Y-105991988D01*
X101334173Y-105837645D01*
X101365331Y-105741750D01*
X101404766Y-105684078D01*
X101469124Y-105656879D01*
X101537971Y-105668793D01*
X101570941Y-105692390D01*
X102406481Y-106527930D01*
X102439966Y-106589253D01*
X102442800Y-106615611D01*
X102442800Y-107894758D01*
X102423115Y-107961797D01*
X102370311Y-108007552D01*
X102318801Y-108018758D01*
X102120621Y-108018758D01*
X102006746Y-108033748D01*
X102006738Y-108033751D01*
X101865038Y-108092445D01*
X101743357Y-108185814D01*
X101649988Y-108307495D01*
X101591294Y-108449194D01*
X101591293Y-108449196D01*
X101576301Y-108563080D01*
X101576301Y-108694300D01*
X101573750Y-108702985D01*
X101575039Y-108711947D01*
X101564060Y-108735987D01*
X101556616Y-108761339D01*
X101549775Y-108767266D01*
X101546014Y-108775503D01*
X101523779Y-108789792D01*
X101503812Y-108807094D01*
X101493297Y-108809381D01*
X101487236Y-108813277D01*
X101452301Y-108818300D01*
X101391404Y-108818300D01*
X101343955Y-108808862D01*
X101320297Y-108799063D01*
X101320293Y-108799062D01*
X101320288Y-108799060D01*
X101165645Y-108768300D01*
X101165642Y-108768300D01*
X101007958Y-108768300D01*
X101007955Y-108768300D01*
X100853310Y-108799061D01*
X100853298Y-108799064D01*
X100707627Y-108859402D01*
X100707614Y-108859409D01*
X100576511Y-108947010D01*
X100576507Y-108947013D01*
X100465013Y-109058507D01*
X100465010Y-109058511D01*
X100377409Y-109189614D01*
X100377404Y-109189624D01*
X100351022Y-109253317D01*
X100307181Y-109307720D01*
X100240887Y-109329785D01*
X100173187Y-109312506D01*
X100148780Y-109293545D01*
X99625401Y-108770166D01*
X99599858Y-108725923D01*
X99597686Y-108726823D01*
X99594579Y-108719323D01*
X99594577Y-108719316D01*
X99574508Y-108684555D01*
X99515524Y-108582390D01*
X99515518Y-108582382D01*
X99403717Y-108470581D01*
X99403709Y-108470575D01*
X99266790Y-108391526D01*
X99266786Y-108391524D01*
X99266784Y-108391523D01*
X99114057Y-108350600D01*
X99114056Y-108350600D01*
X90090928Y-108350600D01*
X90023889Y-108330915D01*
X89992552Y-108302086D01*
X89965244Y-108266497D01*
X89920445Y-108208114D01*
X89798764Y-108114746D01*
X89798763Y-108114745D01*
X89657064Y-108056051D01*
X89657062Y-108056050D01*
X89543179Y-108041058D01*
X89543178Y-108041058D01*
X88405524Y-108041058D01*
X88338485Y-108021373D01*
X88306321Y-107991454D01*
X88231528Y-107891721D01*
X88205706Y-107867890D01*
X88097352Y-107767890D01*
X88097344Y-107767884D01*
X88097208Y-107767798D01*
X87942960Y-107670384D01*
X87849368Y-107632863D01*
X87773482Y-107602440D01*
X87773478Y-107602439D01*
X87594496Y-107566296D01*
X87583923Y-107566113D01*
X87517234Y-107545274D01*
X87472398Y-107491688D01*
X87463650Y-107422368D01*
X87493768Y-107359323D01*
X87524062Y-107334746D01*
X87592494Y-107295238D01*
X87826542Y-107115646D01*
X88035146Y-106907042D01*
X88214738Y-106672994D01*
X88362243Y-106417507D01*
X88475139Y-106144952D01*
X88551493Y-105859993D01*
X88590000Y-105567506D01*
X88590000Y-105333389D01*
X90319000Y-105333389D01*
X90319000Y-105506610D01*
X90345337Y-105672901D01*
X90346098Y-105677701D01*
X90399627Y-105842445D01*
X90478268Y-105996788D01*
X90580086Y-106136928D01*
X90702572Y-106259414D01*
X90842712Y-106361232D01*
X90997055Y-106439873D01*
X91161799Y-106493402D01*
X91332889Y-106520500D01*
X91332890Y-106520500D01*
X91506110Y-106520500D01*
X91506111Y-106520500D01*
X91677201Y-106493402D01*
X91841945Y-106439873D01*
X91996288Y-106361232D01*
X92136428Y-106259414D01*
X92258914Y-106136928D01*
X92360732Y-105996788D01*
X92439373Y-105842445D01*
X92492902Y-105677701D01*
X92520000Y-105506611D01*
X92520000Y-105333389D01*
X92492902Y-105162299D01*
X92439373Y-104997555D01*
X92360732Y-104843212D01*
X92258914Y-104703072D01*
X92136428Y-104580586D01*
X91996288Y-104478768D01*
X91841945Y-104400127D01*
X91677201Y-104346598D01*
X91677199Y-104346597D01*
X91677198Y-104346597D01*
X91545771Y-104325781D01*
X91506111Y-104319500D01*
X91332889Y-104319500D01*
X91293228Y-104325781D01*
X91161802Y-104346597D01*
X90997052Y-104400128D01*
X90842711Y-104478768D01*
X90785789Y-104520125D01*
X90702572Y-104580586D01*
X90702570Y-104580588D01*
X90702569Y-104580588D01*
X90580088Y-104703069D01*
X90580088Y-104703070D01*
X90580086Y-104703072D01*
X90536359Y-104763256D01*
X90478268Y-104843211D01*
X90399628Y-104997552D01*
X90346097Y-105162302D01*
X90319000Y-105333389D01*
X88590000Y-105333389D01*
X88590000Y-105272494D01*
X88551493Y-104980007D01*
X88475139Y-104695048D01*
X88362243Y-104422493D01*
X88359469Y-104417689D01*
X88214738Y-104167006D01*
X88035147Y-103932959D01*
X88035141Y-103932952D01*
X87826547Y-103724358D01*
X87826540Y-103724352D01*
X87592493Y-103544761D01*
X87337010Y-103397258D01*
X87337000Y-103397254D01*
X87064461Y-103284364D01*
X87064454Y-103284362D01*
X87064452Y-103284361D01*
X86779493Y-103208007D01*
X86730613Y-103201571D01*
X86487013Y-103169500D01*
X86487006Y-103169500D01*
X86191994Y-103169500D01*
X86191986Y-103169500D01*
X85913585Y-103206153D01*
X85899507Y-103208007D01*
X85632462Y-103279561D01*
X85614548Y-103284361D01*
X85614538Y-103284364D01*
X85341999Y-103397254D01*
X85341989Y-103397258D01*
X85086506Y-103544761D01*
X84852459Y-103724352D01*
X84852452Y-103724358D01*
X84643858Y-103932952D01*
X84643852Y-103932959D01*
X84464261Y-104167006D01*
X84316758Y-104422489D01*
X84316754Y-104422499D01*
X84203864Y-104695038D01*
X84203861Y-104695048D01*
X84127508Y-104980004D01*
X84127506Y-104980015D01*
X84089000Y-105272486D01*
X84089000Y-105567513D01*
X84104347Y-105684078D01*
X84127507Y-105859993D01*
X84201712Y-106136930D01*
X84203861Y-106144951D01*
X84203864Y-106144961D01*
X84316754Y-106417500D01*
X84316758Y-106417510D01*
X84464261Y-106672993D01*
X84643852Y-106907040D01*
X84643858Y-106907047D01*
X84852452Y-107115641D01*
X84852459Y-107115647D01*
X85086504Y-107295237D01*
X85086506Y-107295238D01*
X85196473Y-107358727D01*
X85244687Y-107409292D01*
X85257911Y-107477899D01*
X85231943Y-107542764D01*
X85175029Y-107583293D01*
X85114131Y-107588433D01*
X84962077Y-107563148D01*
X84962073Y-107563148D01*
X84816018Y-107565666D01*
X84779504Y-107566296D01*
X84600523Y-107602438D01*
X84600516Y-107602440D01*
X84431040Y-107670383D01*
X84431039Y-107670384D01*
X84276659Y-107767882D01*
X84276648Y-107767890D01*
X84142477Y-107891716D01*
X84067678Y-107991455D01*
X84011708Y-108033277D01*
X83968476Y-108041058D01*
X82830822Y-108041058D01*
X82716946Y-108056049D01*
X82716938Y-108056051D01*
X82575238Y-108114745D01*
X82453556Y-108208114D01*
X82398117Y-108280364D01*
X82368633Y-108307979D01*
X82278584Y-108368148D01*
X82278580Y-108368151D01*
X81541704Y-109105027D01*
X81501478Y-109131906D01*
X81477826Y-109141703D01*
X81477814Y-109141709D01*
X81346711Y-109229310D01*
X81346707Y-109229313D01*
X81235213Y-109340807D01*
X81235210Y-109340811D01*
X81147609Y-109471914D01*
X81147602Y-109471927D01*
X81087264Y-109617598D01*
X81087261Y-109617608D01*
X81060769Y-109750792D01*
X81028384Y-109812703D01*
X80967668Y-109847277D01*
X80939152Y-109850600D01*
X78811097Y-109850600D01*
X78744058Y-109830915D01*
X78723416Y-109814281D01*
X77598590Y-108689455D01*
X77598588Y-108689452D01*
X77479717Y-108570581D01*
X77479716Y-108570580D01*
X77374829Y-108510024D01*
X77374828Y-108510023D01*
X77342783Y-108491522D01*
X77286881Y-108476543D01*
X77190057Y-108450599D01*
X77031943Y-108450599D01*
X77024347Y-108450599D01*
X77024331Y-108450600D01*
X71070928Y-108450600D01*
X71003889Y-108430915D01*
X70972552Y-108402086D01*
X70919782Y-108333315D01*
X70900445Y-108308114D01*
X70778764Y-108214746D01*
X70778763Y-108214745D01*
X70637064Y-108156051D01*
X70637062Y-108156050D01*
X70523179Y-108141058D01*
X70523178Y-108141058D01*
X69385524Y-108141058D01*
X69318485Y-108121373D01*
X69286321Y-108091454D01*
X69268940Y-108068277D01*
X69211528Y-107991721D01*
X69211239Y-107991454D01*
X69077352Y-107867890D01*
X69077344Y-107867884D01*
X69077341Y-107867882D01*
X68922960Y-107770384D01*
X68811927Y-107725871D01*
X68753482Y-107702440D01*
X68753478Y-107702439D01*
X68574496Y-107666296D01*
X68391929Y-107663149D01*
X68391928Y-107663149D01*
X68391923Y-107663149D01*
X68382837Y-107664660D01*
X68313477Y-107656237D01*
X68259681Y-107611652D01*
X68238530Y-107545061D01*
X68256738Y-107477605D01*
X68300501Y-107434952D01*
X68307430Y-107430952D01*
X68542494Y-107295238D01*
X68776542Y-107115646D01*
X68985146Y-106907042D01*
X69164738Y-106672994D01*
X69312243Y-106417507D01*
X69425139Y-106144952D01*
X69501493Y-105859993D01*
X69540000Y-105567506D01*
X69540000Y-105333389D01*
X71269000Y-105333389D01*
X71269000Y-105506610D01*
X71295337Y-105672901D01*
X71296098Y-105677701D01*
X71349627Y-105842445D01*
X71428268Y-105996788D01*
X71530086Y-106136928D01*
X71652572Y-106259414D01*
X71792712Y-106361232D01*
X71947055Y-106439873D01*
X72111799Y-106493402D01*
X72282889Y-106520500D01*
X72282890Y-106520500D01*
X72456110Y-106520500D01*
X72456111Y-106520500D01*
X72627201Y-106493402D01*
X72791945Y-106439873D01*
X72946288Y-106361232D01*
X73086428Y-106259414D01*
X73208914Y-106136928D01*
X73310732Y-105996788D01*
X73389373Y-105842445D01*
X73442902Y-105677701D01*
X73470000Y-105506611D01*
X73470000Y-105333389D01*
X80159000Y-105333389D01*
X80159000Y-105506610D01*
X80185337Y-105672901D01*
X80186098Y-105677701D01*
X80239627Y-105842445D01*
X80318268Y-105996788D01*
X80420086Y-106136928D01*
X80542572Y-106259414D01*
X80682712Y-106361232D01*
X80837055Y-106439873D01*
X81001799Y-106493402D01*
X81172889Y-106520500D01*
X81172890Y-106520500D01*
X81346110Y-106520500D01*
X81346111Y-106520500D01*
X81517201Y-106493402D01*
X81681945Y-106439873D01*
X81836288Y-106361232D01*
X81976428Y-106259414D01*
X82098914Y-106136928D01*
X82200732Y-105996788D01*
X82279373Y-105842445D01*
X82332902Y-105677701D01*
X82360000Y-105506611D01*
X82360000Y-105333389D01*
X82332902Y-105162299D01*
X82279373Y-104997555D01*
X82200732Y-104843212D01*
X82098914Y-104703072D01*
X82046982Y-104651140D01*
X82013497Y-104589817D01*
X82018481Y-104520125D01*
X82060353Y-104464192D01*
X82125817Y-104439775D01*
X82154061Y-104440986D01*
X82154712Y-104441089D01*
X82154715Y-104441090D01*
X82403538Y-104480500D01*
X82403539Y-104480500D01*
X82655461Y-104480500D01*
X82655462Y-104480500D01*
X82904285Y-104441090D01*
X83143879Y-104363241D01*
X83368345Y-104248870D01*
X83572156Y-104100793D01*
X83750293Y-103922656D01*
X83898370Y-103718845D01*
X84012741Y-103494379D01*
X84090590Y-103254785D01*
X84130000Y-103005962D01*
X84130000Y-102754038D01*
X84127657Y-102739248D01*
X94646500Y-102739248D01*
X94646500Y-102943951D01*
X94678522Y-103146134D01*
X94741781Y-103340823D01*
X94775873Y-103407731D01*
X94832840Y-103519535D01*
X94834715Y-103523213D01*
X94955028Y-103688813D01*
X95099786Y-103833571D01*
X95229978Y-103928159D01*
X95265390Y-103953887D01*
X95381607Y-104013103D01*
X95447776Y-104046818D01*
X95447778Y-104046818D01*
X95447781Y-104046820D01*
X95531085Y-104073887D01*
X95642465Y-104110077D01*
X95743557Y-104126088D01*
X95844648Y-104142100D01*
X95844649Y-104142100D01*
X96049351Y-104142100D01*
X96049352Y-104142100D01*
X96251534Y-104110077D01*
X96446219Y-104046820D01*
X96628610Y-103953887D01*
X96745697Y-103868819D01*
X96794213Y-103833571D01*
X96794215Y-103833568D01*
X96794219Y-103833566D01*
X96938966Y-103688819D01*
X96938968Y-103688815D01*
X96938971Y-103688813D01*
X96991732Y-103616190D01*
X97059287Y-103523210D01*
X97152220Y-103340819D01*
X97215477Y-103146134D01*
X97247500Y-102943952D01*
X97247500Y-102739248D01*
X97243987Y-102717065D01*
X97215477Y-102537065D01*
X97152218Y-102342376D01*
X97100301Y-102240485D01*
X97059287Y-102159990D01*
X97026154Y-102114386D01*
X96938971Y-101994386D01*
X96794213Y-101849628D01*
X96628613Y-101729315D01*
X96628612Y-101729314D01*
X96628610Y-101729313D01*
X96557583Y-101693123D01*
X96446223Y-101636381D01*
X96251534Y-101573122D01*
X96076995Y-101545478D01*
X96049352Y-101541100D01*
X95844648Y-101541100D01*
X95820329Y-101544951D01*
X95642465Y-101573122D01*
X95447776Y-101636381D01*
X95265386Y-101729315D01*
X95099786Y-101849628D01*
X94955028Y-101994386D01*
X94834715Y-102159986D01*
X94741781Y-102342376D01*
X94678522Y-102537065D01*
X94646500Y-102739248D01*
X84127657Y-102739248D01*
X84090590Y-102505215D01*
X84012741Y-102265621D01*
X84012739Y-102265618D01*
X84012739Y-102265616D01*
X83969051Y-102179875D01*
X83898370Y-102041155D01*
X83802583Y-101909315D01*
X83750298Y-101837350D01*
X83750294Y-101837345D01*
X83572154Y-101659205D01*
X83572149Y-101659201D01*
X83368348Y-101511132D01*
X83368347Y-101511131D01*
X83368345Y-101511130D01*
X83298247Y-101475413D01*
X83143883Y-101396760D01*
X82904285Y-101318910D01*
X82873979Y-101314110D01*
X82655462Y-101279500D01*
X82403538Y-101279500D01*
X82279126Y-101299205D01*
X82154714Y-101318910D01*
X81915116Y-101396760D01*
X81690651Y-101511132D01*
X81486850Y-101659201D01*
X81486845Y-101659205D01*
X81308705Y-101837345D01*
X81308701Y-101837350D01*
X81160632Y-102041151D01*
X81046260Y-102265616D01*
X80968410Y-102505214D01*
X80968410Y-102505215D01*
X80929000Y-102754038D01*
X80929000Y-103005962D01*
X80951201Y-103146134D01*
X80968410Y-103254785D01*
X81046260Y-103494383D01*
X81071930Y-103544762D01*
X81158184Y-103714045D01*
X81160632Y-103718848D01*
X81308701Y-103922649D01*
X81308705Y-103922654D01*
X81308707Y-103922656D01*
X81486844Y-104100793D01*
X81486845Y-104100794D01*
X81486844Y-104100794D01*
X81493161Y-104105383D01*
X81535827Y-104160714D01*
X81541805Y-104230327D01*
X81509199Y-104292122D01*
X81448360Y-104326479D01*
X81400878Y-104328174D01*
X81346111Y-104319500D01*
X81172889Y-104319500D01*
X81133228Y-104325781D01*
X81001802Y-104346597D01*
X80837052Y-104400128D01*
X80682711Y-104478768D01*
X80625789Y-104520125D01*
X80542572Y-104580586D01*
X80542570Y-104580588D01*
X80542569Y-104580588D01*
X80420088Y-104703069D01*
X80420088Y-104703070D01*
X80420086Y-104703072D01*
X80376359Y-104763256D01*
X80318268Y-104843211D01*
X80239628Y-104997552D01*
X80186097Y-105162302D01*
X80159000Y-105333389D01*
X73470000Y-105333389D01*
X73442902Y-105162299D01*
X73389373Y-104997555D01*
X73310732Y-104843212D01*
X73208914Y-104703072D01*
X73086428Y-104580586D01*
X72946288Y-104478768D01*
X72791945Y-104400127D01*
X72627201Y-104346598D01*
X72627199Y-104346597D01*
X72627198Y-104346597D01*
X72495771Y-104325781D01*
X72456111Y-104319500D01*
X72282889Y-104319500D01*
X72243228Y-104325781D01*
X72111802Y-104346597D01*
X71947052Y-104400128D01*
X71792711Y-104478768D01*
X71735789Y-104520125D01*
X71652572Y-104580586D01*
X71652570Y-104580588D01*
X71652569Y-104580588D01*
X71530088Y-104703069D01*
X71530088Y-104703070D01*
X71530086Y-104703072D01*
X71486359Y-104763256D01*
X71428268Y-104843211D01*
X71349628Y-104997552D01*
X71296097Y-105162302D01*
X71269000Y-105333389D01*
X69540000Y-105333389D01*
X69540000Y-105272494D01*
X69501493Y-104980007D01*
X69425139Y-104695048D01*
X69312243Y-104422493D01*
X69309469Y-104417689D01*
X69164738Y-104167006D01*
X68985147Y-103932959D01*
X68985141Y-103932952D01*
X68776547Y-103724358D01*
X68776540Y-103724352D01*
X68542493Y-103544761D01*
X68287010Y-103397258D01*
X68287000Y-103397254D01*
X68014461Y-103284364D01*
X68014454Y-103284362D01*
X68014452Y-103284361D01*
X67729493Y-103208007D01*
X67680613Y-103201571D01*
X67437013Y-103169500D01*
X67437006Y-103169500D01*
X67141994Y-103169500D01*
X67141986Y-103169500D01*
X66863585Y-103206153D01*
X66849507Y-103208007D01*
X66582462Y-103279561D01*
X66564548Y-103284361D01*
X66564538Y-103284364D01*
X66291999Y-103397254D01*
X66291989Y-103397258D01*
X66036506Y-103544761D01*
X65802459Y-103724352D01*
X65802452Y-103724358D01*
X65593858Y-103932952D01*
X65593852Y-103932959D01*
X65414261Y-104167006D01*
X65266758Y-104422489D01*
X65266754Y-104422499D01*
X65153864Y-104695038D01*
X65153861Y-104695048D01*
X65077508Y-104980004D01*
X65077506Y-104980015D01*
X65039000Y-105272486D01*
X65039000Y-105567513D01*
X65054347Y-105684078D01*
X65077507Y-105859993D01*
X65151712Y-106136930D01*
X65153861Y-106144951D01*
X65153864Y-106144961D01*
X65266754Y-106417500D01*
X65266758Y-106417510D01*
X65414261Y-106672993D01*
X65593852Y-106907040D01*
X65593858Y-106907047D01*
X65802452Y-107115641D01*
X65802459Y-107115647D01*
X66036506Y-107295238D01*
X66291989Y-107442741D01*
X66291990Y-107442741D01*
X66291993Y-107442743D01*
X66405348Y-107489696D01*
X66552959Y-107550839D01*
X66564548Y-107555639D01*
X66570688Y-107557284D01*
X66587144Y-107567314D01*
X66605635Y-107572744D01*
X66616360Y-107585121D01*
X66630349Y-107593648D01*
X66638770Y-107610984D01*
X66651390Y-107625548D01*
X66653721Y-107641760D01*
X66660879Y-107656495D01*
X66658591Y-107675630D01*
X66661334Y-107694706D01*
X66654529Y-107709605D01*
X66652585Y-107725871D01*
X66640314Y-107740732D01*
X66632309Y-107758262D01*
X66618529Y-107767117D01*
X66608100Y-107779749D01*
X66589742Y-107785617D01*
X66573531Y-107796036D01*
X66543762Y-107800316D01*
X66541548Y-107801024D01*
X66538596Y-107801059D01*
X66446055Y-107801059D01*
X66446039Y-107801058D01*
X66438443Y-107801058D01*
X66406257Y-107801058D01*
X66343700Y-107784122D01*
X66309690Y-107764249D01*
X66308444Y-107763627D01*
X66299236Y-107758262D01*
X66293917Y-107755163D01*
X66293916Y-107755162D01*
X66293915Y-107755162D01*
X66122194Y-107693101D01*
X66122190Y-107693100D01*
X65942078Y-107663148D01*
X65942073Y-107663148D01*
X65794070Y-107665700D01*
X65759504Y-107666296D01*
X65580523Y-107702438D01*
X65580516Y-107702440D01*
X65411040Y-107770383D01*
X65411039Y-107770384D01*
X65256659Y-107867882D01*
X65256648Y-107867890D01*
X65122477Y-107991716D01*
X65047678Y-108091455D01*
X64991708Y-108133277D01*
X64948476Y-108141058D01*
X63810822Y-108141058D01*
X63696946Y-108156049D01*
X63696938Y-108156051D01*
X63555238Y-108214745D01*
X63433557Y-108308114D01*
X63346555Y-108421498D01*
X63344208Y-108423701D01*
X63343517Y-108425300D01*
X63318768Y-108447585D01*
X63317317Y-108448948D01*
X63316892Y-108449232D01*
X63288584Y-108468149D01*
X63288290Y-108468442D01*
X63287939Y-108468678D01*
X63287936Y-108468680D01*
X63287930Y-108468685D01*
X63240676Y-108516044D01*
X63235642Y-108521090D01*
X63184049Y-108572684D01*
X63183820Y-108573024D01*
X63179295Y-108577560D01*
X63179295Y-108577561D01*
X62784911Y-108972821D01*
X62784815Y-108972917D01*
X62733049Y-109024682D01*
X62732524Y-109025321D01*
X62710404Y-109058507D01*
X62691746Y-109086497D01*
X62679365Y-109105027D01*
X62650912Y-109147610D01*
X62650641Y-109148118D01*
X62650640Y-109148119D01*
X62650530Y-109148322D01*
X62622624Y-109215905D01*
X62622572Y-109216030D01*
X62594341Y-109284186D01*
X62594223Y-109284574D01*
X62594181Y-109284714D01*
X62594104Y-109284965D01*
X62589604Y-109307720D01*
X62581879Y-109346785D01*
X62579926Y-109356659D01*
X62579899Y-109356794D01*
X62565500Y-109429179D01*
X62565495Y-109429233D01*
X62565494Y-109429243D01*
X62565418Y-109430007D01*
X62565465Y-109471914D01*
X62565500Y-109503029D01*
X62565500Y-111177018D01*
X62565500Y-111177020D01*
X62565499Y-111177020D01*
X62594340Y-111322007D01*
X62594343Y-111322017D01*
X62650914Y-111458591D01*
X62650916Y-111458595D01*
X62658095Y-111469339D01*
X62674768Y-111494293D01*
X62733049Y-111581518D01*
X62733052Y-111581521D01*
X64986084Y-113834552D01*
X64986086Y-113834554D01*
X65015558Y-113854245D01*
X65059770Y-113883786D01*
X65109005Y-113916684D01*
X65109006Y-113916684D01*
X65109007Y-113916685D01*
X65109009Y-113916686D01*
X65202609Y-113955456D01*
X65245587Y-113973258D01*
X65245591Y-113973258D01*
X65245592Y-113973259D01*
X65390579Y-114002100D01*
X65390582Y-114002100D01*
X80290419Y-114002100D01*
X80325586Y-113995104D01*
X80367923Y-113986682D01*
X80392114Y-113984300D01*
X98980720Y-113984300D01*
X99078262Y-113964896D01*
X99125713Y-113955458D01*
X99262295Y-113898884D01*
X99311529Y-113865986D01*
X99385216Y-113816752D01*
X99792583Y-113409384D01*
X100199949Y-113002019D01*
X100199949Y-113002018D01*
X100199948Y-113002018D01*
X100199951Y-113002016D01*
X100203230Y-112997106D01*
X100218651Y-112978315D01*
X101312095Y-111884870D01*
X101352319Y-111857993D01*
X101375979Y-111848194D01*
X101507089Y-111760589D01*
X101618589Y-111649089D01*
X101706194Y-111517979D01*
X101721819Y-111480256D01*
X101768868Y-111366670D01*
X101770021Y-111367147D01*
X101804730Y-111314173D01*
X101868539Y-111285709D01*
X101932553Y-111294036D01*
X102006738Y-111324765D01*
X102120624Y-111339758D01*
X103258277Y-111339757D01*
X103325316Y-111359442D01*
X103357479Y-111389360D01*
X103398163Y-111443609D01*
X103432275Y-111489095D01*
X103432277Y-111489097D01*
X103432278Y-111489098D01*
X103566450Y-111612924D01*
X103566456Y-111612928D01*
X103566459Y-111612931D01*
X103720842Y-111710432D01*
X103849725Y-111762100D01*
X103890323Y-111778375D01*
X103890325Y-111778376D01*
X104069306Y-111814519D01*
X104251874Y-111817666D01*
X104431994Y-111787713D01*
X104603718Y-111725651D01*
X104618672Y-111716937D01*
X104625428Y-111713010D01*
X104625708Y-111712934D01*
X104653495Y-111696696D01*
X104653747Y-111696551D01*
X104656822Y-111695795D01*
X104716058Y-111679758D01*
X104748244Y-111679758D01*
X106205359Y-111679758D01*
X106237545Y-111679758D01*
X106300105Y-111696696D01*
X106334259Y-111716653D01*
X106335505Y-111717274D01*
X106349884Y-111725653D01*
X106521608Y-111787715D01*
X106701729Y-111817668D01*
X106884297Y-111814521D01*
X107063279Y-111778378D01*
X107232762Y-111710433D01*
X107387146Y-111612932D01*
X107388809Y-111611398D01*
X107521327Y-111489098D01*
X107521334Y-111489090D01*
X107596498Y-111388863D01*
X107652467Y-111347039D01*
X107695701Y-111339258D01*
X107826801Y-111339258D01*
X108326801Y-111339258D01*
X108832948Y-111339258D01*
X108946731Y-111324278D01*
X108946736Y-111324276D01*
X109088307Y-111265636D01*
X109088308Y-111265636D01*
X109209887Y-111172344D01*
X109303179Y-111050765D01*
X109303179Y-111050764D01*
X109361819Y-110909193D01*
X109361821Y-110909188D01*
X109376801Y-110795404D01*
X109376801Y-110679258D01*
X108326801Y-110679258D01*
X108326801Y-111339258D01*
X107826801Y-111339258D01*
X107826801Y-110553258D01*
X107846486Y-110486219D01*
X107899290Y-110440464D01*
X107950801Y-110429258D01*
X108076801Y-110429258D01*
X108076801Y-110303258D01*
X108096486Y-110236219D01*
X108149290Y-110190464D01*
X108200801Y-110179258D01*
X109376801Y-110179258D01*
X109376801Y-110063111D01*
X109361821Y-109949327D01*
X109361819Y-109949322D01*
X109303179Y-109807751D01*
X109303176Y-109807746D01*
X109262821Y-109755154D01*
X109237627Y-109689985D01*
X109251665Y-109621540D01*
X109262822Y-109604181D01*
X109275301Y-109587919D01*
X109303613Y-109551021D01*
X109362308Y-109409321D01*
X109377301Y-109295435D01*
X109377300Y-108563082D01*
X109374777Y-108543919D01*
X109362309Y-108449203D01*
X109362308Y-108449195D01*
X109303613Y-108307495D01*
X109210245Y-108185814D01*
X109088564Y-108092446D01*
X109088563Y-108092445D01*
X108946864Y-108033751D01*
X108946862Y-108033750D01*
X108832979Y-108018758D01*
X108832978Y-108018758D01*
X108801301Y-108018758D01*
X108734262Y-107999073D01*
X108688507Y-107946269D01*
X108677301Y-107894758D01*
X108677301Y-105328589D01*
X109373800Y-105328589D01*
X109373800Y-105501811D01*
X109400898Y-105672901D01*
X109454427Y-105837645D01*
X109533068Y-105991988D01*
X109634886Y-106132128D01*
X109757372Y-106254614D01*
X109897512Y-106356432D01*
X110051855Y-106435073D01*
X110216599Y-106488602D01*
X110387689Y-106515700D01*
X110387690Y-106515700D01*
X110560910Y-106515700D01*
X110560911Y-106515700D01*
X110732001Y-106488602D01*
X110896745Y-106435073D01*
X111051088Y-106356432D01*
X111191228Y-106254614D01*
X111313714Y-106132128D01*
X111415532Y-105991988D01*
X111494173Y-105837645D01*
X111547702Y-105672901D01*
X111574800Y-105501811D01*
X111574800Y-105328589D01*
X111547702Y-105157499D01*
X111494173Y-104992755D01*
X111415532Y-104838412D01*
X111313714Y-104698272D01*
X111191228Y-104575786D01*
X111051088Y-104473968D01*
X110896745Y-104395327D01*
X110732001Y-104341798D01*
X110731999Y-104341797D01*
X110731998Y-104341797D01*
X110590636Y-104319408D01*
X110560911Y-104314700D01*
X110387689Y-104314700D01*
X110357964Y-104319408D01*
X110216602Y-104341797D01*
X110051852Y-104395328D01*
X109897511Y-104473968D01*
X109757369Y-104575788D01*
X109634888Y-104698269D01*
X109634888Y-104698270D01*
X109634886Y-104698272D01*
X109631399Y-104703072D01*
X109533068Y-104838411D01*
X109454428Y-104992752D01*
X109400897Y-105157502D01*
X109373800Y-105328589D01*
X108677301Y-105328589D01*
X108677301Y-104642304D01*
X108677301Y-104642301D01*
X108659479Y-104575786D01*
X108636378Y-104489573D01*
X108584736Y-104400127D01*
X108557321Y-104352642D01*
X108445517Y-104240838D01*
X108445514Y-104240836D01*
X105463333Y-101258655D01*
X105463331Y-101258652D01*
X105344460Y-101139781D01*
X105344459Y-101139780D01*
X105257647Y-101089660D01*
X105257647Y-101089659D01*
X105257643Y-101089658D01*
X105207528Y-101060723D01*
X105054800Y-101019799D01*
X104896686Y-101019799D01*
X104889090Y-101019799D01*
X104889074Y-101019800D01*
X104777954Y-101019800D01*
X104710915Y-101000115D01*
X104690273Y-100983481D01*
X103916030Y-100209238D01*
X106333800Y-100209238D01*
X106333800Y-100461161D01*
X106373210Y-100709985D01*
X106451060Y-100949583D01*
X106565432Y-101174048D01*
X106713501Y-101377849D01*
X106713505Y-101377854D01*
X106891645Y-101555994D01*
X106891650Y-101555998D01*
X107033698Y-101659201D01*
X107095455Y-101704070D01*
X107238484Y-101776947D01*
X107319916Y-101818439D01*
X107319918Y-101818439D01*
X107319921Y-101818441D01*
X107559515Y-101896290D01*
X107808338Y-101935700D01*
X107808339Y-101935700D01*
X108060261Y-101935700D01*
X108060262Y-101935700D01*
X108309085Y-101896290D01*
X108548679Y-101818441D01*
X108773145Y-101704070D01*
X108976956Y-101555993D01*
X109155093Y-101377856D01*
X109303170Y-101174045D01*
X109417541Y-100949579D01*
X109495390Y-100709985D01*
X109534800Y-100461162D01*
X109534800Y-100209238D01*
X109495390Y-99960415D01*
X109417541Y-99720821D01*
X109417539Y-99720818D01*
X109417539Y-99720816D01*
X109365539Y-99618762D01*
X109303170Y-99496355D01*
X109158585Y-99297350D01*
X109155098Y-99292550D01*
X109155094Y-99292545D01*
X108976954Y-99114405D01*
X108976949Y-99114401D01*
X108773148Y-98966332D01*
X108773147Y-98966331D01*
X108773145Y-98966330D01*
X108703047Y-98930613D01*
X108548683Y-98851960D01*
X108309085Y-98774110D01*
X108060262Y-98734700D01*
X107808338Y-98734700D01*
X107683926Y-98754405D01*
X107559514Y-98774110D01*
X107319916Y-98851960D01*
X107095451Y-98966332D01*
X106891650Y-99114401D01*
X106891645Y-99114405D01*
X106713505Y-99292545D01*
X106713501Y-99292550D01*
X106565432Y-99496351D01*
X106451060Y-99720816D01*
X106373210Y-99960414D01*
X106333800Y-100209238D01*
X103916030Y-100209238D01*
X103413235Y-99706443D01*
X103379750Y-99645120D01*
X103376916Y-99618762D01*
X103376916Y-99351512D01*
X103396601Y-99284473D01*
X103413230Y-99263836D01*
X109626505Y-93050560D01*
X109626510Y-93050557D01*
X109636713Y-93040353D01*
X109636715Y-93040353D01*
X109748519Y-92928549D01*
X109807507Y-92826378D01*
X109827576Y-92791618D01*
X109868500Y-92638890D01*
X109868500Y-92480776D01*
X109868500Y-92473181D01*
X109868499Y-92473163D01*
X109868499Y-90389187D01*
X109868499Y-90389185D01*
X109864971Y-90376016D01*
X109827576Y-90236457D01*
X109791493Y-90173960D01*
X109751309Y-90104358D01*
X109748521Y-90099529D01*
X109748520Y-90099528D01*
X109748519Y-90099526D01*
X109636715Y-89987722D01*
X109636714Y-89987721D01*
X109632384Y-89983391D01*
X109632373Y-89983381D01*
X109499906Y-89850914D01*
X109466421Y-89789591D01*
X109464651Y-89779439D01*
X109452506Y-89687179D01*
X109393811Y-89545479D01*
X109300443Y-89423798D01*
X109207074Y-89352154D01*
X109178761Y-89330429D01*
X109037062Y-89271735D01*
X109037060Y-89271734D01*
X108923177Y-89256742D01*
X108923176Y-89256742D01*
X107785522Y-89256742D01*
X107718483Y-89237057D01*
X107686319Y-89207139D01*
X107611525Y-89107405D01*
X107611519Y-89107399D01*
X107611518Y-89107398D01*
X107477349Y-88983575D01*
X107477338Y-88983567D01*
X107322957Y-88886067D01*
X107153476Y-88818124D01*
X107153477Y-88818124D01*
X107034154Y-88794028D01*
X106974494Y-88781981D01*
X106791926Y-88778834D01*
X106791925Y-88778834D01*
X106611809Y-88808786D01*
X106611805Y-88808787D01*
X106440080Y-88870849D01*
X106425558Y-88879310D01*
X106425457Y-88879369D01*
X106418368Y-88883489D01*
X106418092Y-88883566D01*
X106390095Y-88899924D01*
X106390061Y-88899945D01*
X106387061Y-88900682D01*
X106327743Y-88916742D01*
X104806255Y-88916742D01*
X104743698Y-88899805D01*
X104709600Y-88879881D01*
X104708358Y-88879262D01*
X104693922Y-88870850D01*
X104693919Y-88870849D01*
X104693916Y-88870847D01*
X104522192Y-88808785D01*
X104522189Y-88808784D01*
X104522188Y-88808784D01*
X104342075Y-88778832D01*
X104342071Y-88778832D01*
X104196016Y-88781349D01*
X104159502Y-88781979D01*
X103980520Y-88818122D01*
X103980516Y-88818123D01*
X103811037Y-88886067D01*
X103811036Y-88886068D01*
X103656656Y-88983566D01*
X103656645Y-88983574D01*
X103522472Y-89107401D01*
X103522465Y-89107409D01*
X103447302Y-89207637D01*
X103391333Y-89249461D01*
X103348099Y-89257242D01*
X103216999Y-89257242D01*
X103216999Y-90043242D01*
X103197314Y-90110281D01*
X103144510Y-90156036D01*
X103092999Y-90167242D01*
X102966999Y-90167242D01*
X102966999Y-90293242D01*
X102947314Y-90360281D01*
X102894510Y-90406036D01*
X102842999Y-90417242D01*
X101666999Y-90417242D01*
X101666999Y-90533388D01*
X101681978Y-90647172D01*
X101681980Y-90647177D01*
X101740620Y-90788748D01*
X101740623Y-90788753D01*
X101780978Y-90841345D01*
X101791018Y-90867317D01*
X101804072Y-90891912D01*
X101803442Y-90899454D01*
X101806172Y-90906514D01*
X101800577Y-90933791D01*
X101798262Y-90961539D01*
X101792944Y-90971009D01*
X101792134Y-90974959D01*
X101780981Y-90992313D01*
X101761056Y-91018282D01*
X101704630Y-91059487D01*
X101662677Y-91066800D01*
X98119097Y-91066800D01*
X98052058Y-91047115D01*
X98031416Y-91030481D01*
X96802030Y-89801095D01*
X101666999Y-89801095D01*
X101666999Y-89917242D01*
X102716999Y-89917242D01*
X102716999Y-89257242D01*
X102210852Y-89257242D01*
X102097068Y-89272221D01*
X102097063Y-89272223D01*
X101955492Y-89330863D01*
X101955491Y-89330863D01*
X101833912Y-89424155D01*
X101740620Y-89545734D01*
X101740620Y-89545735D01*
X101681980Y-89687306D01*
X101681978Y-89687311D01*
X101666999Y-89801095D01*
X96802030Y-89801095D01*
X96756590Y-89755655D01*
X96756588Y-89755652D01*
X96637717Y-89636781D01*
X96637709Y-89636775D01*
X96530951Y-89575139D01*
X96530950Y-89575138D01*
X96530950Y-89575139D01*
X96500785Y-89557723D01*
X96348057Y-89516799D01*
X96189943Y-89516799D01*
X96182347Y-89516799D01*
X96182331Y-89516800D01*
X90201321Y-89516800D01*
X90134282Y-89497115D01*
X90102945Y-89468286D01*
X90102707Y-89467976D01*
X90030443Y-89373798D01*
X89937074Y-89302154D01*
X89908761Y-89280429D01*
X89767062Y-89221735D01*
X89767060Y-89221734D01*
X89653177Y-89206742D01*
X89653176Y-89206742D01*
X88515522Y-89206742D01*
X88448483Y-89187057D01*
X88416319Y-89157139D01*
X88341525Y-89057405D01*
X88341519Y-89057399D01*
X88341518Y-89057398D01*
X88207349Y-88933575D01*
X88207338Y-88933567D01*
X88052957Y-88836067D01*
X87883476Y-88768124D01*
X87883477Y-88768124D01*
X87750637Y-88741299D01*
X87704494Y-88731981D01*
X87521926Y-88728834D01*
X87521925Y-88728834D01*
X87341809Y-88758786D01*
X87341805Y-88758787D01*
X87170080Y-88820849D01*
X87155558Y-88829310D01*
X87155457Y-88829369D01*
X87148368Y-88833489D01*
X87148092Y-88833566D01*
X87120095Y-88849924D01*
X87120061Y-88849945D01*
X87117061Y-88850682D01*
X87057743Y-88866742D01*
X86508487Y-88866742D01*
X86441448Y-88847057D01*
X86395693Y-88794253D01*
X86385749Y-88725095D01*
X86414774Y-88661539D01*
X86473552Y-88623765D01*
X86492301Y-88619803D01*
X86515968Y-88616687D01*
X86779493Y-88581993D01*
X87064452Y-88505639D01*
X87337007Y-88392743D01*
X87592494Y-88245238D01*
X87826542Y-88065646D01*
X88035146Y-87857042D01*
X88214738Y-87622994D01*
X88362243Y-87367507D01*
X88475139Y-87094952D01*
X88551493Y-86809993D01*
X88590000Y-86517506D01*
X88590000Y-86283389D01*
X90319000Y-86283389D01*
X90319000Y-86456611D01*
X90346098Y-86627701D01*
X90399627Y-86792445D01*
X90478268Y-86946788D01*
X90580086Y-87086928D01*
X90702572Y-87209414D01*
X90842712Y-87311232D01*
X90997055Y-87389873D01*
X91161799Y-87443402D01*
X91332889Y-87470500D01*
X91332890Y-87470500D01*
X91506110Y-87470500D01*
X91506111Y-87470500D01*
X91677201Y-87443402D01*
X91841945Y-87389873D01*
X91996288Y-87311232D01*
X92136428Y-87209414D01*
X92258914Y-87086928D01*
X92360732Y-86946788D01*
X92439373Y-86792445D01*
X92492902Y-86627701D01*
X92520000Y-86456611D01*
X92520000Y-86283389D01*
X99209000Y-86283389D01*
X99209000Y-86456611D01*
X99236098Y-86627701D01*
X99289627Y-86792445D01*
X99368268Y-86946788D01*
X99470086Y-87086928D01*
X99592572Y-87209414D01*
X99732712Y-87311232D01*
X99887055Y-87389873D01*
X100051799Y-87443402D01*
X100222889Y-87470500D01*
X100222890Y-87470500D01*
X100396110Y-87470500D01*
X100396111Y-87470500D01*
X100567201Y-87443402D01*
X100731945Y-87389873D01*
X100886288Y-87311232D01*
X101026428Y-87209414D01*
X101148914Y-87086928D01*
X101250732Y-86946788D01*
X101329373Y-86792445D01*
X101382902Y-86627701D01*
X101410000Y-86456611D01*
X101410000Y-86283389D01*
X101400354Y-86222486D01*
X103139000Y-86222486D01*
X103139000Y-86517513D01*
X103171071Y-86761113D01*
X103177507Y-86809993D01*
X103251712Y-87086930D01*
X103253861Y-87094951D01*
X103253864Y-87094961D01*
X103366754Y-87367500D01*
X103366758Y-87367510D01*
X103514261Y-87622993D01*
X103693852Y-87857040D01*
X103693858Y-87857047D01*
X103902452Y-88065641D01*
X103902459Y-88065647D01*
X104136506Y-88245238D01*
X104391989Y-88392741D01*
X104391990Y-88392741D01*
X104391993Y-88392743D01*
X104529881Y-88449858D01*
X104652650Y-88500711D01*
X104664548Y-88505639D01*
X104949507Y-88581993D01*
X105227915Y-88618646D01*
X105240550Y-88620310D01*
X105241994Y-88620500D01*
X105242001Y-88620500D01*
X105536999Y-88620500D01*
X105537006Y-88620500D01*
X105829493Y-88581993D01*
X106114452Y-88505639D01*
X106387007Y-88392743D01*
X106642494Y-88245238D01*
X106876542Y-88065646D01*
X107085146Y-87857042D01*
X107264738Y-87622994D01*
X107412243Y-87367507D01*
X107525139Y-87094952D01*
X107601493Y-86809993D01*
X107640000Y-86517506D01*
X107640000Y-86283389D01*
X109369000Y-86283389D01*
X109369000Y-86456611D01*
X109396098Y-86627701D01*
X109449627Y-86792445D01*
X109528268Y-86946788D01*
X109630086Y-87086928D01*
X109752572Y-87209414D01*
X109892712Y-87311232D01*
X110047055Y-87389873D01*
X110211799Y-87443402D01*
X110382889Y-87470500D01*
X110382890Y-87470500D01*
X110556110Y-87470500D01*
X110556111Y-87470500D01*
X110727201Y-87443402D01*
X110891945Y-87389873D01*
X111046288Y-87311232D01*
X111186428Y-87209414D01*
X111308914Y-87086928D01*
X111410732Y-86946788D01*
X111489373Y-86792445D01*
X111542902Y-86627701D01*
X111570000Y-86456611D01*
X111570000Y-86283389D01*
X111542902Y-86112299D01*
X111489373Y-85947555D01*
X111410732Y-85793212D01*
X111308914Y-85653072D01*
X111186428Y-85530586D01*
X111046288Y-85428768D01*
X110891945Y-85350127D01*
X110727201Y-85296598D01*
X110727199Y-85296597D01*
X110727198Y-85296597D01*
X110595771Y-85275781D01*
X110556111Y-85269500D01*
X110382889Y-85269500D01*
X110343228Y-85275781D01*
X110211802Y-85296597D01*
X110047052Y-85350128D01*
X109892711Y-85428768D01*
X109835789Y-85470125D01*
X109752572Y-85530586D01*
X109752570Y-85530588D01*
X109752569Y-85530588D01*
X109630088Y-85653069D01*
X109630088Y-85653070D01*
X109630086Y-85653072D01*
X109602725Y-85690731D01*
X109528268Y-85793211D01*
X109449628Y-85947552D01*
X109396097Y-86112302D01*
X109369000Y-86283389D01*
X107640000Y-86283389D01*
X107640000Y-86222494D01*
X107601493Y-85930007D01*
X107525139Y-85645048D01*
X107521310Y-85635805D01*
X107463691Y-85496700D01*
X107412243Y-85372493D01*
X107356809Y-85276479D01*
X107264738Y-85117006D01*
X107085147Y-84882959D01*
X107085141Y-84882952D01*
X106876547Y-84674358D01*
X106876540Y-84674352D01*
X106642493Y-84494761D01*
X106387010Y-84347258D01*
X106387000Y-84347254D01*
X106114461Y-84234364D01*
X106114454Y-84234362D01*
X106114452Y-84234361D01*
X105829493Y-84158007D01*
X105780613Y-84151571D01*
X105537013Y-84119500D01*
X105537006Y-84119500D01*
X105241994Y-84119500D01*
X105241986Y-84119500D01*
X104963585Y-84156153D01*
X104949507Y-84158007D01*
X104774928Y-84204785D01*
X104664548Y-84234361D01*
X104664538Y-84234364D01*
X104391999Y-84347254D01*
X104391989Y-84347258D01*
X104136506Y-84494761D01*
X103902459Y-84674352D01*
X103902452Y-84674358D01*
X103693858Y-84882952D01*
X103693852Y-84882959D01*
X103514261Y-85117006D01*
X103366758Y-85372489D01*
X103366754Y-85372499D01*
X103253864Y-85645038D01*
X103253861Y-85645048D01*
X103191787Y-85876715D01*
X103177508Y-85930004D01*
X103177506Y-85930015D01*
X103139000Y-86222486D01*
X101400354Y-86222486D01*
X101382902Y-86112299D01*
X101329373Y-85947555D01*
X101250732Y-85793212D01*
X101148914Y-85653072D01*
X101096982Y-85601140D01*
X101063497Y-85539817D01*
X101068481Y-85470125D01*
X101110353Y-85414192D01*
X101175817Y-85389775D01*
X101204061Y-85390986D01*
X101204712Y-85391089D01*
X101204715Y-85391090D01*
X101453538Y-85430500D01*
X101453539Y-85430500D01*
X101705461Y-85430500D01*
X101705462Y-85430500D01*
X101954285Y-85391090D01*
X102193879Y-85313241D01*
X102418345Y-85198870D01*
X102622156Y-85050793D01*
X102800293Y-84872656D01*
X102948370Y-84668845D01*
X103062741Y-84444379D01*
X103140590Y-84204785D01*
X103180000Y-83955962D01*
X103180000Y-83704038D01*
X103140590Y-83455215D01*
X103062741Y-83215621D01*
X103062739Y-83215618D01*
X103062739Y-83215616D01*
X103011157Y-83114381D01*
X102948370Y-82991155D01*
X102875240Y-82890500D01*
X102800298Y-82787350D01*
X102800294Y-82787345D01*
X102622154Y-82609205D01*
X102622149Y-82609201D01*
X102418348Y-82461132D01*
X102418347Y-82461131D01*
X102418345Y-82461130D01*
X102348247Y-82425413D01*
X102193883Y-82346760D01*
X101954285Y-82268910D01*
X101705462Y-82229500D01*
X101453538Y-82229500D01*
X101329126Y-82249205D01*
X101204714Y-82268910D01*
X100965116Y-82346760D01*
X100740651Y-82461132D01*
X100536850Y-82609201D01*
X100536845Y-82609205D01*
X100358705Y-82787345D01*
X100358701Y-82787350D01*
X100210632Y-82991151D01*
X100096260Y-83215616D01*
X100075345Y-83279986D01*
X100018410Y-83455215D01*
X99979000Y-83704038D01*
X99979000Y-83955962D01*
X99996104Y-84063951D01*
X100018410Y-84204785D01*
X100096260Y-84444383D01*
X100121930Y-84494762D01*
X100197568Y-84643210D01*
X100210632Y-84668848D01*
X100358701Y-84872649D01*
X100358705Y-84872654D01*
X100358707Y-84872656D01*
X100536844Y-85050793D01*
X100536845Y-85050794D01*
X100536844Y-85050794D01*
X100543161Y-85055383D01*
X100585827Y-85110714D01*
X100591805Y-85180327D01*
X100559199Y-85242122D01*
X100498360Y-85276479D01*
X100450878Y-85278174D01*
X100396111Y-85269500D01*
X100222889Y-85269500D01*
X100183228Y-85275781D01*
X100051802Y-85296597D01*
X99887052Y-85350128D01*
X99732711Y-85428768D01*
X99675789Y-85470125D01*
X99592572Y-85530586D01*
X99592570Y-85530588D01*
X99592569Y-85530588D01*
X99470088Y-85653069D01*
X99470088Y-85653070D01*
X99470086Y-85653072D01*
X99442725Y-85690731D01*
X99368268Y-85793211D01*
X99289628Y-85947552D01*
X99236097Y-86112302D01*
X99209000Y-86283389D01*
X92520000Y-86283389D01*
X92492902Y-86112299D01*
X92439373Y-85947555D01*
X92360732Y-85793212D01*
X92258914Y-85653072D01*
X92136428Y-85530586D01*
X91996288Y-85428768D01*
X91841945Y-85350127D01*
X91677201Y-85296598D01*
X91677199Y-85296597D01*
X91677198Y-85296597D01*
X91545771Y-85275781D01*
X91506111Y-85269500D01*
X91332889Y-85269500D01*
X91293228Y-85275781D01*
X91161802Y-85296597D01*
X90997052Y-85350128D01*
X90842711Y-85428768D01*
X90785789Y-85470125D01*
X90702572Y-85530586D01*
X90702570Y-85530588D01*
X90702569Y-85530588D01*
X90580088Y-85653069D01*
X90580088Y-85653070D01*
X90580086Y-85653072D01*
X90552725Y-85690731D01*
X90478268Y-85793211D01*
X90399628Y-85947552D01*
X90346097Y-86112302D01*
X90319000Y-86283389D01*
X88590000Y-86283389D01*
X88590000Y-86222494D01*
X88551493Y-85930007D01*
X88475139Y-85645048D01*
X88471310Y-85635805D01*
X88413691Y-85496700D01*
X88362243Y-85372493D01*
X88306809Y-85276479D01*
X88214738Y-85117006D01*
X88035147Y-84882959D01*
X88035141Y-84882952D01*
X87826547Y-84674358D01*
X87826540Y-84674352D01*
X87592493Y-84494761D01*
X87337010Y-84347258D01*
X87337000Y-84347254D01*
X87064461Y-84234364D01*
X87064454Y-84234362D01*
X87064452Y-84234361D01*
X86779493Y-84158007D01*
X86730613Y-84151571D01*
X86487013Y-84119500D01*
X86487006Y-84119500D01*
X86191994Y-84119500D01*
X86191986Y-84119500D01*
X85913585Y-84156153D01*
X85899507Y-84158007D01*
X85724928Y-84204785D01*
X85614548Y-84234361D01*
X85614538Y-84234364D01*
X85341999Y-84347254D01*
X85341989Y-84347258D01*
X85086506Y-84494761D01*
X84852459Y-84674352D01*
X84852452Y-84674358D01*
X84643858Y-84882952D01*
X84643852Y-84882959D01*
X84464261Y-85117006D01*
X84316758Y-85372489D01*
X84316754Y-85372499D01*
X84203864Y-85645038D01*
X84203861Y-85645048D01*
X84141787Y-85876715D01*
X84127508Y-85930004D01*
X84127506Y-85930015D01*
X84089000Y-86222486D01*
X84089000Y-86517513D01*
X84121071Y-86761113D01*
X84127507Y-86809993D01*
X84201712Y-87086930D01*
X84203861Y-87094951D01*
X84203864Y-87094961D01*
X84316754Y-87367500D01*
X84316758Y-87367510D01*
X84464261Y-87622993D01*
X84643852Y-87857040D01*
X84643858Y-87857047D01*
X84852452Y-88065641D01*
X84852459Y-88065647D01*
X85086506Y-88245238D01*
X85341989Y-88392741D01*
X85341990Y-88392741D01*
X85341993Y-88392743D01*
X85479881Y-88449858D01*
X85602650Y-88500711D01*
X85614548Y-88505639D01*
X85899507Y-88581993D01*
X86160344Y-88616333D01*
X86186699Y-88619803D01*
X86250595Y-88648070D01*
X86289066Y-88706394D01*
X86289897Y-88776259D01*
X86252825Y-88835482D01*
X86189619Y-88865261D01*
X86170513Y-88866742D01*
X85536255Y-88866742D01*
X85520645Y-88862534D01*
X85506663Y-88863159D01*
X85474257Y-88850031D01*
X85473936Y-88849945D01*
X85473900Y-88849924D01*
X85445905Y-88833566D01*
X85445632Y-88833491D01*
X85438470Y-88829328D01*
X85438451Y-88829308D01*
X85438358Y-88829262D01*
X85423922Y-88820850D01*
X85423919Y-88820849D01*
X85423916Y-88820847D01*
X85252192Y-88758785D01*
X85252189Y-88758784D01*
X85252188Y-88758784D01*
X85072075Y-88728832D01*
X85072071Y-88728832D01*
X84926016Y-88731349D01*
X84889502Y-88731979D01*
X84710520Y-88768122D01*
X84710516Y-88768123D01*
X84541037Y-88836067D01*
X84541036Y-88836068D01*
X84386656Y-88933566D01*
X84386645Y-88933574D01*
X84252472Y-89057401D01*
X84252465Y-89057409D01*
X84177302Y-89157637D01*
X84121333Y-89199461D01*
X84078099Y-89207242D01*
X83946999Y-89207242D01*
X83946999Y-89993242D01*
X83927314Y-90060281D01*
X83874510Y-90106036D01*
X83822999Y-90117242D01*
X83696999Y-90117242D01*
X83696999Y-90243242D01*
X83677314Y-90310281D01*
X83624510Y-90356036D01*
X83572999Y-90367242D01*
X82396999Y-90367242D01*
X82396999Y-90483388D01*
X82411978Y-90597172D01*
X82411980Y-90597177D01*
X82470620Y-90738748D01*
X82470623Y-90738753D01*
X82510978Y-90791345D01*
X82521018Y-90817317D01*
X82534072Y-90841912D01*
X82533442Y-90849454D01*
X82536172Y-90856514D01*
X82530577Y-90883791D01*
X82528262Y-90911539D01*
X82522944Y-90921009D01*
X82522134Y-90924959D01*
X82510981Y-90942313D01*
X82491056Y-90968282D01*
X82434630Y-91009487D01*
X82392677Y-91016800D01*
X79066097Y-91016800D01*
X78999058Y-90997115D01*
X78978416Y-90980481D01*
X77749030Y-89751095D01*
X82396999Y-89751095D01*
X82396999Y-89867242D01*
X83446999Y-89867242D01*
X83446999Y-89207242D01*
X82940852Y-89207242D01*
X82827068Y-89222221D01*
X82827063Y-89222223D01*
X82685492Y-89280863D01*
X82685491Y-89280863D01*
X82563912Y-89374155D01*
X82470620Y-89495734D01*
X82470620Y-89495735D01*
X82411980Y-89637306D01*
X82411978Y-89637311D01*
X82396999Y-89751095D01*
X77749030Y-89751095D01*
X77643590Y-89645655D01*
X77643588Y-89645652D01*
X77524717Y-89526781D01*
X77524712Y-89526777D01*
X77422864Y-89467976D01*
X77422863Y-89467975D01*
X77387790Y-89447725D01*
X77387789Y-89447724D01*
X77375263Y-89444367D01*
X77235057Y-89406799D01*
X77076943Y-89406799D01*
X77069347Y-89406799D01*
X77069331Y-89406800D01*
X71061321Y-89406800D01*
X70994282Y-89387115D01*
X70962945Y-89358286D01*
X70941903Y-89330863D01*
X70890443Y-89263798D01*
X70768762Y-89170430D01*
X70768761Y-89170429D01*
X70627062Y-89111735D01*
X70627060Y-89111734D01*
X70513177Y-89096742D01*
X70513176Y-89096742D01*
X69375522Y-89096742D01*
X69308483Y-89077057D01*
X69276319Y-89047139D01*
X69259531Y-89024753D01*
X69201525Y-88947405D01*
X69201519Y-88947399D01*
X69201518Y-88947398D01*
X69067349Y-88823575D01*
X69067338Y-88823567D01*
X68912957Y-88726067D01*
X68743476Y-88658124D01*
X68743477Y-88658124D01*
X68573328Y-88623765D01*
X68564494Y-88621981D01*
X68381926Y-88618834D01*
X68373050Y-88620309D01*
X68303691Y-88611887D01*
X68249896Y-88567302D01*
X68228744Y-88500711D01*
X68246952Y-88433256D01*
X68290715Y-88390602D01*
X68328083Y-88369028D01*
X68542494Y-88245238D01*
X68776542Y-88065646D01*
X68985146Y-87857042D01*
X69164738Y-87622994D01*
X69312243Y-87367507D01*
X69425139Y-87094952D01*
X69501493Y-86809993D01*
X69540000Y-86517506D01*
X69540000Y-86283389D01*
X71269000Y-86283389D01*
X71269000Y-86456611D01*
X71296098Y-86627701D01*
X71349627Y-86792445D01*
X71428268Y-86946788D01*
X71530086Y-87086928D01*
X71652572Y-87209414D01*
X71792712Y-87311232D01*
X71947055Y-87389873D01*
X72111799Y-87443402D01*
X72282889Y-87470500D01*
X72282890Y-87470500D01*
X72456110Y-87470500D01*
X72456111Y-87470500D01*
X72627201Y-87443402D01*
X72791945Y-87389873D01*
X72946288Y-87311232D01*
X73086428Y-87209414D01*
X73208914Y-87086928D01*
X73310732Y-86946788D01*
X73389373Y-86792445D01*
X73442902Y-86627701D01*
X73470000Y-86456611D01*
X73470000Y-86283389D01*
X80159000Y-86283389D01*
X80159000Y-86456611D01*
X80186098Y-86627701D01*
X80239627Y-86792445D01*
X80318268Y-86946788D01*
X80420086Y-87086928D01*
X80542572Y-87209414D01*
X80682712Y-87311232D01*
X80837055Y-87389873D01*
X81001799Y-87443402D01*
X81172889Y-87470500D01*
X81172890Y-87470500D01*
X81346110Y-87470500D01*
X81346111Y-87470500D01*
X81517201Y-87443402D01*
X81681945Y-87389873D01*
X81836288Y-87311232D01*
X81976428Y-87209414D01*
X82098914Y-87086928D01*
X82200732Y-86946788D01*
X82279373Y-86792445D01*
X82332902Y-86627701D01*
X82360000Y-86456611D01*
X82360000Y-86283389D01*
X82332902Y-86112299D01*
X82279373Y-85947555D01*
X82200732Y-85793212D01*
X82098914Y-85653072D01*
X82046982Y-85601140D01*
X82013497Y-85539817D01*
X82018481Y-85470125D01*
X82060353Y-85414192D01*
X82125817Y-85389775D01*
X82154061Y-85390986D01*
X82154712Y-85391089D01*
X82154715Y-85391090D01*
X82403538Y-85430500D01*
X82403539Y-85430500D01*
X82655461Y-85430500D01*
X82655462Y-85430500D01*
X82904285Y-85391090D01*
X83143879Y-85313241D01*
X83368345Y-85198870D01*
X83572156Y-85050793D01*
X83750293Y-84872656D01*
X83898370Y-84668845D01*
X84012741Y-84444379D01*
X84090590Y-84204785D01*
X84130000Y-83955962D01*
X84130000Y-83859248D01*
X94546500Y-83859248D01*
X94546500Y-84063951D01*
X94578522Y-84266134D01*
X94641781Y-84460823D01*
X94734715Y-84643213D01*
X94855028Y-84808813D01*
X94999786Y-84953571D01*
X95133605Y-85050794D01*
X95165390Y-85073887D01*
X95250016Y-85117006D01*
X95347776Y-85166818D01*
X95347778Y-85166818D01*
X95347781Y-85166820D01*
X95446412Y-85198867D01*
X95542465Y-85230077D01*
X95602439Y-85239576D01*
X95744648Y-85262100D01*
X95744649Y-85262100D01*
X95949351Y-85262100D01*
X95949352Y-85262100D01*
X96151534Y-85230077D01*
X96346219Y-85166820D01*
X96528610Y-85073887D01*
X96621590Y-85006332D01*
X96694213Y-84953571D01*
X96694215Y-84953568D01*
X96694219Y-84953566D01*
X96838966Y-84808819D01*
X96838968Y-84808815D01*
X96838971Y-84808813D01*
X96891732Y-84736190D01*
X96959287Y-84643210D01*
X97052220Y-84460819D01*
X97115477Y-84266134D01*
X97147500Y-84063952D01*
X97147500Y-83859248D01*
X97115477Y-83657066D01*
X97105729Y-83627066D01*
X97052218Y-83462376D01*
X97018503Y-83396207D01*
X96959287Y-83279990D01*
X96912517Y-83215616D01*
X96838971Y-83114386D01*
X96694213Y-82969628D01*
X96528613Y-82849315D01*
X96528612Y-82849314D01*
X96528610Y-82849313D01*
X96469732Y-82819313D01*
X96346223Y-82756381D01*
X96151534Y-82693122D01*
X95976995Y-82665478D01*
X95949352Y-82661100D01*
X95744648Y-82661100D01*
X95720329Y-82664951D01*
X95542465Y-82693122D01*
X95347776Y-82756381D01*
X95165386Y-82849315D01*
X94999786Y-82969628D01*
X94855028Y-83114386D01*
X94734715Y-83279986D01*
X94641781Y-83462376D01*
X94578522Y-83657065D01*
X94546500Y-83859248D01*
X84130000Y-83859248D01*
X84130000Y-83704038D01*
X84090590Y-83455215D01*
X84012741Y-83215621D01*
X84012739Y-83215618D01*
X84012739Y-83215616D01*
X83961157Y-83114381D01*
X83898370Y-82991155D01*
X83825240Y-82890500D01*
X83750298Y-82787350D01*
X83750294Y-82787345D01*
X83572154Y-82609205D01*
X83572149Y-82609201D01*
X83368348Y-82461132D01*
X83368347Y-82461131D01*
X83368345Y-82461130D01*
X83298247Y-82425413D01*
X83143883Y-82346760D01*
X82904285Y-82268910D01*
X82655462Y-82229500D01*
X82403538Y-82229500D01*
X82279126Y-82249205D01*
X82154714Y-82268910D01*
X81915116Y-82346760D01*
X81690651Y-82461132D01*
X81486850Y-82609201D01*
X81486845Y-82609205D01*
X81308705Y-82787345D01*
X81308701Y-82787350D01*
X81160632Y-82991151D01*
X81046260Y-83215616D01*
X81025345Y-83279986D01*
X80968410Y-83455215D01*
X80929000Y-83704038D01*
X80929000Y-83955962D01*
X80946104Y-84063951D01*
X80968410Y-84204785D01*
X81046260Y-84444383D01*
X81071930Y-84494762D01*
X81147568Y-84643210D01*
X81160632Y-84668848D01*
X81308701Y-84872649D01*
X81308705Y-84872654D01*
X81308707Y-84872656D01*
X81486844Y-85050793D01*
X81486845Y-85050794D01*
X81486844Y-85050794D01*
X81493161Y-85055383D01*
X81535827Y-85110714D01*
X81541805Y-85180327D01*
X81509199Y-85242122D01*
X81448360Y-85276479D01*
X81400878Y-85278174D01*
X81346111Y-85269500D01*
X81172889Y-85269500D01*
X81133228Y-85275781D01*
X81001802Y-85296597D01*
X80837052Y-85350128D01*
X80682711Y-85428768D01*
X80625789Y-85470125D01*
X80542572Y-85530586D01*
X80542570Y-85530588D01*
X80542569Y-85530588D01*
X80420088Y-85653069D01*
X80420088Y-85653070D01*
X80420086Y-85653072D01*
X80392725Y-85690731D01*
X80318268Y-85793211D01*
X80239628Y-85947552D01*
X80186097Y-86112302D01*
X80159000Y-86283389D01*
X73470000Y-86283389D01*
X73442902Y-86112299D01*
X73389373Y-85947555D01*
X73310732Y-85793212D01*
X73208914Y-85653072D01*
X73086428Y-85530586D01*
X72946288Y-85428768D01*
X72791945Y-85350127D01*
X72627201Y-85296598D01*
X72627199Y-85296597D01*
X72627198Y-85296597D01*
X72495771Y-85275781D01*
X72456111Y-85269500D01*
X72282889Y-85269500D01*
X72243228Y-85275781D01*
X72111802Y-85296597D01*
X71947052Y-85350128D01*
X71792711Y-85428768D01*
X71735789Y-85470125D01*
X71652572Y-85530586D01*
X71652570Y-85530588D01*
X71652569Y-85530588D01*
X71530088Y-85653069D01*
X71530088Y-85653070D01*
X71530086Y-85653072D01*
X71502725Y-85690731D01*
X71428268Y-85793211D01*
X71349628Y-85947552D01*
X71296097Y-86112302D01*
X71269000Y-86283389D01*
X69540000Y-86283389D01*
X69540000Y-86222494D01*
X69501493Y-85930007D01*
X69425139Y-85645048D01*
X69421310Y-85635805D01*
X69363691Y-85496700D01*
X69312243Y-85372493D01*
X69256809Y-85276479D01*
X69164738Y-85117006D01*
X68985147Y-84882959D01*
X68985141Y-84882952D01*
X68776547Y-84674358D01*
X68776540Y-84674352D01*
X68542493Y-84494761D01*
X68287010Y-84347258D01*
X68287000Y-84347254D01*
X68014461Y-84234364D01*
X68014454Y-84234362D01*
X68014452Y-84234361D01*
X67729493Y-84158007D01*
X67680613Y-84151571D01*
X67437013Y-84119500D01*
X67437006Y-84119500D01*
X67141994Y-84119500D01*
X67141986Y-84119500D01*
X66863585Y-84156153D01*
X66849507Y-84158007D01*
X66674928Y-84204785D01*
X66564548Y-84234361D01*
X66564538Y-84234364D01*
X66291999Y-84347254D01*
X66291982Y-84347262D01*
X66152503Y-84427790D01*
X66146610Y-84429219D01*
X66142027Y-84433192D01*
X66113051Y-84437361D01*
X66084603Y-84444263D01*
X66078871Y-84442279D01*
X66072869Y-84443143D01*
X66046240Y-84430985D01*
X66018576Y-84421410D01*
X66014826Y-84416642D01*
X66009311Y-84414124D01*
X65993483Y-84389502D01*
X65975386Y-84366489D01*
X65973970Y-84359146D01*
X65971530Y-84355350D01*
X65966516Y-84320480D01*
X65966504Y-84320416D01*
X65966503Y-84319282D01*
X65966506Y-84288885D01*
X65966500Y-84288865D01*
X65966500Y-84280928D01*
X65966500Y-83829248D01*
X75514000Y-83829248D01*
X75514000Y-84033951D01*
X75546022Y-84236134D01*
X75609281Y-84430823D01*
X75702215Y-84613213D01*
X75822528Y-84778813D01*
X75967286Y-84923571D01*
X76122249Y-85036156D01*
X76132890Y-85043887D01*
X76243658Y-85100326D01*
X76315276Y-85136818D01*
X76315278Y-85136818D01*
X76315281Y-85136820D01*
X76419637Y-85170727D01*
X76509965Y-85200077D01*
X76611057Y-85216088D01*
X76712148Y-85232100D01*
X76712149Y-85232100D01*
X76916851Y-85232100D01*
X76916852Y-85232100D01*
X77119034Y-85200077D01*
X77313719Y-85136820D01*
X77496110Y-85043887D01*
X77589090Y-84976332D01*
X77661713Y-84923571D01*
X77661715Y-84923568D01*
X77661719Y-84923566D01*
X77806466Y-84778819D01*
X77806468Y-84778815D01*
X77806471Y-84778813D01*
X77859232Y-84706190D01*
X77926787Y-84613210D01*
X78019720Y-84430819D01*
X78082977Y-84236134D01*
X78115000Y-84033952D01*
X78115000Y-83829248D01*
X78087729Y-83657066D01*
X78082977Y-83627065D01*
X78053627Y-83536737D01*
X78019720Y-83432381D01*
X78019718Y-83432378D01*
X78019718Y-83432376D01*
X77986003Y-83366207D01*
X77926787Y-83249990D01*
X77901813Y-83215616D01*
X77806471Y-83084386D01*
X77661713Y-82939628D01*
X77496113Y-82819315D01*
X77496112Y-82819314D01*
X77496110Y-82819313D01*
X77433367Y-82787344D01*
X77313723Y-82726381D01*
X77119034Y-82663122D01*
X76944495Y-82635478D01*
X76916852Y-82631100D01*
X76712148Y-82631100D01*
X76687829Y-82634951D01*
X76509965Y-82663122D01*
X76315276Y-82726381D01*
X76132886Y-82819315D01*
X75967286Y-82939628D01*
X75822528Y-83084386D01*
X75702215Y-83249986D01*
X75609281Y-83432376D01*
X75546022Y-83627065D01*
X75514000Y-83829248D01*
X65966500Y-83829248D01*
X65966500Y-74175500D01*
X65986185Y-74108461D01*
X66038989Y-74062706D01*
X66090500Y-74051500D01*
X66932500Y-74051500D01*
X66999539Y-74071185D01*
X67045294Y-74123989D01*
X67056500Y-74175500D01*
X67056500Y-79038474D01*
X67056490Y-79038512D01*
X67056500Y-79121729D01*
X67056500Y-79196593D01*
X67076873Y-79272593D01*
X67076874Y-79272606D01*
X67076876Y-79272606D01*
X67097421Y-79349281D01*
X67097451Y-79349353D01*
X67135673Y-79415536D01*
X67135677Y-79415551D01*
X67135680Y-79415549D01*
X67135681Y-79415550D01*
X67176480Y-79486216D01*
X67176483Y-79486219D01*
X67176523Y-79486271D01*
X67228631Y-79538367D01*
X67228641Y-79538377D01*
X67294212Y-79603948D01*
X67294331Y-79604052D01*
X68297390Y-80606881D01*
X68330882Y-80668200D01*
X68327650Y-80732890D01*
X68268410Y-80915210D01*
X68268410Y-80915213D01*
X68229000Y-81164038D01*
X68229000Y-81415961D01*
X68268410Y-81664785D01*
X68346260Y-81904383D01*
X68460632Y-82128848D01*
X68608701Y-82332649D01*
X68608705Y-82332654D01*
X68786845Y-82510794D01*
X68786850Y-82510798D01*
X68937469Y-82620228D01*
X68990655Y-82658870D01*
X69123151Y-82726380D01*
X69215116Y-82773239D01*
X69215118Y-82773239D01*
X69215121Y-82773241D01*
X69454715Y-82851090D01*
X69703538Y-82890500D01*
X69703539Y-82890500D01*
X69955461Y-82890500D01*
X69955462Y-82890500D01*
X70204285Y-82851090D01*
X70443879Y-82773241D01*
X70668345Y-82658870D01*
X70872156Y-82510793D01*
X71050293Y-82332656D01*
X71198370Y-82128845D01*
X71312741Y-81904379D01*
X71390590Y-81664785D01*
X71430000Y-81415962D01*
X71430000Y-81164038D01*
X87279000Y-81164038D01*
X87279000Y-81415961D01*
X87318410Y-81664785D01*
X87396260Y-81904383D01*
X87510632Y-82128848D01*
X87658701Y-82332649D01*
X87658705Y-82332654D01*
X87836845Y-82510794D01*
X87836850Y-82510798D01*
X87987469Y-82620228D01*
X88040655Y-82658870D01*
X88173151Y-82726380D01*
X88265116Y-82773239D01*
X88265118Y-82773239D01*
X88265121Y-82773241D01*
X88504715Y-82851090D01*
X88753538Y-82890500D01*
X88753539Y-82890500D01*
X89005461Y-82890500D01*
X89005462Y-82890500D01*
X89254285Y-82851090D01*
X89493879Y-82773241D01*
X89718345Y-82658870D01*
X89922156Y-82510793D01*
X90100293Y-82332656D01*
X90248370Y-82128845D01*
X90362741Y-81904379D01*
X90440590Y-81664785D01*
X90480000Y-81415962D01*
X90480000Y-81164038D01*
X106329000Y-81164038D01*
X106329000Y-81415961D01*
X106368410Y-81664785D01*
X106446260Y-81904383D01*
X106560632Y-82128848D01*
X106708701Y-82332649D01*
X106708705Y-82332654D01*
X106886845Y-82510794D01*
X106886850Y-82510798D01*
X107037469Y-82620228D01*
X107090655Y-82658870D01*
X107223151Y-82726380D01*
X107315116Y-82773239D01*
X107315118Y-82773239D01*
X107315121Y-82773241D01*
X107554715Y-82851090D01*
X107803538Y-82890500D01*
X107803539Y-82890500D01*
X108055461Y-82890500D01*
X108055462Y-82890500D01*
X108304285Y-82851090D01*
X108543879Y-82773241D01*
X108768345Y-82658870D01*
X108972156Y-82510793D01*
X109150293Y-82332656D01*
X109298370Y-82128845D01*
X109412741Y-81904379D01*
X109490590Y-81664785D01*
X109530000Y-81415962D01*
X109530000Y-81164038D01*
X109490590Y-80915215D01*
X109412741Y-80675621D01*
X109412739Y-80675618D01*
X109412739Y-80675616D01*
X109371247Y-80594184D01*
X109298370Y-80451155D01*
X109279452Y-80425117D01*
X109150298Y-80247350D01*
X109150294Y-80247345D01*
X108972154Y-80069205D01*
X108972149Y-80069201D01*
X108768348Y-79921132D01*
X108768347Y-79921131D01*
X108768345Y-79921130D01*
X108698247Y-79885413D01*
X108543883Y-79806760D01*
X108304285Y-79728910D01*
X108055462Y-79689500D01*
X107803538Y-79689500D01*
X107679126Y-79709205D01*
X107554714Y-79728910D01*
X107315116Y-79806760D01*
X107090651Y-79921132D01*
X106886850Y-80069201D01*
X106886845Y-80069205D01*
X106708705Y-80247345D01*
X106708701Y-80247350D01*
X106560632Y-80451151D01*
X106446260Y-80675616D01*
X106368410Y-80915214D01*
X106329000Y-81164038D01*
X90480000Y-81164038D01*
X90440590Y-80915215D01*
X90362741Y-80675621D01*
X90362739Y-80675618D01*
X90362739Y-80675616D01*
X90321247Y-80594184D01*
X90248370Y-80451155D01*
X90229452Y-80425117D01*
X90100298Y-80247350D01*
X90100294Y-80247345D01*
X89922154Y-80069205D01*
X89922149Y-80069201D01*
X89718348Y-79921132D01*
X89718347Y-79921131D01*
X89718345Y-79921130D01*
X89648247Y-79885413D01*
X89493883Y-79806760D01*
X89254285Y-79728910D01*
X89005462Y-79689500D01*
X88753538Y-79689500D01*
X88629126Y-79709205D01*
X88504714Y-79728910D01*
X88265116Y-79806760D01*
X88040651Y-79921132D01*
X87836850Y-80069201D01*
X87836845Y-80069205D01*
X87658705Y-80247345D01*
X87658701Y-80247350D01*
X87510632Y-80451151D01*
X87396260Y-80675616D01*
X87318410Y-80915214D01*
X87279000Y-81164038D01*
X71430000Y-81164038D01*
X71390590Y-80915215D01*
X71312741Y-80675621D01*
X71312739Y-80675618D01*
X71312739Y-80675616D01*
X71271247Y-80594184D01*
X71198370Y-80451155D01*
X71179452Y-80425117D01*
X71050298Y-80247350D01*
X71050294Y-80247345D01*
X70872154Y-80069205D01*
X70872149Y-80069201D01*
X70668348Y-79921132D01*
X70668347Y-79921131D01*
X70668345Y-79921130D01*
X70598247Y-79885413D01*
X70443883Y-79806760D01*
X70204285Y-79728910D01*
X69955462Y-79689500D01*
X69703538Y-79689500D01*
X69620597Y-79702636D01*
X69454713Y-79728910D01*
X69454710Y-79728910D01*
X69272760Y-79788030D01*
X69202919Y-79790025D01*
X69146771Y-79757790D01*
X68293829Y-78905043D01*
X68260337Y-78843724D01*
X68257500Y-78817352D01*
X68257500Y-77872753D01*
X68966500Y-77872753D01*
X68966500Y-78030446D01*
X68997261Y-78185089D01*
X68997264Y-78185101D01*
X69057602Y-78330772D01*
X69057609Y-78330785D01*
X69145210Y-78461888D01*
X69145213Y-78461892D01*
X69256707Y-78573386D01*
X69256711Y-78573389D01*
X69387814Y-78660990D01*
X69387827Y-78660997D01*
X69533498Y-78721335D01*
X69533503Y-78721337D01*
X69688153Y-78752099D01*
X69688156Y-78752100D01*
X69688158Y-78752100D01*
X69845844Y-78752100D01*
X69845845Y-78752099D01*
X70000497Y-78721337D01*
X70146179Y-78660994D01*
X70190751Y-78631212D01*
X70277875Y-78572998D01*
X70344553Y-78552120D01*
X70346766Y-78552100D01*
X83087031Y-78552100D01*
X83154070Y-78571785D01*
X83155876Y-78572967D01*
X83197821Y-78600994D01*
X83197823Y-78600995D01*
X83197827Y-78600997D01*
X83270774Y-78631212D01*
X83343503Y-78661337D01*
X83495021Y-78691476D01*
X83498153Y-78692099D01*
X83498156Y-78692100D01*
X83498158Y-78692100D01*
X83655844Y-78692100D01*
X83655845Y-78692099D01*
X83810497Y-78661337D01*
X83956179Y-78600994D01*
X84087289Y-78513389D01*
X84198789Y-78401889D01*
X84286394Y-78270779D01*
X84346737Y-78125097D01*
X84377500Y-77970442D01*
X84377500Y-77812758D01*
X84377500Y-77812755D01*
X84377499Y-77812753D01*
X84358290Y-77716185D01*
X84346737Y-77658103D01*
X84343506Y-77650303D01*
X84286397Y-77512427D01*
X84286390Y-77512414D01*
X84198789Y-77381311D01*
X84198786Y-77381307D01*
X84087292Y-77269813D01*
X84087288Y-77269810D01*
X83956185Y-77182209D01*
X83956172Y-77182202D01*
X83810501Y-77121864D01*
X83810489Y-77121861D01*
X83655845Y-77091100D01*
X83655842Y-77091100D01*
X83498158Y-77091100D01*
X83498155Y-77091100D01*
X83343510Y-77121861D01*
X83343498Y-77121864D01*
X83197827Y-77182202D01*
X83197814Y-77182209D01*
X83066711Y-77269810D01*
X83066707Y-77269813D01*
X83021742Y-77314780D01*
X82960419Y-77348266D01*
X82934060Y-77351100D01*
X70346766Y-77351100D01*
X70279727Y-77331415D01*
X70277875Y-77330202D01*
X70146185Y-77242209D01*
X70146172Y-77242202D01*
X70000501Y-77181864D01*
X70000489Y-77181861D01*
X69845845Y-77151100D01*
X69845842Y-77151100D01*
X69688158Y-77151100D01*
X69688155Y-77151100D01*
X69533510Y-77181861D01*
X69533498Y-77181864D01*
X69387827Y-77242202D01*
X69387814Y-77242209D01*
X69256711Y-77329810D01*
X69256707Y-77329813D01*
X69145213Y-77441307D01*
X69145210Y-77441311D01*
X69057609Y-77572414D01*
X69057602Y-77572427D01*
X68997264Y-77718098D01*
X68997261Y-77718110D01*
X68966500Y-77872753D01*
X68257500Y-77872753D01*
X68257500Y-74175500D01*
X68277185Y-74108461D01*
X68329989Y-74062706D01*
X68381500Y-74051500D01*
X69595526Y-74051500D01*
X69595534Y-74051500D01*
X69632548Y-74048587D01*
X69632550Y-74048586D01*
X69632552Y-74048586D01*
X69686904Y-74032795D01*
X69790959Y-74002564D01*
X69932947Y-73918592D01*
X70049592Y-73801947D01*
X70083268Y-73745003D01*
X70134337Y-73697321D01*
X70203079Y-73684817D01*
X70267668Y-73711462D01*
X70296732Y-73745004D01*
X70330405Y-73801943D01*
X70330407Y-73801946D01*
X70330412Y-73801952D01*
X70447047Y-73918587D01*
X70447051Y-73918590D01*
X70447053Y-73918592D01*
X70589041Y-74002564D01*
X70630816Y-74014701D01*
X70747447Y-74048586D01*
X70747450Y-74048586D01*
X70747452Y-74048587D01*
X70784466Y-74051500D01*
X70784474Y-74051500D01*
X72135526Y-74051500D01*
X72135534Y-74051500D01*
X72172548Y-74048587D01*
X72172550Y-74048586D01*
X72172552Y-74048586D01*
X72226904Y-74032795D01*
X72330959Y-74002564D01*
X72472947Y-73918592D01*
X72589592Y-73801947D01*
X72673564Y-73659959D01*
X72719587Y-73501548D01*
X72722500Y-73464534D01*
X72722500Y-71205466D01*
X72719587Y-71168452D01*
X72712573Y-71144311D01*
X72673565Y-71010045D01*
X72673564Y-71010042D01*
X72673564Y-71010041D01*
X72589592Y-70868053D01*
X72493390Y-70771851D01*
X72480758Y-70757060D01*
X72422984Y-70677539D01*
X72282466Y-70537021D01*
X72282464Y-70537019D01*
X72121694Y-70420213D01*
X71944632Y-70329994D01*
X71944629Y-70329993D01*
X71755637Y-70268587D01*
X71657498Y-70253043D01*
X71559361Y-70237500D01*
X71360639Y-70237500D01*
X71295214Y-70247862D01*
X71164362Y-70268587D01*
X70975370Y-70329993D01*
X70975367Y-70329994D01*
X70798305Y-70420213D01*
X70637533Y-70537021D01*
X70497018Y-70677536D01*
X70439239Y-70757061D01*
X70433960Y-70763821D01*
X70430446Y-70768013D01*
X70330408Y-70868053D01*
X70291564Y-70933733D01*
X70285038Y-70941521D01*
X70264076Y-70955485D01*
X70245662Y-70972679D01*
X70235492Y-70974528D01*
X70226891Y-70980259D01*
X70201703Y-70980674D01*
X70176921Y-70985182D01*
X70167366Y-70981240D01*
X70157031Y-70981411D01*
X70135616Y-70968142D01*
X70112331Y-70958536D01*
X70103308Y-70948123D01*
X70097638Y-70944610D01*
X70094426Y-70937873D01*
X70083268Y-70924996D01*
X70049592Y-70868053D01*
X69953390Y-70771851D01*
X69940758Y-70757060D01*
X69882984Y-70677539D01*
X69742466Y-70537021D01*
X69742464Y-70537019D01*
X69581694Y-70420213D01*
X69404632Y-70329994D01*
X69404629Y-70329993D01*
X69215637Y-70268587D01*
X69117498Y-70253043D01*
X69019361Y-70237500D01*
X68820639Y-70237500D01*
X68755214Y-70247862D01*
X68624362Y-70268587D01*
X68435370Y-70329993D01*
X68430865Y-70331860D01*
X68430173Y-70330191D01*
X68369114Y-70341653D01*
X68304376Y-70315370D01*
X68264124Y-70258260D01*
X68257500Y-70218273D01*
X68257500Y-59892545D01*
X68257499Y-59892541D01*
X68237571Y-59818165D01*
X68216577Y-59739815D01*
X68187639Y-59689695D01*
X68137520Y-59602884D01*
X68025716Y-59491080D01*
X68025715Y-59491079D01*
X68021385Y-59486749D01*
X68021374Y-59486739D01*
X66268816Y-57734181D01*
X66235331Y-57672858D01*
X66240315Y-57603166D01*
X66282187Y-57547233D01*
X66347651Y-57522816D01*
X66356497Y-57522500D01*
X66479360Y-57522500D01*
X66479361Y-57522500D01*
X66675636Y-57491413D01*
X66864632Y-57430005D01*
X67041694Y-57339787D01*
X67202464Y-57222981D01*
X67342981Y-57082464D01*
X67400762Y-57002933D01*
X67406039Y-56996175D01*
X67409537Y-56992000D01*
X67509592Y-56891947D01*
X67548439Y-56826259D01*
X67554962Y-56818477D01*
X67575927Y-56804509D01*
X67594337Y-56787321D01*
X67604505Y-56785471D01*
X67613110Y-56779739D01*
X67638299Y-56779324D01*
X67663079Y-56774817D01*
X67672634Y-56778759D01*
X67682970Y-56778589D01*
X67704379Y-56791854D01*
X67727668Y-56801462D01*
X67736691Y-56811875D01*
X67742363Y-56815390D01*
X67745575Y-56822128D01*
X67756731Y-56835003D01*
X67790408Y-56891947D01*
X67886608Y-56988147D01*
X67899240Y-57002938D01*
X67957019Y-57082464D01*
X68097536Y-57222981D01*
X68258306Y-57339787D01*
X68345149Y-57384035D01*
X68435367Y-57430005D01*
X68435370Y-57430006D01*
X68529866Y-57460709D01*
X68624364Y-57491413D01*
X68820639Y-57522500D01*
X68820640Y-57522500D01*
X69019360Y-57522500D01*
X69019361Y-57522500D01*
X69215636Y-57491413D01*
X69287937Y-57467920D01*
X69357776Y-57465925D01*
X69413935Y-57498171D01*
X75046284Y-63130520D01*
X75046286Y-63130521D01*
X75046290Y-63130524D01*
X75183209Y-63209573D01*
X75183216Y-63209577D01*
X75335943Y-63250501D01*
X75335945Y-63250501D01*
X75501654Y-63250501D01*
X75501670Y-63250500D01*
X78173781Y-63250500D01*
X78240820Y-63270185D01*
X78284265Y-63318205D01*
X78304447Y-63357814D01*
X78304448Y-63357815D01*
X78429390Y-63529786D01*
X78579713Y-63680109D01*
X78751682Y-63805050D01*
X78760446Y-63809516D01*
X78811242Y-63857491D01*
X78828036Y-63925312D01*
X78805498Y-63991447D01*
X78760446Y-64030484D01*
X78751682Y-64034949D01*
X78579713Y-64159890D01*
X78429390Y-64310213D01*
X78304451Y-64482179D01*
X78207944Y-64671585D01*
X78142253Y-64873760D01*
X78109000Y-65083713D01*
X78109000Y-65296286D01*
X78142253Y-65506239D01*
X78207944Y-65708414D01*
X78304451Y-65897820D01*
X78429390Y-66069786D01*
X78579813Y-66220209D01*
X78613298Y-66281532D01*
X78608314Y-66351224D01*
X78566442Y-66407157D01*
X78529025Y-66426275D01*
X78502504Y-66434539D01*
X78502501Y-66434540D01*
X78363266Y-66518710D01*
X78363262Y-66518713D01*
X78248213Y-66633762D01*
X78248210Y-66633766D01*
X78164040Y-66773001D01*
X78164038Y-66773007D01*
X78115635Y-66928337D01*
X78115634Y-66928344D01*
X78109500Y-66995848D01*
X78109500Y-67480000D01*
X79026488Y-67480000D01*
X78993575Y-67537007D01*
X78959500Y-67664174D01*
X78959500Y-67795826D01*
X78993575Y-67922993D01*
X79026488Y-67980000D01*
X78109501Y-67980000D01*
X78109501Y-68464162D01*
X78115632Y-68531651D01*
X78115634Y-68531658D01*
X78164037Y-68686989D01*
X78164040Y-68686998D01*
X78248210Y-68826233D01*
X78248213Y-68826237D01*
X78363262Y-68941286D01*
X78363266Y-68941289D01*
X78502501Y-69025459D01*
X78502507Y-69025461D01*
X78657837Y-69073864D01*
X78657844Y-69073865D01*
X78725348Y-69079999D01*
X79209499Y-69079999D01*
X79209500Y-69079998D01*
X79209500Y-68163012D01*
X79266507Y-68195925D01*
X79393674Y-68230000D01*
X79525326Y-68230000D01*
X79652493Y-68195925D01*
X79709500Y-68163012D01*
X79709500Y-69079999D01*
X80193661Y-69079999D01*
X80261151Y-69073867D01*
X80261158Y-69073865D01*
X80416489Y-69025462D01*
X80416498Y-69025459D01*
X80555733Y-68941289D01*
X80555737Y-68941286D01*
X80670786Y-68826237D01*
X80670789Y-68826233D01*
X80754959Y-68686998D01*
X80754961Y-68686992D01*
X80803364Y-68531662D01*
X80803365Y-68531655D01*
X80809500Y-68464151D01*
X80809500Y-67980000D01*
X79892512Y-67980000D01*
X79925425Y-67922993D01*
X79959500Y-67795826D01*
X79959500Y-67664174D01*
X79925425Y-67537007D01*
X79892512Y-67480000D01*
X80809499Y-67480000D01*
X80809499Y-66995837D01*
X80803367Y-66928348D01*
X80803365Y-66928341D01*
X80754962Y-66773010D01*
X80754959Y-66773001D01*
X80670789Y-66633766D01*
X80670786Y-66633762D01*
X80555737Y-66518713D01*
X80555733Y-66518710D01*
X80416498Y-66434540D01*
X80416493Y-66434538D01*
X80389975Y-66426275D01*
X80331828Y-66387536D01*
X80303855Y-66323510D01*
X80314937Y-66254525D01*
X80339186Y-66220208D01*
X80339284Y-66220109D01*
X80339292Y-66220104D01*
X80489604Y-66069792D01*
X80614551Y-65897816D01*
X80711057Y-65708412D01*
X80776746Y-65506243D01*
X80810000Y-65296287D01*
X80810000Y-65083713D01*
X80776746Y-64873757D01*
X80711057Y-64671588D01*
X80614551Y-64482184D01*
X80614549Y-64482181D01*
X80614548Y-64482179D01*
X80489609Y-64310213D01*
X80339286Y-64159890D01*
X80167320Y-64034951D01*
X80166615Y-64034591D01*
X80158554Y-64030485D01*
X80107759Y-63982512D01*
X80090963Y-63914692D01*
X80113499Y-63848556D01*
X80158554Y-63809515D01*
X80167316Y-63805051D01*
X80189289Y-63789086D01*
X80339286Y-63680109D01*
X80339288Y-63680106D01*
X80339292Y-63680104D01*
X80489604Y-63529792D01*
X80489606Y-63529788D01*
X80489609Y-63529786D01*
X80614548Y-63357820D01*
X80614547Y-63357820D01*
X80614551Y-63357816D01*
X80711057Y-63168412D01*
X80776746Y-62966243D01*
X80810000Y-62756287D01*
X80810000Y-62543713D01*
X80776746Y-62333757D01*
X80711057Y-62131588D01*
X80614551Y-61942184D01*
X80614549Y-61942181D01*
X80614548Y-61942179D01*
X80489609Y-61770213D01*
X80339286Y-61619890D01*
X80167320Y-61494951D01*
X80166615Y-61494591D01*
X80158554Y-61490485D01*
X80107759Y-61442512D01*
X80090963Y-61374692D01*
X80113499Y-61308556D01*
X80158554Y-61269515D01*
X80167316Y-61265051D01*
X80189289Y-61249086D01*
X80339286Y-61140109D01*
X80339288Y-61140106D01*
X80339292Y-61140104D01*
X80489604Y-60989792D01*
X80489606Y-60989788D01*
X80489609Y-60989786D01*
X80614548Y-60817820D01*
X80614547Y-60817820D01*
X80614551Y-60817816D01*
X80711057Y-60628412D01*
X80776746Y-60426243D01*
X80810000Y-60216287D01*
X80810000Y-60003713D01*
X80776746Y-59793757D01*
X80711057Y-59591588D01*
X80614551Y-59402184D01*
X80614549Y-59402181D01*
X80614548Y-59402179D01*
X80489609Y-59230213D01*
X80339286Y-59079890D01*
X80167320Y-58954951D01*
X79977914Y-58858444D01*
X79977913Y-58858443D01*
X79977912Y-58858443D01*
X79775743Y-58792754D01*
X79775741Y-58792753D01*
X79775740Y-58792753D01*
X79614457Y-58767208D01*
X79565787Y-58759500D01*
X79353213Y-58759500D01*
X79304542Y-58767208D01*
X79143260Y-58792753D01*
X78941085Y-58858444D01*
X78751679Y-58954951D01*
X78579713Y-59079890D01*
X78429390Y-59230213D01*
X78304451Y-59402179D01*
X78207944Y-59591585D01*
X78142253Y-59793760D01*
X78126607Y-59892545D01*
X78109000Y-60003713D01*
X78109000Y-60216287D01*
X78117776Y-60271697D01*
X78142253Y-60426239D01*
X78207944Y-60628414D01*
X78304451Y-60817820D01*
X78429390Y-60989786D01*
X78579713Y-61140109D01*
X78751682Y-61265050D01*
X78760446Y-61269516D01*
X78811242Y-61317491D01*
X78828036Y-61385312D01*
X78805498Y-61451447D01*
X78760446Y-61490484D01*
X78751682Y-61494949D01*
X78579713Y-61619890D01*
X78429390Y-61770213D01*
X78304448Y-61942184D01*
X78304447Y-61942185D01*
X78284265Y-61981795D01*
X78236291Y-62032591D01*
X78173781Y-62049500D01*
X75715098Y-62049500D01*
X75648059Y-62029815D01*
X75627417Y-62013181D01*
X73506777Y-59892541D01*
X71348415Y-57734180D01*
X71314931Y-57672858D01*
X71319915Y-57603166D01*
X71361787Y-57547233D01*
X71427251Y-57522816D01*
X71436097Y-57522500D01*
X71559360Y-57522500D01*
X71559361Y-57522500D01*
X71755636Y-57491413D01*
X71944632Y-57430005D01*
X72121694Y-57339787D01*
X72282464Y-57222981D01*
X72422981Y-57082464D01*
X72480760Y-57002936D01*
X72493389Y-56988148D01*
X72589592Y-56891947D01*
X72673564Y-56749959D01*
X72719587Y-56591548D01*
X72722500Y-56554534D01*
X72722500Y-54295466D01*
X72719587Y-54258452D01*
X72707699Y-54217535D01*
X72673565Y-54100045D01*
X72673564Y-54100042D01*
X72673564Y-54100041D01*
X72589592Y-53958053D01*
X72589590Y-53958051D01*
X72589587Y-53958047D01*
X72472952Y-53841412D01*
X72472943Y-53841405D01*
X72330957Y-53757435D01*
X72330954Y-53757434D01*
X72172552Y-53711413D01*
X72172546Y-53711412D01*
X72135541Y-53708500D01*
X72135534Y-53708500D01*
X70784466Y-53708500D01*
X70784458Y-53708500D01*
X70747453Y-53711412D01*
X70747447Y-53711413D01*
X70589045Y-53757434D01*
X70589042Y-53757435D01*
X70447056Y-53841405D01*
X70447047Y-53841412D01*
X70330412Y-53958047D01*
X70330408Y-53958053D01*
X70296732Y-54014996D01*
X70245662Y-54062679D01*
X70176921Y-54075182D01*
X70112331Y-54048536D01*
X70083268Y-54014996D01*
X70049592Y-53958053D01*
X70049589Y-53958050D01*
X70049587Y-53958047D01*
X69932952Y-53841412D01*
X69932943Y-53841405D01*
X69790957Y-53757435D01*
X69790954Y-53757434D01*
X69632552Y-53711413D01*
X69632546Y-53711412D01*
X69595541Y-53708500D01*
X69595534Y-53708500D01*
X68244466Y-53708500D01*
X68244458Y-53708500D01*
X68207453Y-53711412D01*
X68207447Y-53711413D01*
X68049045Y-53757434D01*
X68049042Y-53757435D01*
X67907056Y-53841405D01*
X67907047Y-53841412D01*
X67790412Y-53958047D01*
X67790408Y-53958053D01*
X67756732Y-54014996D01*
X67705662Y-54062679D01*
X67636921Y-54075182D01*
X67572331Y-54048536D01*
X67543268Y-54014996D01*
X67509592Y-53958053D01*
X67509589Y-53958050D01*
X67509587Y-53958047D01*
X67392952Y-53841412D01*
X67392943Y-53841405D01*
X67250957Y-53757435D01*
X67250954Y-53757434D01*
X67092552Y-53711413D01*
X67092546Y-53711412D01*
X67055541Y-53708500D01*
X67055534Y-53708500D01*
X65704466Y-53708500D01*
X65704458Y-53708500D01*
X65667453Y-53711412D01*
X65667447Y-53711413D01*
X65509045Y-53757434D01*
X65509042Y-53757435D01*
X65367056Y-53841405D01*
X65367047Y-53841412D01*
X65250412Y-53958047D01*
X65250408Y-53958053D01*
X65216732Y-54014996D01*
X65165662Y-54062679D01*
X65096921Y-54075182D01*
X65032331Y-54048536D01*
X65003268Y-54014996D01*
X64969592Y-53958053D01*
X64969589Y-53958050D01*
X64969587Y-53958047D01*
X64852952Y-53841412D01*
X64852943Y-53841405D01*
X64710957Y-53757435D01*
X64710954Y-53757434D01*
X64552552Y-53711413D01*
X64552546Y-53711412D01*
X64515541Y-53708500D01*
X64515534Y-53708500D01*
X63164466Y-53708500D01*
X63164458Y-53708500D01*
X63127453Y-53711412D01*
X63127447Y-53711413D01*
X62969045Y-53757434D01*
X62969042Y-53757435D01*
X62827056Y-53841405D01*
X62827047Y-53841412D01*
X62710412Y-53958047D01*
X62710408Y-53958053D01*
X62676732Y-54014996D01*
X62625662Y-54062679D01*
X62556921Y-54075182D01*
X62492331Y-54048536D01*
X62463268Y-54014996D01*
X62429592Y-53958053D01*
X62429589Y-53958050D01*
X62429587Y-53958047D01*
X62312952Y-53841412D01*
X62312943Y-53841405D01*
X62170957Y-53757435D01*
X62170954Y-53757434D01*
X62012552Y-53711413D01*
X62012546Y-53711412D01*
X61975541Y-53708500D01*
X61975534Y-53708500D01*
X60624466Y-53708500D01*
X60624458Y-53708500D01*
X60587453Y-53711412D01*
X60587447Y-53711413D01*
X60429045Y-53757434D01*
X60429042Y-53757435D01*
X60287056Y-53841405D01*
X60287047Y-53841412D01*
X60170412Y-53958047D01*
X60170408Y-53958053D01*
X60136732Y-54014996D01*
X60085662Y-54062679D01*
X60016921Y-54075182D01*
X59952331Y-54048536D01*
X59923268Y-54014996D01*
X59889592Y-53958053D01*
X59889589Y-53958050D01*
X59889587Y-53958047D01*
X59772952Y-53841412D01*
X59772943Y-53841405D01*
X59630957Y-53757435D01*
X59630954Y-53757434D01*
X59472552Y-53711413D01*
X59472546Y-53711412D01*
X59435541Y-53708500D01*
X59435534Y-53708500D01*
X58084466Y-53708500D01*
X58084452Y-53708500D01*
X58061140Y-53710335D01*
X57992763Y-53695969D01*
X57963733Y-53674398D01*
X57699590Y-53410255D01*
X57699588Y-53410252D01*
X57580717Y-53291381D01*
X57580716Y-53291380D01*
X57493904Y-53241260D01*
X57493904Y-53241259D01*
X57493900Y-53241258D01*
X57443785Y-53212323D01*
X57291057Y-53171399D01*
X57132943Y-53171399D01*
X57125347Y-53171399D01*
X57125331Y-53171400D01*
X55464462Y-53171400D01*
X55384188Y-53171367D01*
X55384065Y-53171400D01*
X55383943Y-53171400D01*
X55377348Y-53173166D01*
X55377345Y-53173167D01*
X55327408Y-53186547D01*
X55308119Y-53191716D01*
X55274590Y-53200685D01*
X55231433Y-53212231D01*
X55231226Y-53212317D01*
X55162272Y-53252126D01*
X55162232Y-53252148D01*
X55162231Y-53252150D01*
X55094480Y-53291230D01*
X55094392Y-53291317D01*
X55094284Y-53291380D01*
X55038144Y-53347519D01*
X54733057Y-53652356D01*
X54727391Y-53658016D01*
X54727284Y-53658080D01*
X54670741Y-53714622D01*
X54627895Y-53757434D01*
X54615619Y-53769700D01*
X54615483Y-53769878D01*
X54575768Y-53838667D01*
X54575743Y-53838710D01*
X54536516Y-53906588D01*
X54536423Y-53906810D01*
X54516120Y-53982583D01*
X54516108Y-53982630D01*
X54495531Y-54059298D01*
X54495500Y-54059530D01*
X54495500Y-54137189D01*
X54495464Y-54225237D01*
X48615850Y-54225237D01*
X41932151Y-50804446D01*
X41924708Y-50800308D01*
X41759310Y-50700772D01*
X41745363Y-50691015D01*
X41598478Y-50572449D01*
X41585998Y-50560874D01*
X41456729Y-50423306D01*
X41445952Y-50410131D01*
X41336740Y-50256156D01*
X41327869Y-50241629D01*
X41277137Y-50144076D01*
X41240773Y-50074150D01*
X41233976Y-50058548D01*
X41170634Y-49880715D01*
X41166042Y-49864347D01*
X41127644Y-49679489D01*
X41125338Y-49662649D01*
X41112331Y-49470035D01*
X41112050Y-49461532D01*
X41112128Y-49399896D01*
X41112470Y-49128711D01*
X47529500Y-49128711D01*
X47529500Y-49371288D01*
X47561161Y-49611785D01*
X47623947Y-49846104D01*
X47715274Y-50066585D01*
X47716776Y-50070212D01*
X47838064Y-50280289D01*
X47838066Y-50280292D01*
X47838067Y-50280293D01*
X47985733Y-50472736D01*
X47985739Y-50472743D01*
X48157256Y-50644260D01*
X48157263Y-50644266D01*
X48270321Y-50731018D01*
X48349711Y-50791936D01*
X48559788Y-50913224D01*
X48783900Y-51006054D01*
X49018211Y-51068838D01*
X49198586Y-51092584D01*
X49258711Y-51100500D01*
X49258712Y-51100500D01*
X49501289Y-51100500D01*
X49549388Y-51094167D01*
X49741789Y-51068838D01*
X49976100Y-51006054D01*
X50200212Y-50913224D01*
X50410289Y-50791936D01*
X50602738Y-50644265D01*
X50774265Y-50472738D01*
X50921936Y-50280289D01*
X51043224Y-50070212D01*
X51136054Y-49846100D01*
X51198838Y-49611789D01*
X51230500Y-49371288D01*
X51230500Y-49128712D01*
X51230500Y-49128711D01*
X125279500Y-49128711D01*
X125279500Y-49371288D01*
X125311161Y-49611785D01*
X125373947Y-49846104D01*
X125465274Y-50066585D01*
X125466776Y-50070212D01*
X125588064Y-50280289D01*
X125588066Y-50280292D01*
X125588067Y-50280293D01*
X125735733Y-50472736D01*
X125735739Y-50472743D01*
X125907256Y-50644260D01*
X125907263Y-50644266D01*
X126020321Y-50731018D01*
X126099711Y-50791936D01*
X126309788Y-50913224D01*
X126533900Y-51006054D01*
X126768211Y-51068838D01*
X126948586Y-51092584D01*
X127008711Y-51100500D01*
X127008712Y-51100500D01*
X127251289Y-51100500D01*
X127299388Y-51094167D01*
X127491789Y-51068838D01*
X127726100Y-51006054D01*
X127950212Y-50913224D01*
X128160289Y-50791936D01*
X128352738Y-50644265D01*
X128524265Y-50472738D01*
X128671936Y-50280289D01*
X128793224Y-50070212D01*
X128886054Y-49846100D01*
X128948838Y-49611789D01*
X128980500Y-49371288D01*
X128980500Y-49128712D01*
X128948838Y-48888211D01*
X128886054Y-48653900D01*
X128793224Y-48429788D01*
X128671936Y-48219711D01*
X128524265Y-48027262D01*
X128524260Y-48027256D01*
X128352743Y-47855739D01*
X128352736Y-47855733D01*
X128160293Y-47708067D01*
X128160292Y-47708066D01*
X128160289Y-47708064D01*
X127950212Y-47586776D01*
X127950205Y-47586773D01*
X127726104Y-47493947D01*
X127491785Y-47431161D01*
X127251289Y-47399500D01*
X127251288Y-47399500D01*
X127008712Y-47399500D01*
X127008711Y-47399500D01*
X126768214Y-47431161D01*
X126533895Y-47493947D01*
X126309794Y-47586773D01*
X126309785Y-47586777D01*
X126099706Y-47708067D01*
X125907263Y-47855733D01*
X125907256Y-47855739D01*
X125735739Y-48027256D01*
X125735733Y-48027263D01*
X125588067Y-48219706D01*
X125466777Y-48429785D01*
X125466773Y-48429794D01*
X125373947Y-48653895D01*
X125311161Y-48888214D01*
X125279500Y-49128711D01*
X51230500Y-49128711D01*
X51198838Y-48888211D01*
X51136054Y-48653900D01*
X51043224Y-48429788D01*
X50921936Y-48219711D01*
X50774265Y-48027262D01*
X50774260Y-48027256D01*
X50602743Y-47855739D01*
X50602736Y-47855733D01*
X50410293Y-47708067D01*
X50410292Y-47708066D01*
X50410289Y-47708064D01*
X50200212Y-47586776D01*
X50200205Y-47586773D01*
X49976104Y-47493947D01*
X49741785Y-47431161D01*
X49501289Y-47399500D01*
X49501288Y-47399500D01*
X49258712Y-47399500D01*
X49258711Y-47399500D01*
X49018214Y-47431161D01*
X48783895Y-47493947D01*
X48559794Y-47586773D01*
X48559785Y-47586777D01*
X48349706Y-47708067D01*
X48157263Y-47855733D01*
X48157256Y-47855739D01*
X47985739Y-48027256D01*
X47985733Y-48027263D01*
X47838067Y-48219706D01*
X47716777Y-48429785D01*
X47716773Y-48429794D01*
X47623947Y-48653895D01*
X47561161Y-48888214D01*
X47529500Y-49128711D01*
X41112470Y-49128711D01*
X41112475Y-49124497D01*
X41112773Y-48888211D01*
X41120417Y-42826200D01*
X41120500Y-42825892D01*
X41120500Y-42764252D01*
X41120506Y-42764229D01*
X41120816Y-42755572D01*
X41125212Y-42694108D01*
X41135130Y-42555437D01*
X41137646Y-42537938D01*
X41179356Y-42346200D01*
X41184335Y-42329242D01*
X41252911Y-42145382D01*
X41260251Y-42129310D01*
X41354294Y-41957083D01*
X41363850Y-41942214D01*
X41481443Y-41785128D01*
X41493017Y-41771771D01*
X41631771Y-41633017D01*
X41645128Y-41621443D01*
X41802214Y-41503850D01*
X41817083Y-41494294D01*
X41989310Y-41400251D01*
X42005382Y-41392911D01*
X42189242Y-41324335D01*
X42206200Y-41319356D01*
X42397938Y-41277646D01*
X42415436Y-41275130D01*
X42615582Y-41260816D01*
X42624428Y-41260500D01*
X42685892Y-41260500D01*
X133554108Y-41260500D01*
X133615572Y-41260500D01*
X133624418Y-41260816D01*
G37*
%TD.AperFunction*%
%TD*%
M02*
