0
SECTION
2
HEADER
9
$INSUNITS
70
4
9
$ACADVER
1
AC1014
9
$HANDSEED
5
FFFF
0
ENDSEC
0
SECTION
2
TABLES
0
TABLE
2
VPORT
5
8
100
AcDbSymbolTable
0
ENDTAB
0
TABLE
2
LTYPE
5
5
100
AcDbSymbolTable
0
LTYPE
5
14
100
AcDbSymbolTableRecord
100
AcDbLinetypeTableRecord
2
BYBLOCK
70
0
0
LTYPE
5
15
100
AcDbSymbolTableRecord
100
AcDbLinetypeTableRecord
2
BYLAYER
70
0
0
LTYPE
5
16
100
AcDbSymbolTableRecord
100
AcDbLinetypeTableRecord
2
DASHED
70
0
3
Dashed __ __ __ __ __ __ __ __ __ __ __ __ __ _
72
65
73
2
40
0.75
49
0.5
74
0
49
-0.25
74
0
0
ENDTAB
0
TABLE
2
LAYER
5
2
100
AcDbSymbolTable
70
2
0
LAYER
5
50
100
AcDbSymbolTableRecord
100
AcDbLayerTableRecord
2
0
70
0
62
7
6
CONTINUOUS
0
ENDTAB
0
TABLE
2
STYLE
5
3
100
AcDbSymbolTable
70
1
0
STYLE
5
11
100
AcDbSymbolTableRecord
100
AcDbTextStyleTableRecord
2
STANDARD
70
0
0
ENDTAB
0
TABLE
2
VIEW
5
6
100
AcDbSymbolTable
70
0
0
ENDTAB
0
TABLE
2
UCS
5
7
100
AcDbSymbolTable
70
0
0
ENDTAB
0
TABLE
2
APPID
5
9
100
AcDbSymbolTable
70
2
0
APPID
5
12
100
AcDbSymbolTableRecord
100
AcDbRegAppTableRecord
2
ACAD
70
0
0
ENDTAB
0
TABLE
2
DIMSTYLE
5
A
100
AcDbSymbolTable
70
1
0
ENDTAB
0
TABLE
2
BLOCK_RECORD
5
1
100
AcDbSymbolTable
70
1
0
BLOCK_RECORD
5
1F
100
AcDbSymbolTableRecord
100
AcDbBlockTableRecord
2
*MODEL_SPACE
0
BLOCK_RECORD
5
1B
100
AcDbSymbolTableRecord
100
AcDbBlockTableRecord
2
*PAPER_SPACE
0
ENDTAB
0
ENDSEC
0
SECTION
2
BLOCKS
0
BLOCK
5
20
100
AcDbEntity
100
AcDbBlockBegin
2
*MODEL_SPACE
0
ENDBLK
5
21
100
AcDbEntity
100
AcDbBlockEnd
0
BLOCK
5
1C
100
AcDbEntity
100
AcDbBlockBegin
2
*PAPER_SPACE
0
ENDBLK
5
1D
100
AcDbEntity
100
AcDbBlockEnd
0
ENDSEC
0
SECTION
2
ENTITIES
0
SPLINE
5
100
100
AcDbEntity
8
0
100
AcDbSpline
70
6
71
5
72
146
73
140
74
0
42
0.000000001
43
0.0000000001
44
0.0000000001
40
0
40
0
40
0
40
0
40
0
40
0
40
0.0074074074074074077
40
0.014814814814814815
40
0.022222222222222223
40
0.029629629629629631
40
0.037037037037037035
40
0.044444444444444439
40
0.051851851851851843
40
0.059259259259259248
40
0.066666666666666652
40
0.074074074074074056
40
0.08148148148148146
40
0.088888888888888865
40
0.096296296296296269
40
0.10370370370370367
40
0.11111111111111108
40
0.11851851851851848
40
0.12592592592592589
40
0.1333333333333333
40
0.14074074074074072
40
0.14814814814814814
40
0.15555555555555556
40
0.16296296296296298
40
0.17037037037037039
40
0.17777777777777781
40
0.18518518518518523
40
0.19259259259259265
40
0.20000000000000007
40
0.20740740740740748
40
0.2148148148148149
40
0.22222222222222232
40
0.22962962962962974
40
0.23703703703703716
40
0.24444444444444458
40
0.25185185185185199
40
0.25925925925925941
40
0.26666666666666683
40
0.27407407407407425
40
0.28148148148148167
40
0.28888888888888908
40
0.2962962962962965
40
0.30370370370370392
40
0.31111111111111134
40
0.31851851851851876
40
0.32592592592592617
40
0.33333333333333359
40
0.34074074074074101
40
0.34814814814814843
40
0.35555555555555585
40
0.36296296296296326
40
0.37037037037037068
40
0.3777777777777781
40
0.38518518518518552
40
0.39259259259259294
40
0.40000000000000036
40
0.40740740740740777
40
0.41481481481481519
40
0.42222222222222261
40
0.42962962962963003
40
0.43703703703703745
40
0.44444444444444486
40
0.45185185185185228
40
0.4592592592592597
40
0.46666666666666712
40
0.47407407407407454
40
0.48148148148148195
40
0.48888888888888937
40
0.49629629629629679
40
0.50370370370370421
40
0.51111111111111163
40
0.51851851851851904
40
0.52592592592592646
40
0.53333333333333388
40
0.5407407407407413
40
0.54814814814814872
40
0.55555555555555614
40
0.56296296296296355
40
0.57037037037037097
40
0.57777777777777839
40
0.58518518518518581
40
0.59259259259259323
40
0.60000000000000064
40
0.60740740740740806
40
0.61481481481481548
40
0.6222222222222229
40
0.62962962962963032
40
0.63703703703703773
40
0.64444444444444515
40
0.65185185185185257
40
0.65925925925925999
40
0.66666666666666741
40
0.67407407407407482
40
0.68148148148148224
40
0.68888888888888966
40
0.69629629629629708
40
0.7037037037037045
40
0.71111111111111192
40
0.71851851851851933
40
0.72592592592592675
40
0.73333333333333417
40
0.74074074074074159
40
0.74814814814814901
40
0.75555555555555642
40
0.76296296296296384
40
0.77037037037037126
40
0.77777777777777868
40
0.7851851851851861
40
0.79259259259259351
40
0.80000000000000093
40
0.80740740740740835
40
0.81481481481481577
40
0.82222222222222319
40
0.8296296296296306
40
0.83703703703703802
40
0.84444444444444544
40
0.85185185185185286
40
0.85925925925926028
40
0.8666666666666677
40
0.87407407407407511
40
0.88148148148148253
40
0.88888888888888995
40
0.89629629629629737
40
0.90370370370370479
40
0.9111111111111122
40
0.91851851851851962
40
0.92592592592592704
40
0.93333333333333446
40
0.94074074074074188
40
0.94814814814814929
40
0.95555555555555671
40
0.96296296296296413
40
0.97037037037037155
40
0.97777777777777897
40
0.98518518518518639
40
0.9925925925925938
40
1
40
1
40
1
40
1
40
1
40
1
41
1
41
1
41
1
41
1
41
1
41
1
41
1
41
1
41
1
41
1
41
1
41
1
41
1
41
1
41
1
41
1
41
1
41
1
41
1
41
1
41
1
41
1
41
1
41
1
41
1
41
1
41
1
41
1
41
1
41
1
41
1
41
1
41
1
41
1
41
1
41
1
41
1
41
1
41
1
41
1
41
1
41
1
41
1
41
1
41
1
41
1
41
1
41
1
41
1
41
1
41
1
41
1
41
1
41
1
41
1
41
1
41
1
41
1
41
1
41
1
41
1
41
1
41
1
41
1
41
1
41
1
41
1
41
1
41
1
41
1
41
1
41
1
41
1
41
1
41
1
41
1
41
1
41
1
41
1
41
1
41
1
41
1
41
1
41
1
41
1
41
1
41
1
41
1
41
1
41
1
41
1
41
1
41
1
41
1
41
1
41
1
41
1
41
1
41
1
41
1
41
1
41
1
41
1
41
1
41
1
41
1
41
1
41
1
41
1
41
1
41
1
41
1
41
1
41
1
41
1
41
1
41
1
41
1
41
1
41
1
41
1
41
1
41
1
41
1
41
1
41
1
41
1
41
1
41
1
41
1
41
1
41
1
41
1
41
1
41
1
41
1
41
1
41
1
41
1
41
1
10
0.51590013681117597
20
-56.104139878217438
30
0
10
0.78780115597042666
20
-56.102552997392159
30
0
10
1.3831705837586088
20
-56.167167149649622
30
0
10
2.4663461091013987
20
-56.471295287075165
30
0
10
4.3205044990888224
20
-57.22871509880089
30
0
10
7.0651577469059559
20
-58.394585261255031
30
0
10
9.8641613531953745
20
-59.365153315188117
30
0
10
12.485623527787649
20
-59.879345073355942
30
0
10
14.949192585698842
20
-59.908374465561934
30
0
10
17.392023039585148
20
-59.530580724829264
30
0
10
19.998561437095482
20
-58.861206731474851
30
0
10
22.888472076701269
20
-57.942570265321592
30
0
10
26.090900448572974
20
-56.725182940015657
30
0
10
29.574747389533659
20
-55.110455372412119
30
0
10
33.26343813849541
20
-52.976249381396741
30
0
10
37.055905621142166
20
-50.209216139256974
30
0
10
40.845155026501473
20
-46.734762612255025
30
0
10
44.537146800203345
20
-42.546541991922091
30
0
10
48.049069340842401
20
-37.693162091207391
30
0
10
51.308595912266867
20
-32.26675334064501
30
0
10
54.252764558225131
20
-26.390846936296512
30
0
10
56.827020990415051
20
-20.20855006022137
30
0
10
58.984198091181845
20
-13.87062550263896
30
0
10
60.683518369330855
20
-7.5235634528585047
30
0
10
61.889606711681289
20
-1.2977810032998858
30
0
10
62.571459820232356
20
4.704533767169492
30
0
10
62.701553131402264
20
10.420595985183184
30
0
10
62.257913510988601
20
15.816643048330496
30
0
10
61.226068902657609
20
20.878534325616638
30
0
10
59.601049405817207
20
25.601840044040785
30
0
10
57.389365106790123
20
29.982492383356799
30
0
10
54.611010287630116
20
34.006407433083851
30
0
10
51.301433708785076
20
37.641390594897196
30
0
10
47.513598885500976
20
40.823508582350733
30
0
10
43.31972469634632
20
43.463411135986163
30
0
10
38.81257143380175
20
45.473592229947066
30
0
10
34.107016125966524
20
46.790571017123916
30
0
10
29.3411694194087
20
47.398088035876967
30
0
10
24.678499793909793
20
47.352329245077691
30
0
10
20.307657490521276
20
46.800579377299002
30
0
10
16.448014719908997
20
46.017122705186125
30
0
10
13.330976840346938
20
45.36534756320254
30
0
10
11.164002455413637
20
45.207151176951271
30
0
10
10.101564270293261
20
45.833449098001026
30
0
10
10.209146349299363
20
47.37368657735162
30
0
10
11.443197440827051
20
49.753525996011362
30
0
10
13.669845724477865
20
52.771779791942983
30
0
10
16.676757312450967
20
56.153917003500347
30
0
10
20.186863595745756
20
59.617439177534351
30
0
10
23.87365241989087
20
62.924460588878965
30
0
10
27.391079483630165
20
65.891219450704583
30
0
10
30.401608219680433
20
68.401448502895448
30
0
10
32.604649695093435
20
70.420715227762244
30
0
10
33.76561224343466
20
72.004860604154729
30
0
10
33.742810095475832
20
73.324334679857515
30
0
10
32.522548413427998
20
74.637943092536787
30
0
10
30.293468311941986
20
76.118905233122092
30
0
10
27.49185206487978
20
77.727029762133981
30
0
10
24.633601327894603
20
79.266067757223851
30
0
10
22.15716032442166
20
80.428481539256836
30
0
10
20.2732227220589
20
80.847540384207775
30
0
10
18.782807578171848
20
80.138866498354702
30
0
10
17.293653737571951
20
78.051752493406724
30
0
10
15.488477566690388
20
74.637882036825204
30
0
10
13.361940329816369
20
70.402047840050827
30
0
10
11.09850168404709
20
66.103408215337566
30
0
10
8.9647451175736048
20
62.57471347720157
30
0
10
7.1893593719497817
20
60.524147517076429
30
0
10
5.8645851192543494
20
60.368990690239144
30
0
10
4.7978847077753217
20
61.994490047093002
30
0
10
3.5630054092542824
20
64.812023866613004
30
0
10
1.7160684975516907
20
68.060991724993698
30
0
10
-1.0560170899561943
20
71.016512565977038
30
0
10
-4.7122677708905174
20
73.291542857090519
30
0
10
-8.8838264262804003
20
74.840938180762123
30
0
10
-13.046896303009518
20
75.792709781395757
30
0
10
-16.653106118339043
20
76.329287543798742
30
0
10
-19.27447157760129
20
76.551616419388424
30
0
10
-20.749095813710674
20
76.342489379615202
30
0
10
-21.306543574534302
20
75.253604210277388
30
0
10
-21.233243195032578
20
72.938334803142212
30
0
10
-20.573330025040391
20
69.539930299554669
30
0
10
-19.23661551559427
20
65.512010722607542
30
0
10
-17.094302983872552
20
61.456531677971554
30
0
10
-14.086320302186881
20
57.946138725004118
30
0
10
-10.307207252125268
20
55.374529872017618
30
0
10
-6.1423697223216358
20
53.741553641754365
30
0
10
-2.2060983378048831
20
52.695691142965842
30
0
10
0.85757484071752055
20
51.758327586772737
30
0
10
2.5506422721143633
20
50.510771697010021
30
0
10
2.6701131333744366
20
48.762069682746301
30
0
10
1.5590804254243071
20
46.810975472833654
30
0
10
-0.10431472775114861
20
45.269216604456517
30
0
10
-1.7471207587337509
20
44.660966815802098
30
0
10
-3.3577593945137658
20
45.018227486728371
30
0
10
-5.3131958667213572
20
46.00228172940735
30
0
10
-8.0203485386545239
20
47.18238295348381
30
0
10
-11.637597859043927
20
48.248600264075037
30
0
10
-16.129376010716744
20
48.991848310112417
30
0
10
-21.316526464168511
20
49.285354844259842
30
0
10
-26.927274308385641
20
49.066238730260011
30
0
10
-32.648634781325214
20
48.316819237854304
30
0
10
-38.175963622797617
20
47.046579354225813
30
0
10
-43.267244433895733
20
45.272621698704
30
0
10
-47.783478691544623
20
43.004512463044108
30
0
10
-51.663037448824852
20
40.24988999456756
30
0
10
-54.904804217644767
20
37.017317067195918
30
0
10
-57.548132236529639
20
33.320141112720194
30
0
10
-59.653705059495337
20
29.180071806683856
30
0
10
-61.285116914246338
20
24.630545744701852
30
0
10
-62.487490201813074
20
19.721004052957277
30
0
10
-63.276127618434622
20
14.518087570501844
30
0
10
-63.647839526773247
20
9.0998553453559357
30
0
10
-63.587607220543418
20
3.5514456719227132
30
0
10
-63.077184367429496
20
-2.0398715533429659
30
0
10
-62.102677221272906
20
-7.5892967890479781
30
0
10
-60.663009230074081
20
-13.019447327764915
30
0
10
-58.77697266880314
20
-18.264701577766687
30
0
10
-56.49342773580949
20
-23.276921082978461
30
0
10
-53.891145323008651
20
-28.026619971988641
30
0
10
-51.063154852145864
20
-32.49732233473425
30
0
10
-48.10482675956586
20
-36.681555774407826
30
0
10
-45.100375589139389
20
-40.576173375797929
30
0
10
-42.110205587232834
20
-44.177999607423061
30
0
10
-39.157492100608764
20
-47.479257690376855
30
0
10
-36.216009847537094
20
-50.463278402633222
30
0
10
-33.194885463063514
20
-53.099574687208673
30
0
10
-29.975396912153084
20
-55.349426827803299
30
0
10
-26.451391145648117
20
-57.172184452446722
30
0
10
-22.568294077654603
20
-58.531308506214252
30
0
10
-18.362955490357177
20
-59.400523648907253
30
0
10
-14.00263352270003
20
-59.769928604669175
30
0
10
-9.8259032184705539
20
-59.652107877024356
30
0
10
-6.2175142102241647
20
-59.099029785770739
30
0
10
-3.4797539341373627
20
-58.219705430549958
30
0
10
-1.7078361383065954
20
-57.196399925345638
30
0
10
-0.86730455131478212
20
-56.482651522183431
30
0
10
-0.24823553119681988
20
-56.176688434601338
30
0
10
0.24399911765196952
20
-56.105726759042753
30
0
10
0.51590013681117597
20
-56.104139878217438
30
0
0
ENDSEC
0
SECTION
2
OBJECTS
0
DICTIONARY
5
C
100
AcDbDictionary
3
ACAD_GROUP
350
D
3
ACAD_MLINESTYLE
350
17
0
DICTIONARY
5
D
100
AcDbDictionary
0
DICTIONARY
5
1A
330
C
100
AcDbDictionary
0
DICTIONARY
5
17
100
AcDbDictionary
0
ENDSEC
0
EOF
