<?xml version="1.0" standalone="no"?>
<!DOCTYPE svg PUBLIC "-//W3C//DTD SVG 20010904//EN"
 "http://www.w3.org/TR/2001/REC-SVG-20010904/DTD/svg10.dtd">
<svg version="1.0" xmlns="http://www.w3.org/2000/svg"
 width="484.000000pt" height="516.000000pt" viewBox="0 0 484.000000 516.000000"
 preserveAspectRatio="xMidYMid meet">

<g transform="translate(0.000000,516.000000) scale(0.100000,-0.100000)"
fill="#000000" stroke="none">
<path d="M1820 5149 c-19 -4 -89 -20 -155 -35 -141 -32 -198 -51 -313 -105
-96 -44 -88 -45 -247 13 -190 68 -231 80 -359 103 -118 20 -184 19 -302 -5
-116 -24 -175 -52 -219 -102 -58 -69 -80 -211 -54 -352 24 -129 113 -326 178
-394 33 -35 41 -50 41 -81 0 -37 -39 -202 -59 -252 -9 -24 -77 -269 -99 -361
-7 -26 -19 -110 -28 -185 -20 -169 -14 -324 16 -412 11 -33 20 -65 20 -70 0
-16 92 -163 117 -189 13 -13 24 -33 24 -45 3 -57 -4 -136 -17 -172 -7 -22 -14
-47 -14 -55 0 -8 -11 -37 -25 -65 -13 -27 -25 -53 -25 -57 0 -5 -13 -36 -28
-70 -63 -138 -102 -227 -137 -313 -40 -98 -43 -106 -76 -180 -60 -137 -59
-133 -59 -243 1 -59 5 -127 9 -152 5 -24 5 -67 1 -95 -4 -27 -4 -72 1 -100 5
-27 10 -75 13 -105 2 -30 5 -55 6 -55 0 0 3 -20 4 -45 6 -87 17 -119 45 -136
25 -15 26 -18 20 -77 -3 -35 -25 -113 -48 -177 -56 -151 -58 -160 -35 -160 19
0 31 20 73 121 25 60 61 193 61 224 0 14 4 25 8 25 5 0 44 -18 88 -40 43 -22
82 -40 86 -40 4 0 31 -11 60 -24 59 -26 122 -48 187 -66 30 -8 62 -29 102 -67
32 -31 88 -73 124 -95 55 -31 76 -38 118 -37 51 1 51 1 22 12 -79 31 -198 110
-266 177 -27 27 -53 41 -105 54 -66 17 -102 31 -168 62 -16 8 -33 14 -37 14
-15 0 -257 121 -268 134 -22 27 -61 416 -61 612 l0 121 55 129 c30 71 60 137
65 147 6 9 20 43 32 75 11 31 24 62 28 67 4 6 22 46 40 90 17 44 38 94 46 110
69 152 120 312 128 402 6 72 6 73 -24 100 -33 29 -120 165 -120 186 0 7 -4 17
-9 23 -44 49 -56 346 -21 539 27 150 38 193 124 488 35 122 46 174 46 228 0
70 0 71 -40 107 -27 24 -55 67 -84 126 -79 165 -96 231 -96 366 0 185 46 245
217 284 182 41 388 12 663 -94 30 -12 84 -31 118 -42 l64 -20 91 45 c107 53
174 77 318 111 57 13 129 30 159 37 66 16 410 17 461 1 19 -5 99 -24 179 -42
169 -37 253 -58 295 -73 65 -24 169 -7 285 46 82 37 272 77 370 77 83 0 195
-27 294 -70 50 -23 134 -108 167 -171 22 -40 24 -56 24 -174 -1 -111 -4 -139
-23 -189 -24 -62 -86 -178 -106 -199 -6 -7 -21 -26 -33 -42 l-21 -30 23 -90
c13 -50 40 -146 60 -215 98 -334 109 -392 101 -517 -7 -103 -51 -293 -94 -404
-16 -41 -52 -111 -80 -157 -50 -80 -63 -126 -43 -147 5 -6 17 -44 26 -85 19
-77 97 -282 155 -406 18 -38 44 -94 57 -124 34 -76 62 -132 73 -150 5 -8 34
-56 64 -107 30 -51 73 -108 95 -128 49 -45 66 -97 80 -255 14 -146 14 -570 0
-630 -30 -133 -86 -189 -243 -242 -74 -26 -202 -28 -261 -6 -46 17 -65 14 -65
-12 0 -11 -28 -49 -61 -85 l-61 -65 30 0 c24 0 40 11 76 51 25 28 46 56 46 61
0 6 15 8 38 4 142 -24 198 -18 331 35 86 34 78 39 117 -73 24 -67 31 -78 51
-78 25 0 29 10 13 38 -5 9 -21 51 -34 92 -23 67 -24 77 -10 95 8 11 28 49 45
84 42 87 52 195 46 461 -6 250 -11 306 -34 414 -16 72 -23 85 -71 137 -53 58
-170 247 -202 329 -10 25 -40 91 -68 147 -27 56 -55 119 -62 140 -7 21 -18 52
-26 68 -36 83 -48 117 -71 200 -37 134 -38 149 -14 184 49 72 59 89 85 143 30
62 29 58 81 268 33 134 36 154 32 265 -2 96 -10 144 -36 240 -38 142 -41 154
-75 270 -60 209 -67 236 -59 249 4 6 22 31 41 55 41 55 75 121 107 210 22 60
25 85 25 199 0 122 -2 136 -27 189 -57 120 -182 210 -343 245 -72 16 -249 21
-310 8 -95 -20 -204 -51 -243 -70 -21 -10 -69 -27 -107 -36 -57 -15 -77 -16
-117 -7 -26 6 -91 21 -143 32 -52 12 -140 32 -195 45 -55 13 -124 29 -153 35
-61 13 -449 13 -502 0z"/>
<path d="M1285 3794 c-72 -37 -136 -123 -155 -209 -39 -174 90 -264 222 -155
57 47 108 165 108 249 0 104 -87 161 -175 115z"/>
<path d="M2884 3801 c-30 -13 -70 -64 -84 -107 -16 -46 -9 -190 11 -224 51
-90 121 -120 191 -84 42 22 64 49 83 103 35 101 9 216 -63 285 -33 31 -99 44
-138 27z"/>
<path d="M2020 3696 c-124 -28 -200 -87 -200 -154 2 -102 71 -152 210 -152
188 0 340 85 340 191 0 44 -59 100 -123 117 -58 15 -154 14 -227 -2z"/>
<path d="M2106 2406 c-47 -18 -101 -68 -127 -119 -23 -44 -24 -167 -1 -175 8
-2 12 10 12 40 0 101 61 196 138 215 76 20 97 -11 81 -121 -4 -33 -6 -63 -3
-68 11 -17 30 -7 43 23 41 92 185 89 221 -6 21 -54 -60 -163 -170 -230 -32
-19 -63 -42 -70 -50 -11 -13 -8 -15 18 -15 61 0 217 130 256 213 24 51 14 107
-26 147 -36 37 -111 61 -153 49 -48 -14 -54 -11 -65 31 -17 65 -82 92 -154 66z"/>
<path d="M815 1790 c-49 -16 -98 -33 -110 -38 -57 -26 -123 -51 -147 -57 -16
-3 -28 -12 -28 -20 0 -32 77 -13 245 60 118 52 222 56 290 13 61 -38 264 -143
317 -163 62 -23 124 -77 147 -128 81 -178 118 -453 87 -639 -25 -144 -63 -243
-113 -293 -23 -23 -57 -50 -75 -59 -88 -46 -88 -46 -36 -46 38 0 55 6 94 37
27 20 57 46 67 57 23 28 77 138 77 160 0 10 4 25 9 34 5 10 17 82 27 160 16
134 16 147 1 220 -9 43 -17 90 -17 105 0 59 -55 234 -95 303 -37 63 -71 86
-258 179 -95 46 -196 98 -226 115 -70 39 -133 39 -256 0z"/>
<path d="M3140 1684 c-102 -40 -172 -99 -243 -207 -21 -31 -43 -62 -50 -69
-72 -74 -259 -421 -277 -516 -19 -94 -8 -301 20 -377 31 -86 38 -95 66 -95 24
0 24 0 8 32 -46 89 -58 150 -58 288 0 148 4 165 70 305 74 158 273 449 362
533 73 67 111 74 337 62 103 -6 205 -13 225 -16 38 -6 61 8 38 23 -28 17 -151
32 -313 38 -93 3 -177 2 -185 -1z"/>
</g>
</svg>
