%TF.GenerationSoftware,KiCad,Pcbnew,10.0.3*%
%TF.CreationDate,2026-06-02T17:33:34-04:00*%
%TF.ProjectId,pommepad,706f6d6d-6570-4616-942e-6b696361645f,rev?*%
%TF.SameCoordinates,Original*%
%TF.FileFunction,Soldermask,Top*%
%TF.FilePolarity,Negative*%
%FSLAX46Y46*%
G04 Gerber Fmt 4.6, Leading zero omitted, Abs format (unit mm)*
G04 Created by KiCad (PCBNEW 10.0.3) date 2026-06-02 17:33:34*
%MOMM*%
%LPD*%
G01*
G04 APERTURE LIST*
G04 Aperture macros list*
%AMRoundRect*
0 Rectangle with rounded corners*
0 $1 Rounding radius*
0 $2 $3 $4 $5 $6 $7 $8 $9 X,Y pos of 4 corners*
0 Add a 4 corners polygon primitive as box body*
4,1,4,$2,$3,$4,$5,$6,$7,$8,$9,$2,$3,0*
0 Add four circle primitives for the rounded corners*
1,1,$1+$1,$2,$3*
1,1,$1+$1,$4,$5*
1,1,$1+$1,$6,$7*
1,1,$1+$1,$8,$9*
0 Add four rect primitives between the rounded corners*
20,1,$1+$1,$2,$3,$4,$5,0*
20,1,$1+$1,$4,$5,$6,$7,0*
20,1,$1+$1,$6,$7,$8,$9,0*
20,1,$1+$1,$8,$9,$2,$3,0*%
G04 Aperture macros list end*
%ADD10C,2.200000*%
%ADD11C,1.700000*%
%ADD12C,4.000000*%
%ADD13C,1.600000*%
%ADD14RoundRect,0.250000X0.550000X-0.550000X0.550000X0.550000X-0.550000X0.550000X-0.550000X-0.550000X0*%
%ADD15C,3.000000*%
%ADD16RoundRect,0.170000X0.680000X-0.680000X0.680000X0.680000X-0.680000X0.680000X-0.680000X-0.680000X0*%
%ADD17C,1.524000*%
G04 APERTURE END LIST*
D10*
%TO.C,SW6*%
X157877500Y-106741400D03*
X164227500Y-104201400D03*
D11*
X166767500Y-109281400D03*
D12*
X161687500Y-109281400D03*
D11*
X156607500Y-109281400D03*
%TD*%
D13*
%TO.C,D6*%
X152240200Y-106707800D03*
D14*
X152240200Y-114327800D03*
%TD*%
D15*
%TO.C,REF\u002A\u002A*%
X183300000Y-122925000D03*
%TD*%
%TO.C,REF\u002A\u002A*%
X107500000Y-122750000D03*
%TD*%
%TO.C,REF\u002A\u002A*%
X107400000Y-51675000D03*
%TD*%
%TO.C,REF\u002A\u002A*%
X182650000Y-51975000D03*
%TD*%
D11*
%TO.C,SW5*%
X137552700Y-109286200D03*
D12*
X142632700Y-109286200D03*
D11*
X147712700Y-109286200D03*
D10*
X145172700Y-104206200D03*
X138822700Y-106746200D03*
%TD*%
D11*
%TO.C,SW3*%
X156602700Y-90236200D03*
D12*
X161682700Y-90236200D03*
D11*
X166762700Y-90236200D03*
D10*
X164222700Y-85156200D03*
X157872700Y-87696200D03*
%TD*%
D11*
%TO.C,SW2*%
X137552700Y-90236200D03*
D12*
X142632700Y-90236200D03*
D11*
X147712700Y-90236200D03*
D10*
X145172700Y-85156200D03*
X138822700Y-87696200D03*
%TD*%
D11*
%TO.C,SW1*%
X118502700Y-90236200D03*
D12*
X123582700Y-90236200D03*
D11*
X128662700Y-90236200D03*
D10*
X126122700Y-85156200D03*
X119772700Y-87696200D03*
%TD*%
D16*
%TO.C,U2*%
X135752700Y-71596200D03*
D11*
X135752700Y-69056200D03*
X135752700Y-66516200D03*
X135752700Y-63976200D03*
%TD*%
%TO.C,SW4*%
X118502700Y-109286200D03*
D12*
X123582700Y-109286200D03*
D11*
X128662700Y-109286200D03*
D10*
X126122700Y-104206200D03*
X119772700Y-106746200D03*
%TD*%
D14*
%TO.C,D5*%
X133107700Y-114507800D03*
D13*
X133107700Y-106887800D03*
%TD*%
D14*
%TO.C,D1*%
X114000200Y-95337800D03*
D13*
X114000200Y-87717800D03*
%TD*%
D14*
%TO.C,D3*%
X152140200Y-95447800D03*
D13*
X152140200Y-87827800D03*
%TD*%
D17*
%TO.C,U1*%
X112520200Y-60027800D03*
X115060200Y-60027800D03*
X117600200Y-60027800D03*
X120140200Y-60027800D03*
X122680200Y-60027800D03*
X125220200Y-60027800D03*
X127760200Y-60027800D03*
X127760200Y-75267800D03*
X125220200Y-75267800D03*
X122680200Y-75267800D03*
X120140200Y-75267800D03*
X117600200Y-75267800D03*
X115060200Y-75267800D03*
X112520200Y-75267800D03*
%TD*%
D14*
%TO.C,D2*%
X133107700Y-95417800D03*
D13*
X133107700Y-87797800D03*
%TD*%
D14*
%TO.C,D4*%
X114060200Y-114447800D03*
D13*
X114060200Y-106827800D03*
%TD*%
M02*
