%TF.GenerationSoftware,KiCad,Pcbnew,10.0.3*%
%TF.CreationDate,2026-06-02T17:33:34-04:00*%
%TF.ProjectId,pommepad,706f6d6d-6570-4616-942e-6b696361645f,rev?*%
%TF.SameCoordinates,Original*%
%TF.FileFunction,Copper,L1,Top*%
%TF.FilePolarity,Positive*%
%FSLAX46Y46*%
G04 Gerber Fmt 4.6, Leading zero omitted, Abs format (unit mm)*
G04 Created by KiCad (PCBNEW 10.0.3) date 2026-06-02 17:33:34*
%MOMM*%
%LPD*%
G01*
G04 APERTURE LIST*
G04 Aperture macros list*
%AMRoundRect*
0 Rectangle with rounded corners*
0 $1 Rounding radius*
0 $2 $3 $4 $5 $6 $7 $8 $9 X,Y pos of 4 corners*
0 Add a 4 corners polygon primitive as box body*
4,1,4,$2,$3,$4,$5,$6,$7,$8,$9,$2,$3,0*
0 Add four circle primitives for the rounded corners*
1,1,$1+$1,$2,$3*
1,1,$1+$1,$4,$5*
1,1,$1+$1,$6,$7*
1,1,$1+$1,$8,$9*
0 Add four rect primitives between the rounded corners*
20,1,$1+$1,$2,$3,$4,$5,0*
20,1,$1+$1,$4,$5,$6,$7,0*
20,1,$1+$1,$6,$7,$8,$9,0*
20,1,$1+$1,$8,$9,$2,$3,0*%
G04 Aperture macros list end*
%TA.AperFunction,ComponentPad*%
%ADD10C,2.200000*%
%TD*%
%TA.AperFunction,ComponentPad*%
%ADD11C,1.600000*%
%TD*%
%TA.AperFunction,ComponentPad*%
%ADD12RoundRect,0.250000X0.550000X-0.550000X0.550000X0.550000X-0.550000X0.550000X-0.550000X-0.550000X0*%
%TD*%
%TA.AperFunction,ComponentPad*%
%ADD13RoundRect,0.170000X0.680000X-0.680000X0.680000X0.680000X-0.680000X0.680000X-0.680000X-0.680000X0*%
%TD*%
%TA.AperFunction,ComponentPad*%
%ADD14C,1.700000*%
%TD*%
%TA.AperFunction,ComponentPad*%
%ADD15C,1.524000*%
%TD*%
%TA.AperFunction,ViaPad*%
%ADD16C,0.600000*%
%TD*%
%TA.AperFunction,Conductor*%
%ADD17C,0.200000*%
%TD*%
%TA.AperFunction,Conductor*%
%ADD18C,0.500000*%
%TD*%
G04 APERTURE END LIST*
D10*
%TO.P,SW6,2,2*%
%TO.N,Net-(D6-A)*%
X157877500Y-106741400D03*
%TO.P,SW6,1,1*%
%TO.N,COL3*%
X164227500Y-104201400D03*
%TD*%
D11*
%TO.P,D6,2,A*%
%TO.N,Net-(D6-A)*%
X152240200Y-106707800D03*
D12*
%TO.P,D6,1,K*%
%TO.N,ROW2*%
X152240200Y-114327800D03*
%TD*%
D10*
%TO.P,SW5,1,1*%
%TO.N,COL2*%
X145172700Y-104206200D03*
%TO.P,SW5,2,2*%
%TO.N,Net-(D5-A)*%
X138822700Y-106746200D03*
%TD*%
%TO.P,SW3,1,1*%
%TO.N,COL3*%
X164222700Y-85156200D03*
%TO.P,SW3,2,2*%
%TO.N,Net-(D3-A)*%
X157872700Y-87696200D03*
%TD*%
%TO.P,SW2,1,1*%
%TO.N,COL2*%
X145172700Y-85156200D03*
%TO.P,SW2,2,2*%
%TO.N,Net-(D2-A)*%
X138822700Y-87696200D03*
%TD*%
%TO.P,SW1,1,1*%
%TO.N,COL1*%
X126122700Y-85156200D03*
%TO.P,SW1,2,2*%
%TO.N,Net-(D1-A)*%
X119772700Y-87696200D03*
%TD*%
D13*
%TO.P,U2,1,GND*%
%TO.N,GND*%
X135752700Y-71596200D03*
D14*
%TO.P,U2,2,VCC*%
%TO.N,VCC*%
X135752700Y-69056200D03*
%TO.P,U2,3,SCL*%
%TO.N,SCL*%
X135752700Y-66516200D03*
%TO.P,U2,4,SDA*%
%TO.N,SDA*%
X135752700Y-63976200D03*
%TD*%
D10*
%TO.P,SW4,1,1*%
%TO.N,COL1*%
X126122700Y-104206200D03*
%TO.P,SW4,2,2*%
%TO.N,Net-(D4-A)*%
X119772700Y-106746200D03*
%TD*%
D12*
%TO.P,D5,1,K*%
%TO.N,ROW2*%
X133107700Y-114507800D03*
D11*
%TO.P,D5,2,A*%
%TO.N,Net-(D5-A)*%
X133107700Y-106887800D03*
%TD*%
D12*
%TO.P,D1,1,K*%
%TO.N,ROW1*%
X114000200Y-95337800D03*
D11*
%TO.P,D1,2,A*%
%TO.N,Net-(D1-A)*%
X114000200Y-87717800D03*
%TD*%
D12*
%TO.P,D3,1,K*%
%TO.N,ROW1*%
X152140200Y-95447800D03*
D11*
%TO.P,D3,2,A*%
%TO.N,Net-(D3-A)*%
X152140200Y-87827800D03*
%TD*%
D15*
%TO.P,U1,1,GPIO26/ADC0/A0*%
%TO.N,ROW1*%
X112520200Y-60027800D03*
%TO.P,U1,2,GPIO27/ADC1/A1*%
%TO.N,ROW2*%
X115060200Y-60027800D03*
%TO.P,U1,3,GPIO28/ADC2/A2*%
%TO.N,COL2*%
X117600200Y-60027800D03*
%TO.P,U1,4,GPIO29/ADC3/A3*%
%TO.N,COL1*%
X120140200Y-60027800D03*
%TO.P,U1,5,GPIO6/SDA*%
%TO.N,SDA*%
X122680200Y-60027800D03*
%TO.P,U1,6,GPIO7/SCL*%
%TO.N,SCL*%
X125220200Y-60027800D03*
%TO.P,U1,7,GPIO0/TX*%
%TO.N,unconnected-(U1-GPIO0{slash}TX-Pad7)_1*%
X127760200Y-60027800D03*
%TO.P,U1,8,GPIO1/RX*%
%TO.N,unconnected-(U1-GPIO1{slash}RX-Pad8)_1*%
X127760200Y-75267800D03*
%TO.P,U1,9,GPIO2/SCK*%
%TO.N,unconnected-(U1-GPIO2{slash}SCK-Pad9)*%
X125220200Y-75267800D03*
%TO.P,U1,10,GPIO4/MISO*%
%TO.N,COL3*%
X122680200Y-75267800D03*
%TO.P,U1,11,GPIO3/MOSI*%
%TO.N,Net-(D7-DIN)*%
X120140200Y-75267800D03*
%TO.P,U1,12,3V3*%
%TO.N,VCC*%
X117600200Y-75267800D03*
%TO.P,U1,13,GND*%
%TO.N,GND*%
X115060200Y-75267800D03*
%TO.P,U1,14,VBUS*%
%TO.N,5V*%
X112520200Y-75267800D03*
%TD*%
D12*
%TO.P,D2,1,K*%
%TO.N,ROW1*%
X133107700Y-95417800D03*
D11*
%TO.P,D2,2,A*%
%TO.N,Net-(D2-A)*%
X133107700Y-87797800D03*
%TD*%
D12*
%TO.P,D4,1,K*%
%TO.N,ROW2*%
X114060200Y-114447800D03*
D11*
%TO.P,D4,2,A*%
%TO.N,Net-(D4-A)*%
X114060200Y-106827800D03*
%TD*%
D16*
%TO.N,5V*%
X157290000Y-115005000D03*
X157380000Y-113435000D03*
%TO.N,GND*%
X153900000Y-115625000D03*
X164860000Y-107015500D03*
%TO.N,*%
X134370200Y-101027800D03*
%TO.N,5V*%
X138150200Y-114917300D03*
X138150200Y-113717300D03*
%TO.N,GND*%
X132130200Y-117930800D03*
X116617600Y-71668200D03*
X117867600Y-94168200D03*
X116880200Y-78977800D03*
X120316200Y-93280100D03*
X132130200Y-116367800D03*
%TO.N,COL2*%
X126060200Y-81817800D03*
X120250000Y-81750000D03*
X139870200Y-81757800D03*
%TD*%
%TO.N,COL3*%
D17*
X164227000Y-104201400D02*
X164227500Y-104201400D01*
%TO.N,Net-(D6-A)*%
X157877500Y-106741400D02*
X157877000Y-106741400D01*
X157823000Y-106795500D02*
X157877000Y-106741400D01*
%TO.N,5V*%
D18*
X157290000Y-113525000D02*
X157380000Y-113435000D01*
X157290000Y-115005000D02*
X157290000Y-113525000D01*
X138150200Y-114917300D02*
X138150200Y-113717300D01*
%TO.N,GND*%
D17*
X120316200Y-93280100D02*
X118755700Y-93280100D01*
X118755700Y-93280100D02*
X117867600Y-94168200D01*
X115060200Y-75267800D02*
X115060200Y-73225600D01*
X115060200Y-73225600D02*
X116617600Y-71668200D01*
X132130200Y-117930800D02*
X132130200Y-116367800D01*
%TO.N,COL2*%
X139870200Y-81757800D02*
X141774300Y-81757800D01*
X153271200Y-96249200D02*
X153271200Y-90538800D01*
X145173200Y-85156200D02*
X145172900Y-85156000D01*
X120317800Y-81817800D02*
X126060200Y-81817800D01*
X141774300Y-81757800D02*
X145172700Y-85156200D01*
X145172700Y-85156200D02*
X145172900Y-85156000D01*
X145172700Y-104206200D02*
X145315200Y-104206200D01*
X145315200Y-104206200D02*
X153271200Y-96249200D01*
X120250000Y-81750000D02*
X120317800Y-81817800D01*
X153271200Y-90538800D02*
X147888600Y-85156200D01*
X147888600Y-85156200D02*
X145173200Y-85156200D01*
%TO.N,Net-(D5-A)*%
X133107700Y-106887800D02*
X138681200Y-106887800D01*
X138752200Y-106817000D02*
X138823200Y-106746200D01*
X133107200Y-106887800D02*
X133107700Y-106887800D01*
X138822700Y-106746500D02*
X138822700Y-106746200D01*
X138681200Y-106887800D02*
X138752200Y-106817000D01*
X138752200Y-106817000D02*
X138822700Y-106746500D01*
%TO.N,COL3*%
X168867600Y-89801100D02*
X168867600Y-99463800D01*
X162712200Y-83645300D02*
X164222700Y-85155800D01*
X156668200Y-77601700D02*
X125014200Y-77601700D01*
X164222700Y-85156200D02*
X168867600Y-89801100D01*
X162712200Y-83645300D02*
X156668200Y-77601700D01*
X125014200Y-77601700D02*
X122680200Y-75267800D01*
X168867600Y-99463800D02*
X164217700Y-104113700D01*
X164223200Y-85156200D02*
X162712200Y-83645300D01*
X164222700Y-85155800D02*
X164222700Y-85156200D01*
%TO.N,Net-(D6-A)*%
X152240200Y-106707800D02*
X157813200Y-106707800D01*
%TO.N,Net-(D3-A)*%
X152272200Y-87696200D02*
X152140200Y-87827800D01*
X157872700Y-87696200D02*
X152272200Y-87696200D01*
X157873200Y-87696200D02*
X157872700Y-87696200D01*
%TO.N,Net-(D2-A)*%
X138822700Y-87696200D02*
X138822900Y-87696400D01*
X133107700Y-87797800D02*
X138721200Y-87797800D01*
X133107200Y-87797800D02*
X133107700Y-87797800D01*
X138822900Y-87696400D02*
X138823200Y-87696200D01*
X138721200Y-87797800D02*
X138822900Y-87696400D01*
%TO.N,COL1*%
X126122700Y-85156200D02*
X125022200Y-85156200D01*
X120973200Y-89206000D02*
X120973200Y-89821800D01*
X112864200Y-96172300D02*
X120897200Y-104206200D01*
X120897200Y-104206200D02*
X126122700Y-104206200D01*
X114771200Y-92680100D02*
X112864200Y-94587400D01*
X126123200Y-85156200D02*
X126122700Y-85156200D01*
X118114200Y-92680100D02*
X114771200Y-92680100D01*
X125022200Y-85156200D02*
X120973200Y-89206000D01*
X112864200Y-94587400D02*
X112864200Y-96172300D01*
X120973200Y-89821800D02*
X118114200Y-92680100D01*
X126122700Y-104206200D02*
X126123200Y-104206200D01*
%TO.N,Net-(D1-A)*%
X119762200Y-87707000D02*
X119772700Y-87696500D01*
X119751200Y-87717800D02*
X119762200Y-87707000D01*
X114000200Y-87717800D02*
X119751200Y-87717800D01*
X119762200Y-87707000D02*
X119773200Y-87696200D01*
X119772700Y-87696500D02*
X119772700Y-87696200D01*
%TO.N,VCC*%
X135753200Y-69056200D02*
X135752700Y-69056200D01*
X135752700Y-69056200D02*
X123812200Y-69056200D01*
X123812200Y-69056200D02*
X117600200Y-75267800D01*
%TO.N,SDA*%
X122680200Y-60027800D02*
X126628200Y-63976200D01*
X135752700Y-63976200D02*
X135753200Y-63976200D01*
X126628200Y-63976200D02*
X135752700Y-63976200D01*
%TO.N,Net-(D4-A)*%
X119732200Y-106787000D02*
X119773200Y-106746200D01*
X114060200Y-106827800D02*
X119691200Y-106827800D01*
X119691200Y-106827800D02*
X119732200Y-106787000D01*
X119772700Y-106746200D02*
X119772700Y-106746500D01*
X119772700Y-106746500D02*
X119732200Y-106787000D01*
%TO.N,ROW2*%
X114644700Y-115031800D02*
X114644200Y-115031800D01*
X133107200Y-114507300D02*
X131686700Y-115927800D01*
X115540700Y-115927800D02*
X114644700Y-115031800D01*
X133107700Y-114507800D02*
X133107200Y-114507300D01*
X152240200Y-114327800D02*
X152240000Y-114327600D01*
X151036200Y-115531300D02*
X134131200Y-115531300D01*
X152240000Y-114327600D02*
X152240000Y-114327500D01*
X152240000Y-114327500D02*
X151036200Y-115531300D01*
X114644200Y-115031800D02*
X114060200Y-114447800D01*
X134131200Y-115531300D02*
X133107700Y-114507800D01*
X131686700Y-115927800D02*
X115540700Y-115927800D01*
X114644700Y-115031800D02*
X114060200Y-114447300D01*
X152240200Y-114327300D02*
X152240000Y-114327500D01*
%TO.N,ROW1*%
X115236200Y-96573400D02*
X131952200Y-96573400D01*
X133107200Y-95417800D02*
X133107500Y-95418000D01*
X150882200Y-96705700D02*
X152140200Y-95447800D01*
X114000200Y-95337800D02*
X115236200Y-96573400D01*
X133107700Y-95417800D02*
X133107500Y-95418000D01*
X134395200Y-96705700D02*
X150882200Y-96705700D01*
X133107500Y-95418000D02*
X134395200Y-96705700D01*
X131952200Y-96573400D02*
X133107200Y-95417800D01*
%TD*%
%TA.AperFunction,Conductor*%
%TO.N,GND*%
G36*
X121277084Y-90469623D02*
G01*
X121333012Y-90511501D01*
X121356675Y-90569613D01*
X121370707Y-90676193D01*
X121444912Y-90953130D01*
X121447061Y-90961151D01*
X121447064Y-90961161D01*
X121559954Y-91233700D01*
X121559958Y-91233710D01*
X121707461Y-91489193D01*
X121887052Y-91723240D01*
X121887058Y-91723247D01*
X122095652Y-91931841D01*
X122095659Y-91931847D01*
X122329706Y-92111438D01*
X122585189Y-92258941D01*
X122585190Y-92258941D01*
X122585193Y-92258943D01*
X122711797Y-92311384D01*
X122845850Y-92366911D01*
X122857748Y-92371839D01*
X122885099Y-92379167D01*
X122901554Y-92389197D01*
X122920044Y-92394627D01*
X122930769Y-92407005D01*
X122944759Y-92415532D01*
X122953180Y-92432868D01*
X122965799Y-92447431D01*
X122968130Y-92463643D01*
X122975288Y-92478379D01*
X122973000Y-92497513D01*
X122975743Y-92516589D01*
X122968937Y-92531490D01*
X122966993Y-92547754D01*
X122954724Y-92562612D01*
X122946718Y-92580145D01*
X122932936Y-92589002D01*
X122922508Y-92601632D01*
X122904152Y-92607499D01*
X122887940Y-92617919D01*
X122858169Y-92622199D01*
X122855956Y-92622907D01*
X122853005Y-92622942D01*
X122689455Y-92622942D01*
X122626898Y-92606005D01*
X122592800Y-92586081D01*
X122591558Y-92585462D01*
X122577122Y-92577050D01*
X122577119Y-92577049D01*
X122577116Y-92577047D01*
X122405392Y-92514985D01*
X122405389Y-92514984D01*
X122405388Y-92514984D01*
X122225275Y-92485032D01*
X122225271Y-92485032D01*
X122079216Y-92487549D01*
X122042702Y-92488179D01*
X121863720Y-92524322D01*
X121863716Y-92524323D01*
X121694237Y-92592267D01*
X121694236Y-92592268D01*
X121539856Y-92689766D01*
X121539845Y-92689774D01*
X121405672Y-92813601D01*
X121405665Y-92813609D01*
X121296123Y-92959680D01*
X121296121Y-92959682D01*
X121214823Y-93123179D01*
X121164461Y-93298699D01*
X121146705Y-93480429D01*
X121162138Y-93662361D01*
X121162139Y-93662371D01*
X121210251Y-93838509D01*
X121210253Y-93838513D01*
X121217495Y-93853605D01*
X121217536Y-93853690D01*
X121221114Y-93861161D01*
X121221169Y-93861449D01*
X121237427Y-93895221D01*
X121237535Y-93895446D01*
X121237673Y-93896300D01*
X121249700Y-93949009D01*
X121249700Y-95297874D01*
X121237428Y-95351658D01*
X121218049Y-95391914D01*
X121217514Y-95393240D01*
X121210250Y-95408378D01*
X121162139Y-95584518D01*
X121162138Y-95584521D01*
X121146706Y-95766455D01*
X121153584Y-95836841D01*
X121140512Y-95905477D01*
X121092408Y-95956150D01*
X121030172Y-95972900D01*
X115536230Y-95972900D01*
X115506803Y-95964259D01*
X115476821Y-95957742D01*
X115471792Y-95953978D01*
X115469191Y-95953215D01*
X115448563Y-95936595D01*
X115337032Y-95825100D01*
X115303537Y-95763783D01*
X115300699Y-95737405D01*
X115300699Y-94737798D01*
X115300698Y-94737781D01*
X115290199Y-94635003D01*
X115290198Y-94635000D01*
X115235014Y-94468466D01*
X115142912Y-94319144D01*
X115018856Y-94195088D01*
X114909764Y-94127800D01*
X114869536Y-94102987D01*
X114869531Y-94102985D01*
X114831368Y-94090339D01*
X114702997Y-94047801D01*
X114702995Y-94047800D01*
X114600216Y-94037300D01*
X114600209Y-94037300D01*
X114562710Y-94037300D01*
X114495671Y-94017615D01*
X114449916Y-93964811D01*
X114439972Y-93895653D01*
X114468997Y-93832097D01*
X114475022Y-93825626D01*
X114983643Y-93316926D01*
X115044963Y-93283436D01*
X115071331Y-93280600D01*
X118109966Y-93280600D01*
X118193184Y-93280610D01*
X118193221Y-93280600D01*
X118193257Y-93280600D01*
X118257485Y-93263389D01*
X118268685Y-93260389D01*
X118268687Y-93260387D01*
X118345024Y-93239943D01*
X118345856Y-93239731D01*
X118345977Y-93239678D01*
X118345984Y-93239677D01*
X118345992Y-93239672D01*
X118346090Y-93239630D01*
X118346931Y-93239129D01*
X118415382Y-93199610D01*
X118482857Y-93160665D01*
X118482859Y-93160662D01*
X118482907Y-93160624D01*
X118482916Y-93160620D01*
X118482924Y-93160611D01*
X118482957Y-93160586D01*
X118483338Y-93160198D01*
X118541659Y-93101876D01*
X118541671Y-93101869D01*
X118541669Y-93101867D01*
X118910684Y-92732942D01*
X121146066Y-90498106D01*
X121207393Y-90464630D01*
X121277084Y-90469623D01*
G37*
%TD.AperFunction*%
%TA.AperFunction,Conductor*%
G36*
X187017539Y-47770185D02*
G01*
X187063294Y-47822989D01*
X187074500Y-47874500D01*
X187074500Y-126625500D01*
X187054815Y-126692539D01*
X187002011Y-126738294D01*
X186950500Y-126749500D01*
X103199500Y-126749500D01*
X103132461Y-126729815D01*
X103086706Y-126677011D01*
X103075500Y-126625500D01*
X103075500Y-122635258D01*
X105749500Y-122635258D01*
X105749500Y-122864741D01*
X105774446Y-123054215D01*
X105779452Y-123092238D01*
X105779453Y-123092240D01*
X105838842Y-123313887D01*
X105926650Y-123525876D01*
X105926657Y-123525890D01*
X106041392Y-123724617D01*
X106181081Y-123906661D01*
X106181089Y-123906670D01*
X106343330Y-124068911D01*
X106343338Y-124068918D01*
X106343339Y-124068919D01*
X106393962Y-124107764D01*
X106525382Y-124208607D01*
X106525385Y-124208608D01*
X106525388Y-124208611D01*
X106724112Y-124323344D01*
X106724117Y-124323346D01*
X106724123Y-124323349D01*
X106815480Y-124361190D01*
X106936113Y-124411158D01*
X107157762Y-124470548D01*
X107385266Y-124500500D01*
X107385273Y-124500500D01*
X107614727Y-124500500D01*
X107614734Y-124500500D01*
X107842238Y-124470548D01*
X108063887Y-124411158D01*
X108275888Y-124323344D01*
X108474612Y-124208611D01*
X108656661Y-124068919D01*
X108656665Y-124068914D01*
X108656670Y-124068911D01*
X108818911Y-123906670D01*
X108818914Y-123906665D01*
X108818919Y-123906661D01*
X108958611Y-123724612D01*
X109073344Y-123525888D01*
X109161158Y-123313887D01*
X109220548Y-123092238D01*
X109250500Y-122864734D01*
X109250500Y-122810258D01*
X181549500Y-122810258D01*
X181549500Y-123039741D01*
X181574446Y-123229215D01*
X181579452Y-123267238D01*
X181638842Y-123488887D01*
X181726650Y-123700876D01*
X181726657Y-123700890D01*
X181841392Y-123899617D01*
X181981081Y-124081661D01*
X181981089Y-124081670D01*
X182143330Y-124243911D01*
X182143338Y-124243918D01*
X182325382Y-124383607D01*
X182325385Y-124383608D01*
X182325388Y-124383611D01*
X182524112Y-124498344D01*
X182524117Y-124498346D01*
X182524123Y-124498349D01*
X182615480Y-124536190D01*
X182736113Y-124586158D01*
X182957762Y-124645548D01*
X183185266Y-124675500D01*
X183185273Y-124675500D01*
X183414727Y-124675500D01*
X183414734Y-124675500D01*
X183642238Y-124645548D01*
X183863887Y-124586158D01*
X184075888Y-124498344D01*
X184274612Y-124383611D01*
X184456661Y-124243919D01*
X184456665Y-124243914D01*
X184456670Y-124243911D01*
X184618911Y-124081670D01*
X184618914Y-124081665D01*
X184618919Y-124081661D01*
X184758611Y-123899612D01*
X184873344Y-123700888D01*
X184961158Y-123488887D01*
X185020548Y-123267238D01*
X185050500Y-123039734D01*
X185050500Y-122810266D01*
X185020548Y-122582762D01*
X184961158Y-122361113D01*
X184911190Y-122240480D01*
X184873349Y-122149123D01*
X184873346Y-122149117D01*
X184873344Y-122149112D01*
X184758611Y-121950388D01*
X184758608Y-121950385D01*
X184758607Y-121950382D01*
X184618918Y-121768338D01*
X184618911Y-121768330D01*
X184456670Y-121606089D01*
X184456661Y-121606081D01*
X184274617Y-121466392D01*
X184075890Y-121351657D01*
X184075876Y-121351650D01*
X183863887Y-121263842D01*
X183642238Y-121204452D01*
X183604215Y-121199446D01*
X183414741Y-121174500D01*
X183414734Y-121174500D01*
X183185266Y-121174500D01*
X183185258Y-121174500D01*
X182968715Y-121203009D01*
X182957762Y-121204452D01*
X182864076Y-121229554D01*
X182736112Y-121263842D01*
X182524123Y-121351650D01*
X182524109Y-121351657D01*
X182325382Y-121466392D01*
X182143338Y-121606081D01*
X181981081Y-121768338D01*
X181841392Y-121950382D01*
X181726657Y-122149109D01*
X181726650Y-122149123D01*
X181638842Y-122361112D01*
X181579453Y-122582759D01*
X181579451Y-122582770D01*
X181549500Y-122810258D01*
X109250500Y-122810258D01*
X109250500Y-122635266D01*
X109220548Y-122407762D01*
X109161158Y-122186113D01*
X109073344Y-121974112D01*
X108958611Y-121775388D01*
X108958608Y-121775385D01*
X108958607Y-121775382D01*
X108818918Y-121593338D01*
X108818911Y-121593330D01*
X108656670Y-121431089D01*
X108656661Y-121431081D01*
X108474617Y-121291392D01*
X108275890Y-121176657D01*
X108275876Y-121176650D01*
X108063887Y-121088842D01*
X107842238Y-121029452D01*
X107804215Y-121024446D01*
X107614741Y-120999500D01*
X107614734Y-120999500D01*
X107385266Y-120999500D01*
X107385258Y-120999500D01*
X107168715Y-121028009D01*
X107157762Y-121029452D01*
X107064076Y-121054554D01*
X106936112Y-121088842D01*
X106724123Y-121176650D01*
X106724109Y-121176657D01*
X106525382Y-121291392D01*
X106343338Y-121431081D01*
X106181081Y-121593338D01*
X106041392Y-121775382D01*
X105926657Y-121974109D01*
X105926650Y-121974123D01*
X105838842Y-122186112D01*
X105838842Y-122186113D01*
X105791952Y-122361113D01*
X105779453Y-122407759D01*
X105779451Y-122407770D01*
X105749500Y-122635258D01*
X103075500Y-122635258D01*
X103075500Y-113847783D01*
X112759700Y-113847783D01*
X112759700Y-115047801D01*
X112759701Y-115047818D01*
X112770200Y-115150596D01*
X112770201Y-115150599D01*
X112804734Y-115254811D01*
X112825386Y-115317134D01*
X112917488Y-115466456D01*
X113041544Y-115590512D01*
X113190866Y-115682614D01*
X113357403Y-115737799D01*
X113460191Y-115748300D01*
X114460602Y-115748299D01*
X114527641Y-115767983D01*
X114548283Y-115784618D01*
X115055839Y-116292174D01*
X115055849Y-116292185D01*
X115060179Y-116296515D01*
X115060180Y-116296516D01*
X115171984Y-116408320D01*
X115171986Y-116408321D01*
X115171990Y-116408324D01*
X115308909Y-116487373D01*
X115308916Y-116487377D01*
X115420719Y-116517334D01*
X115461642Y-116528300D01*
X115461643Y-116528300D01*
X131600031Y-116528300D01*
X131600047Y-116528301D01*
X131607643Y-116528301D01*
X131765754Y-116528301D01*
X131765757Y-116528301D01*
X131918485Y-116487377D01*
X131968604Y-116458439D01*
X132055416Y-116408320D01*
X132167220Y-116296516D01*
X132167220Y-116296514D01*
X132177428Y-116286307D01*
X132177430Y-116286304D01*
X132619116Y-115844618D01*
X132680439Y-115811133D01*
X132706797Y-115808299D01*
X133507601Y-115808299D01*
X133574640Y-115827984D01*
X133595282Y-115844618D01*
X133762484Y-116011820D01*
X133762486Y-116011821D01*
X133762490Y-116011824D01*
X133899409Y-116090873D01*
X133899416Y-116090877D01*
X134052143Y-116131801D01*
X134052145Y-116131801D01*
X134217854Y-116131801D01*
X134217870Y-116131800D01*
X150949531Y-116131800D01*
X150949547Y-116131801D01*
X150957143Y-116131801D01*
X151115254Y-116131801D01*
X151115257Y-116131801D01*
X151267985Y-116090877D01*
X151318104Y-116061939D01*
X151404916Y-116011820D01*
X151516720Y-115900016D01*
X151516720Y-115900014D01*
X151526928Y-115889807D01*
X151526930Y-115889804D01*
X151752116Y-115664618D01*
X151813439Y-115631133D01*
X151839797Y-115628299D01*
X152840202Y-115628299D01*
X152840208Y-115628299D01*
X152942997Y-115617799D01*
X153109534Y-115562614D01*
X153258856Y-115470512D01*
X153382912Y-115346456D01*
X153475014Y-115197134D01*
X153530199Y-115030597D01*
X153540700Y-114927809D01*
X153540700Y-114926158D01*
X156489500Y-114926158D01*
X156489500Y-114934001D01*
X156489500Y-115083846D01*
X156520261Y-115238489D01*
X156520264Y-115238501D01*
X156580602Y-115384172D01*
X156580609Y-115384185D01*
X156668210Y-115515288D01*
X156668213Y-115515292D01*
X156779707Y-115626786D01*
X156779711Y-115626789D01*
X156910814Y-115714390D01*
X156910827Y-115714397D01*
X157040197Y-115767983D01*
X157056503Y-115774737D01*
X157211153Y-115805499D01*
X157211156Y-115805500D01*
X157211158Y-115805500D01*
X157368844Y-115805500D01*
X157368845Y-115805499D01*
X157523497Y-115774737D01*
X157669179Y-115714394D01*
X157800289Y-115626789D01*
X157911789Y-115515289D01*
X157999394Y-115384179D01*
X158059737Y-115238497D01*
X158090500Y-115083842D01*
X158090500Y-114926158D01*
X158090500Y-114926155D01*
X158090499Y-114926153D01*
X158059739Y-114771511D01*
X158059738Y-114771508D01*
X158059737Y-114771503D01*
X158049937Y-114747844D01*
X158040500Y-114700396D01*
X158040500Y-113924968D01*
X158060185Y-113857929D01*
X158061398Y-113856077D01*
X158066934Y-113847792D01*
X158089394Y-113814179D01*
X158149737Y-113668497D01*
X158180500Y-113513842D01*
X158180500Y-113356158D01*
X158180500Y-113356155D01*
X158180499Y-113356153D01*
X158152979Y-113217801D01*
X158149737Y-113201503D01*
X158104789Y-113092987D01*
X158089397Y-113055827D01*
X158089390Y-113055814D01*
X158001789Y-112924711D01*
X158001786Y-112924707D01*
X157890292Y-112813213D01*
X157890288Y-112813210D01*
X157759185Y-112725609D01*
X157759172Y-112725602D01*
X157613501Y-112665264D01*
X157613489Y-112665261D01*
X157458845Y-112634500D01*
X157458842Y-112634500D01*
X157301158Y-112634500D01*
X157301155Y-112634500D01*
X157146510Y-112665261D01*
X157146498Y-112665264D01*
X157000827Y-112725602D01*
X157000814Y-112725609D01*
X156869711Y-112813210D01*
X156869707Y-112813213D01*
X156758213Y-112924707D01*
X156758210Y-112924711D01*
X156670609Y-113055814D01*
X156670602Y-113055827D01*
X156610263Y-113201500D01*
X156608497Y-113207324D01*
X156607985Y-113207168D01*
X156604298Y-113219279D01*
X156582053Y-113272985D01*
X156568756Y-113305089D01*
X156568341Y-113306090D01*
X156568340Y-113306093D01*
X156539500Y-113451079D01*
X156539500Y-114700396D01*
X156538049Y-114707687D01*
X156536408Y-114727916D01*
X156534079Y-114738147D01*
X156520263Y-114771503D01*
X156489500Y-114926158D01*
X153540700Y-114926158D01*
X153540699Y-113727792D01*
X153530199Y-113625003D01*
X153475014Y-113458466D01*
X153382912Y-113309144D01*
X153258856Y-113185088D01*
X153109534Y-113092986D01*
X152942997Y-113037801D01*
X152942995Y-113037800D01*
X152840210Y-113027300D01*
X151640198Y-113027300D01*
X151640181Y-113027301D01*
X151537403Y-113037800D01*
X151537400Y-113037801D01*
X151370868Y-113092985D01*
X151370863Y-113092987D01*
X151221542Y-113185089D01*
X151097489Y-113309142D01*
X151005387Y-113458463D01*
X151005385Y-113458468D01*
X150987035Y-113513846D01*
X150950201Y-113625003D01*
X150950201Y-113625004D01*
X150950200Y-113625004D01*
X150939700Y-113727783D01*
X150939700Y-114727201D01*
X150931056Y-114756637D01*
X150924533Y-114786627D01*
X150920777Y-114791644D01*
X150920015Y-114794240D01*
X150903382Y-114814882D01*
X150823784Y-114894481D01*
X150762461Y-114927966D01*
X150736102Y-114930800D01*
X144898902Y-114930800D01*
X144831863Y-114911115D01*
X144786108Y-114858311D01*
X144775490Y-114794742D01*
X144777760Y-114771506D01*
X144783694Y-114710775D01*
X144781802Y-114688475D01*
X144771520Y-114567257D01*
X144768261Y-114528833D01*
X144758688Y-114493787D01*
X144752597Y-114471487D01*
X144720149Y-114352691D01*
X144712259Y-114336249D01*
X144709284Y-114330037D01*
X144709231Y-114329751D01*
X144692971Y-114295975D01*
X144692864Y-114295751D01*
X144692722Y-114294882D01*
X144680700Y-114242190D01*
X144680700Y-112893324D01*
X144692973Y-112839537D01*
X144712408Y-112799166D01*
X144712931Y-112797862D01*
X144720149Y-112782822D01*
X144768261Y-112606680D01*
X144780281Y-112464969D01*
X144783693Y-112424744D01*
X144781514Y-112402444D01*
X144765936Y-112243010D01*
X144715577Y-112067498D01*
X144634278Y-111904000D01*
X144617554Y-111881700D01*
X144599716Y-111857913D01*
X144524728Y-111757921D01*
X144524723Y-111757916D01*
X144390552Y-111634090D01*
X144390544Y-111634084D01*
X144390408Y-111633998D01*
X144236160Y-111536584D01*
X144142568Y-111499063D01*
X144066682Y-111468640D01*
X144066678Y-111468639D01*
X143887696Y-111432496D01*
X143877123Y-111432313D01*
X143810434Y-111411474D01*
X143765598Y-111357888D01*
X143756850Y-111288568D01*
X143786968Y-111225523D01*
X143817262Y-111200946D01*
X143885694Y-111161438D01*
X144119742Y-110981846D01*
X144328346Y-110773242D01*
X144507938Y-110539194D01*
X144655443Y-110283707D01*
X144768339Y-110011152D01*
X144844693Y-109726193D01*
X144883200Y-109433706D01*
X144883200Y-109199589D01*
X146612200Y-109199589D01*
X146612200Y-109372810D01*
X146638537Y-109539101D01*
X146639298Y-109543901D01*
X146692827Y-109708645D01*
X146771468Y-109862988D01*
X146873286Y-110003128D01*
X146995772Y-110125614D01*
X147135912Y-110227432D01*
X147290255Y-110306073D01*
X147454999Y-110359602D01*
X147626089Y-110386700D01*
X147626090Y-110386700D01*
X147799310Y-110386700D01*
X147799311Y-110386700D01*
X147970401Y-110359602D01*
X148135145Y-110306073D01*
X148289488Y-110227432D01*
X148429628Y-110125614D01*
X148552114Y-110003128D01*
X148653932Y-109862988D01*
X148732573Y-109708645D01*
X148786102Y-109543901D01*
X148813200Y-109372811D01*
X148813200Y-109199589D01*
X148786102Y-109028499D01*
X148732573Y-108863755D01*
X148653932Y-108709412D01*
X148552114Y-108569272D01*
X148429628Y-108446786D01*
X148289488Y-108344968D01*
X148135145Y-108266327D01*
X147970401Y-108212798D01*
X147970399Y-108212797D01*
X147970398Y-108212797D01*
X147823770Y-108189574D01*
X147799311Y-108185700D01*
X147626089Y-108185700D01*
X147601630Y-108189574D01*
X147455002Y-108212797D01*
X147290252Y-108266328D01*
X147135911Y-108344968D01*
X147078989Y-108386325D01*
X146995772Y-108446786D01*
X146995770Y-108446788D01*
X146995769Y-108446788D01*
X146873288Y-108569269D01*
X146873288Y-108569270D01*
X146873286Y-108569272D01*
X146829559Y-108629456D01*
X146771468Y-108709411D01*
X146692828Y-108863752D01*
X146639297Y-109028502D01*
X146612200Y-109199589D01*
X144883200Y-109199589D01*
X144883200Y-109138694D01*
X144844693Y-108846207D01*
X144768339Y-108561248D01*
X144748163Y-108512540D01*
X144718939Y-108441986D01*
X144655443Y-108288693D01*
X144652669Y-108283889D01*
X144507938Y-108033206D01*
X144328347Y-107799159D01*
X144328341Y-107799152D01*
X144119747Y-107590558D01*
X144119740Y-107590552D01*
X143885693Y-107410961D01*
X143630210Y-107263458D01*
X143630200Y-107263454D01*
X143357661Y-107150564D01*
X143357654Y-107150562D01*
X143357652Y-107150561D01*
X143072693Y-107074207D01*
X143023813Y-107067771D01*
X142780213Y-107035700D01*
X142780206Y-107035700D01*
X142485194Y-107035700D01*
X142485186Y-107035700D01*
X142206785Y-107072353D01*
X142192707Y-107074207D01*
X142036042Y-107116185D01*
X141907748Y-107150561D01*
X141907738Y-107150564D01*
X141635199Y-107263454D01*
X141635189Y-107263458D01*
X141379706Y-107410961D01*
X141145659Y-107590552D01*
X141145652Y-107590558D01*
X140937058Y-107799152D01*
X140937052Y-107799159D01*
X140757461Y-108033206D01*
X140609958Y-108288689D01*
X140609954Y-108288699D01*
X140497064Y-108561238D01*
X140497061Y-108561248D01*
X140420708Y-108846204D01*
X140420706Y-108846215D01*
X140382200Y-109138686D01*
X140382200Y-109433713D01*
X140414271Y-109677313D01*
X140420707Y-109726193D01*
X140497061Y-110011151D01*
X140497064Y-110011161D01*
X140609954Y-110283700D01*
X140609958Y-110283710D01*
X140757461Y-110539193D01*
X140937052Y-110773240D01*
X140937058Y-110773247D01*
X141145652Y-110981841D01*
X141145659Y-110981847D01*
X141379704Y-111161437D01*
X141379706Y-111161438D01*
X141489673Y-111224927D01*
X141537887Y-111275492D01*
X141551111Y-111344099D01*
X141525143Y-111408964D01*
X141468229Y-111449493D01*
X141407331Y-111454633D01*
X141255277Y-111429348D01*
X141255273Y-111429348D01*
X141109218Y-111431866D01*
X141072704Y-111432496D01*
X140893723Y-111468638D01*
X140893716Y-111468640D01*
X140724240Y-111536583D01*
X140724239Y-111536584D01*
X140569859Y-111634082D01*
X140569848Y-111634090D01*
X140435680Y-111757913D01*
X140435678Y-111757916D01*
X140435674Y-111757920D01*
X140380883Y-111830979D01*
X140326123Y-111903999D01*
X140244824Y-112067498D01*
X140244824Y-112067500D01*
X140194465Y-112243005D01*
X140194464Y-112243010D01*
X140176708Y-112424743D01*
X140192140Y-112606679D01*
X140192141Y-112606682D01*
X140240250Y-112782817D01*
X140240251Y-112782819D01*
X140247517Y-112797961D01*
X140247554Y-112798039D01*
X140251115Y-112805475D01*
X140251171Y-112805765D01*
X140267516Y-112839719D01*
X140267536Y-112839759D01*
X140267674Y-112840613D01*
X140279702Y-112893323D01*
X140279702Y-114242190D01*
X140267430Y-114295975D01*
X140248042Y-114336249D01*
X140247507Y-114337576D01*
X140240252Y-114352696D01*
X140240250Y-114352699D01*
X140192141Y-114528834D01*
X140192140Y-114528837D01*
X140176708Y-114710772D01*
X140184913Y-114794742D01*
X140171841Y-114863378D01*
X140123737Y-114914051D01*
X140061501Y-114930800D01*
X139070832Y-114930800D01*
X139042482Y-114922475D01*
X139013499Y-114916749D01*
X139009336Y-114912742D01*
X139003793Y-114911115D01*
X138984448Y-114888790D01*
X138963157Y-114868299D01*
X138960475Y-114861124D01*
X138958038Y-114858311D01*
X138950192Y-114835472D01*
X138949664Y-114833253D01*
X138919937Y-114683803D01*
X138906348Y-114650996D01*
X138904060Y-114641368D01*
X138904547Y-114632041D01*
X138900700Y-114612696D01*
X138900700Y-114021904D01*
X138910139Y-113974451D01*
X138919937Y-113950797D01*
X138950700Y-113796142D01*
X138950700Y-113638458D01*
X138950700Y-113638455D01*
X138950699Y-113638453D01*
X138925913Y-113513846D01*
X138919937Y-113483803D01*
X138906384Y-113451082D01*
X138859597Y-113338127D01*
X138859590Y-113338114D01*
X138771989Y-113207011D01*
X138771986Y-113207007D01*
X138660492Y-113095513D01*
X138660488Y-113095510D01*
X138529385Y-113007909D01*
X138529372Y-113007902D01*
X138383701Y-112947564D01*
X138383689Y-112947561D01*
X138229045Y-112916800D01*
X138229042Y-112916800D01*
X138071358Y-112916800D01*
X138071355Y-112916800D01*
X137916710Y-112947561D01*
X137916698Y-112947564D01*
X137771027Y-113007902D01*
X137771014Y-113007909D01*
X137639911Y-113095510D01*
X137639907Y-113095513D01*
X137528413Y-113207007D01*
X137528410Y-113207011D01*
X137440809Y-113338114D01*
X137440802Y-113338127D01*
X137380464Y-113483798D01*
X137380461Y-113483810D01*
X137349700Y-113638453D01*
X137349700Y-113796146D01*
X137380461Y-113950789D01*
X137380463Y-113950797D01*
X137390261Y-113974451D01*
X137399700Y-114021904D01*
X137399700Y-114612696D01*
X137396340Y-114641368D01*
X137394051Y-114650996D01*
X137380463Y-114683803D01*
X137350735Y-114833253D01*
X137350208Y-114835472D01*
X137333966Y-114863907D01*
X137318800Y-114892902D01*
X137316734Y-114894078D01*
X137315555Y-114896143D01*
X137286528Y-114911279D01*
X137258085Y-114927476D01*
X137254713Y-114927869D01*
X137253603Y-114928448D01*
X137251434Y-114928251D01*
X137229568Y-114930800D01*
X134532200Y-114930800D01*
X134465161Y-114911115D01*
X134419406Y-114858311D01*
X134408200Y-114806800D01*
X134408199Y-113907798D01*
X134408198Y-113907780D01*
X134397699Y-113805003D01*
X134397698Y-113805000D01*
X134377816Y-113745000D01*
X134342514Y-113638466D01*
X134250412Y-113489144D01*
X134126356Y-113365088D01*
X133977034Y-113272986D01*
X133810497Y-113217801D01*
X133810495Y-113217800D01*
X133707710Y-113207300D01*
X132507698Y-113207300D01*
X132507681Y-113207301D01*
X132404903Y-113217800D01*
X132404900Y-113217801D01*
X132238368Y-113272985D01*
X132238363Y-113272987D01*
X132089042Y-113365089D01*
X131964989Y-113489142D01*
X131872887Y-113638463D01*
X131872885Y-113638468D01*
X131862933Y-113668501D01*
X131817701Y-113805003D01*
X131817701Y-113805004D01*
X131817700Y-113805004D01*
X131807200Y-113907783D01*
X131807200Y-114906702D01*
X131787515Y-114973741D01*
X131770881Y-114994383D01*
X131474284Y-115290981D01*
X131412961Y-115324466D01*
X131386603Y-115327300D01*
X125814457Y-115327300D01*
X125747418Y-115307615D01*
X125701663Y-115254811D01*
X125691719Y-115185653D01*
X125695267Y-115169100D01*
X125695577Y-115168018D01*
X125695578Y-115168017D01*
X125745938Y-114992504D01*
X125763694Y-114810775D01*
X125762291Y-114794240D01*
X125753320Y-114688471D01*
X125748261Y-114628833D01*
X125745678Y-114619378D01*
X125725363Y-114545001D01*
X125700149Y-114452691D01*
X125692259Y-114436249D01*
X125689284Y-114430037D01*
X125689231Y-114429751D01*
X125672971Y-114395975D01*
X125672864Y-114395751D01*
X125672722Y-114394882D01*
X125660700Y-114342190D01*
X125660700Y-112993324D01*
X125672973Y-112939537D01*
X125692408Y-112899166D01*
X125692931Y-112897862D01*
X125700149Y-112882822D01*
X125748261Y-112706680D01*
X125758634Y-112584381D01*
X125763693Y-112524744D01*
X125762852Y-112516138D01*
X125745936Y-112343010D01*
X125695577Y-112167498D01*
X125614278Y-112004000D01*
X125504728Y-111857921D01*
X125504723Y-111857916D01*
X125370552Y-111734090D01*
X125370544Y-111734084D01*
X125370541Y-111734082D01*
X125216160Y-111636584D01*
X125105127Y-111592071D01*
X125046682Y-111568640D01*
X125046678Y-111568639D01*
X124867696Y-111532496D01*
X124685129Y-111529349D01*
X124685128Y-111529349D01*
X124685123Y-111529349D01*
X124676037Y-111530860D01*
X124606677Y-111522437D01*
X124552881Y-111477852D01*
X124531730Y-111411261D01*
X124549938Y-111343805D01*
X124593701Y-111301152D01*
X124600630Y-111297152D01*
X124835694Y-111161438D01*
X125069742Y-110981846D01*
X125278346Y-110773242D01*
X125457938Y-110539194D01*
X125605443Y-110283707D01*
X125718339Y-110011152D01*
X125794693Y-109726193D01*
X125833200Y-109433706D01*
X125833200Y-109199589D01*
X127562200Y-109199589D01*
X127562200Y-109372810D01*
X127588537Y-109539101D01*
X127589298Y-109543901D01*
X127642827Y-109708645D01*
X127721468Y-109862988D01*
X127823286Y-110003128D01*
X127945772Y-110125614D01*
X128085912Y-110227432D01*
X128240255Y-110306073D01*
X128404999Y-110359602D01*
X128576089Y-110386700D01*
X128576090Y-110386700D01*
X128749310Y-110386700D01*
X128749311Y-110386700D01*
X128920401Y-110359602D01*
X129085145Y-110306073D01*
X129239488Y-110227432D01*
X129379628Y-110125614D01*
X129502114Y-110003128D01*
X129603932Y-109862988D01*
X129682573Y-109708645D01*
X129736102Y-109543901D01*
X129763200Y-109372811D01*
X129763200Y-109199589D01*
X129736102Y-109028499D01*
X129682573Y-108863755D01*
X129603932Y-108709412D01*
X129502114Y-108569272D01*
X129379628Y-108446786D01*
X129239488Y-108344968D01*
X129085145Y-108266327D01*
X128920401Y-108212798D01*
X128920399Y-108212797D01*
X128920398Y-108212797D01*
X128773770Y-108189574D01*
X128749311Y-108185700D01*
X128576089Y-108185700D01*
X128551630Y-108189574D01*
X128405002Y-108212797D01*
X128240252Y-108266328D01*
X128085911Y-108344968D01*
X128028989Y-108386325D01*
X127945772Y-108446786D01*
X127945770Y-108446788D01*
X127945769Y-108446788D01*
X127823288Y-108569269D01*
X127823288Y-108569270D01*
X127823286Y-108569272D01*
X127779559Y-108629456D01*
X127721468Y-108709411D01*
X127642828Y-108863752D01*
X127589297Y-109028502D01*
X127562200Y-109199589D01*
X125833200Y-109199589D01*
X125833200Y-109138694D01*
X125794693Y-108846207D01*
X125718339Y-108561248D01*
X125698163Y-108512540D01*
X125668939Y-108441986D01*
X125605443Y-108288693D01*
X125602669Y-108283889D01*
X125457938Y-108033206D01*
X125278347Y-107799159D01*
X125278341Y-107799152D01*
X125069747Y-107590558D01*
X125069740Y-107590552D01*
X124835693Y-107410961D01*
X124580210Y-107263458D01*
X124580200Y-107263454D01*
X124307661Y-107150564D01*
X124307654Y-107150562D01*
X124307652Y-107150561D01*
X124022693Y-107074207D01*
X123973813Y-107067771D01*
X123730213Y-107035700D01*
X123730206Y-107035700D01*
X123435194Y-107035700D01*
X123435186Y-107035700D01*
X123156785Y-107072353D01*
X123142707Y-107074207D01*
X122986042Y-107116185D01*
X122857748Y-107150561D01*
X122857738Y-107150564D01*
X122585199Y-107263454D01*
X122585189Y-107263458D01*
X122329706Y-107410961D01*
X122095659Y-107590552D01*
X122095652Y-107590558D01*
X121887058Y-107799152D01*
X121887052Y-107799159D01*
X121707461Y-108033206D01*
X121559958Y-108288689D01*
X121559954Y-108288699D01*
X121447064Y-108561238D01*
X121447061Y-108561248D01*
X121370708Y-108846204D01*
X121370706Y-108846215D01*
X121332200Y-109138686D01*
X121332200Y-109433713D01*
X121364271Y-109677313D01*
X121370707Y-109726193D01*
X121447061Y-110011151D01*
X121447064Y-110011161D01*
X121559954Y-110283700D01*
X121559958Y-110283710D01*
X121707461Y-110539193D01*
X121887052Y-110773240D01*
X121887058Y-110773247D01*
X122095652Y-110981841D01*
X122095659Y-110981847D01*
X122329706Y-111161438D01*
X122585189Y-111308941D01*
X122585190Y-111308941D01*
X122585193Y-111308943D01*
X122698548Y-111355896D01*
X122846159Y-111417039D01*
X122857748Y-111421839D01*
X122863888Y-111423484D01*
X122880344Y-111433514D01*
X122898835Y-111438944D01*
X122909560Y-111451321D01*
X122923549Y-111459848D01*
X122931970Y-111477184D01*
X122944590Y-111491748D01*
X122946921Y-111507960D01*
X122954079Y-111522695D01*
X122951791Y-111541830D01*
X122954534Y-111560906D01*
X122947729Y-111575805D01*
X122945785Y-111592071D01*
X122933514Y-111606932D01*
X122925509Y-111624462D01*
X122911729Y-111633317D01*
X122901300Y-111645949D01*
X122882942Y-111651817D01*
X122866731Y-111662236D01*
X122836962Y-111666516D01*
X122834748Y-111667224D01*
X122831796Y-111667259D01*
X122739255Y-111667259D01*
X122739239Y-111667258D01*
X122731643Y-111667258D01*
X122699457Y-111667258D01*
X122636900Y-111650322D01*
X122602890Y-111630449D01*
X122601644Y-111629827D01*
X122592436Y-111624462D01*
X122587117Y-111621363D01*
X122587116Y-111621362D01*
X122587115Y-111621362D01*
X122415394Y-111559301D01*
X122415390Y-111559300D01*
X122235278Y-111529348D01*
X122235273Y-111529348D01*
X122087270Y-111531900D01*
X122052704Y-111532496D01*
X121873723Y-111568638D01*
X121873716Y-111568640D01*
X121704240Y-111636583D01*
X121704239Y-111636584D01*
X121549859Y-111734082D01*
X121549848Y-111734090D01*
X121415680Y-111857913D01*
X121415678Y-111857916D01*
X121415674Y-111857920D01*
X121381118Y-111903999D01*
X121306123Y-112003999D01*
X121224824Y-112167498D01*
X121224824Y-112167500D01*
X121174465Y-112343005D01*
X121174464Y-112343010D01*
X121156708Y-112524743D01*
X121172140Y-112706679D01*
X121172141Y-112706682D01*
X121220250Y-112882817D01*
X121220251Y-112882819D01*
X121227517Y-112897961D01*
X121227554Y-112898039D01*
X121231115Y-112905475D01*
X121231171Y-112905765D01*
X121247516Y-112939719D01*
X121247536Y-112939759D01*
X121247674Y-112940613D01*
X121259702Y-112993323D01*
X121259702Y-114342190D01*
X121247430Y-114395975D01*
X121228042Y-114436249D01*
X121227507Y-114437576D01*
X121220252Y-114452696D01*
X121220250Y-114452699D01*
X121172141Y-114628834D01*
X121172140Y-114628837D01*
X121156708Y-114810771D01*
X121174465Y-114992502D01*
X121174465Y-114992503D01*
X121184855Y-115028716D01*
X121224826Y-115168018D01*
X121224827Y-115168020D01*
X121225137Y-115169100D01*
X121224705Y-115238969D01*
X121186569Y-115297512D01*
X121122835Y-115326144D01*
X121105946Y-115327300D01*
X115840797Y-115327300D01*
X115773758Y-115307615D01*
X115753116Y-115290981D01*
X115397018Y-114934883D01*
X115363533Y-114873560D01*
X115360699Y-114847202D01*
X115360699Y-113847798D01*
X115360698Y-113847781D01*
X115350199Y-113745003D01*
X115350198Y-113745000D01*
X115344492Y-113727781D01*
X115295014Y-113578466D01*
X115202912Y-113429144D01*
X115078856Y-113305088D01*
X114939737Y-113219279D01*
X114929536Y-113212987D01*
X114929531Y-113212985D01*
X114911976Y-113207168D01*
X114762997Y-113157801D01*
X114762995Y-113157800D01*
X114660210Y-113147300D01*
X113460198Y-113147300D01*
X113460181Y-113147301D01*
X113357403Y-113157800D01*
X113357400Y-113157801D01*
X113190868Y-113212985D01*
X113190863Y-113212987D01*
X113041542Y-113305089D01*
X112917489Y-113429142D01*
X112825387Y-113578463D01*
X112825385Y-113578468D01*
X112805505Y-113638463D01*
X112770201Y-113745003D01*
X112770201Y-113745004D01*
X112770200Y-113745004D01*
X112759700Y-113847783D01*
X103075500Y-113847783D01*
X103075500Y-106725448D01*
X112759700Y-106725448D01*
X112759700Y-106930151D01*
X112791722Y-107132334D01*
X112854981Y-107327023D01*
X112897751Y-107410962D01*
X112945772Y-107505209D01*
X112947915Y-107509413D01*
X113068228Y-107675013D01*
X113212986Y-107819771D01*
X113295571Y-107879771D01*
X113378590Y-107940087D01*
X113449617Y-107976277D01*
X113560976Y-108033018D01*
X113560978Y-108033018D01*
X113560981Y-108033020D01*
X113665337Y-108066927D01*
X113755665Y-108096277D01*
X113843994Y-108110267D01*
X113957848Y-108128300D01*
X113957849Y-108128300D01*
X114162551Y-108128300D01*
X114162552Y-108128300D01*
X114364734Y-108096277D01*
X114559419Y-108033020D01*
X114741810Y-107940087D01*
X114834790Y-107872532D01*
X114907413Y-107819771D01*
X114907415Y-107819768D01*
X114907419Y-107819766D01*
X115052166Y-107675019D01*
X115052168Y-107675015D01*
X115052171Y-107675013D01*
X115172484Y-107509414D01*
X115172485Y-107509413D01*
X115172487Y-107509410D01*
X115179317Y-107496004D01*
X115227291Y-107445209D01*
X115289802Y-107428300D01*
X118247977Y-107428300D01*
X118315016Y-107447985D01*
X118358462Y-107496005D01*
X118401384Y-107580245D01*
X118403832Y-107585048D01*
X118551901Y-107788849D01*
X118551905Y-107788854D01*
X118551907Y-107788856D01*
X118730044Y-107966993D01*
X118730045Y-107966994D01*
X118730044Y-107966994D01*
X118736361Y-107971583D01*
X118779027Y-108026914D01*
X118785005Y-108096527D01*
X118752399Y-108158322D01*
X118691560Y-108192679D01*
X118644078Y-108194374D01*
X118589311Y-108185700D01*
X118416089Y-108185700D01*
X118391630Y-108189574D01*
X118245002Y-108212797D01*
X118080252Y-108266328D01*
X117925911Y-108344968D01*
X117868989Y-108386325D01*
X117785772Y-108446786D01*
X117785770Y-108446788D01*
X117785769Y-108446788D01*
X117663288Y-108569269D01*
X117663288Y-108569270D01*
X117663286Y-108569272D01*
X117619559Y-108629456D01*
X117561468Y-108709411D01*
X117482828Y-108863752D01*
X117429297Y-109028502D01*
X117402200Y-109199589D01*
X117402200Y-109372810D01*
X117428537Y-109539101D01*
X117429298Y-109543901D01*
X117482827Y-109708645D01*
X117561468Y-109862988D01*
X117663286Y-110003128D01*
X117785772Y-110125614D01*
X117925912Y-110227432D01*
X118080255Y-110306073D01*
X118244999Y-110359602D01*
X118416089Y-110386700D01*
X118416090Y-110386700D01*
X118589310Y-110386700D01*
X118589311Y-110386700D01*
X118760401Y-110359602D01*
X118925145Y-110306073D01*
X119079488Y-110227432D01*
X119219628Y-110125614D01*
X119342114Y-110003128D01*
X119443932Y-109862988D01*
X119522573Y-109708645D01*
X119576102Y-109543901D01*
X119603200Y-109372811D01*
X119603200Y-109199589D01*
X119576102Y-109028499D01*
X119522573Y-108863755D01*
X119443932Y-108709412D01*
X119342114Y-108569272D01*
X119290182Y-108517340D01*
X119256697Y-108456017D01*
X119261681Y-108386325D01*
X119303553Y-108330392D01*
X119369017Y-108305975D01*
X119397261Y-108307186D01*
X119397912Y-108307289D01*
X119397915Y-108307290D01*
X119646738Y-108346700D01*
X119646739Y-108346700D01*
X119898661Y-108346700D01*
X119898662Y-108346700D01*
X120147485Y-108307290D01*
X120387079Y-108229441D01*
X120611545Y-108115070D01*
X120815356Y-107966993D01*
X120993493Y-107788856D01*
X121141570Y-107585045D01*
X121255941Y-107360579D01*
X121333790Y-107120985D01*
X121373200Y-106872162D01*
X121373200Y-106785448D01*
X131807200Y-106785448D01*
X131807200Y-106990151D01*
X131839222Y-107192334D01*
X131902481Y-107387023D01*
X131954085Y-107488300D01*
X131988582Y-107556004D01*
X131995415Y-107569413D01*
X132115728Y-107735013D01*
X132260486Y-107879771D01*
X132386857Y-107971583D01*
X132426090Y-108000087D01*
X132490721Y-108033018D01*
X132608476Y-108093018D01*
X132608478Y-108093018D01*
X132608481Y-108093020D01*
X132676335Y-108115067D01*
X132803165Y-108156277D01*
X132816077Y-108158322D01*
X133005348Y-108188300D01*
X133005349Y-108188300D01*
X133210051Y-108188300D01*
X133210052Y-108188300D01*
X133412234Y-108156277D01*
X133606919Y-108093020D01*
X133789310Y-108000087D01*
X133882290Y-107932532D01*
X133954913Y-107879771D01*
X133954915Y-107879768D01*
X133954919Y-107879766D01*
X134099666Y-107735019D01*
X134099668Y-107735015D01*
X134099671Y-107735013D01*
X134219984Y-107569414D01*
X134219985Y-107569413D01*
X134219987Y-107569410D01*
X134226817Y-107556004D01*
X134274791Y-107505209D01*
X134337302Y-107488300D01*
X137328548Y-107488300D01*
X137395587Y-107507985D01*
X137439032Y-107556004D01*
X137453830Y-107585046D01*
X137601901Y-107788849D01*
X137601905Y-107788854D01*
X137601907Y-107788856D01*
X137780044Y-107966993D01*
X137780045Y-107966994D01*
X137780044Y-107966994D01*
X137786361Y-107971583D01*
X137829027Y-108026914D01*
X137835005Y-108096527D01*
X137802399Y-108158322D01*
X137741560Y-108192679D01*
X137694078Y-108194374D01*
X137639311Y-108185700D01*
X137466089Y-108185700D01*
X137441630Y-108189574D01*
X137295002Y-108212797D01*
X137130252Y-108266328D01*
X136975911Y-108344968D01*
X136918989Y-108386325D01*
X136835772Y-108446786D01*
X136835770Y-108446788D01*
X136835769Y-108446788D01*
X136713288Y-108569269D01*
X136713288Y-108569270D01*
X136713286Y-108569272D01*
X136669559Y-108629456D01*
X136611468Y-108709411D01*
X136532828Y-108863752D01*
X136479297Y-109028502D01*
X136452200Y-109199589D01*
X136452200Y-109372810D01*
X136478537Y-109539101D01*
X136479298Y-109543901D01*
X136532827Y-109708645D01*
X136611468Y-109862988D01*
X136713286Y-110003128D01*
X136835772Y-110125614D01*
X136975912Y-110227432D01*
X137130255Y-110306073D01*
X137294999Y-110359602D01*
X137466089Y-110386700D01*
X137466090Y-110386700D01*
X137639310Y-110386700D01*
X137639311Y-110386700D01*
X137810401Y-110359602D01*
X137975145Y-110306073D01*
X138129488Y-110227432D01*
X138269628Y-110125614D01*
X138392114Y-110003128D01*
X138493932Y-109862988D01*
X138572573Y-109708645D01*
X138626102Y-109543901D01*
X138653200Y-109372811D01*
X138653200Y-109199589D01*
X138626102Y-109028499D01*
X138572573Y-108863755D01*
X138493932Y-108709412D01*
X138392114Y-108569272D01*
X138340182Y-108517340D01*
X138306697Y-108456017D01*
X138311681Y-108386325D01*
X138353553Y-108330392D01*
X138419017Y-108305975D01*
X138447261Y-108307186D01*
X138447912Y-108307289D01*
X138447915Y-108307290D01*
X138696738Y-108346700D01*
X138696739Y-108346700D01*
X138948661Y-108346700D01*
X138948662Y-108346700D01*
X139197485Y-108307290D01*
X139437079Y-108229441D01*
X139661545Y-108115070D01*
X139865356Y-107966993D01*
X140043493Y-107788856D01*
X140191570Y-107585045D01*
X140305941Y-107360579D01*
X140383790Y-107120985D01*
X140423200Y-106872162D01*
X140423200Y-106620238D01*
X140420857Y-106605448D01*
X150939700Y-106605448D01*
X150939700Y-106810151D01*
X150971722Y-107012334D01*
X151034981Y-107207023D01*
X151127915Y-107389413D01*
X151248228Y-107555013D01*
X151392986Y-107699771D01*
X151523178Y-107794359D01*
X151558590Y-107820087D01*
X151674807Y-107879303D01*
X151740976Y-107913018D01*
X151740978Y-107913018D01*
X151740981Y-107913020D01*
X151824285Y-107940087D01*
X151935665Y-107976277D01*
X152036757Y-107992288D01*
X152137848Y-108008300D01*
X152137849Y-108008300D01*
X152342551Y-108008300D01*
X152342552Y-108008300D01*
X152544734Y-107976277D01*
X152739419Y-107913020D01*
X152921810Y-107820087D01*
X153038897Y-107735019D01*
X153087413Y-107699771D01*
X153087415Y-107699768D01*
X153087419Y-107699766D01*
X153232166Y-107555019D01*
X153232168Y-107555015D01*
X153232171Y-107555013D01*
X153352484Y-107389414D01*
X153352485Y-107389413D01*
X153352487Y-107389410D01*
X153359317Y-107376004D01*
X153407291Y-107325209D01*
X153469802Y-107308300D01*
X156294080Y-107308300D01*
X156361119Y-107327985D01*
X156404564Y-107376004D01*
X156503111Y-107569414D01*
X156508632Y-107580248D01*
X156656701Y-107784049D01*
X156656705Y-107784054D01*
X156656707Y-107784056D01*
X156834844Y-107962193D01*
X156834845Y-107962194D01*
X156834844Y-107962194D01*
X156841161Y-107966783D01*
X156883827Y-108022114D01*
X156889805Y-108091727D01*
X156857199Y-108153522D01*
X156796360Y-108187879D01*
X156748878Y-108189574D01*
X156694111Y-108180900D01*
X156520889Y-108180900D01*
X156490583Y-108185700D01*
X156349802Y-108207997D01*
X156185052Y-108261528D01*
X156030711Y-108340168D01*
X155950756Y-108398259D01*
X155890572Y-108441986D01*
X155890570Y-108441988D01*
X155890569Y-108441988D01*
X155768088Y-108564469D01*
X155768088Y-108564470D01*
X155768086Y-108564472D01*
X155764599Y-108569272D01*
X155666268Y-108704611D01*
X155587628Y-108858952D01*
X155534097Y-109023702D01*
X155507000Y-109194789D01*
X155507000Y-109368011D01*
X155534098Y-109539101D01*
X155587627Y-109703845D01*
X155666268Y-109858188D01*
X155768086Y-109998328D01*
X155890572Y-110120814D01*
X156030712Y-110222632D01*
X156185055Y-110301273D01*
X156349799Y-110354802D01*
X156520889Y-110381900D01*
X156520890Y-110381900D01*
X156694110Y-110381900D01*
X156694111Y-110381900D01*
X156865201Y-110354802D01*
X157029945Y-110301273D01*
X157184288Y-110222632D01*
X157324428Y-110120814D01*
X157446914Y-109998328D01*
X157548732Y-109858188D01*
X157627373Y-109703845D01*
X157680902Y-109539101D01*
X157708000Y-109368011D01*
X157708000Y-109194789D01*
X157698354Y-109133886D01*
X159437000Y-109133886D01*
X159437000Y-109428913D01*
X159469071Y-109672513D01*
X159475507Y-109721393D01*
X159550998Y-110003130D01*
X159551861Y-110006351D01*
X159551864Y-110006361D01*
X159664754Y-110278900D01*
X159664758Y-110278910D01*
X159812261Y-110534393D01*
X159991852Y-110768440D01*
X159991858Y-110768447D01*
X160200452Y-110977041D01*
X160200459Y-110977047D01*
X160278474Y-111036910D01*
X160434506Y-111156638D01*
X160471472Y-111177980D01*
X160519687Y-111228545D01*
X160532911Y-111297152D01*
X160506944Y-111362017D01*
X160450030Y-111402547D01*
X160411612Y-111409349D01*
X160362504Y-111410196D01*
X160183523Y-111446338D01*
X160183516Y-111446340D01*
X160014040Y-111514283D01*
X160014039Y-111514284D01*
X159859659Y-111611782D01*
X159859648Y-111611790D01*
X159725480Y-111735613D01*
X159725478Y-111735616D01*
X159725474Y-111735620D01*
X159708750Y-111757921D01*
X159615923Y-111881699D01*
X159534624Y-112045198D01*
X159534624Y-112045200D01*
X159484265Y-112220705D01*
X159484264Y-112220710D01*
X159466508Y-112402443D01*
X159481940Y-112584379D01*
X159481941Y-112584382D01*
X159530050Y-112760517D01*
X159530051Y-112760519D01*
X159537317Y-112775661D01*
X159537354Y-112775739D01*
X159540915Y-112783175D01*
X159540971Y-112783465D01*
X159557316Y-112817419D01*
X159557336Y-112817459D01*
X159557474Y-112818313D01*
X159569502Y-112871023D01*
X159569502Y-114219890D01*
X159557230Y-114273675D01*
X159537842Y-114313949D01*
X159537307Y-114315276D01*
X159530052Y-114330396D01*
X159530050Y-114330399D01*
X159481941Y-114506534D01*
X159481940Y-114506537D01*
X159466508Y-114688471D01*
X159484265Y-114870202D01*
X159484267Y-114870213D01*
X159534625Y-115045715D01*
X159534625Y-115045717D01*
X159595439Y-115168018D01*
X159615924Y-115209215D01*
X159725475Y-115355295D01*
X159725479Y-115355299D01*
X159725481Y-115355301D01*
X159859650Y-115479124D01*
X159859656Y-115479128D01*
X159859659Y-115479131D01*
X160014042Y-115576632D01*
X160142920Y-115628298D01*
X160183523Y-115644575D01*
X160183525Y-115644576D01*
X160362506Y-115680719D01*
X160545074Y-115683866D01*
X160725194Y-115653913D01*
X160896918Y-115591851D01*
X160911872Y-115583137D01*
X160918628Y-115579210D01*
X160918908Y-115579134D01*
X160946695Y-115562896D01*
X160946947Y-115562751D01*
X160950022Y-115561995D01*
X161009258Y-115545958D01*
X161041444Y-115545958D01*
X162498559Y-115545958D01*
X162530745Y-115545958D01*
X162593305Y-115562896D01*
X162627459Y-115582853D01*
X162628705Y-115583474D01*
X162643084Y-115591853D01*
X162814808Y-115653915D01*
X162994929Y-115683868D01*
X163177497Y-115680721D01*
X163356479Y-115644578D01*
X163525962Y-115576633D01*
X163680346Y-115479132D01*
X163689687Y-115470512D01*
X163814527Y-115355298D01*
X163814534Y-115355290D01*
X163889886Y-115254811D01*
X163924080Y-115209215D01*
X164005378Y-115045717D01*
X164055738Y-114870204D01*
X164073494Y-114688475D01*
X164071984Y-114670679D01*
X164064697Y-114584762D01*
X164058061Y-114506533D01*
X164048488Y-114471487D01*
X164038863Y-114436249D01*
X164009949Y-114330391D01*
X164002059Y-114313949D01*
X163999084Y-114307737D01*
X163999031Y-114307451D01*
X163982771Y-114273675D01*
X163982664Y-114273451D01*
X163982522Y-114272582D01*
X163970500Y-114219890D01*
X163970500Y-112871024D01*
X163982773Y-112817237D01*
X164002208Y-112776866D01*
X164002731Y-112775562D01*
X164009949Y-112760522D01*
X164058061Y-112584380D01*
X164068189Y-112464970D01*
X164073493Y-112402444D01*
X164067685Y-112343005D01*
X164055736Y-112220710D01*
X164005377Y-112045198D01*
X163924078Y-111881700D01*
X163814528Y-111735621D01*
X163814523Y-111735616D01*
X163680352Y-111611790D01*
X163680344Y-111611784D01*
X163672661Y-111606932D01*
X163525960Y-111514284D01*
X163412106Y-111468640D01*
X163356482Y-111446340D01*
X163356478Y-111446339D01*
X163177496Y-111410196D01*
X162994929Y-111407049D01*
X162994928Y-111407049D01*
X162994922Y-111407049D01*
X162994920Y-111407049D01*
X162983752Y-111408906D01*
X162914392Y-111400482D01*
X162860597Y-111355896D01*
X162839447Y-111289304D01*
X162857656Y-111221849D01*
X162901416Y-111179199D01*
X162940494Y-111156638D01*
X163174542Y-110977046D01*
X163383146Y-110768442D01*
X163562738Y-110534394D01*
X163710243Y-110278907D01*
X163823139Y-110006352D01*
X163899493Y-109721393D01*
X163938000Y-109428906D01*
X163938000Y-109194789D01*
X165667000Y-109194789D01*
X165667000Y-109368011D01*
X165694098Y-109539101D01*
X165747627Y-109703845D01*
X165826268Y-109858188D01*
X165928086Y-109998328D01*
X166050572Y-110120814D01*
X166190712Y-110222632D01*
X166345055Y-110301273D01*
X166509799Y-110354802D01*
X166680889Y-110381900D01*
X166680890Y-110381900D01*
X166854110Y-110381900D01*
X166854111Y-110381900D01*
X167025201Y-110354802D01*
X167189945Y-110301273D01*
X167344288Y-110222632D01*
X167484428Y-110120814D01*
X167606914Y-109998328D01*
X167708732Y-109858188D01*
X167787373Y-109703845D01*
X167840902Y-109539101D01*
X167868000Y-109368011D01*
X167868000Y-109194789D01*
X167840902Y-109023699D01*
X167787373Y-108858955D01*
X167708732Y-108704612D01*
X167606914Y-108564472D01*
X167484428Y-108441986D01*
X167344288Y-108340168D01*
X167189945Y-108261527D01*
X167025201Y-108207998D01*
X167025199Y-108207997D01*
X167025198Y-108207997D01*
X166884417Y-108185700D01*
X166854111Y-108180900D01*
X166680889Y-108180900D01*
X166650583Y-108185700D01*
X166509802Y-108207997D01*
X166345052Y-108261528D01*
X166190711Y-108340168D01*
X166110756Y-108398259D01*
X166050572Y-108441986D01*
X166050570Y-108441988D01*
X166050569Y-108441988D01*
X165928088Y-108564469D01*
X165928088Y-108564470D01*
X165928086Y-108564472D01*
X165924599Y-108569272D01*
X165826268Y-108704611D01*
X165747628Y-108858952D01*
X165694097Y-109023702D01*
X165667000Y-109194789D01*
X163938000Y-109194789D01*
X163938000Y-109133894D01*
X163899493Y-108841407D01*
X163823139Y-108556448D01*
X163710243Y-108283893D01*
X163700101Y-108266327D01*
X163562738Y-108028406D01*
X163383147Y-107794359D01*
X163383141Y-107794352D01*
X163174547Y-107585758D01*
X163174540Y-107585752D01*
X162940493Y-107406161D01*
X162685010Y-107258658D01*
X162685000Y-107258654D01*
X162412461Y-107145764D01*
X162412454Y-107145762D01*
X162412452Y-107145761D01*
X162127493Y-107069407D01*
X162078613Y-107062971D01*
X161835013Y-107030900D01*
X161835006Y-107030900D01*
X161539994Y-107030900D01*
X161539986Y-107030900D01*
X161261585Y-107067553D01*
X161247507Y-107069407D01*
X161072928Y-107116185D01*
X160962548Y-107145761D01*
X160962538Y-107145764D01*
X160689999Y-107258654D01*
X160689989Y-107258658D01*
X160434506Y-107406161D01*
X160200459Y-107585752D01*
X160200452Y-107585758D01*
X159991858Y-107794352D01*
X159991852Y-107794359D01*
X159812261Y-108028406D01*
X159664758Y-108283889D01*
X159664754Y-108283899D01*
X159551864Y-108556438D01*
X159551861Y-108556448D01*
X159475508Y-108841404D01*
X159475506Y-108841415D01*
X159437000Y-109133886D01*
X157698354Y-109133886D01*
X157680902Y-109023699D01*
X157627373Y-108858955D01*
X157548732Y-108704612D01*
X157446914Y-108564472D01*
X157394982Y-108512540D01*
X157361497Y-108451217D01*
X157366481Y-108381525D01*
X157408353Y-108325592D01*
X157473817Y-108301175D01*
X157502061Y-108302386D01*
X157502712Y-108302489D01*
X157502715Y-108302490D01*
X157751538Y-108341900D01*
X157751539Y-108341900D01*
X158003461Y-108341900D01*
X158003462Y-108341900D01*
X158252285Y-108302490D01*
X158491879Y-108224641D01*
X158716345Y-108110270D01*
X158920156Y-107962193D01*
X159098293Y-107784056D01*
X159246370Y-107580245D01*
X159360741Y-107355779D01*
X159438590Y-107116185D01*
X159478000Y-106867362D01*
X159478000Y-106615438D01*
X159438590Y-106366615D01*
X159360741Y-106127021D01*
X159360739Y-106127018D01*
X159360739Y-106127016D01*
X159309363Y-106026186D01*
X159246370Y-105902555D01*
X159215874Y-105860581D01*
X159098298Y-105698750D01*
X159098294Y-105698745D01*
X158920154Y-105520605D01*
X158920149Y-105520601D01*
X158716348Y-105372532D01*
X158716347Y-105372531D01*
X158716345Y-105372530D01*
X158646247Y-105336813D01*
X158491883Y-105258160D01*
X158252285Y-105180310D01*
X158003462Y-105140900D01*
X157751538Y-105140900D01*
X157627126Y-105160605D01*
X157502714Y-105180310D01*
X157263116Y-105258160D01*
X157038651Y-105372532D01*
X156834850Y-105520601D01*
X156834845Y-105520605D01*
X156656705Y-105698745D01*
X156656701Y-105698750D01*
X156508632Y-105902551D01*
X156508630Y-105902555D01*
X156438803Y-106039596D01*
X156390831Y-106090391D01*
X156328320Y-106107300D01*
X153469802Y-106107300D01*
X153402763Y-106087615D01*
X153359317Y-106039595D01*
X153352484Y-106026185D01*
X153232171Y-105860586D01*
X153087413Y-105715828D01*
X152921813Y-105595515D01*
X152921812Y-105595514D01*
X152921810Y-105595513D01*
X152850783Y-105559323D01*
X152739423Y-105502581D01*
X152544734Y-105439322D01*
X152370195Y-105411678D01*
X152342552Y-105407300D01*
X152137848Y-105407300D01*
X152113529Y-105411151D01*
X151935665Y-105439322D01*
X151740976Y-105502581D01*
X151558586Y-105595515D01*
X151392986Y-105715828D01*
X151248228Y-105860586D01*
X151127915Y-106026186D01*
X151034981Y-106208576D01*
X150971722Y-106403265D01*
X150939700Y-106605448D01*
X140420857Y-106605448D01*
X140383790Y-106371415D01*
X140305941Y-106131821D01*
X140305939Y-106131818D01*
X140305939Y-106131816D01*
X140264447Y-106050384D01*
X140191570Y-105907355D01*
X140095783Y-105775515D01*
X140043498Y-105703550D01*
X140043494Y-105703545D01*
X139865354Y-105525405D01*
X139865349Y-105525401D01*
X139661548Y-105377332D01*
X139661547Y-105377331D01*
X139661545Y-105377330D01*
X139591447Y-105341613D01*
X139437083Y-105262960D01*
X139197485Y-105185110D01*
X139167179Y-105180310D01*
X138948662Y-105145700D01*
X138696738Y-105145700D01*
X138572326Y-105165405D01*
X138447914Y-105185110D01*
X138208316Y-105262960D01*
X137983851Y-105377332D01*
X137780050Y-105525401D01*
X137780045Y-105525405D01*
X137601905Y-105703545D01*
X137601901Y-105703550D01*
X137453832Y-105907351D01*
X137339457Y-106131823D01*
X137316780Y-106201618D01*
X137277343Y-106259293D01*
X137212984Y-106286492D01*
X137198849Y-106287300D01*
X134337302Y-106287300D01*
X134270263Y-106267615D01*
X134226817Y-106219595D01*
X134221205Y-106208581D01*
X134219987Y-106206190D01*
X134219985Y-106206187D01*
X134219984Y-106206185D01*
X134099671Y-106040586D01*
X133954913Y-105895828D01*
X133789313Y-105775515D01*
X133789312Y-105775514D01*
X133789310Y-105775513D01*
X133732353Y-105746491D01*
X133606923Y-105682581D01*
X133412234Y-105619322D01*
X133237695Y-105591678D01*
X133210052Y-105587300D01*
X133005348Y-105587300D01*
X132981029Y-105591151D01*
X132803165Y-105619322D01*
X132608476Y-105682581D01*
X132426086Y-105775515D01*
X132260486Y-105895828D01*
X132115728Y-106040586D01*
X131995415Y-106206186D01*
X131902481Y-106388576D01*
X131839222Y-106583265D01*
X131807200Y-106785448D01*
X121373200Y-106785448D01*
X121373200Y-106620238D01*
X121333790Y-106371415D01*
X121255941Y-106131821D01*
X121255939Y-106131818D01*
X121255939Y-106131816D01*
X121214447Y-106050384D01*
X121141570Y-105907355D01*
X121045783Y-105775515D01*
X120993498Y-105703550D01*
X120993494Y-105703545D01*
X120815354Y-105525405D01*
X120815349Y-105525401D01*
X120611548Y-105377332D01*
X120611547Y-105377331D01*
X120611545Y-105377330D01*
X120541447Y-105341613D01*
X120387083Y-105262960D01*
X120147485Y-105185110D01*
X120117179Y-105180310D01*
X119898662Y-105145700D01*
X119646738Y-105145700D01*
X119522326Y-105165405D01*
X119397914Y-105185110D01*
X119158316Y-105262960D01*
X118933851Y-105377332D01*
X118730050Y-105525401D01*
X118730045Y-105525405D01*
X118551905Y-105703545D01*
X118551901Y-105703550D01*
X118403832Y-105907351D01*
X118289460Y-106131816D01*
X118289458Y-106131823D01*
X118286274Y-106141620D01*
X118246838Y-106199294D01*
X118182479Y-106226492D01*
X118168345Y-106227300D01*
X115289802Y-106227300D01*
X115222763Y-106207615D01*
X115179317Y-106159595D01*
X115172484Y-106146185D01*
X115052171Y-105980586D01*
X114907413Y-105835828D01*
X114741813Y-105715515D01*
X114741812Y-105715514D01*
X114741810Y-105715513D01*
X114681220Y-105684641D01*
X114559423Y-105622581D01*
X114364734Y-105559322D01*
X114190195Y-105531678D01*
X114162552Y-105527300D01*
X113957848Y-105527300D01*
X113933529Y-105531151D01*
X113755665Y-105559322D01*
X113560976Y-105622581D01*
X113378586Y-105715515D01*
X113212986Y-105835828D01*
X113068228Y-105980586D01*
X112947915Y-106146186D01*
X112854981Y-106328576D01*
X112791722Y-106523265D01*
X112759700Y-106725448D01*
X103075500Y-106725448D01*
X103075500Y-94508618D01*
X112263692Y-94508618D01*
X112263700Y-94593527D01*
X112263700Y-96156126D01*
X112263695Y-96251334D01*
X112263697Y-96251350D01*
X112263737Y-96251495D01*
X112281189Y-96316627D01*
X112281190Y-96316633D01*
X112304610Y-96404056D01*
X112304617Y-96404074D01*
X112304623Y-96404084D01*
X112344927Y-96473893D01*
X112383660Y-96540989D01*
X112383670Y-96540999D01*
X112383680Y-96541016D01*
X112383841Y-96541177D01*
X112446111Y-96603447D01*
X120410666Y-104568895D01*
X120416671Y-104574901D01*
X120416680Y-104574916D01*
X120474931Y-104633167D01*
X120528457Y-104686699D01*
X120528460Y-104686700D01*
X120528480Y-104686716D01*
X120528484Y-104686720D01*
X120528488Y-104686722D01*
X120528489Y-104686723D01*
X120596522Y-104726001D01*
X120596521Y-104726002D01*
X120596527Y-104726004D01*
X120664776Y-104765413D01*
X120664775Y-104765413D01*
X120665481Y-104765820D01*
X120667087Y-104766224D01*
X120736256Y-104784758D01*
X120736263Y-104784762D01*
X120736264Y-104784760D01*
X120818109Y-104806696D01*
X120818110Y-104806696D01*
X120818141Y-104806700D01*
X120818143Y-104806700D01*
X120888381Y-104806700D01*
X120888384Y-104806700D01*
X120976224Y-104806705D01*
X120976229Y-104806703D01*
X120984167Y-104806704D01*
X120984246Y-104806700D01*
X124556400Y-104806700D01*
X124623439Y-104826385D01*
X124666884Y-104874404D01*
X124751384Y-105040245D01*
X124753832Y-105045048D01*
X124901901Y-105248849D01*
X124901905Y-105248854D01*
X125080045Y-105426994D01*
X125080050Y-105426998D01*
X125218105Y-105527300D01*
X125283855Y-105575070D01*
X125370705Y-105619322D01*
X125508316Y-105689439D01*
X125508318Y-105689439D01*
X125508321Y-105689441D01*
X125747915Y-105767290D01*
X125996738Y-105806700D01*
X125996739Y-105806700D01*
X126248661Y-105806700D01*
X126248662Y-105806700D01*
X126497485Y-105767290D01*
X126737079Y-105689441D01*
X126961545Y-105575070D01*
X127165356Y-105426993D01*
X127343493Y-105248856D01*
X127491570Y-105045045D01*
X127605941Y-104820579D01*
X127683790Y-104580985D01*
X127723200Y-104332162D01*
X127723200Y-104080238D01*
X127683790Y-103831415D01*
X127605941Y-103591821D01*
X127605939Y-103591818D01*
X127605939Y-103591816D01*
X127563960Y-103509429D01*
X127491570Y-103367355D01*
X127472652Y-103341317D01*
X127343498Y-103163550D01*
X127343494Y-103163545D01*
X127165354Y-102985405D01*
X127165349Y-102985401D01*
X126961548Y-102837332D01*
X126961547Y-102837331D01*
X126961545Y-102837330D01*
X126844397Y-102777640D01*
X126737083Y-102722960D01*
X126497485Y-102645110D01*
X126467179Y-102640310D01*
X126248662Y-102605700D01*
X125996738Y-102605700D01*
X125872326Y-102625405D01*
X125747914Y-102645110D01*
X125508316Y-102722960D01*
X125283851Y-102837332D01*
X125080050Y-102985401D01*
X125080045Y-102985405D01*
X124901905Y-103163545D01*
X124901901Y-103163550D01*
X124753832Y-103367351D01*
X124666885Y-103537995D01*
X124618911Y-103588791D01*
X124556400Y-103605700D01*
X121197321Y-103605700D01*
X121130282Y-103586015D01*
X121109635Y-103569376D01*
X118571086Y-101030542D01*
X118489506Y-100948953D01*
X133569700Y-100948953D01*
X133569700Y-101106646D01*
X133600461Y-101261289D01*
X133600464Y-101261301D01*
X133660802Y-101406972D01*
X133660809Y-101406985D01*
X133748410Y-101538088D01*
X133748413Y-101538092D01*
X133859907Y-101649586D01*
X133859911Y-101649589D01*
X133991014Y-101737190D01*
X133991027Y-101737197D01*
X134136698Y-101797535D01*
X134136703Y-101797537D01*
X134291353Y-101828299D01*
X134291356Y-101828300D01*
X134291358Y-101828300D01*
X134449044Y-101828300D01*
X134449045Y-101828299D01*
X134603697Y-101797537D01*
X134749379Y-101737194D01*
X134880489Y-101649589D01*
X134991989Y-101538089D01*
X135079594Y-101406979D01*
X135139937Y-101261297D01*
X135170700Y-101106642D01*
X135170700Y-100948958D01*
X135170700Y-100948955D01*
X135170699Y-100948953D01*
X135139938Y-100794310D01*
X135139937Y-100794303D01*
X135139935Y-100794298D01*
X135079597Y-100648627D01*
X135079590Y-100648614D01*
X134991989Y-100517511D01*
X134991986Y-100517507D01*
X134880492Y-100406013D01*
X134880488Y-100406010D01*
X134749385Y-100318409D01*
X134749372Y-100318402D01*
X134603701Y-100258064D01*
X134603689Y-100258061D01*
X134449045Y-100227300D01*
X134449042Y-100227300D01*
X134291358Y-100227300D01*
X134291355Y-100227300D01*
X134136710Y-100258061D01*
X134136698Y-100258064D01*
X133991027Y-100318402D01*
X133991014Y-100318409D01*
X133859911Y-100406010D01*
X133859907Y-100406013D01*
X133748413Y-100517507D01*
X133748410Y-100517511D01*
X133660809Y-100648614D01*
X133660802Y-100648627D01*
X133600464Y-100794298D01*
X133600461Y-100794310D01*
X133569700Y-100948953D01*
X118489506Y-100948953D01*
X114880325Y-97339367D01*
X114879371Y-97337621D01*
X114877656Y-97336614D01*
X114862700Y-97307086D01*
X114846843Y-97278042D01*
X114846985Y-97276058D01*
X114846086Y-97274283D01*
X114849469Y-97241347D01*
X114851832Y-97208351D01*
X114853023Y-97206759D01*
X114853227Y-97204779D01*
X114873879Y-97178902D01*
X114893706Y-97152420D01*
X114895570Y-97151724D01*
X114896811Y-97150170D01*
X114928156Y-97139572D01*
X114959172Y-97128006D01*
X114961713Y-97128227D01*
X114963001Y-97127792D01*
X114998110Y-97131399D01*
X115002730Y-97132555D01*
X115004671Y-97133058D01*
X115080540Y-97153374D01*
X115080555Y-97153383D01*
X115080557Y-97153379D01*
X115102664Y-97159302D01*
X115157143Y-97173900D01*
X115157154Y-97173900D01*
X115157225Y-97173909D01*
X115157240Y-97173913D01*
X115239446Y-97173900D01*
X115239460Y-97173900D01*
X131873221Y-97173900D01*
X131873299Y-97173921D01*
X131954284Y-97173900D01*
X132031257Y-97173900D01*
X132031259Y-97173900D01*
X132031409Y-97173880D01*
X132031413Y-97173880D01*
X132109418Y-97152956D01*
X132183984Y-97132977D01*
X132184051Y-97132938D01*
X132184130Y-97132917D01*
X132253219Y-97093003D01*
X132253239Y-97092993D01*
X132275083Y-97080380D01*
X132320916Y-97053920D01*
X132320923Y-97053911D01*
X132321025Y-97053832D01*
X132321041Y-97053824D01*
X132348836Y-97026013D01*
X132376787Y-96998049D01*
X132376791Y-96998053D01*
X132376808Y-96998026D01*
X132432720Y-96942116D01*
X132432720Y-96942115D01*
X132438512Y-96936324D01*
X132438740Y-96936062D01*
X132620069Y-96754638D01*
X132681382Y-96721140D01*
X132707771Y-96718299D01*
X133507201Y-96718299D01*
X133574240Y-96737984D01*
X133594882Y-96754618D01*
X134026484Y-97186220D01*
X134163415Y-97265277D01*
X134316143Y-97306201D01*
X134316146Y-97306201D01*
X134481854Y-97306201D01*
X134481870Y-97306200D01*
X150870882Y-97306200D01*
X150961233Y-97306204D01*
X150961248Y-97306200D01*
X150961257Y-97306200D01*
X151028295Y-97288237D01*
X151066016Y-97278131D01*
X151135864Y-97279798D01*
X151193724Y-97318964D01*
X151221225Y-97383193D01*
X151209635Y-97452095D01*
X151185788Y-97485584D01*
X145958101Y-102713927D01*
X145896780Y-102747416D01*
X145827088Y-102742435D01*
X145814120Y-102736736D01*
X145787086Y-102722961D01*
X145547485Y-102645110D01*
X145517179Y-102640310D01*
X145298662Y-102605700D01*
X145046738Y-102605700D01*
X144922326Y-102625405D01*
X144797914Y-102645110D01*
X144558316Y-102722960D01*
X144333851Y-102837332D01*
X144130050Y-102985401D01*
X144130045Y-102985405D01*
X143951905Y-103163545D01*
X143951901Y-103163550D01*
X143803832Y-103367351D01*
X143689460Y-103591816D01*
X143611610Y-103831414D01*
X143572200Y-104080238D01*
X143572200Y-104332161D01*
X143611610Y-104580985D01*
X143689460Y-104820583D01*
X143768113Y-104974947D01*
X143801384Y-105040245D01*
X143803832Y-105045048D01*
X143951901Y-105248849D01*
X143951905Y-105248854D01*
X144130045Y-105426994D01*
X144130050Y-105426998D01*
X144268105Y-105527300D01*
X144333855Y-105575070D01*
X144420705Y-105619322D01*
X144558316Y-105689439D01*
X144558318Y-105689439D01*
X144558321Y-105689441D01*
X144797915Y-105767290D01*
X145046738Y-105806700D01*
X145046739Y-105806700D01*
X145298661Y-105806700D01*
X145298662Y-105806700D01*
X145547485Y-105767290D01*
X145787079Y-105689441D01*
X146011545Y-105575070D01*
X146215356Y-105426993D01*
X146393493Y-105248856D01*
X146541570Y-105045045D01*
X146655941Y-104820579D01*
X146733790Y-104580985D01*
X146773200Y-104332162D01*
X146773200Y-104080238D01*
X146733790Y-103831415D01*
X146709523Y-103756733D01*
X146707529Y-103686893D01*
X146739768Y-103630740D01*
X146784488Y-103586015D01*
X153688084Y-96681550D01*
X153688090Y-96681546D01*
X153749939Y-96619697D01*
X153751634Y-96618073D01*
X153752882Y-96615912D01*
X153752882Y-96615911D01*
X153792447Y-96547374D01*
X153792448Y-96547370D01*
X153792456Y-96547358D01*
X153830777Y-96480984D01*
X153830778Y-96480978D01*
X153830786Y-96480965D01*
X153830789Y-96480952D01*
X153830791Y-96480950D01*
X153839832Y-96447201D01*
X153851392Y-96404052D01*
X153851392Y-96404049D01*
X153871700Y-96328257D01*
X153871700Y-96328252D01*
X153871702Y-96328244D01*
X153871705Y-96328222D01*
X153871700Y-96245813D01*
X153871700Y-93640429D01*
X159556705Y-93640429D01*
X159572138Y-93822361D01*
X159572139Y-93822371D01*
X159620251Y-93998509D01*
X159620252Y-93998513D01*
X159627497Y-94013609D01*
X159627537Y-94013692D01*
X159631114Y-94021160D01*
X159631169Y-94021449D01*
X159647534Y-94055442D01*
X159647673Y-94056299D01*
X159659700Y-94109007D01*
X159659700Y-95457874D01*
X159647428Y-95511658D01*
X159628049Y-95551914D01*
X159627514Y-95553240D01*
X159620250Y-95568378D01*
X159572139Y-95744518D01*
X159572138Y-95744521D01*
X159556706Y-95926455D01*
X159574463Y-96108188D01*
X159574464Y-96108190D01*
X159624822Y-96283699D01*
X159624824Y-96283704D01*
X159706122Y-96447201D01*
X159753064Y-96509795D01*
X159815672Y-96593279D01*
X159815675Y-96593281D01*
X159815676Y-96593283D01*
X159949847Y-96717109D01*
X159949854Y-96717114D01*
X159949856Y-96717116D01*
X160104240Y-96814616D01*
X160273722Y-96882561D01*
X160452704Y-96918704D01*
X160635271Y-96921851D01*
X160815392Y-96891898D01*
X160987116Y-96829836D01*
X161002106Y-96821100D01*
X161008832Y-96817190D01*
X161009105Y-96817117D01*
X161037138Y-96800737D01*
X161040182Y-96799988D01*
X161099455Y-96783941D01*
X161131641Y-96783941D01*
X162581145Y-96783941D01*
X162581161Y-96783942D01*
X162588757Y-96783942D01*
X162620943Y-96783942D01*
X162683500Y-96800878D01*
X162711293Y-96817118D01*
X162711294Y-96817118D01*
X162717580Y-96820791D01*
X162718807Y-96821402D01*
X162733283Y-96829837D01*
X162905006Y-96891899D01*
X163085127Y-96921852D01*
X163267695Y-96918704D01*
X163446676Y-96882562D01*
X163616159Y-96814617D01*
X163770543Y-96717116D01*
X163904726Y-96593280D01*
X164014277Y-96447200D01*
X164095575Y-96283702D01*
X164145935Y-96108190D01*
X164163691Y-95926461D01*
X164163690Y-95926455D01*
X164148259Y-95744520D01*
X164148259Y-95744519D01*
X164100147Y-95568377D01*
X164092836Y-95553141D01*
X164089283Y-95545723D01*
X164089229Y-95545435D01*
X164072962Y-95511645D01*
X164072862Y-95511435D01*
X164072723Y-95510584D01*
X164060698Y-95457875D01*
X164060698Y-94109008D01*
X164072971Y-94055221D01*
X164092419Y-94014823D01*
X164092944Y-94013514D01*
X164100147Y-93998506D01*
X164148259Y-93822364D01*
X164155759Y-93733942D01*
X164163691Y-93640428D01*
X164162727Y-93630567D01*
X164145934Y-93458694D01*
X164095574Y-93283182D01*
X164014276Y-93119685D01*
X163904725Y-92973605D01*
X163904719Y-92973599D01*
X163904718Y-92973598D01*
X163770549Y-92849775D01*
X163770538Y-92849767D01*
X163616157Y-92752267D01*
X163446676Y-92684324D01*
X163446677Y-92684324D01*
X163327354Y-92660228D01*
X163267694Y-92648181D01*
X163085126Y-92645034D01*
X163085125Y-92645034D01*
X162905009Y-92674986D01*
X162905005Y-92674987D01*
X162733280Y-92737049D01*
X162718758Y-92745510D01*
X162718657Y-92745569D01*
X162711568Y-92749689D01*
X162711292Y-92749766D01*
X162683295Y-92766124D01*
X162683261Y-92766145D01*
X162680261Y-92766882D01*
X162620943Y-92782942D01*
X161099455Y-92782942D01*
X161036898Y-92766005D01*
X161002800Y-92746081D01*
X161001558Y-92745462D01*
X160987122Y-92737050D01*
X160987119Y-92737049D01*
X160987116Y-92737047D01*
X160815392Y-92674985D01*
X160815389Y-92674984D01*
X160815388Y-92674984D01*
X160635275Y-92645032D01*
X160635271Y-92645032D01*
X160489216Y-92647549D01*
X160452702Y-92648179D01*
X160273720Y-92684322D01*
X160273716Y-92684323D01*
X160104237Y-92752267D01*
X160104236Y-92752268D01*
X159949856Y-92849766D01*
X159949845Y-92849774D01*
X159815672Y-92973601D01*
X159815665Y-92973609D01*
X159706123Y-93119680D01*
X159706121Y-93119682D01*
X159624823Y-93283179D01*
X159574461Y-93458699D01*
X159556705Y-93640429D01*
X153871700Y-93640429D01*
X153871700Y-90627859D01*
X153871701Y-90627846D01*
X153871701Y-90459745D01*
X153871701Y-90459743D01*
X153830777Y-90307015D01*
X153801839Y-90256895D01*
X153751720Y-90170084D01*
X153639916Y-90058280D01*
X153639915Y-90058279D01*
X153635585Y-90053949D01*
X153635574Y-90053939D01*
X152743696Y-89162061D01*
X152710211Y-89100738D01*
X152715195Y-89031046D01*
X152757067Y-88975113D01*
X152775074Y-88963900D01*
X152821810Y-88940087D01*
X152863106Y-88910084D01*
X152987413Y-88819771D01*
X152987415Y-88819768D01*
X152987419Y-88819766D01*
X153132166Y-88675019D01*
X153132168Y-88675015D01*
X153132171Y-88675013D01*
X153212089Y-88565013D01*
X153252487Y-88509410D01*
X153326371Y-88364405D01*
X153374346Y-88313609D01*
X153436856Y-88296700D01*
X156306400Y-88296700D01*
X156373439Y-88316385D01*
X156416884Y-88364404D01*
X156503829Y-88535044D01*
X156503832Y-88535048D01*
X156651901Y-88738849D01*
X156651905Y-88738854D01*
X156651907Y-88738856D01*
X156830044Y-88916993D01*
X156830045Y-88916994D01*
X156830044Y-88916994D01*
X156836361Y-88921583D01*
X156879027Y-88976914D01*
X156885005Y-89046527D01*
X156852399Y-89108322D01*
X156791560Y-89142679D01*
X156744078Y-89144374D01*
X156689311Y-89135700D01*
X156516089Y-89135700D01*
X156476428Y-89141981D01*
X156345002Y-89162797D01*
X156180252Y-89216328D01*
X156025911Y-89294968D01*
X155972686Y-89333639D01*
X155885772Y-89396786D01*
X155885770Y-89396788D01*
X155885769Y-89396788D01*
X155763288Y-89519269D01*
X155763288Y-89519270D01*
X155763286Y-89519272D01*
X155726932Y-89569309D01*
X155661468Y-89659411D01*
X155582828Y-89813752D01*
X155529297Y-89978502D01*
X155502200Y-90149589D01*
X155502200Y-90322810D01*
X155525452Y-90469623D01*
X155529298Y-90493901D01*
X155582827Y-90658645D01*
X155661468Y-90812988D01*
X155763286Y-90953128D01*
X155885772Y-91075614D01*
X156025912Y-91177432D01*
X156180255Y-91256073D01*
X156344999Y-91309602D01*
X156516089Y-91336700D01*
X156516090Y-91336700D01*
X156689310Y-91336700D01*
X156689311Y-91336700D01*
X156860401Y-91309602D01*
X157025145Y-91256073D01*
X157179488Y-91177432D01*
X157319628Y-91075614D01*
X157442114Y-90953128D01*
X157543932Y-90812988D01*
X157622573Y-90658645D01*
X157676102Y-90493901D01*
X157703200Y-90322811D01*
X157703200Y-90149589D01*
X157693554Y-90088686D01*
X159432200Y-90088686D01*
X159432200Y-90383713D01*
X159456675Y-90569613D01*
X159470707Y-90676193D01*
X159544912Y-90953130D01*
X159547061Y-90961151D01*
X159547064Y-90961161D01*
X159659954Y-91233700D01*
X159659958Y-91233710D01*
X159807461Y-91489193D01*
X159987052Y-91723240D01*
X159987058Y-91723247D01*
X160195652Y-91931841D01*
X160195659Y-91931847D01*
X160429706Y-92111438D01*
X160685189Y-92258941D01*
X160685190Y-92258941D01*
X160685193Y-92258943D01*
X160811797Y-92311384D01*
X160945850Y-92366911D01*
X160957748Y-92371839D01*
X161242707Y-92448193D01*
X161521115Y-92484846D01*
X161533750Y-92486510D01*
X161535194Y-92486700D01*
X161535201Y-92486700D01*
X161830199Y-92486700D01*
X161830206Y-92486700D01*
X162122693Y-92448193D01*
X162407652Y-92371839D01*
X162680207Y-92258943D01*
X162935694Y-92111438D01*
X163169742Y-91931846D01*
X163378346Y-91723242D01*
X163557938Y-91489194D01*
X163705443Y-91233707D01*
X163818339Y-90961152D01*
X163894693Y-90676193D01*
X163933200Y-90383706D01*
X163933200Y-90088694D01*
X163894693Y-89796207D01*
X163818339Y-89511248D01*
X163705443Y-89238693D01*
X163673931Y-89184113D01*
X163557938Y-88983206D01*
X163378347Y-88749159D01*
X163378341Y-88749152D01*
X163169747Y-88540558D01*
X163169740Y-88540552D01*
X162935693Y-88360961D01*
X162680210Y-88213458D01*
X162680200Y-88213454D01*
X162407661Y-88100564D01*
X162407654Y-88100562D01*
X162407652Y-88100561D01*
X162122693Y-88024207D01*
X162073813Y-88017771D01*
X161830213Y-87985700D01*
X161830206Y-87985700D01*
X161535194Y-87985700D01*
X161535186Y-87985700D01*
X161256934Y-88022334D01*
X161242707Y-88024207D01*
X161068128Y-88070985D01*
X160957748Y-88100561D01*
X160957738Y-88100564D01*
X160685199Y-88213454D01*
X160685189Y-88213458D01*
X160429706Y-88360961D01*
X160195659Y-88540552D01*
X160195652Y-88540558D01*
X159987058Y-88749152D01*
X159987052Y-88749159D01*
X159807461Y-88983206D01*
X159659958Y-89238689D01*
X159659954Y-89238699D01*
X159547064Y-89511238D01*
X159547061Y-89511248D01*
X159476003Y-89776444D01*
X159470708Y-89796204D01*
X159470706Y-89796215D01*
X159432200Y-90088686D01*
X157693554Y-90088686D01*
X157676102Y-89978499D01*
X157622573Y-89813755D01*
X157543932Y-89659412D01*
X157442114Y-89519272D01*
X157390182Y-89467340D01*
X157356697Y-89406017D01*
X157361681Y-89336325D01*
X157403553Y-89280392D01*
X157469017Y-89255975D01*
X157497261Y-89257186D01*
X157497912Y-89257289D01*
X157497915Y-89257290D01*
X157746738Y-89296700D01*
X157746739Y-89296700D01*
X157998661Y-89296700D01*
X157998662Y-89296700D01*
X158247485Y-89257290D01*
X158487079Y-89179441D01*
X158711545Y-89065070D01*
X158915356Y-88916993D01*
X159093493Y-88738856D01*
X159241570Y-88535045D01*
X159355941Y-88310579D01*
X159433790Y-88070985D01*
X159473200Y-87822162D01*
X159473200Y-87570238D01*
X159433790Y-87321415D01*
X159355941Y-87081821D01*
X159355939Y-87081818D01*
X159355939Y-87081816D01*
X159304356Y-86980580D01*
X159241570Y-86857355D01*
X159146015Y-86725834D01*
X159093498Y-86653550D01*
X159093494Y-86653545D01*
X158915354Y-86475405D01*
X158915349Y-86475401D01*
X158711548Y-86327332D01*
X158711547Y-86327331D01*
X158711545Y-86327330D01*
X158641447Y-86291613D01*
X158487083Y-86212960D01*
X158247485Y-86135110D01*
X157998662Y-86095700D01*
X157746738Y-86095700D01*
X157622326Y-86115405D01*
X157497914Y-86135110D01*
X157258316Y-86212960D01*
X157033851Y-86327332D01*
X156830050Y-86475401D01*
X156830045Y-86475405D01*
X156651905Y-86653545D01*
X156651901Y-86653550D01*
X156503832Y-86857351D01*
X156503830Y-86857355D01*
X156441044Y-86980581D01*
X156416885Y-87027995D01*
X156368911Y-87078791D01*
X156306400Y-87095700D01*
X153278986Y-87095700D01*
X153211947Y-87076015D01*
X153178667Y-87044585D01*
X153166614Y-87027995D01*
X153132166Y-86980581D01*
X152987419Y-86835834D01*
X152987413Y-86835828D01*
X152821813Y-86715515D01*
X152821812Y-86715514D01*
X152821810Y-86715513D01*
X152762932Y-86685513D01*
X152639423Y-86622581D01*
X152444734Y-86559322D01*
X152270195Y-86531678D01*
X152242552Y-86527300D01*
X152037848Y-86527300D01*
X152013529Y-86531151D01*
X151835665Y-86559322D01*
X151640976Y-86622581D01*
X151458586Y-86715515D01*
X151292986Y-86835828D01*
X151148228Y-86980586D01*
X151027913Y-87146188D01*
X151004103Y-87192918D01*
X150956129Y-87243713D01*
X150888307Y-87260508D01*
X150822173Y-87237970D01*
X150805938Y-87224303D01*
X148376190Y-84794555D01*
X148376188Y-84794552D01*
X148257317Y-84675681D01*
X148257309Y-84675675D01*
X148147887Y-84612501D01*
X148147886Y-84612500D01*
X148124455Y-84598973D01*
X148120385Y-84596623D01*
X147967657Y-84555699D01*
X147809543Y-84555699D01*
X147801947Y-84555699D01*
X147801931Y-84555700D01*
X146739000Y-84555700D01*
X146671961Y-84536015D01*
X146628515Y-84487995D01*
X146541570Y-84317355D01*
X146522652Y-84291317D01*
X146393498Y-84113550D01*
X146393494Y-84113545D01*
X146215354Y-83935405D01*
X146215349Y-83935401D01*
X146011548Y-83787332D01*
X146011547Y-83787331D01*
X146011545Y-83787330D01*
X145941447Y-83751613D01*
X145787083Y-83672960D01*
X145547485Y-83595110D01*
X145298662Y-83555700D01*
X145046738Y-83555700D01*
X144922326Y-83575405D01*
X144797914Y-83595110D01*
X144709192Y-83623938D01*
X144615774Y-83654291D01*
X144545934Y-83656286D01*
X144489776Y-83624041D01*
X142261890Y-81396155D01*
X142261888Y-81396152D01*
X142143017Y-81277281D01*
X142143009Y-81277275D01*
X142039128Y-81217300D01*
X142039125Y-81217299D01*
X142006087Y-81198224D01*
X142006086Y-81198223D01*
X142006085Y-81198223D01*
X141853357Y-81157299D01*
X141695243Y-81157299D01*
X141687647Y-81157299D01*
X141687631Y-81157300D01*
X140449966Y-81157300D01*
X140382927Y-81137615D01*
X140381075Y-81136402D01*
X140249385Y-81048409D01*
X140249372Y-81048402D01*
X140103701Y-80988064D01*
X140103689Y-80988061D01*
X139949045Y-80957300D01*
X139949042Y-80957300D01*
X139791358Y-80957300D01*
X139791355Y-80957300D01*
X139636710Y-80988061D01*
X139636698Y-80988064D01*
X139491027Y-81048402D01*
X139491014Y-81048409D01*
X139359911Y-81136010D01*
X139359907Y-81136013D01*
X139248413Y-81247507D01*
X139248410Y-81247511D01*
X139160809Y-81378614D01*
X139160802Y-81378627D01*
X139100464Y-81524298D01*
X139100461Y-81524310D01*
X139069700Y-81678953D01*
X139069700Y-81836646D01*
X139100461Y-81991289D01*
X139100464Y-81991301D01*
X139160802Y-82136972D01*
X139160809Y-82136985D01*
X139248410Y-82268088D01*
X139248413Y-82268092D01*
X139359907Y-82379586D01*
X139359911Y-82379589D01*
X139491014Y-82467190D01*
X139491027Y-82467197D01*
X139617867Y-82519735D01*
X139636703Y-82527537D01*
X139791353Y-82558299D01*
X139791356Y-82558300D01*
X139791358Y-82558300D01*
X139949044Y-82558300D01*
X139949045Y-82558299D01*
X140103697Y-82527537D01*
X140249379Y-82467194D01*
X140261053Y-82459394D01*
X140381075Y-82379198D01*
X140447753Y-82358320D01*
X140449966Y-82358300D01*
X141474203Y-82358300D01*
X141541242Y-82377985D01*
X141561884Y-82394619D01*
X143640541Y-84473276D01*
X143674026Y-84534599D01*
X143670791Y-84599274D01*
X143645965Y-84675681D01*
X143611610Y-84781414D01*
X143572200Y-85030238D01*
X143572200Y-85282161D01*
X143611610Y-85530985D01*
X143689460Y-85770583D01*
X143803832Y-85995048D01*
X143951901Y-86198849D01*
X143951905Y-86198854D01*
X144130045Y-86376994D01*
X144130050Y-86376998D01*
X144295633Y-86497300D01*
X144333855Y-86525070D01*
X144466351Y-86592580D01*
X144558316Y-86639439D01*
X144558318Y-86639439D01*
X144558321Y-86639441D01*
X144797915Y-86717290D01*
X145046738Y-86756700D01*
X145046739Y-86756700D01*
X145298661Y-86756700D01*
X145298662Y-86756700D01*
X145547485Y-86717290D01*
X145787079Y-86639441D01*
X146011545Y-86525070D01*
X146215356Y-86376993D01*
X146393493Y-86198856D01*
X146541570Y-85995045D01*
X146628515Y-85824404D01*
X146676489Y-85773609D01*
X146739000Y-85756700D01*
X147588503Y-85756700D01*
X147655542Y-85776385D01*
X147676184Y-85793019D01*
X152634381Y-90751216D01*
X152667866Y-90812539D01*
X152670700Y-90838897D01*
X152670700Y-94023300D01*
X152651015Y-94090339D01*
X152598211Y-94136094D01*
X152546700Y-94147300D01*
X151540198Y-94147300D01*
X151540181Y-94147301D01*
X151437403Y-94157800D01*
X151437400Y-94157801D01*
X151270868Y-94212985D01*
X151270863Y-94212987D01*
X151121542Y-94305089D01*
X150997489Y-94429142D01*
X150905387Y-94578463D01*
X150905386Y-94578466D01*
X150850201Y-94745003D01*
X150850201Y-94745004D01*
X150850200Y-94745004D01*
X150839700Y-94847783D01*
X150839700Y-95847628D01*
X150831054Y-95877072D01*
X150824530Y-95907059D01*
X150820777Y-95912071D01*
X150820015Y-95914667D01*
X150803378Y-95935312D01*
X150736607Y-96002077D01*
X150680492Y-96058190D01*
X150669797Y-96068884D01*
X150608473Y-96102367D01*
X150582119Y-96105200D01*
X145008048Y-96105200D01*
X144941009Y-96085515D01*
X144895254Y-96032711D01*
X144884636Y-95969142D01*
X144892723Y-95886364D01*
X144893691Y-95876461D01*
X144893690Y-95876455D01*
X144878259Y-95694520D01*
X144878259Y-95694519D01*
X144830147Y-95518377D01*
X144822836Y-95503141D01*
X144819283Y-95495723D01*
X144819229Y-95495435D01*
X144802962Y-95461645D01*
X144802862Y-95461435D01*
X144802723Y-95460584D01*
X144790698Y-95407875D01*
X144790698Y-94059008D01*
X144802971Y-94005221D01*
X144822419Y-93964823D01*
X144822944Y-93963514D01*
X144830147Y-93948506D01*
X144878259Y-93772364D01*
X144887437Y-93664160D01*
X144893691Y-93590428D01*
X144890147Y-93554160D01*
X144875934Y-93408694D01*
X144825574Y-93233182D01*
X144744276Y-93069685D01*
X144634725Y-92923605D01*
X144634719Y-92923599D01*
X144634718Y-92923598D01*
X144500549Y-92799775D01*
X144500538Y-92799767D01*
X144346157Y-92702267D01*
X144176676Y-92634324D01*
X144176677Y-92634324D01*
X144043837Y-92607499D01*
X143997694Y-92598181D01*
X143815126Y-92595034D01*
X143815125Y-92595034D01*
X143635009Y-92624986D01*
X143635005Y-92624987D01*
X143463280Y-92687049D01*
X143448758Y-92695510D01*
X143448657Y-92695569D01*
X143441568Y-92699689D01*
X143441292Y-92699766D01*
X143413295Y-92716124D01*
X143413261Y-92716145D01*
X143410261Y-92716882D01*
X143350943Y-92732942D01*
X142801687Y-92732942D01*
X142734648Y-92713257D01*
X142688893Y-92660453D01*
X142678949Y-92591295D01*
X142707974Y-92527739D01*
X142766752Y-92489965D01*
X142785501Y-92486003D01*
X142809168Y-92482887D01*
X143072693Y-92448193D01*
X143357652Y-92371839D01*
X143630207Y-92258943D01*
X143885694Y-92111438D01*
X144119742Y-91931846D01*
X144328346Y-91723242D01*
X144507938Y-91489194D01*
X144655443Y-91233707D01*
X144768339Y-90961152D01*
X144844693Y-90676193D01*
X144883200Y-90383706D01*
X144883200Y-90149589D01*
X146612200Y-90149589D01*
X146612200Y-90322810D01*
X146635452Y-90469623D01*
X146639298Y-90493901D01*
X146692827Y-90658645D01*
X146771468Y-90812988D01*
X146873286Y-90953128D01*
X146995772Y-91075614D01*
X147135912Y-91177432D01*
X147290255Y-91256073D01*
X147454999Y-91309602D01*
X147626089Y-91336700D01*
X147626090Y-91336700D01*
X147799310Y-91336700D01*
X147799311Y-91336700D01*
X147970401Y-91309602D01*
X148135145Y-91256073D01*
X148289488Y-91177432D01*
X148429628Y-91075614D01*
X148552114Y-90953128D01*
X148653932Y-90812988D01*
X148732573Y-90658645D01*
X148786102Y-90493901D01*
X148813200Y-90322811D01*
X148813200Y-90149589D01*
X148786102Y-89978499D01*
X148732573Y-89813755D01*
X148653932Y-89659412D01*
X148552114Y-89519272D01*
X148429628Y-89396786D01*
X148289488Y-89294968D01*
X148135145Y-89216327D01*
X147970401Y-89162798D01*
X147970399Y-89162797D01*
X147970398Y-89162797D01*
X147838971Y-89141981D01*
X147799311Y-89135700D01*
X147626089Y-89135700D01*
X147586428Y-89141981D01*
X147455002Y-89162797D01*
X147290252Y-89216328D01*
X147135911Y-89294968D01*
X147082686Y-89333639D01*
X146995772Y-89396786D01*
X146995770Y-89396788D01*
X146995769Y-89396788D01*
X146873288Y-89519269D01*
X146873288Y-89519270D01*
X146873286Y-89519272D01*
X146836932Y-89569309D01*
X146771468Y-89659411D01*
X146692828Y-89813752D01*
X146639297Y-89978502D01*
X146612200Y-90149589D01*
X144883200Y-90149589D01*
X144883200Y-90088694D01*
X144844693Y-89796207D01*
X144768339Y-89511248D01*
X144655443Y-89238693D01*
X144623931Y-89184113D01*
X144507938Y-88983206D01*
X144328347Y-88749159D01*
X144328341Y-88749152D01*
X144119747Y-88540558D01*
X144119740Y-88540552D01*
X143885693Y-88360961D01*
X143630210Y-88213458D01*
X143630200Y-88213454D01*
X143357661Y-88100564D01*
X143357654Y-88100562D01*
X143357652Y-88100561D01*
X143072693Y-88024207D01*
X143023813Y-88017771D01*
X142780213Y-87985700D01*
X142780206Y-87985700D01*
X142485194Y-87985700D01*
X142485186Y-87985700D01*
X142206934Y-88022334D01*
X142192707Y-88024207D01*
X142018128Y-88070985D01*
X141907748Y-88100561D01*
X141907738Y-88100564D01*
X141635199Y-88213454D01*
X141635189Y-88213458D01*
X141379706Y-88360961D01*
X141145659Y-88540552D01*
X141145652Y-88540558D01*
X140937058Y-88749152D01*
X140937052Y-88749159D01*
X140757461Y-88983206D01*
X140609958Y-89238689D01*
X140609954Y-89238699D01*
X140497064Y-89511238D01*
X140497061Y-89511248D01*
X140426003Y-89776444D01*
X140420708Y-89796204D01*
X140420706Y-89796215D01*
X140382200Y-90088686D01*
X140382200Y-90383713D01*
X140406675Y-90569613D01*
X140420707Y-90676193D01*
X140494912Y-90953130D01*
X140497061Y-90961151D01*
X140497064Y-90961161D01*
X140609954Y-91233700D01*
X140609958Y-91233710D01*
X140757461Y-91489193D01*
X140937052Y-91723240D01*
X140937058Y-91723247D01*
X141145652Y-91931841D01*
X141145659Y-91931847D01*
X141379706Y-92111438D01*
X141635189Y-92258941D01*
X141635190Y-92258941D01*
X141635193Y-92258943D01*
X141761797Y-92311384D01*
X141895850Y-92366911D01*
X141907748Y-92371839D01*
X142192707Y-92448193D01*
X142453544Y-92482533D01*
X142479899Y-92486003D01*
X142543795Y-92514270D01*
X142582266Y-92572594D01*
X142583097Y-92642459D01*
X142546025Y-92701682D01*
X142482819Y-92731461D01*
X142463713Y-92732942D01*
X141829455Y-92732942D01*
X141813845Y-92728734D01*
X141799863Y-92729359D01*
X141767457Y-92716231D01*
X141767136Y-92716145D01*
X141767100Y-92716124D01*
X141739105Y-92699766D01*
X141738832Y-92699691D01*
X141731670Y-92695528D01*
X141731651Y-92695508D01*
X141731558Y-92695462D01*
X141717122Y-92687050D01*
X141717119Y-92687049D01*
X141717116Y-92687047D01*
X141545392Y-92624985D01*
X141545389Y-92624984D01*
X141545388Y-92624984D01*
X141365275Y-92595032D01*
X141365271Y-92595032D01*
X141219216Y-92597549D01*
X141182702Y-92598179D01*
X141003720Y-92634322D01*
X141003716Y-92634323D01*
X140834237Y-92702267D01*
X140834236Y-92702268D01*
X140679856Y-92799766D01*
X140679845Y-92799774D01*
X140545672Y-92923601D01*
X140545665Y-92923609D01*
X140436123Y-93069680D01*
X140436121Y-93069682D01*
X140354823Y-93233179D01*
X140304461Y-93408699D01*
X140286705Y-93590429D01*
X140302138Y-93772361D01*
X140302139Y-93772371D01*
X140335990Y-93896300D01*
X140350251Y-93948509D01*
X140350491Y-93949009D01*
X140357495Y-93963605D01*
X140357536Y-93963690D01*
X140361114Y-93971161D01*
X140361169Y-93971449D01*
X140377427Y-94005221D01*
X140377535Y-94005446D01*
X140377673Y-94006300D01*
X140389700Y-94059009D01*
X140389700Y-95407874D01*
X140377428Y-95461658D01*
X140358049Y-95501914D01*
X140357514Y-95503240D01*
X140350250Y-95518378D01*
X140302139Y-95694518D01*
X140302138Y-95694521D01*
X140286706Y-95876455D01*
X140295763Y-95969141D01*
X140282691Y-96037777D01*
X140234587Y-96088450D01*
X140172351Y-96105200D01*
X134695298Y-96105200D01*
X134665857Y-96096555D01*
X134635871Y-96090032D01*
X134630855Y-96086277D01*
X134628259Y-96085515D01*
X134607617Y-96068881D01*
X134444518Y-95905782D01*
X134411033Y-95844459D01*
X134408199Y-95818101D01*
X134408199Y-94817798D01*
X134408198Y-94817781D01*
X134397699Y-94715003D01*
X134397698Y-94715000D01*
X134342514Y-94548466D01*
X134250412Y-94399144D01*
X134126356Y-94275088D01*
X133977034Y-94182986D01*
X133810497Y-94127801D01*
X133810495Y-94127800D01*
X133707710Y-94117300D01*
X132507698Y-94117300D01*
X132507681Y-94117301D01*
X132404903Y-94127800D01*
X132404900Y-94127801D01*
X132238368Y-94182985D01*
X132238363Y-94182987D01*
X132089042Y-94275089D01*
X131964989Y-94399142D01*
X131872887Y-94548463D01*
X131872886Y-94548466D01*
X131817701Y-94715003D01*
X131817701Y-94715004D01*
X131817700Y-94715004D01*
X131807200Y-94817783D01*
X131807200Y-95817675D01*
X131798559Y-95847100D01*
X131792048Y-95877072D01*
X131788280Y-95882108D01*
X131787515Y-95884714D01*
X131770905Y-95905332D01*
X131749788Y-95926461D01*
X131739697Y-95936557D01*
X131678383Y-95970059D01*
X131651992Y-95972900D01*
X125870226Y-95972900D01*
X125803187Y-95953215D01*
X125757432Y-95900411D01*
X125746814Y-95836841D01*
X125746988Y-95835062D01*
X125753691Y-95766461D01*
X125753690Y-95766457D01*
X125753691Y-95766455D01*
X125738259Y-95584520D01*
X125738259Y-95584519D01*
X125690147Y-95408377D01*
X125682836Y-95393141D01*
X125679283Y-95385723D01*
X125679229Y-95385435D01*
X125662962Y-95351645D01*
X125662862Y-95351435D01*
X125662723Y-95350584D01*
X125650698Y-95297875D01*
X125650698Y-93949008D01*
X125662971Y-93895221D01*
X125682419Y-93854823D01*
X125682944Y-93853514D01*
X125690147Y-93838506D01*
X125738259Y-93662364D01*
X125750286Y-93520567D01*
X125753691Y-93480428D01*
X125751567Y-93458694D01*
X125735934Y-93298694D01*
X125731483Y-93283183D01*
X125717137Y-93233183D01*
X125685574Y-93123182D01*
X125604276Y-92959685D01*
X125494725Y-92813605D01*
X125494719Y-92813599D01*
X125494718Y-92813598D01*
X125360549Y-92689775D01*
X125360538Y-92689767D01*
X125206157Y-92592267D01*
X125036676Y-92524324D01*
X125036677Y-92524324D01*
X124866528Y-92489965D01*
X124857694Y-92488181D01*
X124675126Y-92485034D01*
X124666250Y-92486509D01*
X124596891Y-92478087D01*
X124543096Y-92433502D01*
X124521944Y-92366911D01*
X124540152Y-92299456D01*
X124583915Y-92256802D01*
X124835689Y-92111441D01*
X124835691Y-92111440D01*
X124877179Y-92079605D01*
X125069742Y-91931846D01*
X125278346Y-91723242D01*
X125457938Y-91489194D01*
X125605443Y-91233707D01*
X125718339Y-90961152D01*
X125794693Y-90676193D01*
X125833200Y-90383706D01*
X125833200Y-90149589D01*
X127562200Y-90149589D01*
X127562200Y-90322810D01*
X127585452Y-90469623D01*
X127589298Y-90493901D01*
X127642827Y-90658645D01*
X127721468Y-90812988D01*
X127823286Y-90953128D01*
X127945772Y-91075614D01*
X128085912Y-91177432D01*
X128240255Y-91256073D01*
X128404999Y-91309602D01*
X128576089Y-91336700D01*
X128576090Y-91336700D01*
X128749310Y-91336700D01*
X128749311Y-91336700D01*
X128920401Y-91309602D01*
X129085145Y-91256073D01*
X129239488Y-91177432D01*
X129379628Y-91075614D01*
X129502114Y-90953128D01*
X129603932Y-90812988D01*
X129682573Y-90658645D01*
X129736102Y-90493901D01*
X129763200Y-90322811D01*
X129763200Y-90149589D01*
X129736102Y-89978499D01*
X129682573Y-89813755D01*
X129603932Y-89659412D01*
X129502114Y-89519272D01*
X129379628Y-89396786D01*
X129239488Y-89294968D01*
X129085145Y-89216327D01*
X128920401Y-89162798D01*
X128920399Y-89162797D01*
X128920398Y-89162797D01*
X128788971Y-89141981D01*
X128749311Y-89135700D01*
X128576089Y-89135700D01*
X128536428Y-89141981D01*
X128405002Y-89162797D01*
X128240252Y-89216328D01*
X128085911Y-89294968D01*
X128032686Y-89333639D01*
X127945772Y-89396786D01*
X127945770Y-89396788D01*
X127945769Y-89396788D01*
X127823288Y-89519269D01*
X127823288Y-89519270D01*
X127823286Y-89519272D01*
X127786932Y-89569309D01*
X127721468Y-89659411D01*
X127642828Y-89813752D01*
X127589297Y-89978502D01*
X127562200Y-90149589D01*
X125833200Y-90149589D01*
X125833200Y-90088694D01*
X125794693Y-89796207D01*
X125718339Y-89511248D01*
X125605443Y-89238693D01*
X125573931Y-89184113D01*
X125457938Y-88983206D01*
X125278347Y-88749159D01*
X125278341Y-88749152D01*
X125069747Y-88540558D01*
X125069740Y-88540552D01*
X124835693Y-88360961D01*
X124580210Y-88213458D01*
X124580200Y-88213454D01*
X124307661Y-88100564D01*
X124307654Y-88100562D01*
X124307652Y-88100561D01*
X124022693Y-88024207D01*
X123973813Y-88017771D01*
X123730213Y-87985700D01*
X123730206Y-87985700D01*
X123435194Y-87985700D01*
X123435189Y-87985700D01*
X123435181Y-87985701D01*
X123344978Y-87997576D01*
X123275943Y-87986810D01*
X123223688Y-87940430D01*
X123204803Y-87873160D01*
X123225284Y-87806360D01*
X123241098Y-87786970D01*
X123332602Y-87695448D01*
X131807200Y-87695448D01*
X131807200Y-87900151D01*
X131839222Y-88102334D01*
X131902481Y-88297023D01*
X131995415Y-88479413D01*
X132115728Y-88645013D01*
X132260486Y-88789771D01*
X132415449Y-88902356D01*
X132426090Y-88910087D01*
X132531692Y-88963894D01*
X132608476Y-89003018D01*
X132608478Y-89003018D01*
X132608481Y-89003020D01*
X132712837Y-89036927D01*
X132803165Y-89066277D01*
X132904257Y-89082288D01*
X133005348Y-89098300D01*
X133005349Y-89098300D01*
X133210051Y-89098300D01*
X133210052Y-89098300D01*
X133412234Y-89066277D01*
X133606919Y-89003020D01*
X133789310Y-88910087D01*
X133882290Y-88842532D01*
X133954913Y-88789771D01*
X133954915Y-88789768D01*
X133954919Y-88789766D01*
X134099666Y-88645019D01*
X134099668Y-88645015D01*
X134099671Y-88645013D01*
X134219984Y-88479414D01*
X134219985Y-88479413D01*
X134219987Y-88479410D01*
X134226817Y-88466004D01*
X134274791Y-88415209D01*
X134337302Y-88398300D01*
X137308167Y-88398300D01*
X137375206Y-88417985D01*
X137418651Y-88466005D01*
X137453828Y-88535043D01*
X137453829Y-88535044D01*
X137601901Y-88738849D01*
X137601905Y-88738854D01*
X137601907Y-88738856D01*
X137780044Y-88916993D01*
X137780045Y-88916994D01*
X137780044Y-88916994D01*
X137786361Y-88921583D01*
X137829027Y-88976914D01*
X137835005Y-89046527D01*
X137802399Y-89108322D01*
X137741560Y-89142679D01*
X137694078Y-89144374D01*
X137639311Y-89135700D01*
X137466089Y-89135700D01*
X137426428Y-89141981D01*
X137295002Y-89162797D01*
X137130252Y-89216328D01*
X136975911Y-89294968D01*
X136922686Y-89333639D01*
X136835772Y-89396786D01*
X136835770Y-89396788D01*
X136835769Y-89396788D01*
X136713288Y-89519269D01*
X136713288Y-89519270D01*
X136713286Y-89519272D01*
X136676932Y-89569309D01*
X136611468Y-89659411D01*
X136532828Y-89813752D01*
X136479297Y-89978502D01*
X136452200Y-90149589D01*
X136452200Y-90322810D01*
X136475452Y-90469623D01*
X136479298Y-90493901D01*
X136532827Y-90658645D01*
X136611468Y-90812988D01*
X136713286Y-90953128D01*
X136835772Y-91075614D01*
X136975912Y-91177432D01*
X137130255Y-91256073D01*
X137294999Y-91309602D01*
X137466089Y-91336700D01*
X137466090Y-91336700D01*
X137639310Y-91336700D01*
X137639311Y-91336700D01*
X137810401Y-91309602D01*
X137975145Y-91256073D01*
X138129488Y-91177432D01*
X138269628Y-91075614D01*
X138392114Y-90953128D01*
X138493932Y-90812988D01*
X138572573Y-90658645D01*
X138626102Y-90493901D01*
X138653200Y-90322811D01*
X138653200Y-90149589D01*
X138626102Y-89978499D01*
X138572573Y-89813755D01*
X138493932Y-89659412D01*
X138392114Y-89519272D01*
X138340182Y-89467340D01*
X138306697Y-89406017D01*
X138311681Y-89336325D01*
X138353553Y-89280392D01*
X138419017Y-89255975D01*
X138447261Y-89257186D01*
X138447912Y-89257289D01*
X138447915Y-89257290D01*
X138696738Y-89296700D01*
X138696739Y-89296700D01*
X138948661Y-89296700D01*
X138948662Y-89296700D01*
X139197485Y-89257290D01*
X139437079Y-89179441D01*
X139661545Y-89065070D01*
X139865356Y-88916993D01*
X140043493Y-88738856D01*
X140191570Y-88535045D01*
X140305941Y-88310579D01*
X140383790Y-88070985D01*
X140423200Y-87822162D01*
X140423200Y-87570238D01*
X140383790Y-87321415D01*
X140305941Y-87081821D01*
X140305939Y-87081818D01*
X140305939Y-87081816D01*
X140254356Y-86980580D01*
X140191570Y-86857355D01*
X140096015Y-86725834D01*
X140043498Y-86653550D01*
X140043494Y-86653545D01*
X139865354Y-86475405D01*
X139865349Y-86475401D01*
X139661548Y-86327332D01*
X139661547Y-86327331D01*
X139661545Y-86327330D01*
X139591447Y-86291613D01*
X139437083Y-86212960D01*
X139197485Y-86135110D01*
X138948662Y-86095700D01*
X138696738Y-86095700D01*
X138572326Y-86115405D01*
X138447914Y-86135110D01*
X138208316Y-86212960D01*
X137983851Y-86327332D01*
X137780050Y-86475401D01*
X137780045Y-86475405D01*
X137601905Y-86653545D01*
X137601901Y-86653550D01*
X137453832Y-86857351D01*
X137339458Y-87081820D01*
X137339457Y-87081823D01*
X137329777Y-87111618D01*
X137290340Y-87169294D01*
X137225981Y-87196492D01*
X137211846Y-87197300D01*
X134337302Y-87197300D01*
X134270263Y-87177615D01*
X134226817Y-87129595D01*
X134219987Y-87116190D01*
X134219985Y-87116187D01*
X134219984Y-87116185D01*
X134099671Y-86950586D01*
X133954913Y-86805828D01*
X133789313Y-86685515D01*
X133789312Y-86685514D01*
X133789310Y-86685513D01*
X133698885Y-86639439D01*
X133606923Y-86592581D01*
X133412234Y-86529322D01*
X133237695Y-86501678D01*
X133210052Y-86497300D01*
X133005348Y-86497300D01*
X132981029Y-86501151D01*
X132803165Y-86529322D01*
X132608476Y-86592581D01*
X132426086Y-86685515D01*
X132260486Y-86805828D01*
X132115728Y-86950586D01*
X131995415Y-87116186D01*
X131902481Y-87298576D01*
X131839222Y-87493265D01*
X131807200Y-87695448D01*
X123332602Y-87695448D01*
X124777719Y-86250046D01*
X124839039Y-86216556D01*
X124908731Y-86221534D01*
X124953090Y-86250039D01*
X125080045Y-86376994D01*
X125080050Y-86376998D01*
X125245633Y-86497300D01*
X125283855Y-86525070D01*
X125416351Y-86592580D01*
X125508316Y-86639439D01*
X125508318Y-86639439D01*
X125508321Y-86639441D01*
X125747915Y-86717290D01*
X125996738Y-86756700D01*
X125996739Y-86756700D01*
X126248661Y-86756700D01*
X126248662Y-86756700D01*
X126497485Y-86717290D01*
X126737079Y-86639441D01*
X126961545Y-86525070D01*
X127165356Y-86376993D01*
X127343493Y-86198856D01*
X127491570Y-85995045D01*
X127605941Y-85770579D01*
X127683790Y-85530985D01*
X127723200Y-85282162D01*
X127723200Y-85030238D01*
X127683790Y-84781415D01*
X127605941Y-84541821D01*
X127605939Y-84541818D01*
X127605939Y-84541816D01*
X127564447Y-84460384D01*
X127491570Y-84317355D01*
X127472652Y-84291317D01*
X127343498Y-84113550D01*
X127343494Y-84113545D01*
X127165354Y-83935405D01*
X127165349Y-83935401D01*
X126961548Y-83787332D01*
X126961547Y-83787331D01*
X126961545Y-83787330D01*
X126891447Y-83751613D01*
X126737083Y-83672960D01*
X126497485Y-83595110D01*
X126248662Y-83555700D01*
X125996738Y-83555700D01*
X125872326Y-83575405D01*
X125747914Y-83595110D01*
X125508316Y-83672960D01*
X125283851Y-83787332D01*
X125080050Y-83935401D01*
X125080045Y-83935405D01*
X124901905Y-84113545D01*
X124901901Y-84113550D01*
X124753832Y-84317351D01*
X124639460Y-84541816D01*
X124577480Y-84732571D01*
X124570509Y-84743952D01*
X124568409Y-84753628D01*
X124547313Y-84781823D01*
X124547271Y-84781892D01*
X124546388Y-84782774D01*
X124541680Y-84787484D01*
X124541673Y-84787494D01*
X124536552Y-84792621D01*
X124536547Y-84792623D01*
X124536520Y-84792654D01*
X121584890Y-87744869D01*
X121523570Y-87778360D01*
X121453878Y-87773382D01*
X121397940Y-87731516D01*
X121373517Y-87666054D01*
X121373200Y-87657196D01*
X121373200Y-87570238D01*
X121333790Y-87321415D01*
X121255941Y-87081821D01*
X121255939Y-87081818D01*
X121255939Y-87081816D01*
X121204356Y-86980580D01*
X121141570Y-86857355D01*
X121046015Y-86725834D01*
X120993498Y-86653550D01*
X120993494Y-86653545D01*
X120815354Y-86475405D01*
X120815349Y-86475401D01*
X120611548Y-86327332D01*
X120611547Y-86327331D01*
X120611545Y-86327330D01*
X120541447Y-86291613D01*
X120387083Y-86212960D01*
X120147485Y-86135110D01*
X119898662Y-86095700D01*
X119646738Y-86095700D01*
X119522326Y-86115405D01*
X119397914Y-86135110D01*
X119158316Y-86212960D01*
X118933851Y-86327332D01*
X118730050Y-86475401D01*
X118730045Y-86475405D01*
X118551905Y-86653545D01*
X118551901Y-86653550D01*
X118403832Y-86857351D01*
X118305879Y-87049595D01*
X118257904Y-87100391D01*
X118195394Y-87117300D01*
X115229802Y-87117300D01*
X115162763Y-87097615D01*
X115119317Y-87049595D01*
X115112487Y-87036190D01*
X115112485Y-87036187D01*
X115112484Y-87036185D01*
X114992171Y-86870586D01*
X114847413Y-86725828D01*
X114681813Y-86605515D01*
X114681812Y-86605514D01*
X114681810Y-86605513D01*
X114624853Y-86576491D01*
X114499423Y-86512581D01*
X114304734Y-86449322D01*
X114130195Y-86421678D01*
X114102552Y-86417300D01*
X113897848Y-86417300D01*
X113873529Y-86421151D01*
X113695665Y-86449322D01*
X113500976Y-86512581D01*
X113318586Y-86605515D01*
X113152986Y-86725828D01*
X113008228Y-86870586D01*
X112887915Y-87036186D01*
X112794981Y-87218576D01*
X112731722Y-87413265D01*
X112701687Y-87602903D01*
X112699700Y-87615448D01*
X112699700Y-87820152D01*
X112704078Y-87847795D01*
X112731722Y-88022334D01*
X112794981Y-88217023D01*
X112846585Y-88318300D01*
X112887347Y-88398300D01*
X112887915Y-88399413D01*
X113008228Y-88565013D01*
X113152986Y-88709771D01*
X113263092Y-88789766D01*
X113318590Y-88830087D01*
X113434807Y-88889303D01*
X113500976Y-88923018D01*
X113500978Y-88923018D01*
X113500981Y-88923020D01*
X113553499Y-88940084D01*
X113695665Y-88986277D01*
X113796757Y-89002288D01*
X113897848Y-89018300D01*
X113897849Y-89018300D01*
X114102551Y-89018300D01*
X114102552Y-89018300D01*
X114304734Y-88986277D01*
X114499419Y-88923020D01*
X114681810Y-88830087D01*
X114793200Y-88749158D01*
X114847413Y-88709771D01*
X114847415Y-88709768D01*
X114847419Y-88709766D01*
X114992166Y-88565019D01*
X114992168Y-88565015D01*
X114992171Y-88565013D01*
X115112484Y-88399414D01*
X115112485Y-88399413D01*
X115112487Y-88399410D01*
X115119317Y-88386004D01*
X115167291Y-88335209D01*
X115229802Y-88318300D01*
X118217405Y-88318300D01*
X118284444Y-88337985D01*
X118327890Y-88386005D01*
X118344185Y-88417985D01*
X118403829Y-88535044D01*
X118403832Y-88535048D01*
X118551901Y-88738849D01*
X118551905Y-88738854D01*
X118551907Y-88738856D01*
X118730044Y-88916993D01*
X118730045Y-88916994D01*
X118730044Y-88916994D01*
X118736361Y-88921583D01*
X118779027Y-88976914D01*
X118785005Y-89046527D01*
X118752399Y-89108322D01*
X118691560Y-89142679D01*
X118644078Y-89144374D01*
X118589311Y-89135700D01*
X118416089Y-89135700D01*
X118376428Y-89141981D01*
X118245002Y-89162797D01*
X118080252Y-89216328D01*
X117925911Y-89294968D01*
X117872686Y-89333639D01*
X117785772Y-89396786D01*
X117785770Y-89396788D01*
X117785769Y-89396788D01*
X117663288Y-89519269D01*
X117663288Y-89519270D01*
X117663286Y-89519272D01*
X117626932Y-89569309D01*
X117561468Y-89659411D01*
X117482828Y-89813752D01*
X117429297Y-89978502D01*
X117402200Y-90149589D01*
X117402200Y-90322810D01*
X117425452Y-90469623D01*
X117429298Y-90493901D01*
X117482827Y-90658645D01*
X117561468Y-90812988D01*
X117663286Y-90953128D01*
X117785772Y-91075614D01*
X117925912Y-91177432D01*
X118080255Y-91256073D01*
X118244999Y-91309602D01*
X118331474Y-91323298D01*
X118341858Y-91324943D01*
X118404993Y-91354872D01*
X118441924Y-91414184D01*
X118440926Y-91484046D01*
X118410131Y-91535108D01*
X117901825Y-92043292D01*
X117840498Y-92076769D01*
X117814154Y-92079600D01*
X114850232Y-92079600D01*
X114850210Y-92079594D01*
X114771153Y-92079600D01*
X114692131Y-92079600D01*
X114692097Y-92079605D01*
X114616188Y-92099951D01*
X114616182Y-92099953D01*
X114616179Y-92099954D01*
X114573321Y-92111438D01*
X114539408Y-92120525D01*
X114539378Y-92120537D01*
X114475831Y-92157232D01*
X114475825Y-92157236D01*
X114402477Y-92199583D01*
X114402457Y-92199599D01*
X114351663Y-92250400D01*
X114285923Y-92316140D01*
X114285848Y-92316224D01*
X112448251Y-94154111D01*
X112448023Y-94154341D01*
X112383680Y-94218684D01*
X112383666Y-94218707D01*
X112383652Y-94218722D01*
X112383202Y-94219500D01*
X112383199Y-94219504D01*
X112351119Y-94275080D01*
X112351115Y-94275088D01*
X112304619Y-94355622D01*
X112304604Y-94355657D01*
X112282763Y-94437194D01*
X112282764Y-94437195D01*
X112282736Y-94437300D01*
X112263700Y-94508343D01*
X112263700Y-94508363D01*
X112263693Y-94508390D01*
X112263693Y-94508614D01*
X112263692Y-94508618D01*
X103075500Y-94508618D01*
X103075500Y-81671153D01*
X119449500Y-81671153D01*
X119449500Y-81828846D01*
X119480261Y-81983489D01*
X119480264Y-81983501D01*
X119540602Y-82129172D01*
X119540609Y-82129185D01*
X119628210Y-82260288D01*
X119628213Y-82260292D01*
X119739707Y-82371786D01*
X119739711Y-82371789D01*
X119870814Y-82459390D01*
X119870827Y-82459397D01*
X120016498Y-82519735D01*
X120016503Y-82519737D01*
X120171153Y-82550499D01*
X120171156Y-82550500D01*
X120171158Y-82550500D01*
X120328844Y-82550500D01*
X120328845Y-82550499D01*
X120483497Y-82519737D01*
X120629179Y-82459394D01*
X120659404Y-82439197D01*
X120726082Y-82418320D01*
X120728295Y-82418300D01*
X125480434Y-82418300D01*
X125547473Y-82437985D01*
X125549325Y-82439198D01*
X125681014Y-82527190D01*
X125681027Y-82527197D01*
X125826698Y-82587535D01*
X125826703Y-82587537D01*
X125981353Y-82618299D01*
X125981356Y-82618300D01*
X125981358Y-82618300D01*
X126139044Y-82618300D01*
X126139045Y-82618299D01*
X126293697Y-82587537D01*
X126439379Y-82527194D01*
X126570489Y-82439589D01*
X126681989Y-82328089D01*
X126769594Y-82196979D01*
X126829937Y-82051297D01*
X126860700Y-81896642D01*
X126860700Y-81738958D01*
X126860700Y-81738955D01*
X126860699Y-81738953D01*
X126848764Y-81678953D01*
X126829937Y-81584303D01*
X126829935Y-81584298D01*
X126769597Y-81438627D01*
X126769590Y-81438614D01*
X126681989Y-81307511D01*
X126681986Y-81307507D01*
X126570492Y-81196013D01*
X126570488Y-81196010D01*
X126439385Y-81108409D01*
X126439372Y-81108402D01*
X126293701Y-81048064D01*
X126293689Y-81048061D01*
X126139045Y-81017300D01*
X126139042Y-81017300D01*
X125981358Y-81017300D01*
X125981355Y-81017300D01*
X125826710Y-81048061D01*
X125826698Y-81048064D01*
X125681027Y-81108402D01*
X125681014Y-81108409D01*
X125549325Y-81196402D01*
X125482647Y-81217280D01*
X125480434Y-81217300D01*
X120900740Y-81217300D01*
X120833701Y-81197615D01*
X120813058Y-81180980D01*
X120760292Y-81128213D01*
X120760288Y-81128210D01*
X120629185Y-81040609D01*
X120629172Y-81040602D01*
X120483501Y-80980264D01*
X120483489Y-80980261D01*
X120328845Y-80949500D01*
X120328842Y-80949500D01*
X120171158Y-80949500D01*
X120171155Y-80949500D01*
X120016510Y-80980261D01*
X120016498Y-80980264D01*
X119870827Y-81040602D01*
X119870814Y-81040609D01*
X119739711Y-81128210D01*
X119739707Y-81128213D01*
X119628213Y-81239707D01*
X119628210Y-81239711D01*
X119540609Y-81370814D01*
X119540602Y-81370827D01*
X119480264Y-81516498D01*
X119480261Y-81516510D01*
X119449500Y-81671153D01*
X103075500Y-81671153D01*
X103075500Y-59928439D01*
X111257700Y-59928439D01*
X111257700Y-60127160D01*
X111288787Y-60323437D01*
X111350193Y-60512429D01*
X111350194Y-60512432D01*
X111387829Y-60586293D01*
X111440413Y-60689494D01*
X111557219Y-60850264D01*
X111697736Y-60990781D01*
X111858506Y-61107587D01*
X111945349Y-61151835D01*
X112035567Y-61197805D01*
X112035570Y-61197806D01*
X112130066Y-61228509D01*
X112224564Y-61259213D01*
X112420839Y-61290300D01*
X112420840Y-61290300D01*
X112619560Y-61290300D01*
X112619561Y-61290300D01*
X112815836Y-61259213D01*
X113004832Y-61197805D01*
X113181894Y-61107587D01*
X113342664Y-60990781D01*
X113483181Y-60850264D01*
X113599987Y-60689494D01*
X113679715Y-60533018D01*
X113727690Y-60482223D01*
X113795511Y-60465428D01*
X113861646Y-60487965D01*
X113900684Y-60533018D01*
X113980413Y-60689494D01*
X114097219Y-60850264D01*
X114237736Y-60990781D01*
X114398506Y-61107587D01*
X114485349Y-61151835D01*
X114575567Y-61197805D01*
X114575570Y-61197806D01*
X114670066Y-61228509D01*
X114764564Y-61259213D01*
X114960839Y-61290300D01*
X114960840Y-61290300D01*
X115159560Y-61290300D01*
X115159561Y-61290300D01*
X115355836Y-61259213D01*
X115544832Y-61197805D01*
X115721894Y-61107587D01*
X115882664Y-60990781D01*
X116023181Y-60850264D01*
X116139987Y-60689494D01*
X116219715Y-60533018D01*
X116267690Y-60482223D01*
X116335511Y-60465428D01*
X116401646Y-60487965D01*
X116440684Y-60533018D01*
X116520413Y-60689494D01*
X116637219Y-60850264D01*
X116777736Y-60990781D01*
X116938506Y-61107587D01*
X117025349Y-61151835D01*
X117115567Y-61197805D01*
X117115570Y-61197806D01*
X117210066Y-61228509D01*
X117304564Y-61259213D01*
X117500839Y-61290300D01*
X117500840Y-61290300D01*
X117699560Y-61290300D01*
X117699561Y-61290300D01*
X117895836Y-61259213D01*
X118084832Y-61197805D01*
X118261894Y-61107587D01*
X118422664Y-60990781D01*
X118563181Y-60850264D01*
X118679987Y-60689494D01*
X118759715Y-60533018D01*
X118807690Y-60482223D01*
X118875511Y-60465428D01*
X118941646Y-60487965D01*
X118980684Y-60533018D01*
X119060413Y-60689494D01*
X119177219Y-60850264D01*
X119317736Y-60990781D01*
X119478506Y-61107587D01*
X119565349Y-61151835D01*
X119655567Y-61197805D01*
X119655570Y-61197806D01*
X119750066Y-61228509D01*
X119844564Y-61259213D01*
X120040839Y-61290300D01*
X120040840Y-61290300D01*
X120239560Y-61290300D01*
X120239561Y-61290300D01*
X120435836Y-61259213D01*
X120624832Y-61197805D01*
X120801894Y-61107587D01*
X120962664Y-60990781D01*
X121103181Y-60850264D01*
X121219987Y-60689494D01*
X121299715Y-60533018D01*
X121347690Y-60482223D01*
X121415511Y-60465428D01*
X121481646Y-60487965D01*
X121520684Y-60533018D01*
X121600413Y-60689494D01*
X121717219Y-60850264D01*
X121857736Y-60990781D01*
X122018506Y-61107587D01*
X122105349Y-61151835D01*
X122195567Y-61197805D01*
X122195570Y-61197806D01*
X122290066Y-61228509D01*
X122384564Y-61259213D01*
X122580839Y-61290300D01*
X122580840Y-61290300D01*
X122779560Y-61290300D01*
X122779561Y-61290300D01*
X122975836Y-61259213D01*
X122975857Y-61259205D01*
X122978008Y-61258690D01*
X122978868Y-61258732D01*
X122980648Y-61258451D01*
X122980707Y-61258824D01*
X123047791Y-61262169D01*
X123094662Y-61291582D01*
X126142284Y-64339514D01*
X126142283Y-64339514D01*
X126147673Y-64344904D01*
X126147680Y-64344916D01*
X126210066Y-64407302D01*
X126210068Y-64407304D01*
X126210069Y-64407306D01*
X126259457Y-64456699D01*
X126259480Y-64456716D01*
X126259484Y-64456720D01*
X126259489Y-64456722D01*
X126259583Y-64456793D01*
X126260580Y-64457352D01*
X126330698Y-64497835D01*
X126396387Y-64535765D01*
X126396398Y-64535768D01*
X126396405Y-64535770D01*
X126396416Y-64535777D01*
X126464117Y-64553917D01*
X126464124Y-64553921D01*
X126464125Y-64553919D01*
X126549112Y-64576697D01*
X126549119Y-64576697D01*
X126549137Y-64576700D01*
X126608405Y-64576700D01*
X126707227Y-64576705D01*
X126707231Y-64576703D01*
X126715170Y-64576704D01*
X126715249Y-64576700D01*
X134466981Y-64576700D01*
X134534020Y-64596385D01*
X134577465Y-64644405D01*
X134597647Y-64684014D01*
X134597648Y-64684015D01*
X134722590Y-64855986D01*
X134872913Y-65006309D01*
X135044882Y-65131250D01*
X135053646Y-65135716D01*
X135104442Y-65183691D01*
X135121236Y-65251512D01*
X135098698Y-65317647D01*
X135053646Y-65356684D01*
X135044882Y-65361149D01*
X134872913Y-65486090D01*
X134722590Y-65636413D01*
X134597651Y-65808379D01*
X134501144Y-65997785D01*
X134435453Y-66199960D01*
X134402200Y-66409913D01*
X134402200Y-66622486D01*
X134435453Y-66832439D01*
X134501144Y-67034614D01*
X134597651Y-67224020D01*
X134722590Y-67395986D01*
X134872913Y-67546309D01*
X135044882Y-67671250D01*
X135053646Y-67675716D01*
X135104442Y-67723691D01*
X135121236Y-67791512D01*
X135098698Y-67857647D01*
X135053646Y-67896684D01*
X135044882Y-67901149D01*
X134872913Y-68026090D01*
X134722590Y-68176413D01*
X134597648Y-68348384D01*
X134597647Y-68348385D01*
X134577465Y-68387995D01*
X134529491Y-68438791D01*
X134466981Y-68455700D01*
X123828031Y-68455700D01*
X123733162Y-68455697D01*
X123733151Y-68455700D01*
X123733143Y-68455700D01*
X123729433Y-68456693D01*
X123729432Y-68456694D01*
X123692944Y-68466470D01*
X123662754Y-68474560D01*
X123634228Y-68482202D01*
X123580426Y-68496617D01*
X123580421Y-68496619D01*
X123496443Y-68545103D01*
X123496225Y-68545230D01*
X123443500Y-68575669D01*
X123443495Y-68575673D01*
X123443484Y-68575680D01*
X123442986Y-68576177D01*
X123442984Y-68576179D01*
X123365811Y-68653352D01*
X123365808Y-68653354D01*
X118014767Y-74004050D01*
X117953443Y-74037533D01*
X117900676Y-74036969D01*
X117900648Y-74037149D01*
X117899433Y-74036956D01*
X117898156Y-74036943D01*
X117895842Y-74036387D01*
X117713287Y-74007474D01*
X117699561Y-74005300D01*
X117500839Y-74005300D01*
X117435414Y-74015662D01*
X117304562Y-74036387D01*
X117115570Y-74097793D01*
X117115567Y-74097794D01*
X116938505Y-74188013D01*
X116777733Y-74304821D01*
X116637221Y-74445333D01*
X116520413Y-74606105D01*
X116440404Y-74763131D01*
X116392429Y-74813927D01*
X116324608Y-74830722D01*
X116258473Y-74808184D01*
X116219434Y-74763131D01*
X116139558Y-74606367D01*
X116112468Y-74569083D01*
X115497847Y-75183704D01*
X115474408Y-75096229D01*
X115415889Y-74994870D01*
X115333130Y-74912111D01*
X115231771Y-74853592D01*
X115144294Y-74830152D01*
X115758916Y-74215531D01*
X115758915Y-74215530D01*
X115721632Y-74188441D01*
X115544637Y-74098257D01*
X115355722Y-74036875D01*
X115159521Y-74005800D01*
X114960879Y-74005800D01*
X114764679Y-74036875D01*
X114764676Y-74036875D01*
X114575762Y-74098257D01*
X114398764Y-74188443D01*
X114361483Y-74215529D01*
X114361482Y-74215530D01*
X114976106Y-74830152D01*
X114888629Y-74853592D01*
X114787270Y-74912111D01*
X114704511Y-74994870D01*
X114645992Y-75096229D01*
X114622552Y-75183705D01*
X114007930Y-74569082D01*
X114007929Y-74569083D01*
X113980841Y-74606366D01*
X113900964Y-74763132D01*
X113852990Y-74813927D01*
X113785169Y-74830722D01*
X113719034Y-74808184D01*
X113679996Y-74763132D01*
X113599987Y-74606106D01*
X113483181Y-74445336D01*
X113342664Y-74304819D01*
X113181894Y-74188013D01*
X113004832Y-74097794D01*
X113004829Y-74097793D01*
X112815837Y-74036387D01*
X112717698Y-74020843D01*
X112619561Y-74005300D01*
X112420839Y-74005300D01*
X112355414Y-74015662D01*
X112224562Y-74036387D01*
X112035570Y-74097793D01*
X112035567Y-74097794D01*
X111858505Y-74188013D01*
X111697733Y-74304821D01*
X111557221Y-74445333D01*
X111440413Y-74606105D01*
X111350194Y-74783167D01*
X111350193Y-74783170D01*
X111288787Y-74972162D01*
X111257700Y-75168439D01*
X111257700Y-75367160D01*
X111288787Y-75563437D01*
X111350193Y-75752429D01*
X111350194Y-75752432D01*
X111440274Y-75929222D01*
X111440413Y-75929494D01*
X111557219Y-76090264D01*
X111697736Y-76230781D01*
X111858506Y-76347587D01*
X111945349Y-76391835D01*
X112035567Y-76437805D01*
X112035570Y-76437806D01*
X112130066Y-76468509D01*
X112224564Y-76499213D01*
X112420839Y-76530300D01*
X112420840Y-76530300D01*
X112619560Y-76530300D01*
X112619561Y-76530300D01*
X112815836Y-76499213D01*
X113004832Y-76437805D01*
X113181894Y-76347587D01*
X113342664Y-76230781D01*
X113483181Y-76090264D01*
X113599987Y-75929494D01*
X113679996Y-75772467D01*
X113727969Y-75721672D01*
X113795790Y-75704877D01*
X113861925Y-75727414D01*
X113900965Y-75772468D01*
X113980841Y-75929232D01*
X114007930Y-75966515D01*
X114007931Y-75966516D01*
X114622552Y-75351894D01*
X114645992Y-75439371D01*
X114704511Y-75540730D01*
X114787270Y-75623489D01*
X114888629Y-75682008D01*
X114976105Y-75705447D01*
X114361483Y-76320068D01*
X114361483Y-76320069D01*
X114398767Y-76347158D01*
X114575762Y-76437342D01*
X114764677Y-76498724D01*
X114960879Y-76529800D01*
X115159521Y-76529800D01*
X115355720Y-76498724D01*
X115355723Y-76498724D01*
X115544637Y-76437342D01*
X115721625Y-76347162D01*
X115758916Y-76320068D01*
X115144295Y-75705447D01*
X115231771Y-75682008D01*
X115333130Y-75623489D01*
X115415889Y-75540730D01*
X115474408Y-75439371D01*
X115497847Y-75351894D01*
X116112468Y-75966515D01*
X116139564Y-75929222D01*
X116219434Y-75772469D01*
X116267408Y-75721672D01*
X116335229Y-75704877D01*
X116401364Y-75727414D01*
X116440403Y-75772467D01*
X116520413Y-75929494D01*
X116637219Y-76090264D01*
X116777736Y-76230781D01*
X116938506Y-76347587D01*
X117025349Y-76391835D01*
X117115567Y-76437805D01*
X117115570Y-76437806D01*
X117210066Y-76468509D01*
X117304564Y-76499213D01*
X117500839Y-76530300D01*
X117500840Y-76530300D01*
X117699560Y-76530300D01*
X117699561Y-76530300D01*
X117895836Y-76499213D01*
X118084832Y-76437805D01*
X118261894Y-76347587D01*
X118422664Y-76230781D01*
X118563181Y-76090264D01*
X118679987Y-75929494D01*
X118759715Y-75773018D01*
X118807690Y-75722223D01*
X118875511Y-75705428D01*
X118941646Y-75727965D01*
X118980684Y-75773018D01*
X119060413Y-75929494D01*
X119177219Y-76090264D01*
X119317736Y-76230781D01*
X119478506Y-76347587D01*
X119565349Y-76391835D01*
X119655567Y-76437805D01*
X119655570Y-76437806D01*
X119750066Y-76468509D01*
X119844564Y-76499213D01*
X120040839Y-76530300D01*
X120040840Y-76530300D01*
X120239560Y-76530300D01*
X120239561Y-76530300D01*
X120435836Y-76499213D01*
X120624832Y-76437805D01*
X120801894Y-76347587D01*
X120962664Y-76230781D01*
X121103181Y-76090264D01*
X121219987Y-75929494D01*
X121299715Y-75773018D01*
X121347690Y-75722223D01*
X121415511Y-75705428D01*
X121481646Y-75727965D01*
X121520684Y-75773018D01*
X121600413Y-75929494D01*
X121717219Y-76090264D01*
X121857736Y-76230781D01*
X122018506Y-76347587D01*
X122105349Y-76391835D01*
X122195567Y-76437805D01*
X122195570Y-76437806D01*
X122290066Y-76468509D01*
X122384564Y-76499213D01*
X122580839Y-76530300D01*
X122580840Y-76530300D01*
X122779560Y-76530300D01*
X122779561Y-76530300D01*
X122975836Y-76499213D01*
X122975846Y-76499209D01*
X122978120Y-76498664D01*
X122979019Y-76498708D01*
X122980648Y-76498451D01*
X122980702Y-76498792D01*
X123047903Y-76502150D01*
X123094754Y-76531553D01*
X123744889Y-77181660D01*
X124552321Y-77989057D01*
X124645484Y-78082220D01*
X124645493Y-78082225D01*
X124645495Y-78082227D01*
X124679986Y-78102140D01*
X124782416Y-78161277D01*
X124782417Y-78161277D01*
X124783238Y-78161751D01*
X124788177Y-78162822D01*
X124865832Y-78183628D01*
X124934328Y-78201981D01*
X124935103Y-78202196D01*
X124935143Y-78202201D01*
X124935152Y-78202200D01*
X124935156Y-78202202D01*
X125040565Y-78202200D01*
X156368116Y-78202200D01*
X156435155Y-78221885D01*
X156455794Y-78238516D01*
X162297511Y-84079846D01*
X162297514Y-84079849D01*
X162690638Y-84472974D01*
X162724123Y-84534297D01*
X162720888Y-84598973D01*
X162661610Y-84781410D01*
X162661610Y-84781413D01*
X162622200Y-85030238D01*
X162622200Y-85282161D01*
X162661610Y-85530985D01*
X162739460Y-85770583D01*
X162853832Y-85995048D01*
X163001901Y-86198849D01*
X163001905Y-86198854D01*
X163180045Y-86376994D01*
X163180050Y-86376998D01*
X163345633Y-86497300D01*
X163383855Y-86525070D01*
X163516351Y-86592580D01*
X163608316Y-86639439D01*
X163608318Y-86639439D01*
X163608321Y-86639441D01*
X163847915Y-86717290D01*
X164096738Y-86756700D01*
X164096739Y-86756700D01*
X164348661Y-86756700D01*
X164348662Y-86756700D01*
X164597485Y-86717290D01*
X164779625Y-86658108D01*
X164849464Y-86656114D01*
X164905623Y-86688359D01*
X166555249Y-88337985D01*
X167187952Y-88970687D01*
X167221437Y-89032010D01*
X167216453Y-89101702D01*
X167174581Y-89157635D01*
X167109117Y-89182052D01*
X167061954Y-89176299D01*
X167020402Y-89162798D01*
X167020398Y-89162797D01*
X166888971Y-89141981D01*
X166849311Y-89135700D01*
X166676089Y-89135700D01*
X166636428Y-89141981D01*
X166505002Y-89162797D01*
X166340252Y-89216328D01*
X166185911Y-89294968D01*
X166132686Y-89333639D01*
X166045772Y-89396786D01*
X166045770Y-89396788D01*
X166045769Y-89396788D01*
X165923288Y-89519269D01*
X165923288Y-89519270D01*
X165923286Y-89519272D01*
X165886932Y-89569309D01*
X165821468Y-89659411D01*
X165742828Y-89813752D01*
X165689297Y-89978502D01*
X165662200Y-90149589D01*
X165662200Y-90322810D01*
X165685452Y-90469623D01*
X165689298Y-90493901D01*
X165742827Y-90658645D01*
X165821468Y-90812988D01*
X165923286Y-90953128D01*
X166045772Y-91075614D01*
X166185912Y-91177432D01*
X166340255Y-91256073D01*
X166504999Y-91309602D01*
X166676089Y-91336700D01*
X166676090Y-91336700D01*
X166849310Y-91336700D01*
X166849311Y-91336700D01*
X167020401Y-91309602D01*
X167185145Y-91256073D01*
X167339488Y-91177432D01*
X167479628Y-91075614D01*
X167602114Y-90953128D01*
X167703932Y-90812988D01*
X167782573Y-90658645D01*
X167836102Y-90493901D01*
X167863200Y-90322811D01*
X167863200Y-90149589D01*
X167836102Y-89978499D01*
X167822599Y-89936944D01*
X167820605Y-89867106D01*
X167856685Y-89807273D01*
X167919386Y-89776444D01*
X167988800Y-89784408D01*
X168028212Y-89810947D01*
X168230781Y-90013516D01*
X168264266Y-90074839D01*
X168267100Y-90101197D01*
X168267100Y-99163702D01*
X168247415Y-99230741D01*
X168230781Y-99251383D01*
X164836834Y-102645329D01*
X164775511Y-102678814D01*
X164710836Y-102675579D01*
X164602287Y-102640310D01*
X164602288Y-102640310D01*
X164415667Y-102610752D01*
X164353462Y-102600900D01*
X164101538Y-102600900D01*
X163977126Y-102620605D01*
X163852714Y-102640310D01*
X163613116Y-102718160D01*
X163388651Y-102832532D01*
X163184850Y-102980601D01*
X163184845Y-102980605D01*
X163006705Y-103158745D01*
X163006701Y-103158750D01*
X162858632Y-103362551D01*
X162744260Y-103587016D01*
X162666410Y-103826614D01*
X162627000Y-104075438D01*
X162627000Y-104327361D01*
X162666410Y-104576185D01*
X162744260Y-104815783D01*
X162858632Y-105040248D01*
X163006701Y-105244049D01*
X163006705Y-105244054D01*
X163184845Y-105422194D01*
X163184850Y-105422198D01*
X163326898Y-105525401D01*
X163388655Y-105570270D01*
X163531684Y-105643147D01*
X163613116Y-105684639D01*
X163613118Y-105684639D01*
X163613121Y-105684641D01*
X163852715Y-105762490D01*
X164101538Y-105801900D01*
X164101539Y-105801900D01*
X164353461Y-105801900D01*
X164353462Y-105801900D01*
X164602285Y-105762490D01*
X164841879Y-105684641D01*
X165066345Y-105570270D01*
X165270156Y-105422193D01*
X165448293Y-105244056D01*
X165596370Y-105040245D01*
X165710741Y-104815779D01*
X165788590Y-104576185D01*
X165828000Y-104327362D01*
X165828000Y-104075438D01*
X165788590Y-103826615D01*
X165710741Y-103587021D01*
X165710737Y-103587013D01*
X165710736Y-103587010D01*
X165708874Y-103582512D01*
X165710622Y-103581787D01*
X165699209Y-103521041D01*
X165725480Y-103456298D01*
X165734901Y-103445733D01*
X169348120Y-99832516D01*
X169427177Y-99695584D01*
X169468101Y-99542857D01*
X169468101Y-99384742D01*
X169468101Y-99377147D01*
X169468100Y-99377129D01*
X169468100Y-89890160D01*
X169468101Y-89890147D01*
X169468101Y-89722044D01*
X169468101Y-89722043D01*
X169427177Y-89569316D01*
X169399657Y-89521650D01*
X169348124Y-89432390D01*
X169348118Y-89432382D01*
X165754859Y-85839123D01*
X165721374Y-85777800D01*
X165724608Y-85713125D01*
X165783790Y-85530985D01*
X165823200Y-85282162D01*
X165823200Y-85030238D01*
X165783790Y-84781415D01*
X165705941Y-84541821D01*
X165705939Y-84541818D01*
X165705939Y-84541816D01*
X165664447Y-84460384D01*
X165591570Y-84317355D01*
X165572652Y-84291317D01*
X165443498Y-84113550D01*
X165443494Y-84113545D01*
X165265354Y-83935405D01*
X165265349Y-83935401D01*
X165061548Y-83787332D01*
X165061547Y-83787331D01*
X165061545Y-83787330D01*
X164991447Y-83751613D01*
X164837083Y-83672960D01*
X164597485Y-83595110D01*
X164348662Y-83555700D01*
X164096738Y-83555700D01*
X164013797Y-83568836D01*
X163847913Y-83595110D01*
X163847910Y-83595110D01*
X163666097Y-83654185D01*
X163596256Y-83656180D01*
X163540101Y-83623938D01*
X163126828Y-83210693D01*
X163080916Y-83164781D01*
X163080908Y-83164776D01*
X163080900Y-83164768D01*
X163080899Y-83164767D01*
X163075928Y-83159796D01*
X163075926Y-83159793D01*
X157097399Y-77181663D01*
X157036916Y-77121180D01*
X157036915Y-77121179D01*
X157036902Y-77121169D01*
X157025662Y-77114680D01*
X156975440Y-77085687D01*
X156975438Y-77085685D01*
X156975438Y-77085686D01*
X156899984Y-77042122D01*
X156899973Y-77042118D01*
X156899966Y-77042116D01*
X156826666Y-77022477D01*
X156809884Y-77017980D01*
X156747257Y-77001199D01*
X156747237Y-77001197D01*
X156652369Y-77001200D01*
X125314288Y-77001200D01*
X125247249Y-76981515D01*
X125226609Y-76964883D01*
X124999991Y-76738274D01*
X124966504Y-76676952D01*
X124971487Y-76607260D01*
X125013358Y-76551325D01*
X125078821Y-76526907D01*
X125107058Y-76528117D01*
X125120839Y-76530300D01*
X125120846Y-76530300D01*
X125319560Y-76530300D01*
X125319561Y-76530300D01*
X125515836Y-76499213D01*
X125704832Y-76437805D01*
X125881894Y-76347587D01*
X126042664Y-76230781D01*
X126183181Y-76090264D01*
X126299987Y-75929494D01*
X126379715Y-75773018D01*
X126427690Y-75722223D01*
X126495511Y-75705428D01*
X126561646Y-75727965D01*
X126600684Y-75773018D01*
X126680413Y-75929494D01*
X126797219Y-76090264D01*
X126937736Y-76230781D01*
X127098506Y-76347587D01*
X127185349Y-76391835D01*
X127275567Y-76437805D01*
X127275570Y-76437806D01*
X127370066Y-76468509D01*
X127464564Y-76499213D01*
X127660839Y-76530300D01*
X127660840Y-76530300D01*
X127859560Y-76530300D01*
X127859561Y-76530300D01*
X128055836Y-76499213D01*
X128244832Y-76437805D01*
X128421894Y-76347587D01*
X128582664Y-76230781D01*
X128723181Y-76090264D01*
X128839987Y-75929494D01*
X128930205Y-75752432D01*
X128991613Y-75563436D01*
X129022700Y-75367161D01*
X129022700Y-75168439D01*
X128991613Y-74972164D01*
X128930205Y-74783168D01*
X128930205Y-74783167D01*
X128884235Y-74692949D01*
X128839987Y-74606106D01*
X128723181Y-74445336D01*
X128582664Y-74304819D01*
X128421894Y-74188013D01*
X128244832Y-74097794D01*
X128244829Y-74097793D01*
X128055837Y-74036387D01*
X127957698Y-74020843D01*
X127859561Y-74005300D01*
X127660839Y-74005300D01*
X127595414Y-74015662D01*
X127464562Y-74036387D01*
X127275570Y-74097793D01*
X127275567Y-74097794D01*
X127098505Y-74188013D01*
X126937733Y-74304821D01*
X126797221Y-74445333D01*
X126680413Y-74606105D01*
X126600685Y-74762580D01*
X126552710Y-74813376D01*
X126484889Y-74830171D01*
X126418754Y-74807633D01*
X126379715Y-74762580D01*
X126352738Y-74709636D01*
X126299987Y-74606106D01*
X126183181Y-74445336D01*
X126042664Y-74304819D01*
X125881894Y-74188013D01*
X125704832Y-74097794D01*
X125704829Y-74097793D01*
X125515837Y-74036387D01*
X125417698Y-74020843D01*
X125319561Y-74005300D01*
X125120839Y-74005300D01*
X125055414Y-74015662D01*
X124924562Y-74036387D01*
X124735570Y-74097793D01*
X124735567Y-74097794D01*
X124558505Y-74188013D01*
X124397733Y-74304821D01*
X124257221Y-74445333D01*
X124140413Y-74606105D01*
X124060685Y-74762580D01*
X124012710Y-74813376D01*
X123944889Y-74830171D01*
X123878754Y-74807633D01*
X123839715Y-74762580D01*
X123812738Y-74709636D01*
X123759987Y-74606106D01*
X123643181Y-74445336D01*
X123502664Y-74304819D01*
X123341894Y-74188013D01*
X123164832Y-74097794D01*
X123164829Y-74097793D01*
X122975837Y-74036387D01*
X122877698Y-74020843D01*
X122779561Y-74005300D01*
X122580839Y-74005300D01*
X122515414Y-74015662D01*
X122384562Y-74036387D01*
X122195570Y-74097793D01*
X122195567Y-74097794D01*
X122018505Y-74188013D01*
X121857733Y-74304821D01*
X121717221Y-74445333D01*
X121600413Y-74606105D01*
X121520685Y-74762580D01*
X121472710Y-74813376D01*
X121404889Y-74830171D01*
X121338754Y-74807633D01*
X121299715Y-74762580D01*
X121272738Y-74709636D01*
X121219987Y-74606106D01*
X121103181Y-74445336D01*
X120962664Y-74304819D01*
X120801894Y-74188013D01*
X120624832Y-74097794D01*
X120624829Y-74097793D01*
X120435837Y-74036387D01*
X120337698Y-74020843D01*
X120239561Y-74005300D01*
X120040839Y-74005300D01*
X120037682Y-74005800D01*
X120027110Y-74007474D01*
X119957817Y-73998516D01*
X119904367Y-73953518D01*
X119883730Y-73886765D01*
X119902458Y-73819452D01*
X119920035Y-73797320D01*
X123078359Y-70639201D01*
X124024606Y-69693016D01*
X124085930Y-69659533D01*
X124112284Y-69656700D01*
X134466981Y-69656700D01*
X134534020Y-69676385D01*
X134577465Y-69724405D01*
X134597647Y-69764014D01*
X134597648Y-69764015D01*
X134722590Y-69935986D01*
X134873013Y-70086409D01*
X134906498Y-70147732D01*
X134901514Y-70217424D01*
X134859642Y-70273357D01*
X134822225Y-70292475D01*
X134795704Y-70300739D01*
X134795701Y-70300740D01*
X134656466Y-70384910D01*
X134656462Y-70384913D01*
X134541413Y-70499962D01*
X134541410Y-70499966D01*
X134457240Y-70639201D01*
X134457238Y-70639207D01*
X134408835Y-70794537D01*
X134408834Y-70794544D01*
X134402700Y-70862048D01*
X134402700Y-71346200D01*
X135319688Y-71346200D01*
X135286775Y-71403207D01*
X135252700Y-71530374D01*
X135252700Y-71662026D01*
X135286775Y-71789193D01*
X135319688Y-71846200D01*
X134402701Y-71846200D01*
X134402701Y-72330362D01*
X134408832Y-72397851D01*
X134408834Y-72397858D01*
X134457237Y-72553189D01*
X134457240Y-72553198D01*
X134541410Y-72692433D01*
X134541413Y-72692437D01*
X134656462Y-72807486D01*
X134656466Y-72807489D01*
X134795701Y-72891659D01*
X134795707Y-72891661D01*
X134951037Y-72940064D01*
X134951044Y-72940065D01*
X135018548Y-72946199D01*
X135502699Y-72946199D01*
X135502700Y-72946198D01*
X135502700Y-72029212D01*
X135559707Y-72062125D01*
X135686874Y-72096200D01*
X135818526Y-72096200D01*
X135945693Y-72062125D01*
X136002700Y-72029212D01*
X136002700Y-72946199D01*
X136486861Y-72946199D01*
X136554351Y-72940067D01*
X136554358Y-72940065D01*
X136709689Y-72891662D01*
X136709698Y-72891659D01*
X136848933Y-72807489D01*
X136848937Y-72807486D01*
X136963986Y-72692437D01*
X136963989Y-72692433D01*
X137048159Y-72553198D01*
X137048161Y-72553192D01*
X137096564Y-72397862D01*
X137096565Y-72397855D01*
X137102700Y-72330351D01*
X137102700Y-71846200D01*
X136185712Y-71846200D01*
X136218625Y-71789193D01*
X136252700Y-71662026D01*
X136252700Y-71530374D01*
X136218625Y-71403207D01*
X136185712Y-71346200D01*
X137102699Y-71346200D01*
X137102699Y-70862037D01*
X137096567Y-70794548D01*
X137096565Y-70794541D01*
X137048162Y-70639210D01*
X137048159Y-70639201D01*
X136963989Y-70499966D01*
X136963986Y-70499962D01*
X136848937Y-70384913D01*
X136848933Y-70384910D01*
X136709698Y-70300740D01*
X136709693Y-70300738D01*
X136683175Y-70292475D01*
X136625028Y-70253736D01*
X136597055Y-70189710D01*
X136608137Y-70120725D01*
X136632386Y-70086408D01*
X136632484Y-70086309D01*
X136632492Y-70086304D01*
X136782804Y-69935992D01*
X136907751Y-69764016D01*
X137004257Y-69574612D01*
X137069946Y-69372443D01*
X137103200Y-69162487D01*
X137103200Y-68949913D01*
X137069946Y-68739957D01*
X137004257Y-68537788D01*
X136907751Y-68348384D01*
X136907749Y-68348381D01*
X136907748Y-68348379D01*
X136782809Y-68176413D01*
X136632486Y-68026090D01*
X136460520Y-67901151D01*
X136459815Y-67900791D01*
X136451754Y-67896685D01*
X136400959Y-67848712D01*
X136384163Y-67780892D01*
X136406699Y-67714756D01*
X136451754Y-67675715D01*
X136460516Y-67671251D01*
X136482489Y-67655286D01*
X136632486Y-67546309D01*
X136632488Y-67546306D01*
X136632492Y-67546304D01*
X136782804Y-67395992D01*
X136782806Y-67395988D01*
X136782809Y-67395986D01*
X136907748Y-67224020D01*
X136907747Y-67224020D01*
X136907751Y-67224016D01*
X137004257Y-67034612D01*
X137069946Y-66832443D01*
X137103200Y-66622487D01*
X137103200Y-66409913D01*
X137069946Y-66199957D01*
X137004257Y-65997788D01*
X136907751Y-65808384D01*
X136907749Y-65808381D01*
X136907748Y-65808379D01*
X136782809Y-65636413D01*
X136632486Y-65486090D01*
X136460520Y-65361151D01*
X136459815Y-65360791D01*
X136451754Y-65356685D01*
X136400959Y-65308712D01*
X136384163Y-65240892D01*
X136406699Y-65174756D01*
X136451754Y-65135715D01*
X136460516Y-65131251D01*
X136482489Y-65115286D01*
X136632486Y-65006309D01*
X136632488Y-65006306D01*
X136632492Y-65006304D01*
X136782804Y-64855992D01*
X136782806Y-64855988D01*
X136782809Y-64855986D01*
X136907748Y-64684020D01*
X136907747Y-64684020D01*
X136907751Y-64684016D01*
X137004257Y-64494612D01*
X137069946Y-64292443D01*
X137103200Y-64082487D01*
X137103200Y-63869913D01*
X137069946Y-63659957D01*
X137004257Y-63457788D01*
X136907751Y-63268384D01*
X136907749Y-63268381D01*
X136907748Y-63268379D01*
X136782809Y-63096413D01*
X136632486Y-62946090D01*
X136460520Y-62821151D01*
X136271114Y-62724644D01*
X136271113Y-62724643D01*
X136271112Y-62724643D01*
X136068943Y-62658954D01*
X136068941Y-62658953D01*
X136068940Y-62658953D01*
X135907657Y-62633408D01*
X135858987Y-62625700D01*
X135646413Y-62625700D01*
X135597742Y-62633408D01*
X135436460Y-62658953D01*
X135234285Y-62724644D01*
X135044879Y-62821151D01*
X134872913Y-62946090D01*
X134722590Y-63096413D01*
X134597648Y-63268384D01*
X134597647Y-63268385D01*
X134577465Y-63307995D01*
X134529491Y-63358791D01*
X134466981Y-63375700D01*
X126928320Y-63375700D01*
X126861281Y-63356015D01*
X126840634Y-63339377D01*
X124999660Y-61498217D01*
X124966178Y-61436892D01*
X124971166Y-61367201D01*
X125013041Y-61311269D01*
X125078506Y-61286855D01*
X125106737Y-61288066D01*
X125120839Y-61290300D01*
X125120844Y-61290300D01*
X125319560Y-61290300D01*
X125319561Y-61290300D01*
X125515836Y-61259213D01*
X125704832Y-61197805D01*
X125881894Y-61107587D01*
X126042664Y-60990781D01*
X126183181Y-60850264D01*
X126299987Y-60689494D01*
X126379715Y-60533018D01*
X126427690Y-60482223D01*
X126495511Y-60465428D01*
X126561646Y-60487965D01*
X126600684Y-60533018D01*
X126680413Y-60689494D01*
X126797219Y-60850264D01*
X126937736Y-60990781D01*
X127098506Y-61107587D01*
X127185349Y-61151835D01*
X127275567Y-61197805D01*
X127275570Y-61197806D01*
X127370066Y-61228509D01*
X127464564Y-61259213D01*
X127660839Y-61290300D01*
X127660840Y-61290300D01*
X127859560Y-61290300D01*
X127859561Y-61290300D01*
X128055836Y-61259213D01*
X128244832Y-61197805D01*
X128421894Y-61107587D01*
X128582664Y-60990781D01*
X128723181Y-60850264D01*
X128839987Y-60689494D01*
X128930205Y-60512432D01*
X128991613Y-60323436D01*
X129022700Y-60127161D01*
X129022700Y-59928439D01*
X128991613Y-59732164D01*
X128930205Y-59543168D01*
X128930205Y-59543167D01*
X128839986Y-59366105D01*
X128723181Y-59205336D01*
X128582664Y-59064819D01*
X128421894Y-58948013D01*
X128244832Y-58857794D01*
X128244829Y-58857793D01*
X128055837Y-58796387D01*
X127957698Y-58780843D01*
X127859561Y-58765300D01*
X127660839Y-58765300D01*
X127595414Y-58775662D01*
X127464562Y-58796387D01*
X127275570Y-58857793D01*
X127275567Y-58857794D01*
X127098505Y-58948013D01*
X126937733Y-59064821D01*
X126797221Y-59205333D01*
X126680413Y-59366105D01*
X126600685Y-59522580D01*
X126552710Y-59573376D01*
X126484889Y-59590171D01*
X126418754Y-59567633D01*
X126379715Y-59522580D01*
X126299986Y-59366105D01*
X126183181Y-59205336D01*
X126042664Y-59064819D01*
X125881894Y-58948013D01*
X125704832Y-58857794D01*
X125704829Y-58857793D01*
X125515837Y-58796387D01*
X125417698Y-58780843D01*
X125319561Y-58765300D01*
X125120839Y-58765300D01*
X125055414Y-58775662D01*
X124924562Y-58796387D01*
X124735570Y-58857793D01*
X124735567Y-58857794D01*
X124558505Y-58948013D01*
X124397733Y-59064821D01*
X124257221Y-59205333D01*
X124140413Y-59366105D01*
X124060685Y-59522580D01*
X124012710Y-59573376D01*
X123944889Y-59590171D01*
X123878754Y-59567633D01*
X123839715Y-59522580D01*
X123759986Y-59366105D01*
X123643181Y-59205336D01*
X123502664Y-59064819D01*
X123341894Y-58948013D01*
X123164832Y-58857794D01*
X123164829Y-58857793D01*
X122975837Y-58796387D01*
X122877698Y-58780843D01*
X122779561Y-58765300D01*
X122580839Y-58765300D01*
X122515414Y-58775662D01*
X122384562Y-58796387D01*
X122195570Y-58857793D01*
X122195567Y-58857794D01*
X122018505Y-58948013D01*
X121857733Y-59064821D01*
X121717221Y-59205333D01*
X121600413Y-59366105D01*
X121520685Y-59522580D01*
X121472710Y-59573376D01*
X121404889Y-59590171D01*
X121338754Y-59567633D01*
X121299715Y-59522580D01*
X121219986Y-59366105D01*
X121103181Y-59205336D01*
X120962664Y-59064819D01*
X120801894Y-58948013D01*
X120624832Y-58857794D01*
X120624829Y-58857793D01*
X120435837Y-58796387D01*
X120337698Y-58780843D01*
X120239561Y-58765300D01*
X120040839Y-58765300D01*
X119975414Y-58775662D01*
X119844562Y-58796387D01*
X119655570Y-58857793D01*
X119655567Y-58857794D01*
X119478505Y-58948013D01*
X119317733Y-59064821D01*
X119177221Y-59205333D01*
X119060413Y-59366105D01*
X118980685Y-59522580D01*
X118932710Y-59573376D01*
X118864889Y-59590171D01*
X118798754Y-59567633D01*
X118759715Y-59522580D01*
X118679986Y-59366105D01*
X118563181Y-59205336D01*
X118422664Y-59064819D01*
X118261894Y-58948013D01*
X118084832Y-58857794D01*
X118084829Y-58857793D01*
X117895837Y-58796387D01*
X117797698Y-58780843D01*
X117699561Y-58765300D01*
X117500839Y-58765300D01*
X117435414Y-58775662D01*
X117304562Y-58796387D01*
X117115570Y-58857793D01*
X117115567Y-58857794D01*
X116938505Y-58948013D01*
X116777733Y-59064821D01*
X116637221Y-59205333D01*
X116520413Y-59366105D01*
X116440685Y-59522580D01*
X116392710Y-59573376D01*
X116324889Y-59590171D01*
X116258754Y-59567633D01*
X116219715Y-59522580D01*
X116139986Y-59366105D01*
X116023181Y-59205336D01*
X115882664Y-59064819D01*
X115721894Y-58948013D01*
X115544832Y-58857794D01*
X115544829Y-58857793D01*
X115355837Y-58796387D01*
X115257698Y-58780843D01*
X115159561Y-58765300D01*
X114960839Y-58765300D01*
X114895414Y-58775662D01*
X114764562Y-58796387D01*
X114575570Y-58857793D01*
X114575567Y-58857794D01*
X114398505Y-58948013D01*
X114237733Y-59064821D01*
X114097221Y-59205333D01*
X113980413Y-59366105D01*
X113900685Y-59522580D01*
X113852710Y-59573376D01*
X113784889Y-59590171D01*
X113718754Y-59567633D01*
X113679715Y-59522580D01*
X113599986Y-59366105D01*
X113483181Y-59205336D01*
X113342664Y-59064819D01*
X113181894Y-58948013D01*
X113004832Y-58857794D01*
X113004829Y-58857793D01*
X112815837Y-58796387D01*
X112717698Y-58780843D01*
X112619561Y-58765300D01*
X112420839Y-58765300D01*
X112355414Y-58775662D01*
X112224562Y-58796387D01*
X112035570Y-58857793D01*
X112035567Y-58857794D01*
X111858505Y-58948013D01*
X111697733Y-59064821D01*
X111557221Y-59205333D01*
X111440413Y-59366105D01*
X111350194Y-59543167D01*
X111350193Y-59543170D01*
X111288787Y-59732162D01*
X111257700Y-59928439D01*
X103075500Y-59928439D01*
X103075500Y-51560258D01*
X105649500Y-51560258D01*
X105649500Y-51789741D01*
X105674446Y-51979215D01*
X105679452Y-52017238D01*
X105679453Y-52017240D01*
X105738842Y-52238887D01*
X105826650Y-52450876D01*
X105826657Y-52450890D01*
X105941392Y-52649617D01*
X106081081Y-52831661D01*
X106081089Y-52831670D01*
X106243330Y-52993911D01*
X106243338Y-52993918D01*
X106425382Y-53133607D01*
X106425385Y-53133608D01*
X106425388Y-53133611D01*
X106624112Y-53248344D01*
X106624117Y-53248346D01*
X106624123Y-53248349D01*
X106715480Y-53286190D01*
X106836113Y-53336158D01*
X107057762Y-53395548D01*
X107285266Y-53425500D01*
X107285273Y-53425500D01*
X107514727Y-53425500D01*
X107514734Y-53425500D01*
X107742238Y-53395548D01*
X107963887Y-53336158D01*
X108175888Y-53248344D01*
X108374612Y-53133611D01*
X108556661Y-52993919D01*
X108556665Y-52993914D01*
X108556670Y-52993911D01*
X108718911Y-52831670D01*
X108718914Y-52831665D01*
X108718919Y-52831661D01*
X108858611Y-52649612D01*
X108973344Y-52450888D01*
X109061158Y-52238887D01*
X109120548Y-52017238D01*
X109141215Y-51860258D01*
X180899500Y-51860258D01*
X180899500Y-52089741D01*
X180919137Y-52238887D01*
X180929452Y-52317238D01*
X180929453Y-52317240D01*
X180988842Y-52538887D01*
X181076650Y-52750876D01*
X181076657Y-52750890D01*
X181191392Y-52949617D01*
X181331081Y-53131661D01*
X181331089Y-53131670D01*
X181493330Y-53293911D01*
X181493338Y-53293918D01*
X181675382Y-53433607D01*
X181675385Y-53433608D01*
X181675388Y-53433611D01*
X181874112Y-53548344D01*
X181874117Y-53548346D01*
X181874123Y-53548349D01*
X181965480Y-53586190D01*
X182086113Y-53636158D01*
X182307762Y-53695548D01*
X182535266Y-53725500D01*
X182535273Y-53725500D01*
X182764727Y-53725500D01*
X182764734Y-53725500D01*
X182992238Y-53695548D01*
X183213887Y-53636158D01*
X183425888Y-53548344D01*
X183624612Y-53433611D01*
X183806661Y-53293919D01*
X183806665Y-53293914D01*
X183806670Y-53293911D01*
X183968911Y-53131670D01*
X183968914Y-53131665D01*
X183968919Y-53131661D01*
X184108611Y-52949612D01*
X184223344Y-52750888D01*
X184311158Y-52538887D01*
X184370548Y-52317238D01*
X184400500Y-52089734D01*
X184400500Y-51860266D01*
X184370548Y-51632762D01*
X184311158Y-51411113D01*
X184223344Y-51199112D01*
X184108611Y-51000388D01*
X184108608Y-51000385D01*
X184108607Y-51000382D01*
X183968918Y-50818338D01*
X183968911Y-50818330D01*
X183806670Y-50656089D01*
X183806661Y-50656081D01*
X183624617Y-50516392D01*
X183425890Y-50401657D01*
X183425876Y-50401650D01*
X183213887Y-50313842D01*
X182992238Y-50254452D01*
X182954215Y-50249446D01*
X182764741Y-50224500D01*
X182764734Y-50224500D01*
X182535266Y-50224500D01*
X182535258Y-50224500D01*
X182318715Y-50253009D01*
X182307762Y-50254452D01*
X182214076Y-50279554D01*
X182086112Y-50313842D01*
X181874123Y-50401650D01*
X181874109Y-50401657D01*
X181675382Y-50516392D01*
X181493338Y-50656081D01*
X181331081Y-50818338D01*
X181191392Y-51000382D01*
X181076657Y-51199109D01*
X181076650Y-51199123D01*
X180988842Y-51411112D01*
X180929453Y-51632759D01*
X180929451Y-51632770D01*
X180899500Y-51860258D01*
X109141215Y-51860258D01*
X109150500Y-51789734D01*
X109150500Y-51560266D01*
X109120548Y-51332762D01*
X109061158Y-51111113D01*
X108973344Y-50899112D01*
X108858611Y-50700388D01*
X108858608Y-50700385D01*
X108858607Y-50700382D01*
X108718918Y-50518338D01*
X108718911Y-50518330D01*
X108556670Y-50356089D01*
X108556661Y-50356081D01*
X108374617Y-50216392D01*
X108175890Y-50101657D01*
X108175876Y-50101650D01*
X107963887Y-50013842D01*
X107742238Y-49954452D01*
X107704215Y-49949446D01*
X107514741Y-49924500D01*
X107514734Y-49924500D01*
X107285266Y-49924500D01*
X107285258Y-49924500D01*
X107068715Y-49953009D01*
X107057762Y-49954452D01*
X106964076Y-49979554D01*
X106836112Y-50013842D01*
X106624123Y-50101650D01*
X106624109Y-50101657D01*
X106425382Y-50216392D01*
X106243338Y-50356081D01*
X106081081Y-50518338D01*
X105941392Y-50700382D01*
X105826657Y-50899109D01*
X105826650Y-50899123D01*
X105738842Y-51111112D01*
X105679453Y-51332759D01*
X105679451Y-51332770D01*
X105649500Y-51560258D01*
X103075500Y-51560258D01*
X103075500Y-47874500D01*
X103095185Y-47807461D01*
X103147989Y-47761706D01*
X103199500Y-47750500D01*
X186950500Y-47750500D01*
X187017539Y-47770185D01*
G37*
%TD.AperFunction*%
%TD*%
M02*
