%TF.GenerationSoftware,KiCad,Pcbnew,10.0.3*%
%TF.CreationDate,2026-06-02T17:33:34-04:00*%
%TF.ProjectId,pommepad,706f6d6d-6570-4616-942e-6b696361645f,rev?*%
%TF.SameCoordinates,Original*%
%TF.FileFunction,Profile,NP*%
%FSLAX46Y46*%
G04 Gerber Fmt 4.6, Leading zero omitted, Abs format (unit mm)*
G04 Created by KiCad (PCBNEW 10.0.3) date 2026-06-02 17:33:34*
%MOMM*%
%LPD*%
G01*
G04 APERTURE LIST*
%TA.AperFunction,Profile*%
%ADD10C,0.050000*%
%TD*%
%TA.AperFunction,Profile*%
%ADD11C,0.100000*%
%TD*%
G04 APERTURE END LIST*
D10*
X102575000Y-47250000D02*
X187575000Y-47250000D01*
X187575000Y-127250000D01*
X102575000Y-127250000D01*
X102575000Y-47250000D01*
%TO.C,D10*%
D11*
X163519485Y-114465178D02*
G75*
G02*
X163470000Y-114248300I450515J216878D01*
G01*
X163519485Y-114465177D02*
G75*
G02*
X162816712Y-115113757I-450514J-216880D01*
G01*
X163470000Y-112842615D02*
G75*
G02*
X163519479Y-112625735I500000J15D01*
G01*
X162816712Y-111977160D02*
G75*
G02*
X163519484Y-112625738I252258J-431700D01*
G01*
X162816712Y-111977160D02*
G75*
G02*
X162564454Y-112045460I-252262J431710D01*
G01*
X162564453Y-115045458D02*
G75*
G02*
X162816712Y-115113757I-3J-500012D01*
G01*
X160975548Y-112045458D02*
G75*
G02*
X160723290Y-111977159I3J500009D01*
G01*
X160723291Y-115113757D02*
G75*
G02*
X160975549Y-115045458I252261J-431710D01*
G01*
X160723290Y-115113755D02*
G75*
G02*
X160020517Y-114465178I-252258J431700D01*
G01*
X160070002Y-114248301D02*
G75*
G02*
X160020517Y-114465178I-499990J-1D01*
G01*
X160020517Y-112625738D02*
G75*
G02*
X160723290Y-111977159I450515J216878D01*
G01*
X160020517Y-112625738D02*
G75*
G02*
X160070002Y-112842616I-450505J-216876D01*
G01*
X163470000Y-112842616D02*
X163470000Y-114248300D01*
X162564453Y-115045458D02*
X160975549Y-115045458D01*
X160975549Y-112045459D02*
X162564454Y-112045459D01*
X160070002Y-114248300D02*
X160070002Y-112842616D01*
%TO.C,D7*%
X121750200Y-95326284D02*
X121750200Y-93920600D01*
X122655747Y-93123442D02*
X124244651Y-93123442D01*
X124244651Y-96123441D02*
X122655746Y-96123441D01*
X125150198Y-93920600D02*
X125150198Y-95326284D01*
X121700715Y-93703722D02*
G75*
G02*
X121750200Y-93920600I-450515J-216878D01*
G01*
X121700715Y-93703723D02*
G75*
G02*
X122403488Y-93055143I450514J216880D01*
G01*
X121750200Y-95326285D02*
G75*
G02*
X121700721Y-95543165I-500000J-15D01*
G01*
X122403488Y-96191740D02*
G75*
G02*
X121700716Y-95543162I-252258J431700D01*
G01*
X122403488Y-96191740D02*
G75*
G02*
X122655746Y-96123440I252262J-431710D01*
G01*
X122655747Y-93123442D02*
G75*
G02*
X122403488Y-93055143I3J500012D01*
G01*
X124244652Y-96123442D02*
G75*
G02*
X124496910Y-96191741I-3J-500009D01*
G01*
X124496909Y-93055143D02*
G75*
G02*
X124244651Y-93123442I-252261J431710D01*
G01*
X124496910Y-93055145D02*
G75*
G02*
X125199683Y-93703722I252258J-431700D01*
G01*
X125150198Y-93920599D02*
G75*
G02*
X125199683Y-93703722I499990J1D01*
G01*
X125199683Y-95543162D02*
G75*
G02*
X124496910Y-96191741I-450515J-216878D01*
G01*
X125199683Y-95543162D02*
G75*
G02*
X125150198Y-95326284I450505J216876D01*
G01*
%TO.C,D11*%
X140780202Y-114270600D02*
X140780202Y-112864916D01*
X141685749Y-112067759D02*
X143274654Y-112067759D01*
X143274653Y-115067758D02*
X141685749Y-115067758D01*
X144180200Y-112864916D02*
X144180200Y-114270600D01*
X140730717Y-112648038D02*
G75*
G02*
X140780202Y-112864916I-450505J-216876D01*
G01*
X140730717Y-112648038D02*
G75*
G02*
X141433490Y-111999459I450515J216878D01*
G01*
X140780202Y-114270601D02*
G75*
G02*
X140730717Y-114487478I-499990J-1D01*
G01*
X141433490Y-115136055D02*
G75*
G02*
X140730717Y-114487478I-252258J431700D01*
G01*
X141433491Y-115136057D02*
G75*
G02*
X141685749Y-115067758I252261J-431710D01*
G01*
X141685748Y-112067758D02*
G75*
G02*
X141433490Y-111999459I3J500009D01*
G01*
X143274653Y-115067758D02*
G75*
G02*
X143526912Y-115136057I-3J-500012D01*
G01*
X143526912Y-111999460D02*
G75*
G02*
X143274654Y-112067760I-252262J431710D01*
G01*
X143526912Y-111999460D02*
G75*
G02*
X144229684Y-112648038I252258J-431700D01*
G01*
X144180200Y-112864915D02*
G75*
G02*
X144229679Y-112648035I500000J15D01*
G01*
X144229685Y-114487477D02*
G75*
G02*
X143526912Y-115136057I-450514J-216880D01*
G01*
X144229685Y-114487478D02*
G75*
G02*
X144180200Y-114270600I450515J216878D01*
G01*
%TO.C,D9*%
X160160200Y-95486284D02*
X160160200Y-94080600D01*
X161065747Y-93283442D02*
X162654651Y-93283442D01*
X162654651Y-96283441D02*
X161065746Y-96283441D01*
X163560198Y-94080600D02*
X163560198Y-95486284D01*
X160110715Y-93863722D02*
G75*
G02*
X160160200Y-94080600I-450515J-216878D01*
G01*
X160110715Y-93863723D02*
G75*
G02*
X160813488Y-93215143I450514J216880D01*
G01*
X160160200Y-95486285D02*
G75*
G02*
X160110721Y-95703165I-500000J-15D01*
G01*
X160813488Y-96351740D02*
G75*
G02*
X160110716Y-95703162I-252258J431700D01*
G01*
X160813488Y-96351740D02*
G75*
G02*
X161065746Y-96283440I252262J-431710D01*
G01*
X161065747Y-93283442D02*
G75*
G02*
X160813488Y-93215143I3J500012D01*
G01*
X162654652Y-96283442D02*
G75*
G02*
X162906910Y-96351741I-3J-500009D01*
G01*
X162906909Y-93215143D02*
G75*
G02*
X162654651Y-93283442I-252261J431710D01*
G01*
X162906910Y-93215145D02*
G75*
G02*
X163609683Y-93863722I252258J-431700D01*
G01*
X163560198Y-94080599D02*
G75*
G02*
X163609683Y-93863722I499990J1D01*
G01*
X163609683Y-95703162D02*
G75*
G02*
X162906910Y-96351741I-450515J-216878D01*
G01*
X163609683Y-95703162D02*
G75*
G02*
X163560198Y-95486284I450505J216876D01*
G01*
%TO.C,D12*%
X121760202Y-114370600D02*
X121760202Y-112964916D01*
X122665749Y-112167759D02*
X124254654Y-112167759D01*
X124254653Y-115167758D02*
X122665749Y-115167758D01*
X125160200Y-112964916D02*
X125160200Y-114370600D01*
X121710717Y-112748038D02*
G75*
G02*
X121760202Y-112964916I-450505J-216876D01*
G01*
X121710717Y-112748038D02*
G75*
G02*
X122413490Y-112099459I450515J216878D01*
G01*
X121760202Y-114370601D02*
G75*
G02*
X121710717Y-114587478I-499990J-1D01*
G01*
X122413490Y-115236055D02*
G75*
G02*
X121710717Y-114587478I-252258J431700D01*
G01*
X122413491Y-115236057D02*
G75*
G02*
X122665749Y-115167758I252261J-431710D01*
G01*
X122665748Y-112167758D02*
G75*
G02*
X122413490Y-112099459I3J500009D01*
G01*
X124254653Y-115167758D02*
G75*
G02*
X124506912Y-115236057I-3J-500012D01*
G01*
X124506912Y-112099460D02*
G75*
G02*
X124254654Y-112167760I-252262J431710D01*
G01*
X124506912Y-112099460D02*
G75*
G02*
X125209684Y-112748038I252258J-431700D01*
G01*
X125160200Y-112964915D02*
G75*
G02*
X125209679Y-112748035I500000J15D01*
G01*
X125209685Y-114587477D02*
G75*
G02*
X124506912Y-115236057I-450514J-216880D01*
G01*
X125209685Y-114587478D02*
G75*
G02*
X125160200Y-114370600I450515J216878D01*
G01*
%TO.C,D8*%
X140890200Y-95436284D02*
X140890200Y-94030600D01*
X141795747Y-93233442D02*
X143384651Y-93233442D01*
X143384651Y-96233441D02*
X141795746Y-96233441D01*
X144290198Y-94030600D02*
X144290198Y-95436284D01*
X140840715Y-93813722D02*
G75*
G02*
X140890200Y-94030600I-450515J-216878D01*
G01*
X140840715Y-93813723D02*
G75*
G02*
X141543488Y-93165143I450514J216880D01*
G01*
X140890200Y-95436285D02*
G75*
G02*
X140840721Y-95653165I-500000J-15D01*
G01*
X141543488Y-96301740D02*
G75*
G02*
X140840716Y-95653162I-252258J431700D01*
G01*
X141543488Y-96301740D02*
G75*
G02*
X141795746Y-96233440I252262J-431710D01*
G01*
X141795747Y-93233442D02*
G75*
G02*
X141543488Y-93165143I3J500012D01*
G01*
X143384652Y-96233442D02*
G75*
G02*
X143636910Y-96301741I-3J-500009D01*
G01*
X143636909Y-93165143D02*
G75*
G02*
X143384651Y-93233442I-252261J431710D01*
G01*
X143636910Y-93165145D02*
G75*
G02*
X144339683Y-93813722I252258J-431700D01*
G01*
X144290198Y-94030599D02*
G75*
G02*
X144339683Y-93813722I499990J1D01*
G01*
X144339683Y-95653162D02*
G75*
G02*
X143636910Y-96301741I-450515J-216878D01*
G01*
X144339683Y-95653162D02*
G75*
G02*
X144290198Y-95436284I450505J216876D01*
G01*
%TD*%
M02*
