M48
; DRILL file KiCad 10.0.3 date 2026-06-02T17:33:30
; FORMAT={-:-/ absolute / metric / decimal}
; #@! TF.CreationDate,2026-06-02T17:33:30-04:00
; #@! TF.GenerationSoftware,Kicad,Pcbnew,10.0.3
; #@! TF.FileFunction,NonPlated,1,2,NPTH
FMAT,2
METRIC
; #@! TA.AperFunction,NonPlated,NPTH,ComponentDrill
T1C1.700
; #@! TA.AperFunction,NonPlated,NPTH,ComponentDrill
T2C3.000
; #@! TA.AperFunction,NonPlated,NPTH,ComponentDrill
T3C4.000
%
G90
G05
T1
X118.503Y-90.236
X118.503Y-109.286
X128.663Y-90.236
X128.663Y-109.286
X137.553Y-90.236
X137.553Y-109.286
X147.713Y-90.236
X147.713Y-109.286
X156.603Y-90.236
X156.607Y-109.281
X166.763Y-90.236
X166.767Y-109.281
T2
X107.4Y-51.675
X107.5Y-122.75
X182.65Y-51.975
X183.3Y-122.925
T3
X123.583Y-90.236
X123.583Y-109.286
X142.633Y-90.236
X142.633Y-109.286
X161.683Y-90.236
X161.688Y-109.281
M30
