M48
; DRILL file KiCad 10.0.3 date 2026-06-02T17:33:30
; FORMAT={-:-/ absolute / metric / decimal}
; #@! TF.CreationDate,2026-06-02T17:33:30-04:00
; #@! TF.GenerationSoftware,Kicad,Pcbnew,10.0.3
; #@! TF.FileFunction,Plated,1,2,PTH
FMAT,2
METRIC
; #@! TA.AperFunction,Plated,PTH,ViaDrill
T1C0.300
; #@! TA.AperFunction,Plated,PTH,ComponentDrill
T2C0.800
; #@! TA.AperFunction,Plated,PTH,ComponentDrill
T3C0.889
; #@! TA.AperFunction,Plated,PTH,ComponentDrill
T4C1.000
; #@! TA.AperFunction,Plated,PTH,ComponentDrill
T5C1.500
%
G90
G05
T1
X116.618Y-71.668
X116.88Y-78.978
X117.868Y-94.168
X120.25Y-81.75
X120.316Y-93.28
X126.06Y-81.818
X132.13Y-116.368
X132.13Y-117.931
X134.37Y-101.028
X138.15Y-113.717
X138.15Y-114.917
X139.87Y-81.758
X153.9Y-115.625
X157.29Y-115.005
X157.38Y-113.435
X164.86Y-107.015
T2
X114.0Y-87.718
X114.0Y-95.338
X114.06Y-106.828
X114.06Y-114.448
X133.108Y-87.798
X133.108Y-95.418
X133.108Y-106.888
X133.108Y-114.508
X152.14Y-87.828
X152.14Y-95.448
X152.24Y-106.708
X152.24Y-114.328
T3
X112.52Y-60.028
X112.52Y-75.268
X115.06Y-60.028
X115.06Y-75.268
X117.6Y-60.028
X117.6Y-75.268
X120.14Y-60.028
X120.14Y-75.268
X122.68Y-60.028
X122.68Y-75.268
X125.22Y-60.028
X125.22Y-75.268
X127.76Y-60.028
X127.76Y-75.268
T4
X135.753Y-63.976
X135.753Y-66.516
X135.753Y-69.056
X135.753Y-71.596
T5
X119.773Y-87.696
X119.773Y-106.746
X126.123Y-85.156
X126.123Y-104.206
X138.823Y-87.696
X138.823Y-106.746
X145.173Y-85.156
X145.173Y-104.206
X157.873Y-87.696
X157.877Y-106.741
X164.223Y-85.156
X164.227Y-104.201
M30
