M48
; DRILL file KiCad 10.0.3 date 2026-06-07T20:55:30
; FORMAT={-:-/ absolute / metric / decimal}
; #@! TF.CreationDate,2026-06-07T20:55:30-04:00
; #@! TF.GenerationSoftware,Kicad,Pcbnew,10.0.3
; #@! TF.FileFunction,Plated,1,2,PTH
FMAT,2
METRIC
; #@! TA.AperFunction,Plated,PTH,ViaDrill
T1C0.300
; #@! TA.AperFunction,Plated,PTH,ComponentDrill
T2C0.800
; #@! TA.AperFunction,Plated,PTH,ComponentDrill
T3C0.889
; #@! TA.AperFunction,Plated,PTH,ComponentDrill
T4C1.000
; #@! TA.AperFunction,Plated,PTH,ComponentDrill
T5C1.500
%
G90
G05
T1
X60.324Y-67.802
X60.587Y-75.112
X61.574Y-90.302
X63.957Y-77.884
X64.023Y-89.414
X69.767Y-77.952
X75.837Y-112.502
X75.837Y-114.065
X78.077Y-97.162
X81.857Y-109.851
X81.857Y-111.051
X83.577Y-77.892
X97.607Y-111.759
X100.997Y-111.139
X101.087Y-109.569
X108.567Y-103.149
T2
X57.707Y-83.852
X57.707Y-91.472
X57.767Y-102.962
X57.767Y-110.582
X76.814Y-83.932
X76.814Y-91.552
X76.814Y-103.022
X76.814Y-110.642
X95.847Y-83.962
X95.847Y-91.582
X95.947Y-102.842
X95.947Y-110.462
T3
X56.22Y-56.26
X56.22Y-71.5
X58.76Y-56.26
X58.76Y-71.5
X61.3Y-56.26
X61.3Y-71.5
X63.84Y-56.26
X63.84Y-71.5
X66.38Y-56.26
X66.38Y-71.5
X68.92Y-56.26
X68.92Y-71.5
X71.46Y-56.26
X71.46Y-71.5
T4
X79.459Y-60.11
X79.459Y-62.65
X79.459Y-65.19
X79.459Y-67.73
T5
X63.479Y-83.83
X63.479Y-102.88
X69.829Y-81.29
X69.829Y-100.34
X82.529Y-83.83
X82.529Y-102.88
X88.879Y-81.29
X88.879Y-100.34
X101.579Y-83.83
X101.584Y-102.875
X107.929Y-81.29
X107.934Y-100.335
M30
